<svg height="256" viewBox="0 0 256 256" width="256" xmlns="http://www.w3.org/2000/svg"
    xmlns:xlink="http://www.w3.org/1999/xlink">
    <linearGradient id="a" gradientUnits="userSpaceOnUse" x1="128" x2="128" y1="256">
        <stop offset="0" stop-color="#00a4de" />
        <stop offset="1" stop-color="#0091c5" />
    </linearGradient>
    <linearGradient id="b" gradientUnits="userSpaceOnUse" x1="128" x2="128" y1="207.2393"
        y2="47.70435">
        <stop offset="0" stop-color="#fff87f" />
        <stop offset="1" stop-color="#fff998" />
    </linearGradient>
    <rect fill="url(#a)" height="256" rx="16" width="256" />
    <path
        d="m189.90561 168.8941a75.35545 75.35545 0 0 0 5.04957-10.09915c3.78717-10.09915 6.312-20.82949 6.312-31.55983s-1.89358-21.46068-6.312-30.92863c-8.20555-18.9359-23.35428-34.71581-42.29018-42.29017a78.31492 78.31492 0 0 0 -31.55983-6.312 90.00235 90.00235 0 0 0 -31.55983 5.68077 68.808 68.808 0 0 0 -25.24786 17.04234 68.808 68.808 0 0 0 -17.04231 25.24786c-3.78718 10.09915-6.312 20.82949-5.68077 31.55984a90.00231 90.00231 0 0 0 5.68077 31.55987 68.80787 68.80787 0 0 0 17.04231 25.24786c7.57436 6.94317 15.77992 13.25513 25.24786 17.04232a85.62208 85.62208 0 0 0 63.75085 0 95.01962 95.01962 0 0 0 13.88633-6.94317l47.33974 10.09915zm-37.87179 5.68076a68.98765 68.98765 0 0 1 -9.468 5.04957 61.462 61.462 0 0 1 -21.4607 3.78718 60.34144 60.34144 0 0 1 -27.77264-6.94316 48.66173 48.66173 0 0 1 -19.5671-19.5671 61.01257 61.01257 0 0 1 -7.57436-29.66624 59.11682 59.11682 0 0 1 4.41838-23.35428 49.45261 49.45261 0 0 1 29.035-29.035 61.46175 61.46175 0 0 1 21.46069-3.78718 60.3417 60.3417 0 0 1 27.77266 6.94316 48.66144 48.66144 0 0 1 19.56709 19.56709 54.267 54.267 0 0 1 6.94315 29.66625 59.117 59.117 0 0 1 -4.41838 23.35427 38.56308 38.56308 0 0 1 -4.41838 8.83675l15.14877 21.46065z"
        fill="url(#b)" />
</svg>