<svg viewBox="0 0 768 578.9" xmlns="http://www.w3.org/2000/svg">
    <!-- ©2023 COMICS/SRC by @nyuudo -->
    <path
        d="m180.9 443.1 25.9-16.2-27.6-36.1-81.2.2-88-125.7 75.2-223.9 536.3-32.1 135.8 167.4-108 213-395.6 1 19.9 46.6-26.6 14.1 32.2 92.3z"
        fill="#fff" />
    <path
        d="m617.5 18.5 129.2 159.3-102.9 202.9-403.6 1 21.9 51.5-26.1 13.9 21.4 61.4-62.2-63.7 24.8-15.5-36.3-47.5-81 .2-82.7-118.2 71.8-213.8zm8.1-18.5-9.2.6-525.7 31.5-12.1.7-3.9 11.5-71.8 213.8-2.9 8.6 5.2 7.4 82.7 118.2 5.4 7.7h9.4l72.1-.2 18.9 24.7-8 5-19 11.8 15.6 16 62.2 63.7 56.5 57.8-26.6-76.3-16.4-46.7 12.5-6.7 14.6-7.8-6.5-15.2-11.3-26.5 376.5-.9h11l5-9.8 102.9-202.9 5.3-10.4-7.4-9.1-129.2-159.3z"
        fill="#00a4de" />
</svg>