<svg viewBox="0 0 80 84" xmlns="http://www.w3.org/2000/svg">
    <!-- ©COMICS/SRC by @nyuudo -->
    <path
        d="m78.5 58.9c-3.5-7-7.2-13.8-10.8-20.7 1.3-3 2.8-7.4 1.6-9.3-1.5-2.4-5.2-7.3-7.1-7.5l1-17.5-12 3.7c-1.2-3.9-6.1-6.8-11.9-6.8-6.1 0-11.1 3.2-12.1 7.4l-12-4.2 2 22.9c-1.7 1.7-3.6 4.3-4.5 5.8-1.5 2.5 1.5 9.3 2.7 11.6-4.7 5.1-9 10.5-13.4 15.9-4.9 6.1 4.3 11.2 9.7 6.7 4.7-3.9 9.3-8.1 13.9-12.1 1.1 7.1 1.5 15.7 4.9 22.5.3.7 1.2 1 1.9 1.2.8.2 1.7-.7 2.3-.3 2 1.4 3 6.7 6.7 3.8 2-1.6 0-1.8.9-4.5.2-.7 1.2-.8 1.6-1.4.6-.7.9-1.5 1.4-2.3-.1 2.9-1 5.2.4 7.8 1.3 2.6 6.2 2.9 7-.3.4-1.5-.3-2.2.1-3.7.2-.9 1.5-1.2 1.6-2.1.5-6.6.1-13.2.2-19.9 5.2 2.7 12.3 6.9 18.4 8.7 4.3 1.1 7.6-1.2 5.5-5.4zm-60.8-27.3v.5c-1.2 1.2-2.2 2.3-2.2 2.3s1-1.3 2.2-2.8zm3.3 13.3c-.9-1.3-1-1.5-1.7-2.6.2-.2.4-.5.6-.9l2.8 1.3c-.6.6-1.1 1.6-1.7 2.2zm45.7-14.1s-2.5-2.8-4.7-4.6l.1-2c1.4 2.7 4.6 6.6 4.6 6.6zm-2.6 2.5c-.6-.6-1.5-1.3-2.5-2l.1-1.1c.9 1.2 1.9 2.4 2.4 3.1zm-5.4 11.1 2.3-.8.4-7.1c1.1 1.6 2.1 3.1 2.1 3.1l.8.4c-1.4 1.3-2.4 3-1 4.8.6.7 1.6 1 2.1 1.8.7 1.2.9 2.6 1.3 4-2.8-1.9-5.2-4.7-8-6.2z"
        fill="#fff" />
    <path
        d="m42.5 22.2c0-2.1.9-3.9 2-3.9s2 1.7 2 3.9c0 2.1-.9 3.9-2 3.9s-2-1.8-2-3.9zm1.2 17.5c-1.9.8-4 1.4-6.1 1-1.1-.2-2.2-.6-3.2-1.2-.1 0-.1-.1-.2-.1s-.1 0-.2.1-.1.3 0 .4c.9.8 2 1.5 3.1 2 .4.2.8.3 1.3.3h.3l.1 1.1c0 .2.1.3.3.3s.3-.1.3-.3l-.1-1.2c.4-.1.9-.2 1.3-.3 1.2-.3 2.4-.8 3.6-1.3.2-.1.3-.4.2-.7-.2-.1-.5-.2-.7-.1zm-11.5-13.8c1.1 0 2-1.7 2-3.9 0-2.1-.9-3.9-2-3.9s-2 1.7-2 3.9c0 2.1.9 3.9 2 3.9zm14.9 6.4c-.1 0-.2.1-.3.2-.4.5-.9.8-1.5 1.2-1.3.8-2.7 1.4-4.2 1.7-.9.1-1.8.1-2.7.1-.7 0-1.4-.1-2.1-.2-1.8-.3-3.7-1.1-5.1-2.4-.1-.1-.3-.1-.4 0s-.2.3-.1.4c.6.7 1.2 1.2 2 1.7 1.6 1.1 3.6 1.9 5.6 2h.2v.3c0 .2.1.3.3.3s.3-.1.3-.3v-.3c.6 0 1.3-.2 1.9-.3 1.8-.4 3.5-1.1 5-2.1.6-.4 1.1-.9 1.6-1.4.2-.3.1-.6-.1-.8-.1-.1-.3-.1-.4-.1zm-8.8-5.8c-.2 0-.3.1-.3.3l.1 1.5c0 .2.1.3.3.3.1 0 .3-.1.3-.3l-.1-1.5c0-.2-.2-.3-.3-.3zm-.2-3c-.2 0-.3.1-.3.3l.1 1.5c0 .2.1.3.3.3s.3-.1.3-.3l-.1-1.5c0-.2-.2-.3-.3-.3zm.2 9.3.1 1.5c0 .2.1.3.3.3.1 0 .3-.1.3-.3l-.1-1.5c0-.2-.1-.3-.3-.3s-.3.1-.3.3zm-.6-12 .1 1.5c0 .2.1.3.3.3s.3-.1.3-.3l-.1-1.5c0-.2-.1-.3-.3-.3s-.3.1-.3.3zm.7 8.7c-.2 0-.3.1-.3.3l.1 1.5c0 .2.1.3.3.3s.3-.1.3-.3l-.1-1.5c0-.2-.1-.3-.3-.3zm.7 15.1c-.2 0-.3.1-.3.3l.1 1.5c0 .2.1.3.3.3.2-.1.3-.2.3-.3l-.1-1.5c0-.2-.1-.3-.3-.3zm-.2-4c.2 0 .4-.1.3-.3l-.1-1.5c0-.2-.2-.3-.3-.3-.2 0-.3.1-.3.3l.1 1.5c0 .2.1.3.3.3zm-1.1-23.1c-.2 0-.3.1-.3.3l.1 1.5c0 .2.1.3.3.3s.3-.1.3-.3l-.1-1.5c0-.2-.2-.3-.3-.3zm0-.9c.2 0 .3-.1.3-.3l-.1-1.5c0-.2-.2-.3-.3-.3-.2 0-.3.1-.3.3l.1 1.5c0 .2.1.3.3.3zm41.2 47.4c-.6.8-1.6 1.2-2.5 1.3-.8.1-1.6 0-2.3-.1-1-.2-1.9-.6-2.8-1-2.8-1.2-5.6-2.6-8.3-4-2.7-1.3-5.4-2.8-8.1-4.2 0 1.5.1 3 .1 4.5.1 1.1.1 2.1.1 3.2 0 .6-.1 1.3-.1 1.9-.1 1.2-.1 2.4-.1 3.6 0 1.1.1 2.1.2 3.2 0 .3-.1.5-.4.5s-.5-.2-.5-.4c-.3-1.6-.4-3.3-.4-5-.1-.7-.1-1.5-.1-2.3v-1.4c0-1 .1-1.9.2-2.8.1-1.7.3-3.5.5-5.2-.4-.3-.9-.5-1.4-.8-.1 0-.1-.2 0-.3s.2-.2.3-.1c3.3 1.6 6.7 3.2 10 4.8 2.5 1.1 5 2.3 7.5 3.3.6.2 1.3.5 1.9.7s1.3.5 1.9.6c.4.1.8.1 1.2.1.7-.1 1.6-.2 2.1-.8.5-.5.6-1.3.5-2-.1-.9-.4-1.8-.7-2.6-.3-.7-.6-1.4-.9-2.1-1.2-2.5-2.4-4.9-3.7-7.3-1.8-3.4-3.6-6.7-5.4-10-.3.6-.6 1.2-.9 1.8-.1.2-.4.3-.6.2s-.3-.4-.2-.6c.6-1.1 1.1-2.3 1.6-3.5.5-1.3 1-2.6 1.3-3.9.2-.8.4-1.5.4-2.3.1-.5.1-1-.1-1.5s-.5-1-.8-1.4c-.7-.9-1.3-1.8-2-2.6-.9-1-1.8-2.1-2.9-3-.3-.2-.6-.4-.9-.5-.2-.1-.4-.2-.5-.1-.2 0-.1.4-.1.5.1.7.5 1.3.8 1.9.9 1.7 2 3.2 3.2 4.7.3.3.6.7.9 1.1 0 .1.1.2.3.6v.1c.1.1.1.1.1.1-.2.3-.2.7-.5.9-.1.1-.3-.1-.5-.2-.1 0 0 0-.1-.1s-.1-.1-.1-.1c-.2-.2-.3-.3-.4-.4-1.1-1.1-2.2-2.2-3.3-3.2-.6-.5-1.2-1-1.8-1.5-.2-.1-.4-.3-.6-.4-.1 0-.1-.1-.2-.1 0 .2 0 .4.1.5.3.7.6 1.3 1 1.9.8 1.4 1.8 2.6 2.7 3.9.3.5.6 1 1 1.4 0 0 0 .1.1.1s.1.1.2.2c0 .1 0 .1.1.2s.2.1.2.2 0 .3-.1.4l-.2.1h-.3c-.3-.1-.4-.3-.6-.5-.1-.1-.2-.3-.3-.4l-.5-.5c-.9-.8-1.8-1.5-2.8-2.1-.5-.3-1-.6-1.5-.8-.1 0-.2-.1-.3-.1h-.1c-.1.1-.2.2-.2.3-.1.3.1.6.2.9.3.6.7 1.2 1 1.8 1.3 2.2 2.7 4.3 4.1 6.4.1.1 0 .1 0 .2.1 0 .2 0 .3.1.2.1.2.4.1.6-.7 1-1.2 2.5-.8 3.7.1.5.5.9 1 1.1.1.1.2.1.3.1h.2c.1.1.3.1.4.2 0 0 .1.1.1.2.1.4.3.8.4 1.1.3.6.5 1.1.7 1.7.3.9.6 1.9.9 2.8.6 1.8 1.1 3.7 1.7 5.6 0 .1-.1.3-.2.3-.1.1-.3 0-.3-.1-.7-1.7-1.4-3.4-2.1-5.1-.4-1-.7-1.9-1.1-2.8-.2-.6-.4-1.2-.6-1.8 0-.2-.1-.2-.1-.4s-.1-.3-.1-.4-.1-.3-.1-.4c-.2 0-.3 0-.5-.1-.7-.3-1.2-.8-1.5-1.5-.6-1.5 0-3.5 1-4.7 0 0 .1-.1.1-.1-.1 0-.1 0-.2-.1-.4-.5-.7-1-1.1-1.5v.7c-.1 1.1-.1 2.3-.2 3.4 0 .7.1 1.5-.5 2-.2.2-.6.3-.9.4-.6.1-1.1.3-1.7.5-2 .7-4 1.3-6 2-3.1 1-6.3 2.1-9.4 3.1-.8.3-1.6.5-2.4.8-.1 0-.2.1-.3.1-.5.1-1 .4-1.5.3-.4 0-.9-.3-1.3-.5-.9-.4-1.7-.8-2.6-1.2-2.7-1.3-5.5-2.6-8.2-3.9-2.1-1-4.3-2.1-6.5-3.1-.3-.2-.5-.3-.8-.4-.2.3-.5.7-.7 1 0 .1-.2.1-.3.1s-.2-.2-.1-.3c.2-.3.4-.7.7-1-.1 0-.1-.1-.2-.1.3-.5.7-1.1 1.1-1.7.1 0 .1.1.2.1.8-1.2 1.6-2.4 2.3-3.7.3-.6.6-1.2.9-1.8.1-.2.3-.6.2-.9-.1-.1-.1-.2-.2-.3h-.1c-.1 0-.2.1-.3.1-.4.1-.8.3-1.1.5-1.1.6-2 1.3-2.9 2.1l-.5.5-.1.1-.2.2c-.3.4-.7 1.1-1.3.7l-.1-.1c0-.1-.1-.3 0-.4 0-.1.1-.1.1-.2s.1-.1.1-.2c.1-.1.2-.3.3-.4.3-.4.6-.8.9-1.2.9-1.2 1.8-2.5 2.6-3.8.3-.7.7-1.3 1-2 .1-.1.2-.3.2-.5v-.1h-.1c-.2.1-.4.2-.6.3-.7.4-1.2.9-1.8 1.4-1.2 1-2.2 2.1-3.3 3.2-.1 0-.1.1-.2.2s-.2.2-.3.3-.1.1-.1.1c-.2.1-.4.3-.6.2-.3-.2-.4-.6-.5-.9 0 0 .1 0 .1-.1s.1-.1.1-.2c.3-.3.6-.7.9-1.1 1.1-1.4 2.1-2.9 3-4.4.4-.6.7-1.2.9-1.9.1-.2.2-.6 0-.7-.1-.1-.2 0-.3 0-.3.1-.5.3-.8.5-1.1.8-2 1.8-2.9 2.9-.7.8-1.4 1.7-2 2.6-.3.5-.7 1-.9 1.6-.4 1.1-.1 2.4.1 3.5.4 1.4.9 2.8 1.4 4.2.5 1.2 1 2.4 1.6 3.5.1.3 0 .5-.2.6s-.5 0-.6-.2c-.1-.1-.1-.2-.2-.3-3.4 4.1-6.8 8.2-10.1 12.3-.4.6-.9 1.2-1.4 1.8-.5.7-1.1 1.4-1.5 2.2-.5.9-.8 1.9-.7 2.9.2 1.1.8 2 1.7 2.7 1.4 1.1 3.1 2 4.9 1.7.4 0 .8-.2 1.2-.3 1.1-.5 2.1-1.2 3-2s1.9-1.6 2.8-2.4c3.4-3 6.7-6 10.1-9 .1-.1.3-.1.4-.1 0-.9-.1-1.9-.1-2.9-.1-.1.1-.2.2-.2.2 0 .3.1.3.2.3 2.1.6 4.1.9 6.2.2 1.2.4 2.4.5 3.6.1.7.1 1.3.2 2 .1 1.6.3 3.2.6 4.8.2 1.1.4 2.3.8 3.5.1.2-.1.4-.3.5-.3 0-.5-.1-.6-.3-.4-.8-.6-1.7-.8-2.6-.2-1.2-.5-2.5-.7-3.8-.2-.7-.3-1.5-.4-2.2-.1-.8-.2-1.5-.3-2.3-.1-1.1-.1-2.2-.2-3.3-.1-.8-.1-1.5-.1-2.2-3.4 3.1-6.8 6.2-10.2 9.2l-2.4 2.1c-1.2 1-2.4 1.9-3.9 2.4-2.3.7-4.6 0-6.5-1.4-1.4-1-2.5-2.4-2.5-4.2 0-2.7 2.1-5 4.2-6.8 3.6-4.2 7.3-8.4 11-12.5 0-.1.1-.1.1-.1-.5-.9-.9-1.9-1.3-2.8-.6-1.3-1.1-2.6-1.4-4-.3-1.3-.6-2.9-.2-4.2.2-.6.6-1.1.9-1.6.6-.9 1.3-1.8 2-2.7.3-.5.7-.9 1.1-1.3-.1-1.8-.3-3.6-.5-5.5-.4-4.3-.8-8.6-1.2-12.9-.1-1.2-.2-2.3-.3-3.5 0-.3-.1-.6-.1-.9v-.3c-.1-.2-.1-.5 0-.7.1-.4.5-.7.9-.7.1 0 .3.1.4.1.7.2.6.2.7.2.2 0 .5.1.7.2 1.1.4 2.3.8 3.5 1.2 2.1.7 4.3 1.5 6.4 2.2.1-.3.2-.6.4-.9.3-.6.7-1.2 1.2-1.7 2.7-3.1 7.1-4.1 11.1-4 .6 0 3.9.3 5 .6 2.9.9 5.4 2.6 6.8 5.4 2-.6 3.9-1.2 5.9-1.8.5-.2 1.1-.3 1.6-.5.4-.2.8-.3 1.2-.4.3 0 .5-.1.8-.2.1 0 .3-.1.4-.1s.3-.1.4-.1c.7-.2 1.7-.7 2.3.1.1.2.2.3.2.5.1.3 0 .6 0 .8v.6s0 .4 0 .6c-.1.3-.1.6-.1.9-.2 2.9-.3 5.8-.5 8.7-.1 1.9-.3 3.9-.4 5.8.1.1.2.1.3.2.5.3 1 .8 1.5 1.2.8.7 1.4 1.5 2.1 2.3s1.4 1.8 2 2.7c.4.6.8 1.1 1 1.8.4 1.2.2 2.7-.1 3.9-.3 1.5-.8 2.9-1.4 4.3-.2.2-.3.5-.4.8.1.1.2.1.2.2 1.8 3.3 3.6 6.5 5.4 9.8 1.4 2.7 2.9 5.4 4.2 8.1.7 1.4 1.4 2.9 1.7 4.5.1 1 .1 2.2-.7 3zm-51.1-56.8c1.7.6 3.5 1.2 5.2 1.8 1 .4 2.1.7 3.1 1.1.3.2.7.3 1 .4.2 0 .3 0 .4.1v.1l.1-.1c.1 0 .3-.1.4-.1.4-.2.8-.3 1.2-.4 1.5-.4 2.9-.9 4.4-1.3 2.2-.7 4.4-1.3 6.6-2-.2-.4-.5-.8-.8-1.2-1.7-2.3-4.5-3.4-7.3-3.7-1.1-.1-2.3-.1-3.5-.1-3.3.1-7 .8-9.4 3.4-.5.5-.9 1.1-1.3 1.7-.1.1-.1.2-.1.3zm34.2-1.9c-.9.3-1.7.5-2.6.8-2.5.8-14.6 4.5-17.7 5.4-.9.3-1.9.6-2.8.9-.3 0-.5.1-.8.2-.1 0-.2.1-.3.1v.6c0 .1-.1.3-.3.3s-.3-.1-.3-.3v-.5c-.2 0-.3-.1-.5-.2-.2 0-.5-.1-.7-.2-.9-.3-1.9-.7-2.8-1-2.1-.8-13.5-4.7-15.7-5.5-.4-.1-.9-.2-1.3-.4.1.2.1.5.1.7.1 1.3.3 2.7.5 4.1.5 5.2.9 10.2 1.4 15.4.2-.2.4-.3.6-.5.5-.3 1-.6 1.6-.5.1 0 .3.1.5.2.8.5.6 1.5.4 2.2-.3.8-.7 1.6-1.1 2.3.3-.2.5-.4.8-.6.7-.5 1.9-1.2 2.7-.4.6.7 0 1.8-.3 2.5-.4.8-.8 1.5-1.3 2.2-.3.4-.7.8-1 1.3l.1-.1c.1-.1.2-.1.3-.2.2-.1.3-.2.5-.3.1-.1.2-.1.3-.2.6-.2 1.6-.8 2.1-.2.6.7.3 1.5-.1 2.2-.2.3-.3.6-.5.9-.5.9-1.2 1.9-1.8 2.8-.3.5-.7 1.1-1 1.6 1.1.6 2.3 1 3.4 1.6l10.8 5.1c.9.5 1.9.9 2.9 1.4.3.2.6.3.9.5 0 0 0 0 0-.1l-.1-1.5c0-.2.1-.3.3-.3s.3.1.3.3l.1 1.5s0 .1-.1.2c.5-.1 1-.3 1.5-.5 1.6-.6 3.3-1.1 5-1.7 3.1-1 6.3-2.1 9.4-3.1 1.5-.4 2.9-.9 4.4-1.4.1-.4.1-.8.1-1.2.1-2.1.3-4.1.4-6.1-.4-.7-.8-1.3-1.3-1.9-.2-.2-.4-.5-.5-.7s-.2-.3-.3-.5c-.4-.7-1-1.6-.6-2.4.1-.2.3-.4.5-.5.6-.3 1.5.2 2 .5.4.2.8.4 1.2.7-.3-.5-.7-.9-1-1.4-.5-.7-1-1.4-1.4-2.2-.3-.7-.9-1.8-.3-2.5.6-.6 1.5-.3 2.2 0 0-.5.1-1.1.1-1.6-.2-.6-.2-1.2.1-1.7.2-2.5.3-5 .4-7.5.1-2.2.3-4.3.4-6.5.1-.7.2-1.4.2-2.1zm-42.1 43.8c-.1.1-.3.1-.4.1-.2 0-.3 0-.4.1-.1 0-.2.1-.2.2-.5.9-1 1.8-1.6 2.7-.5.8-1 1.5-1.4 2.3-.6 1.1-1.3 2.3-1.9 3.5-1.1 2.1-2.3 4.2-3.4 6.3-.1.1 0 .2.1.3s.2 0 .3-.1c1.3-2 2.6-4.1 3.9-6.1.8-1.2 1.6-2.4 2.3-3.6.6-1.2 1.2-2.3 1.9-3.5.2-.3.3-.6.5-.9 0 0 .1-.1.1-.2.2-.1.3-.1.5-.2.5-.2 1-.6 1.3-1.1.9-1.5.3-3.8-.8-5.1-.1-.1-.2-.2-.3-.2s-.2 0-.3.1c-.2.2-.2.4-.1.6.8 1 1.3 2.8.7 4-.2.4-.6.7-.8.8z"
        fill="#003041" />
</svg>