<svg viewBox="0 0 356 542" xmlns="http://www.w3.org/2000/svg">
    <!-- ©COMICS/SRC by @nyuudo -->
    <path
        d="m140.9 538c-.2 0-.4-.1-.7-.3-2-2-3.8-5.1-5.3-7.7-2.8-4.8-5.3-10.6-7.6-17.3-.4-1.2-.7-2.4-1.2-3.9-.4-1.5-1.2-4.3-1.5-4.7-.1-.1-.5-.4-1.4-.4-.4 0-1 .1-1.5.1-.4.1-1 .1-1.4.1-.1 0-.2 0-.3 0-12.6-1-27.6-2.6-42.7-7.1-18-5.3-38.4-13.7-53-45.1-15.7-33.5-18.9-89.7-20-140-.7-36.2-.1-131.2 1.8-162.1 2.1-32.6 6.8-78.5 23.1-103.9 14.1-21.9 31.3-28.5 46.2-33 25.6-7.4 52.1-8.1 75.7-8.4 10.9-.2 22.4-.3 33.8-.3 21.9 0 39.8.6 56.5 2.2 21.3 1.9 41.8 4.7 61.6 17.5 16.4 10.5 27.8 27 35.1 50.4 1.8 5.7 3.3 12.3 4.8 19.2 8 41 9.2 149.3 9.2 194.5 0 21.2-.4 40.2-1.3 58.6-1.3 26.3-3.4 56.5-9.5 81.5-6.1 25.4-16.8 44.1-31.8 55-19.1 14.4-39.4 17.6-60.2 20-22.3 2.4-44.7 2.8-61.5 2.8-9.2 0-18.4-.1-27.4-.2h-2.8c-4 0-8-.1-11.9-.2-.4 0-1.1 1.1-1.2 1.6-.3 6-.7 11.9-1.2 17.3l-.1 1.2c-.2 2.9-.5 6.4-1 9.7-.2 1.2-.5 2.2-1 2.7-0 .1-.2.2-.3.2z"
        fill="#fff" />
    <path
        d="m140.9 542c-1.3 0-2.3-.5-3-1-.2-.1-.4-.3-.6-.5-2.4-2.4-4.4-5.8-6-8.5-2.9-5-5.6-11.1-7.9-18-.4-1-.6-2-.9-3.1l-.5-1.8c-.1-.3-.2-.8-.4-1.3-.5.1-1 .1-1.3.1h-.3c-.1 0-.2 0-.3 0-12.8-1-28.1-2.6-43.5-7.3-20.2-6-40.9-15.9-55.5-47.3-16.1-34.1-19.3-90.7-20.4-141.5-.7-35.8-.1-131.4 1.8-162.5 2.2-32.9 7-79.6 23.8-105.8 14.8-23 32.8-30 48.4-34.7 27.1-7.9 55.8-8.3 76.8-8.6 10.7-.1 22.3-.2 33.8-.2 23.1 0 40.6.7 56.8 2.3 21.7 2 42.8 4.8 63.4 18.1 17.1 11 29.2 28.2 36.7 52.6 1.9 5.9 3.4 12.6 4.9 19.5 8.8 45.2 9.3 170.6 9.3 195.3 0 20.9-.4 40.2-1.3 58.8-1.3 26.4-3.4 56.9-9.6 82.3-6.3 26.5-17.5 45.8-33.3 57.3-19.6 14.7-40.5 18.2-62.1 20.7-22.6 2.5-44.9 2.8-62 2.8-9.4 0-19-.1-27.4-.2h-2.7c-3 0-6.1-.1-9.2-.1-.3 4.6-.6 9.6-1.1 15.2l-.1 1.2c-.2 2.4-.5 6.1-1 9.8v.2c-.4 2.1-1 3.5-1.8 4.5-1.1 1.4-2.6 1.7-3.5 1.7zm-17.8-42.3c1.7 0 3.2.6 4.2 1.6l.4.4c.6.8 1 1.8 1.9 5.3l.5 1.9c.3 1 .5 1.8.8 2.5v.1c2.2 6.4 4.6 12 7.3 16.6.3.4.5.9.8 1.4.2-1.7.3-3.3.4-4.6l.1-1.2c.5-6.4.9-12.1 1.2-17.2 0-.2 0-.4.1-.6.4-1.9 2.1-4.9 5.2-4.8 4 .1 8 .2 11.8.2h2.8c8.5.1 18 .2 27.4.2 16.8 0 38.9-.3 61.1-2.7 21.2-2.5 40.2-5.7 58.2-19.2 14.2-10.4 24.4-28.1 30.3-52.7 6-24.8 8.1-54.8 9.4-80.8.9-18.5 1.3-37.6 1.3-58.4 0-24.6-.4-149.4-9.1-193.7-1.5-6.6-2.9-13.1-4.7-18.7-7-22.5-17.9-38.3-33.4-48.3-19-12.3-39.1-15-59.8-16.8-16-1.5-33.4-2.2-56.1-2.2-11.5 0-23.1.1-33.7.3-20.6.3-48.6.7-74.7 8.2-14.5 4.1-30.9 10.4-44.1 31.2-15.8 24.6-20.5 69.9-22.6 102-1.9 31.1-2.5 126.3-1.8 162 1.1 50.1 4.2 105.6 19.5 138.4 14 29.9 33.5 37.9 50.6 43 14.8 4.4 29.4 6 41.7 7h.2.5c.4-.1.9-.1 1.3-.1.3-.3.7-.3 1-.3z"
        fill="#00a4de" />
</svg>