<svg viewBox="0 0 230 48" xmlns="http://www.w3.org/2000/svg">
    <!-- ©COMICS/SRC by @nyuudo -->
    <path
        d="m227.3 26.2c-1.6-.2-4.7-.9-7.7-2.1v-.1c0-13.2-10.7-24-23.9-24h-171.8c-13.2 0-23.9 10.7-23.9 24s10.7 24 23.9 24h171.9c8 0 15-4 19.4-10h.1c10.5 0 13.7-8.6 13.9-8.9l.9-2.5z"
        fill="#003041" />
    <path
        d="m223.2 29.6c-.8.2-6.6-.9-9.8-2.8.3-1.3.5-2.6.5-4 0-10.2-8.3-18.5-18.4-18.5h-171.9c-10.1 0-18.4 8.3-18.4 18.5s8.3 18.5 18.4 18.5h171.9c6.7 0 12.5-3.6 15.8-8.9 4.9.7 9.2-.2 11.9-2.8z"
        fill="#fff" />
</svg>