<svg enable-background="new 0 0 335 480" viewBox="0 0 335 480" xmlns="http://www.w3.org/2000/svg">
    <!-- ©COMICS/SRC by @nyuudo -->
    <path
        d="m132.7 477.5c-.2 0-.4-.1-.7-.3-1.9-1.9-3.6-4.8-5-7.2-2.6-4.5-5-10-7.1-16.3-.4-1.1-.7-2.3-1.1-3.7s-1.1-4-1.4-4.4c-.1-.1-.5-.4-1.3-.4-.4 0-.9.1-1.4.1-.4.1-.9.1-1.3.1-.1 0-.2 0-.3 0-11.8-.9-25.8-2.4-40-6.7-16.8-5-36-12.9-49.7-42.4-14.6-31.5-17.6-84.3-18.6-131.7-.7-34-.1-96.1 1.7-125.2 2-30.6 6.4-73.8 21.7-97.7 13.2-20.6 29.3-26.8 43.3-31 23.9-7 48.8-7.6 70.9-7.9 10.1-.2 20.9-.3 31.6-.3 20.5 0 37.3.6 52.9 2.1 19.9 1.8 39.2 4.4 57.7 16.4 15.3 9.9 26 25.4 32.8 47.4 1.7 5.4 3.1 11.6 4.5 18 7.5 38.5 8.6 113.1 8.6 155.6 0 19.9-.4 37.8-1.2 55.1-1.2 24.7-3.2 53.1-8.9 76.7-5.7 23.9-15.7 41.4-29.7 51.7-17.9 13.5-36.9 16.5-56.4 18.8-20.9 2.3-41.9 2.6-57.6 2.6-8.6 0-17.2-.1-25.6-.2h-2.6c-3.7 0-7.5-.1-11.1-.2-.4 0-1 1-1.1 1.5-.3 5.6-.7 11.2-1.1 16.3l-.1 1.1c-.2 2.7-.5 6-.9 9.1-.2 1.1-.5 2.1-.9 2.5-.3.4-.5.5-.6.5z"
        fill="#fff" />
    <path
        d="m132.7 480c-.9 0-1.6-.4-2.1-.7l-.4-.3c-2.2-2.2-3.9-5.2-5.4-7.7-2.7-4.7-5.2-10.3-7.3-16.8-.3-.8-.6-1.8-.8-2.8l-.5-1.7c-.2-.6-.4-1.5-.6-2.2-.2 0-.4 0-.6 0-.6.1-1.2.1-1.6.1h-.5c-12-.9-26.1-2.4-40.5-6.8-8.6-2.6-17.8-5.8-26.8-12.4-10.1-7.4-18.1-17.6-24.5-31.4-14.8-31.9-17.8-85-18.8-132.7-.7-34-.1-96.1 1.7-125.4 2-30.8 6.5-74.5 22.1-98.9 13.6-21.3 30.2-27.7 44.7-32 25.2-7.4 52-7.7 71.6-8 9.9-.2 20.8-.3 31.6-.3 21.6 0 38 .7 53.1 2.1 20.2 1.8 39.9 4.5 58.9 16.8 15.8 10.2 26.8 26.2 33.8 48.8 1.7 5.5 3.1 11.7 4.6 18.2 7.1 36.7 8.6 105.1 8.6 156.1 0 19.6-.4 37.7-1.2 55.2-1.2 24.8-3.2 53.3-9 77.2-5.9 24.6-16.2 42.5-30.6 53.1-18.1 13.7-37.6 16.9-57.6 19.3-21.1 2.3-42 2.6-57.9 2.6-8.7 0-17.7-.1-25.6-.2h-2.6c-3.2 0-6.5-.1-9.8-.2-.3 4.6-.6 9.7-1.1 15.5l-.1 1.1c-.2 2.3-.5 5.7-.9 9.2v.1c-.3 1.8-.8 2.9-1.5 3.7-.6.9-1.5 1.4-2.4 1.4zm-16.6-37.3c1.8 0 2.7.8 3.1 1.1l.2.3c.5.6.8 1.5 1.6 4.5l.5 1.8c.3.9.5 1.7.7 2.5 2.1 6.2 4.4 11.5 6.9 15.9.8 1.4 1.7 2.9 2.7 4.3.4-3 .6-5.9.8-7.9l.1-1.1c.5-6.1.8-11.4 1.1-16.2v-.4c.2-1.1 1.4-3.5 3.6-3.5 3.8.1 7.5.2 11.1.2h2.6c7.9.1 16.9.2 25.6.2 15.8 0 36.5-.3 57.3-2.6 20-2.4 38-5.4 55.2-18.3 13.5-9.9 23.2-26.9 28.8-50.3 5.7-23.4 7.6-51.7 8.8-76.2.8-17.4 1.2-35.4 1.2-55 0-41.5-1.1-116.9-8.6-155.1-1.4-6.3-2.8-12.4-4.4-17.7-6.6-21.4-17-36.5-31.8-46.1-18-11.7-37-14.2-56.6-16-15-1.5-31.2-2.1-52.6-2.1-10.7 0-21.6.1-31.6.3-19.3.3-45.7.6-70.2 7.8-13.6 4.1-29.2 10.1-41.9 29.9-15 23.4-19.3 66.3-21.3 96.6-1.8 29.2-2.4 91.1-1.7 125 1 47.2 4 99.6 18.4 130.7 13.3 28.6 31.8 36.2 48.1 41.1 13.9 4.2 27.7 5.7 39.4 6.6h.2.7l.3-.1h.3.5c.3-.2.6-.2.9-.2z"
        fill="#00a4de" />
</svg>