<svg viewBox="0 0 760 414" xmlns="http://www.w3.org/2000/svg">
    <!-- ©COMICS/SRC by @nyuudo -->
    <path
        d="m299.8 410.5c-.5 0-1-.1-1.5-.3-4.4-1.8-8.3-4.4-11.6-6.6-5.9-4.2-11.5-9.2-16.4-15-.8-1-1.6-2.1-2.4-3.4s-2.4-3.7-3.2-4.1h-.1c-.3-.1-1.1-.4-3-.4-1 0-2.1.1-3.1.1-1 .1-2 .1-2.9.1-.2 0-.4 0-.7 0-27.2-.8-59.4-2.2-92.1-6.1-38.8-4.6-82.9-11.8-114.5-38.9-33.6-28.7-40.5-77.1-42.8-120.6-1.6-31.2-.3-60.6 3.9-87.3 4.5-28 14.6-67.7 50-89.7 30.4-18.9 67.5-24.6 99.8-28.4 55-6.4 112.5-6.9 163.1-7.2 23.3-.2 48.2-.3 72.8-.3 47.2 0 85.9.6 121.7 1.9 45.7 1.7 90.2 4.1 132.9 15.1 35.2 9.1 59.9 23.3 75.5 43.5 3.8 5 7.3 10.6 10.4 16.5 17.3 35.3 19.6 76.2 19.6 115.2 0 18.2-.9 34.7-2.8 50.5-2.8 22.7-7.4 48.7-20.6 70.3-13.2 21.9-36.2 37.9-68.4 47.5-41.1 12.4-84.9 15.2-129.9 17.2-48.3 2.1-96.3 2.4-132.6 2.4-19.6 0-39.6-.1-58.9-.2h-5.8c-8.6 0-17.2-.1-25.5-.2-.8 0-2.2.9-2.5 1.4-.6 5.2-1.5 10.3-2.5 15l-.2 1c-.5 2.5-1.1 5.5-2 8.3-.4 1-1.1 1.9-2.1 2.3-.5.3-1 .4-1.6.4z"
        fill="#fff" />
    <path
        d="m395.1 6.4c40.5 0 81.1.4 121.6 1.9 44.1 1.6 89.2 3.9 132 15 27.5 7.1 55.5 19 73.3 42.1 3.8 5 7.1 10.3 10 15.9 16.9 34.5 19.2 75.5 19.2 113.4 0 16.7-.8 33.4-2.8 50-2.9 23.4-7.6 48.3-20 68.7-14.6 24.2-39.6 37.8-66.1 45.7-41.5 12.5-85.9 15.1-128.9 17-44.1 1.9-88.3 2.4-132.4 2.4-21.6 0-43.1-.1-64.7-.2-8.5 0-17-.1-25.5-.2-2.6 0-6.2 2.2-6.5 4.9-.6 4.9-1.4 9.9-2.4 14.7-.5 2.5-1.1 5.9-2.1 8.8-3.9-1.6-7.5-3.9-10.8-6.2-5.8-4.1-11.1-9-15.7-14.3-2-2.3-4.4-7.4-7.1-8.5-1.2-.6-2.9-.7-4.7-.7-2.1 0-4.3.2-6 .2-.2 0-.4 0-.5 0-30.6-.9-61.3-2.4-91.7-6.1-38.5-4.6-81.9-11.9-112.4-38-33.1-28.4-39.2-76.8-41.4-117.8-1.5-28.8-.6-58.1 3.9-86.5 5.5-34.4 17.4-67.8 48.1-86.9 29-18.1 64.9-23.9 98.2-27.8 53.9-6.3 108.5-6.8 162.7-7.2 24.2-.2 48.5-.3 72.7-.3m0-8c-24.6 0-49.5.2-72.8.3-50.7.4-108.3.8-163.5 7.3-32.8 3.8-70.4 9.6-101.5 29-15.4 9.6-27.7 23.4-36.4 40.9-7 14.1-12.1 31-15.3 51.5-4.3 27.1-5.6 56.7-4 88.2 2.3 44.3 9.4 93.6 44.1 123.4 14.7 12.6 33.1 22 56.2 28.7 20.4 5.9 42 9 60.5 11.2 32.8 4 65.1 5.4 92.4 6.2h.8c1 0 2.1-.1 3.1-.1 1-.1 2-.1 2.9-.1h1.1c.6.7 1.3 1.9 1.8 2.6.9 1.3 1.7 2.6 2.7 3.8 5.2 6 10.9 11.2 17.1 15.6 3.2 2.2 7.5 5.1 12.3 7 1 .4 2 .6 3 .6 1.1 0 2.2-.2 3.3-.7 2-.9 3.5-2.6 4.3-4.7 1-3 1.7-6.2 2.2-8.8l.2-1c.9-4.2 1.6-8.6 2.2-13.2 8 .1 16.2.2 24.3.2h5.8c19.3.1 39.2.2 58.9.2 36.4 0 84.4-.3 132.8-2.4 45.3-2 89.4-4.8 130.9-17.3 33.1-9.9 56.9-26.4 70.6-49.2 13.5-22.2 18.2-48.8 21.1-71.8 1.9-16 2.9-32.7 2.9-51 0-39.5-2.4-81-20-116.9 0-.1-.1-.1-.1-.2-3.2-6.1-6.8-11.9-10.7-17.1-16.1-20.9-41.5-35.6-77.6-45-43-11.2-87.8-13.6-133.7-15.3-35.9-1.3-74.6-1.9-121.9-1.9z"
        fill="#00a4de" />
</svg>