<svg viewBox="0 0 280 350" xmlns="http://www.w3.org/2000/svg">
    <!-- ©2023 COMICS/SRC by @nyuudo -->
    <path
        d="m243.2 244.8c-8.6-8.6-15.8-14.4-27.4-17.3-4.3-1.4-11.5-1.4-15.8-4.3-2.5-1.7-1.6-14.7-5.3-25.6 7.1-1.2 14.4-2.4 21.5-3.6 1.2-.2 2.4-.4 3.6-.6s2.5-.4 3.6-.6h.3c.9-.1 2.1-.2 2.9-.7 2.2-1.2 2.1-3.7 2-5.2 0-.3 0-.5 0-.8v-1.1c0-3.5 0-7.1-.1-10.7-.1-16.4-.2-33.4-.4-50l-.3-30.1c-.1-10-.2-20.4-.4-30.6 0-1.3 0-2.5 0-3.8 0-1.2 0-2.5 0-3.7v-1.4c0-.9 0-2.3-.7-3.2-1.4-1.9-3.8-1.2-5.2-.8-.2.1-.3.1-.4.1-.3.1-.5.1-.7.2-.2 0-.4.1-.7.1-.5.1-.9.2-1.3.3l-15 3.3c-.6.1-1.2.3-1.9.4-1-1.2-2.1-2.4-3.3-3.3-2.3-2-4.9-3.5-7.6-4.6-3.8-1.4-8-2.1-12.1-2.3-9.5-.5-20.2 1.4-28.3 6.5-6.4 4-11.1 10.2-13.1 17.5v.1l-1.3-.7c-1-.5-2.1-1-3.1-1.5s-2.1-1-3.1-1.5c-3.5-1.7-7.1-3.4-10.6-5.1s-7.1-3.4-10.6-5.1c-1-.5-2.1-1-3.1-1.5s-2.1-1-3.1-1.5c-.2-.1-.5-.2-.7-.3s-.4-.2-.6-.3l-.2-.1c-.2-.1-.4-.2-.7-.4-.1 0-.1-.1-.2-.1-.5-.8-1.4-1.3-2.5-1.3-1.5 0-2.7 1.2-2.7 2.7v.1c0 .3.1.5.1.7-.1.6 0 1 .1 1.4 0 .1 0 .3.1.4v.3l.3 3c.1 1.6.3 3.2.4 4.8s.3 3.2.4 4.8c1.1 13.5 2.2 27 3.3 40.4l3.9 48.1c.2 2.2.4 4.5.5 6.7.2 2.3.4 4.5.5 6.7l.3 3.9v.1.5c0 .6.1 1.4.4 2.1.6 1.2 1.9 2 2.9 2.7.2.1.3.2.4.3.4.3.8.6 1.3.9.4.3.8.6 1.2.8.4.3.8.6 1.4.9 2.1 1.4 4.1 2.8 6.1 4.2 2.1 1.4 4.2 2.9 6.3 4.3l15 10.2c.6.4 1.2.8 1.8 1.2s1.3.9 1.9 1.3c.2.1.5.3.8.6.7.5 1.5 1.1 2.4 1.4.5.1.9.2 1.4.2h.5c-2.6 5.9-5.8 10.6-13.4 10.6-11.5 1.4-24.5-4.3-34.6-4.3-4.3 0-10.1 2.9-14.4 4.3-11.5 4.3-20.2 17.3-28.8 27.4-11.5 14.4-21.6 30.2-31.7 43.2-7.2 10.1-11.5 21.6-18.7 30.2-5.8 7.2-4.3 18.7-1.4 25.9 2.9 2.9 2.9 5.8 2.9 7.2h53.3c-4.3-8.6-11.5-20.2-10.1-25.9 2.9-2.9 25.9-17.3 28.8-20.2 1.4 1.4 0 11.5 0 13v30.3 2.9h116.7c0-2.9 1.4-13 2.9-18.7 8.6 4.3 7.2 14.4 8.6 18.7h34.6c0-10.1-2.9-23-2.9-33.1 1.6-20.2 17.5-56.2 3.1-72z"
        fill="#fff" />
    <path
        d="m131.8 1c10.1 0 1.4 28.8 1.4 28.8s-12.9-27.4-1.4-28.8zm-27.3 8.6c-10.1 5.8 14.4 24.5 14.4 24.5s-4.4-28.8-14.4-24.5zm53.3-5.7c-10.1-4.3-8.6 27.4-8.6 27.4s18.6-23.1 8.6-27.4zm-104.8 320.2c1.4-2.9 23-17.3 27.4-20.2 1.4 1.4 0 11.5 0 13v33.1h7.2c0-13-1.4-25.9 1.4-38.9 0-4.3-1.4-11.5 1.4-14.4 8.6-11.5 21.6-20.2 31.7-30.2 0-2.9 5.8-8.6 2.9-10.1-1.4-1.4-17.3 14.4-20.2 17.3-17.3 15.8-34.6 30.2-51.9 44.7-2.9 1.4-13 13-13 13s7.2-2.9 8.6-2.9c1.4 1.4 1.4 4.3 1.4 5.8s2.9 10.1 5.8 15.8h7.2c-5.5-7.3-11.3-20.3-9.9-26zm193.1-80.7c-8.6-8.6-15.8-14.4-27.4-17.3-4.3-1.4-11.5-1.4-15.8-4.3-5.8-4.3-4.3-17.3-5.8-17.3-2.9 0-2.9 7.2-2.9 11.5s1.4 23 5.8 24.5c4.3 2.9 2.9-11.5 1.4-11.5 7.2 1.4 23 2.9 27.4 5.8 17.3 10.1 17.3 14.4 17.3 36s-11.5 40.3-8.6 63.4c1.4 5.8 1.4 11.5 2.9 15.8h5.8c0-10.1-2.9-23-2.9-33.1 1.3-20.2 14.3-60.5 2.8-73.5zm-20.2 13c-1.5 0-1.5 0 0 0-4.3 1.4-2.9 11.5-2.9 14.4-1.4 10.1-5.8 20.2-8.6 30.2-4.3 11.5-10.1 21.6-21.6 27.4-7.2 2.9-15.8 1.4-24.5 2.9 7.2 4.3 21.6 1.4 28.8 4.3 0 5.8-1.4 10.1-1.4 14.4h4.3c0-2.9 1.4-7.2 2.9-13 2.9 2.9 2.9 8.6 4.3 13h4.3c0-5.8-5.8-14.4-5.8-20.2 0-7.2 7.2-13 10.1-18.7 5.8-10.1 8.6-23 11.5-34.6 1.5-4.3 4.3-17.2-1.4-20.1zm-93.6-41.8c-11.5 1.4-24.5-2.9-36-2.9-4.3 0-10.1 2.9-14.4 4.3-11.5 4.3-20.2 17.3-28.8 27.4-11.5 14.4-21.6 30.2-31.7 44.7-7.2 10.1-11.5 21.6-18.7 30.2-5.8 7.2 0 30.2 0 31.7h8.6c-4.3-8.6-8.6-18.7-7.2-23 0-1.4 2.9-1.4 2.9-2.9 5.8-11.5 13-21.6 20.2-33.1 5.8-8.6 11.5-17.3 17.3-25.9 14.4-17.3 24.5-37.4 46.1-46.1 13-5.8 28.8 0 43.2 0 4.3 0 8.6-4.3 11.5-2.9 0 7.2-2.9 7.2-2.9 17.3 0 5.8 17.3 20.2 17.3 20.2s-11.5-15.8-11.5-20.2c0-5.8 4.3-21.6 0-23-4.4-1.6-11.6 4.2-15.9 4.2zm-1.8-69.7c-2.8.1-4.5 3.7-1.4 5.4 2.4 1.4 20.8 3 22 8.7 1.4 6.5-13.4 17-13.4 17s24.6-12.8 18-21.6c-7.2-8-14.8-9.8-25.2-9.5zm148.5-1.8c-.1-.8-.3-1.5-.6-2.1-.4-.8-.9-1.5-1.5-2.1-.9-1-2-1.8-3.1-2.5-.7-.3-1.4-.3-2-.2-.6.2-1.2.5-1.5 1.1-.7 1.2-.2 2.7.9 3.3.5.3 1 .7 1.5 1.1.6.5 1.3 1.3 1.4 2.2 0 .8-.7 1.4-1.2 1.9-1.4 1.3-3.2 2.2-4.9 3-.5.2-.9.4-1.4.6s-1.1.4-1.6.6c-.9.3-1.8.7-2.8 1-6.2 2-12.5 3.3-18.9 4.4-4.9.9-9.8 1.6-14.8 2.2 0-5.1-.1-10.2-.1-15.3 4.9-.5 9.7-1.2 14.5-2 7-1.2 14.1-2.6 20.7-5.3 5.2-2.1 11.8-5.9 11.2-12.4-.1-.9-.3-1.7-.6-2.5-.4-1-.9-1.9-1.5-2.7-.9-1.3-2.1-2.4-3.4-3.3-.6-.4-1.3-.5-1.9-.4s-1.2.5-1.5 1c-.8 1.1-.5 2.6.6 3.4l.1.1c.1.1.2.1.2.2.2.1.3.3.5.4.4.4.8.8 1.1 1.2 1 1.2 1.9 2.9 1.3 4.5-.5 1.7-2 3.1-3.4 4.2-2.1 1.7-4.5 2.9-7 4-6.2 2.7-12.9 4.4-19.5 5.9-3.8.8-7.6 1.6-11.4 2.2 0-5.5-.1-11.1-.2-16.5l-.3-30.1c-.1-10-.2-20.4-.4-30.6 0-1.3 0-2.5 0-3.8 0-1.2 0-2.5 0-3.7v-1.4c0-.9 0-2.3-.7-3.2-1.4-1.9-3.8-1.2-5.2-.8-.2.1-.3.1-.4.1-.3.1-.5.1-.7.2-.2 0-.4.1-.7.1-.5.1-.9.2-1.3.3l-15 3.3c-.7.1-1.3.3-2 .4-1-1.2-2.1-2.3-3.3-3.3-2.3-2-4.9-3.5-7.6-4.6-3.8-1.4-8-2.1-12.1-2.3-9.5-.5-20.2 1.4-28.3 6.5-6.4 4-11.1 10.2-13.1 17.4l-1.2-.6c-1-.5-2.1-1-3.1-1.5s-2.1-1-3.1-1.5c-3.5-1.7-7.1-3.4-10.6-5.1s-7.1-3.4-10.6-5.1c-1-.5-2.1-1-3.1-1.5s-2.1-1-3.1-1.5c-.2-.1-.5-.2-.7-.3s-.4-.2-.6-.3l-.2-.1c-.2-.1-.4-.2-.7-.4-.1 0-.1-.1-.2-.1-.5-.8-1.4-1.3-2.5-1.3-1.5 0-2.7 1.2-2.7 2.7v.1c0 .3.1.5.1.7-.1.6 0 1 .1 1.4 0 .1 0 .3.1.4v.3l.3 3c.1 1.6.3 3.2.4 4.8s.3 3.2.4 4.8c1.1 13.5 2.2 27 3.3 40.4l3.9 48.1c.2 2.2.4 4.5.5 6.7.2 2.3.4 4.5.5 6.7l.3 3.9v.1.5c0 .6.1 1.4.4 2.1.6 1.2 1.9 2 2.9 2.7.2.1.3.2.4.3.4.3.8.6 1.3.9.4.3.8.6 1.2.8.4.3.8.6 1.4.9 2.1 1.4 4.1 2.8 6.1 4.2 2.1 1.4 4.2 2.9 6.3 4.3l15 10.2c.6.4 1.2.8 1.8 1.2s1.3.9 1.9 1.3c.2.1.5.3.8.6.7.5 1.5 1.1 2.4 1.4.5.1.9.2 1.4.2.8 0 1.7-.2 2.4-.3l.3-.1c.1 0 .3 0 .4-.1.3 0 .5-.1.8-.1.1 0 .3 0 .4-.1.2 0 .5-.1.7-.1 1.4-.2 2.8-.5 4.2-.7s2.9-.5 4.2-.7c5.5-.9 11-1.8 16.5-2.8 5.5-.9 10.9-1.8 16.4-2.7 7.2-1.2 14.6-2.4 21.9-3.7 1.2-.2 2.4-.4 3.6-.6s2.5-.4 3.6-.6h.3c.9-.1 2.1-.2 2.9-.7 2.4-1.1 2.3-3.5 2.2-5 0-.3 0-.5 0-.8v-1.1c0-3.5 0-7.1-.1-10.7 0-5.2-.1-10.5-.1-15.9 6.7-.4 13.4-.8 20.1-1.6s13.6-1.8 20.1-3.9c4.3-1.4 10.9-4.2 10.3-9.8zm-140.3-76.2c.9-1.9 2-3.8 3.3-5.5 7.1-9 18.5-12 29.5-12 3.6 0 7.2.4 10.8 1.2 3.2.8 6.3 1.9 9.3 3.3 1.6.7 3.2 1.5 4.9 2.3-12 2.6-26.5 5.8-40.8 8.9-4.6 1-9.1 2-13.6 3-.7.2-1.4.3-2.1.5-.7.1-1.3.3-2 .4h-.2c-.1 0-.1 0-.2.1.3-.6.7-1.3 1.1-2.2zm9.4 132.5c-.1 0-37.5-25.4-37.6-25.4 0-.1-9.7-117.2-9.7-117.8.1 0 .2.1.3.1.6.3 30.2 14.9 35.1 17.2l.4 4.3c0 .5.5.9 1 .9h.1c.5-.1.9-.5.9-1 0 0 0 0 0-.1l-.3-3.9c.2 0 .3-.1.5-.1.1 0 82.4-17.2 83.1-17.3 0 0 .1 77.7.1 85.6-5.1.8-10.1 1.5-15.2 2.1 5.1-.3 10.1-.6 15.2-1.1v15.5c-1.4.2-2.7.3-4.1.5 1.4-.1 2.7-.1 4.1-.2 0 7.2.3 27.9.3 27.9-.4.1-74 12.8-74.2 12.8zm-7.1-81.3c.5 0 .9-.5.9-1 0 0 0 0 0-.1l-.5-6c0-.5-.5-1-1.1-.9-.5 0-.9.5-.9 1.1l.5 6c.1.6.5.9 1.1.9zm-1.1-13.1c.5 0 .9-.5.9-1 0 0 0 0 0-.1l-.5-6c0-.5-.5-.9-1.1-.9-.3 0-.5.1-.7.3s-.3.5-.2.7l.5 6c.1.6.5 1 1.1 1zm-1.1-13.2c.5 0 .9-.5.9-1 0 0 0 0 0-.1l-.5-6c0-.5-.5-1-1.1-.9-.5.1-1 .5-.9 1.1l.5 6c0 .5.5.9 1.1.9-.1 0 0 0 0 0zm8.4 97.3c-.5 0-1 .5-.9 1.1l.5 6c0 .5.5.9 1 .9h.1c.5 0 .9-.5.9-1 0 0 0 0 0-.1l-.5-6c-.1-.6-.6-1-1.1-.9zm-2.7-31.5c.5 0 .9-.5.9-1 0 0 0 0 0-.1l-.5-6c0-.6-.5-1-1.1-.9-.5 0-1 .5-.9 1.1l.5 6c0 .5.5.9 1.1.9-.1 0-.1 0 0 0zm-2.3-26.3c.5 0 .9-.5.9-1v-.1l-.5-6c0-.5-.5-1-1.1-.9s-1 .5-.9 1.1l.5 6c0 .5.5.9 1.1.9-.1 0 0 0 0 0zm4.5 52.6c.5 0 .9-.5.9-1 0 0 0 0 0-.1l-.5-6c-.1-.5-.5-1-1.1-.9-.5 0-1 .5-.9 1.1l.5 6c.1.5.5.9 1.1.9zm-1.1-13.1c.5-.1.9-.5.9-1 0 0 0 0 0-.1l-.5-6c-.1-.5-.5-1-1.1-.9-.5 0-.9.5-.9 1.1l.5 6c0 .4.5.9 1.1.9-.1 0 0 0 0 0zm-2.3-26.4c.5 0 .9-.5.9-1v-.1l-.5-6c0-.5-.5-1-1.1-.9-.5 0-1 .5-.9 1.1l.5 6c.1.5.5.9 1.1.9zm14.8-49.1c3.8 0 6.9 6 6.9 13.4s-3.1 13.4-6.9 13.4-6.9-6-6.9-13.4 3.1-13.4 6.9-13.4zm-33.6-3.4c3.4-.3 6.5 4.7 7.1 11.2s-1.7 12-5 12.3c-3.4.3-6.5-4.7-7.1-11.2s1.6-12 5-12.3z"
        fill="#012844" />
</svg>