<svg viewBox="0 0 430 400" xmlns="http://www.w3.org/2000/svg">
    <!-- ©2023 COMICS/SRC by @nyuudo -->
    <path
        d="m230 397c-54 0-104.4-14.9-141.9-42l-1.4-1-34.9 15 18.5-28.7-1.7-1.7c-23.3-23.2-35.6-50.3-35.6-78.6 0-12.1 2.3-24.1 6.8-35.8l.7-1.8-1.4-1.4c-23.6-23.2-36.1-50.5-36.1-79 0-75.5 88.4-137 197-137s197 61.5 197 137c0 12.1-2.3 24.1-6.8 35.8l-.7 1.8 1.4 1.4c23.6 23.2 36.1 50.5 36.1 79 0 75.5-88.4 137-197 137z"
        fill="#fff" />
    <path
        d="m200 8c107 0 194 60.1 194 134 0 11.7-2.2 23.4-6.6 34.7l-1.4 3.7 2.8 2.8c23 22.6 35.2 49.2 35.2 76.9 0 73.9-87 134-194 134-27 0-53.1-3.8-77.6-11.2-23.6-7.1-44.6-17.3-62.5-30.3l-2.8-2-3.1 1.3-24.3 10.5 11.9-18.4 2.6-4.1-3.5-3.4c-22.7-22.6-34.7-49-34.7-76.5 0-11.7 2.2-23.4 6.6-34.7l1.4-3.7-2.8-2.8c-23-22.6-35.2-49.1-35.2-76.8 0-73.9 87-134 194-134m0-6c-110.5 0-200 62.7-200 140 0 30.3 13.7 58.3 37 81.2-4.6 11.7-7 24.1-7 36.8 0 30 13.5 57.9 36.5 80.7-9.6 14.9-22.5 35-22.5 35l42.4-18.2c36.3 26.2 87.2 42.5 143.6 42.5 110.5 0 200-62.7 200-140 0-30.3-13.7-58.3-37-81.2 4.6-11.7 7-24.1 7-36.8 0-77.3-89.5-140-200-140z"
        fill="#003041" />
</svg>