<svg viewBox="0 0 272 366" xmlns="http://www.w3.org/2000/svg">
    <!-- ©COMICS/SRC by @nyuudo -->
    <path
        d="m54.60951 321.39445-49.58173-96.09519s-6.10965-5.76293-3.271-10.60006 43.84375-43.87878 43.84375-43.87878l.93664-3.86622-31.11669-74.54749-7.79974-26.38689s-2.69431-7.56332 6.42468-14.56936c9.60234-7.37746 51.87158-50.28079 51.87158-50.28079s3.15155 7.49556 10.05087 7.49556c3.36168 0 17.22861-2.08031 23.84953-1.87389a2.57381 2.57381 0 0 1 2.6315 2.58211l31.02382 111.15619-30.48574 28.719 12.191 4.99864 40.5833-1.41669 55.02563 32.59822s12.87063-25.60442 12.98172-33.88913c.1-7.46081-9.743-20.5596-9.29218-28.42314.47367-8.26158 10.88061-33.06193 10.88061-33.06193l4.3594 7.85218-5.12214 15.10666 3.72519 3.51933 32.27022-28.40463 5.3071-2.23151 3.38733 3.154-14.34531 20.587s11.62536 6.11734 13.24093 9.92593c2.58361 6.09065-2.62688 20.87957-4.37279 26.10009-1.85045 5.53314-12.84507 16.26132-12.84507 16.26132s2.38555 12.14142 2.84417 15.79787c1.48177 11.81356-2.90256 50.10015-2.90256 50.10015l-3.49237 7.21758-38.18329-2.02721-34.45807-8.04477 9.85529 77.7619v33.08006c0 5.423-26.30044 23.34543-29.284 13.5574l-2.98354-9.788s-35.03143.34968-33.10627 12.661-36.03556 16.10738-47.42378 12.31131-5.42445-34.16465-5.42445-34.16465l4.2449-8.85948z"
        fill="#fff" />
    <path
        d="m271.43153 89.70622c.69678-1.32965-.18725-4.46832-1.42138-5.51575-1.01026-.85718-3.95215-.41308-5.45447.4574a77.41928 77.41928 0 0 0 -12.8136 8.63135c-6.825 6.06744-13.08667 12.76269-19.74292 19.02716-1.04517.98364-2.92676 1.0813-4.42163 1.58856-.02368-1.426-.387-2.95343.00305-4.256.7107-2.37366 2.057-4.55469 2.80359-6.92121 2.13989-6.78216-.39954-11.39727-8.13342-13.93151-2.66846 8.298-5.52918 16.56042-7.89539 24.96154-.65637 2.33075.155 5.07355.293 7.62732 1.397-2.2229 3.32617-4.27887 4.0885-6.70092 2.07984-6.60761 3.66712-13.36976 5.44934-20.07068q.86938.10143 1.73853.20294c-.202 2.56824-.06177 5.22333-.688 7.684-.89771 3.5271-2.51184 6.86871-3.48828 10.38141-.34741 1.24914-.23169 3.55554.52978 4.04181 9.36573 5.98156 11.75879 15.65179 14.15845 25.44629.39868 1.62683 2.009 2.9577 3.05945 4.42541.74829-1.81677 2.24011-3.68494 2.118-5.44147-.56811-8.18182-2.12524-16.15716-8.29517-23.39685 10.73523-10.28088 21.19507-20.29809 31.655-30.31524q.79138.67493 1.583 1.35c-.99365 1.599-1.92114 3.24359-2.99194 4.78925-5.29395 7.64093-10.71326 15.19671-15.91773 22.89746-4.52844 6.7005-3.97045 7.8078 4.0492 9.3515.21228.04083.34607.48675.51587.74414-6.70691 12.01276-6.70691 12.01276 9.06323 16.85266-6.18579 6.60895-11.94812 12.76556-18.192 19.43665-3.27527-1.43634-6.79516-2.83606-10.161-4.53931a6.12052 6.12052 0 0 1 -2.54675-2.89941c-1.51709-3.51813-2.48633-7.29261-4.20068-10.70057-3.13636-6.23461-6.59668-12.31073-10.05933-18.37463a19.35628 19.35628 0 0 0 -3.10449-3.32257c-.44776 1.73376-1.75025 3.827-1.19641 5.13959 2.50744 5.9425 5.6593 11.61059 8.31433 17.49652.87231 1.934 1.85254 4.5412 1.23779 6.30316-3.58154 10.26642-7.623 20.37292-11.69165 31.011-14.91638-8.90222-29.61291-17.06189-43.60278-26.28937-6.66272-4.39453-13.49988-6.03882-21.05152-6.449-1.662-.09033-3.31945-.36248-4.97973-.36956-8.866-.03766-17.73206-.01776-27.04859-.01776.631 1.4591 1.10132 2.547 1.55933 3.60589-1.62695-1.02777-3.26428-2.07232-5.25476-3.34253 8.17749-6.87414 15.798-13.02606 23.047-19.58691a7.774 7.774 0 0 0 2.0415-6.30945c-3.18237-13.74414-6.88672-27.367-10.18457-41.086-.668-2.77777-.3855-5.80054-.40918-8.71149-.04443-5.43707.5686-10.96-.23987-16.273-.35229-2.31463-3.54822-4.19122-5.43518-6.28241-.89062-.98706-2.18884-1.8778-2.53552-3.04016-2.37219-7.95391-4.54871-15.96612-6.77161-23.96417-1.28784-4.63385-2.45679-9.30395-3.90063-13.88818-.24488-.77716-1.61194-1.202-2.46045-1.78968a8.92218 8.92218 0 0 0 -1.2041 2.50739 7.97977 7.97977 0 0 0 .41308 2.93768c3.05884 11.89453 6.03613 23.81183 9.2876 35.654.93262 3.39686.19238 5.35651-2.63025 7.55781a180.34753 180.34753 0 0 0 -16.0675 14.17c-1.68872 1.67535-2.19764 4.59466-3.07837 7.00628-.85865 2.35126-1.50318 4.78052-2.2417 7.17554q-.67.12195-1.33985.24384c-2.925-5.8869-6.52-4.50189-10.31225-1.63941q-6.772 5.11167-13.61817 10.12506c-4.24585 3.09449-8.06274 6.43683-7.9082 12.21076-5.45825.25366-5.5083.2702-6.90491-3.94336-2.5072-7.56336-4.913-15.16028-7.45092-22.71307a20.10655 20.10655 0 0 0 -1.94446-3.42719q-.87927.30606-1.75855.61224c-.26025 9.64429 5.47876 18.10413 6.82569 27.41016-.54834.18842-.88025.432-1.14588.37384q-4.14276-.90629-8.26611-1.90015c-5.40027-1.30011-6.0791-.89276-6.98279 4.722-1.80249-3.90344-3.687-7.76972-5.39014-11.714-4.41394-10.22217-8.74633-20.47943-13.11035-30.723-4.758-.50122-5.33044.53662-3.24048 5.66943 7.65015 18.787 15.0691 37.67194 23.01551 56.33307 5.632 13.22571 9.76477 27.22772 19.14135 38.93188-3.52551 2.88245-7.0371 5.64032-10.42419 8.54291-13.33057 11.42414-25.85156 23.58466-34.3562 39.20209-.96191 1.76648-1.77051 4.2478-1.29212 6.03546a63.74588 63.74588 0 0 0 4.594 11.52362c14.03824 28.50014 28.05842 57.01028 42.32974 85.39425 4.93567 9.81628 5.252 9.65344 15.64331 6.447.23914-.07379.58631.2016 1.14111.41186 1.02808 11.16449-.97143 22.67585 1.75293 33.91028 1.46582-.70758 2.46766-1.42279 2.5271-2.2091.87476-11.55426 1.91748-23.111 2.19519-34.68445.06873-2.86823.33728-4.55347 2.68067-6.08112 10.73852-7.00055 21.40906-14.1048 32.1272-21.13659 1.88659-1.23768 3.88354-2.30774 6.37524-3.777.51965 3.02929 1.01477 5.285 1.28052 7.56738 1.57519 13.53564 3.02014 27.0871 4.72033 40.60669.25708 2.04517 1.61951 3.95178 2.95581 7.04547.95777-2.11237 1.35084-2.558 1.32044-2.97278-1.28674-17.54156-2.51013-35.08923-4.04285-52.60986-.22485-2.57074-.3446-4.271 2.00708-5.91321 3.67713-2.56763 7.00464-5.62775 10.58667-8.33923 5.01233-3.79413 8.51465-2.522 9.804 3.44256.3164 1.46289.63867 2.92646.88818 4.40143 2.82861 16.71893 5.59265 33.4491 8.53064 50.14887.34717 1.97357 1.62781 3.78344 2.47571 5.66925q1.07886-.38223 2.15771-.76435c-3.36071-22.48462-2.7163-45.55334-10.70434-67.63549 1.08081-.8797 2.3595-1.93366 3.6521-2.97016 6.75561-5.4165 13.70068-10.62042 20.1615-16.36706 1.98156-1.76252 4.29529-5.606 3.61877-7.47046-2.97522-8.2013-7.092-15.98316-10.53979-24.02613-.7-1.63311-1.001-4.0849-.27149-5.56109a129.66541 129.66541 0 0 1 8.01673-13.79779c3.51355-5.33539 4.37707-10.24567-1.37317-15.1142-10.79285 6.42682-17.08582 17.56793-26.74378 27.04785 1.19031-8.28247 5.59815-15.8833-1.93054-20.89782 1.67114-2.31257 4.48413-4.76246 4.03223-5.81446-2.8938-6.73614-6.48255-13.17663-9.88819-19.69061-1.80737-3.45728-3.70605-6.86688-5.17273-9.57611 11.04285 0 21.99134-.01563 32.93958.03375a4.25143 4.25143 0 0 1 2.27063.77478c7.40662 5.21472 14.53039 10.8797 22.22668 15.62018 7.46094 4.59552 15.50025 8.25507 23.43213 12.40247-1.05517 4.68157-2.12658 9.43493-3.198 14.18829q.84814.19254 1.69654.38507c10.02514-11.58423 10.66626-27.4502 17.8081-40.70227 1.43787 1.31744 2.49585 2.35931 3.62879 3.3125 5.36071 4.51086 17.442 6.83868 21.54077 3.39166a109.5744 109.5744 0 0 0 14.371-14.54327c1.92-2.35645 2.14038-6.13111 2.99268-9.2995.37878-1.40766.32446-2.92566.61828-4.36267 1.15393-5.64356 2.46033-11.25751 3.52539-16.91718.63977-3.40069-.48742-5.42523-4.34607-6.37329-8.30249-2.03979-9.16845-5.8197-3.85962-12.29291a75.79922 75.79922 0 0 0 8.41204-12.85353zm-155.65991 94.30178c-4.44214-4.7038-8.6084-9.11518-12.78467-13.53736 1.27271-5.56793 2.67188-11.68878 4.032-17.64 3.28856 3.37015 7.31615 17.40427 8.75267 31.17736zm.95032 5.19012c.44617.26361.57727 1.13275.76355 1.74884 1.89551 6.27155 2.64307 24.81915.31421 31.68042-.91-2.75378-1.51514-5.65845-2.79309-8.23-2.67725-5.38721-5.71118-10.59766-8.5907-15.88507-.2898-.532-.76428-1.10114-.74756-1.64056.14075-4.5564.3761-9.10993.579-13.57734 3.64781 2.03467 7.09727 3.90821 10.47459 5.90369zm-65.96057-77.30452c2.27661.7893 5.25488.925 6.70849 2.48077 6.34082 6.78674 9.81751 8.39478 15.76905 6.15961 7.85815-2.95124 13.55847-10.16266 13.64062-17.39618a27.58241 27.58241 0 0 0 -.38415-6.94727c-1.07386-4.26965.61169-6.96142 4.14758-8.94726 11.20984 11.24145 15.71533 10.99023 29.23364-2.18775.782 2.38105 1.56177 4.42115 2.12232 6.5196 2.52624 9.45562 4.77173 18.99353 7.5979 28.35754.96362 3.1933-.38733 4.6961-2.36035 6.28784q-20.75977 16.74792-41.55628 33.45032c-4.75183 3.83484-9.42273 7.76947-15.29944 12.62414-6.931-19.98565-13.67236-39.42462-20.41382-58.86352q.39735-.76885.79444-1.53784zm11.22387 80.74267a46.60306 46.60306 0 0 0 -5.35009-1.19555c-1.79053-.3241-3.60425-.52-5.47071-.78089-.48535-6.613-.96167-13.10248-1.511-20.58825 11.01294 7.73632 21.54626 9.04418 31.6831.083 6.50782 4.42554 6.50782 4.42554.85669 17.34546a78.85769 78.85769 0 0 0 -4.80323-7.07324c-.78711-.939-2.36621-1.21637-3.58594-1.79395-.13989 1.35975-.81225 2.95594-.32971 4.03937 2.43274 5.46155 5.35242 10.70795 7.75891 16.17993 6.4148 14.58722 12.6543 29.25129 19.04334 44.07026-1.79261 1.65393-3.33057 3.78393-5.45325.40911-8.10205-12.88092-17.49463-24.66546-29.67456-34.18878.81824-1.938 1.51977-3.59637 2.2185-5.25586 3.19171-7.57806 2.62971-8.7976-5.38205-11.25061zm25.56226-4.71539c3.15625 4.08325 6.3125 8.16663 9.55664 12.36371.33142 7.33587.67749 14.99621 1.02344 22.65661q-.44.15747-.88013.315c-.63159-1.6659-1.24451-3.33911-1.89819-4.99634-2.72949-6.92022-5.66626-13.76786-8.11377-20.78586-.99072-2.84094-.92407-6.04944-1.33862-9.0907q.82526-.23121 1.65063-.46242zm10.15747-15.195c-4.36584-1.60913-8.14233-3.001-13.34839-4.91974 6.21057-4.32751 10.99988-7.66473 15.78919-11.00195q.58979.32446 1.17956.649c-1.07422 4.53153-2.14833 9.06297-3.62033 15.27274zm-55.36108-22.027c-5.75757-12.30548-10.34741-25.15722-15.341-37.81469a19.83393 19.83393 0 0 1 -.78015-4.06342q3.35559 2.78961 6.71119 5.57916.46545-.47378.9309-.94769c-.95752-1.588-1.915-3.1759-3.4082-5.652 4.91126 1.24939 8.99951 2.17737 13.00024 3.39234a4.10639 4.10639 0 0 1 2.20679 2.37744c6.30188 18.49628 12.512 37.02368 19.31445 57.25037-4.4707-1.983-8.542-2.6991-10.9414-5.08857-4.48286-4.46414-9.05903-9.40359-11.69282-15.03293zm12.26562 170.69557a25.04469 25.04469 0 0 1 -1.74267-2.71445c-14.07715-29.2272-28.45874-58.31472-42.06348-87.75991-8.00159-17.31788-8.59351-12.86744 4.009-26.89637 8.93958-9.95141 19.42554-18.51843 29.81787-28.26281.53724 5.63592.96705 10.08551 1.384 14.53631.44238 4.72333 2.9928 7.10681 7.77746 7.33911 2.77906.13489 5.54041.63434 8.13648.94879.17346.52723.31079.72266.25989.822-5.06519 9.88983.11279 16.2196 7.04113 22.72924 8.32337 7.82038 15.81336 16.52485 24.1864 25.40021-4.7539 3.24378-8.52636 5.81775-12.68774 8.65717-3.65356-5.69934-6.80518-11.3208-10.63721-16.4339-6.368-8.49671-13.09472-16.73206-19.89441-24.89148-.83923-1.007-3.04846-.87622-4.6228-1.27271.26807 1.492.06018 3.34363.87708 4.42066 9.15088 12.06409 18.44653 24.019 27.74328 35.97223 1.11 1.42718 2.45716 2.67059 3.50672 3.7976-6.11878 8.16523-18.72632 11.50049-18.31092 25.16425 18.14173-16.69452 35.45032-32.86487 57.26307-43.088.91088 5.96179 1.07995 12.014 2.89013 17.52942 1.8208 5.54828 5.27429 10.56262 8.23548 16.23852q-35.97375 23.48357-73.16876 47.76412zm107.84131-127.2829a30.35666 30.35666 0 0 0 2.41528-4.251q1.10358.83148 2.20728 1.66284a19.762 19.762 0 0 1 -1.17017 4.22162c-3.89318 7.3153-8.06006 14.48883-11.812 21.87353-1.27246 2.5047-1.60681 5.48444-2.36987 8.24707q.70678.27311 1.41333.5462c.8269-.74639 1.65381-1.49273 3.47851-3.13983 2.84266 6.86737 5.641 13.31244 8.09131 19.88678.36841.989-.521 2.98688-1.45288 3.83252q-12.364 11.22006-25.03442 22.09937a4.33593 4.33593 0 0 1 -3.83106.35565 8.57261 8.57261 0 0 1 -3.5382-3.31036 46.32124 46.32124 0 0 1 -6.13318-30.73407q.75219.4151 1.50439.83032c2.09668-1.60584 4.59351-2.88434 6.22522-4.871 10.1195-12.32074 20.06286-24.78595 30.00646-37.24964zm-27.47266-10.83722c-7.51611 5.36121-7.70373 7.7425-.40161 13.61109 2.99976 2.41076 4.457 4.57818 2.79932 8.33691a10.5469 10.5469 0 0 0 -.91968 4.86859c.64673 8.24475-4.28113 13.96576-8.84277 19.81916-.83569 1.07214-2.45166 1.53808-5.08777 3.10339.58215-4.93793.9613-8.31458 1.39148-11.68475a22.90866 22.90866 0 0 0 .54858-2.42322c.27417-21.72736-1.50464-43.17932-8.7727-63.87378a2.59439 2.59439 0 0 0 -.515-.78442c2.18067 1.324 4.9104 2.31671 6.08118 4.25024 4.89134 8.07867 9.20494 16.50598 13.71897 24.77679zm130.21924-62.86651c-.36621 14.84216-2.62671 17.46362-12.635 14.59747 4.1046-4.74229 7.91015-9.13879 12.635-14.59747zm-4.60766-1.60919c-3.387 4.55444-6.86963 3.50048-11.30176 1.58667 2.30981-2.50934 4.3103-4.68262 6.78564-7.37183 1.71155 2.19253 3.04517 3.90076 4.51612 5.78516zm-5.749 51.56573c1.166 4.9917 2.85376 10.12653 2.62268 15.12848-.64965 14.05835-1.15454 28.25641-3.63342 42.05627-2.0625 11.48285-3.7904 9.81873-12.67847 10.11042-17.96557.58954-35.49414-2.17987-52.79638-6.7508-2.22718-.58831-4.48462-1.06237-7.73389-1.82562 4.71631 31.57318 8.34717 62.55505 5.33228 93.80249q-1.17554.14209-2.35132.28418-4.57507-50.86642-9.14234-101.64734c8.70826 2.05908 17.31983 4.54877 26.1001 6.06537 13.25623 2.28961 26.614 4.025 39.96362 5.72418 4.04419.51483 7.21937-1.248 7.73047-5.82416 1.86048-16.655 4.44117-33.28033 2.30249-50.12042a26.5515 26.5515 0 0 1 -.5736-5.93c.16272-1.55884 1.2323-3.02332 1.89953-4.52966 1.02194 1.14387 2.65195 2.14612 2.95822 3.45661zm-219.78074-103.65399c3.40613-2.4867 5.79456-6.3194 9.04688-9.067 15.4956-13.09088 31.2146-25.91974 46.62744-39.10571 2.43481-2.083 4.02368-5.36871 5.44092-8.36377 1.66113-3.51086.09533-4.2251-3.50415-3.65778a91.86952 91.86952 0 0 1 -15.79363 1.18016 7.43262 7.43262 0 0 1 -5.45252-3.29927c-2.53369-4.8042-4.25329-5.64648-8.51538-2.64978a51.00413 51.00413 0 0 0 -5.47339 4.3324c-16.17566 15.07667-32.37085 30.13356-48.42749 45.33595-6.45166 6.10834-6.38391 6.96014-1.33325 14.521 8.06543 5.28265 20.35168 5.90832 27.38457.7738zm-24.17217-5.89691c-.69336-.8982-.7467-3.40619-.0393-4.1012q27.06847-26.59772 54.40368-52.92468c.08509-.0824.32044-.01019.48987-.01019 2.36377 8.14563 4.06909 9.08007 20.22583 10.5971-1.6543 1.45679-2.78308 2.45478-3.91614 3.44776-16.636 14.57928-33.32385 29.10022-49.8739 43.7763-4.27319 3.78937-17.84704 3.67511-21.29004-.78509zm-3.1499 5.21734c-.04138-.00451-.07654-.00671-.11719-.011-.02246-.05237-.04455-.1048-.06689-.15717.0393.02606.082.048.12158.07392zm86.58207 66.5972c4.32324 1.74439 8.15857.69519 11.678-1.92468 6.02429-4.48438 7.9895-11.11792 9.604-18.81647-.46167-1.03674-.86523-3.66638-1.9353-3.9721-1.97266-.56373-4.80359-.47541-6.45117.60089a167.2311 167.2311 0 0 0 -15.10523 11.27014c-6.07549 5.03103-5.11407 9.88736 2.2097 12.84222zm15.69-22.99026c.45788 6.35315-4.39124 15.35522-9.04847 17.60425-3.59692 1.73706-6.32226.4121-9.23889-2.91425 6.10147-4.90131 12.02969-9.66339 18.28736-14.69z"
        fill="#003041" />
</svg>