<svg height="326" viewBox="0 0 350 326" width="350" xmlns="http://www.w3.org/2000/svg">
    <!-- ©2023 COMICS/SRC by @nyuudo -->
    <path
        d="m108.82816 67.84464-73.14673 72.63129s-14 15.26013-26.58642 10.63336 5.33972-15.68762 3.05127-27.89264-1.907-14.17938-10.205-14.49341c-7.08948-.26831 22.6781-26.16333 22.6781-26.16333s35.30652-32.71209 44.35651-36.006 20.97735-21.35876 34.3266-27.07983 53.09513-19.21708 53.09513-19.21708l27.00024 23.794 6.8653 5.33972 7.89661 25.70328-16.28754.61371-20.21509-28.62271-17.9256 9.55237 12.58646 9.91656 21.04718 7.62817 18.23773 6.8653 7.62811 9.53516-9.18524 9.62371-11.7279-.1538c.04071.0335.08105.068.12176.10144 9.72675 7.97674 17.38892 6.04321 22.8338-5.64051a3.92148 3.92148 0 0 1 2.93695-1.81463q52.47236-.15345 104.94544-.09394a17.18439 17.18439 0 0 1 2.195.38984c-5.42267 58.01428-10.84571 116.03265-16.33625 174.77386-49.77374-.50311-99.33008-1.004-149.79864-1.5141-3.06745-55.10815-6.13007-110.13061-9.282-166.75769 5.16736 4.10254 8.07489 1.82013 11.72565.42694.24536-.09363.49628-.17328.743-.26343l-12.46863-.16351zm161.041 186.22186c-42.47223-.18566-84.94373-.541-127.41571-.798-2.58051-.01563-5.16285.27435-8.07587.44116.87713 5.17371 1.6496 9.73 2.50952 14.80194h176.70705c.75617-4.02447 1.62677-8.65814 2.56409-13.6466-5.00226-.52167-9.42658-1.36683-13.85114-1.36841-10.81268-.00394-21.62646.61722-32.43798.56991zm-148.13743 22.01136c1.6654 4.81176 3.20617 8.66406 4.30548 12.63842.81042 2.92981 2.30853 3.99439 5.32867 3.82093 7.14349-.4104 14.30731-.881 21.45343-.7605q44.18949.74478 88.37219 1.87836c10.14112.25976 20.26349 1.26318 30.40461 1.51312 15.9671.39355 31.94274.47992 47.91534.53729 1.1319.004 3.01727-1.08734 3.27863-2.0246 1.45166-5.20526 2.50952-10.52032 3.97961-17.02575-68.66069-.39508-136.55341-4.50763-205.03796-.57727zm92.07092-208.44495c6.39117-.878 12.92963-.83343 19.40643-.91016 19.78455-.23455 39.57147-.26281 59.35578-.51251 8.8258-.11139 7.58154.99494 9.04058-8.87189-34.28247.514-68.22448 1.02289-102.25341 1.53315 2.53397 7.26086 7.14703 9.76477 14.45062 8.76141zm-105.7179 232.76666c1.87183 6.22565 3.60352 11.20978 4.83911 16.352.91089 3.79065 2.59467 5.168 5.98914 4.94355 8.02887-.531 16.08057-1.13978 24.11243-.98395 33.111.64245 169.34469 4.20366 187.297 4.27788 1.27215.00519 3.44675-.60155 3.74045-1.8142 1.63159-6.73468 2.82056-13.61151 4.4729-22.02838-77.17078-.51118-153.47831-5.8321-230.45103-.7469z"
        fill="#fff" />
    <path
        d="m345.21445 294.62589c-3.95782.07263-7.918.01764-12.27856.01764.93262-6.30872 1.81061-12.02435 2.61371-17.75055.6474-4.61566-.83564-5.95105-5.42481-5.68658a48.97765 48.97765 0 0 1 -7.40912-.61444c.32947-6.18512.63489-11.65284.90784-17.1222.23505-4.71154-1.51971-6.69555-6.26428-6.83648-3.95368-.1175-7.91352-.02405-12.2677-.02405 1.02221-12.0379 1.9519-23.46338 2.97076-34.88092q2.85855-32.03421 5.80506-64.06061c1.18347-12.9057 2.49859-25.79962 3.62255-38.71033 1.06653-12.25225 1.89545-24.5252 2.969-36.77673.34418-3.92786-.92743-6.03717-5.08-6.096-2.74029-.03888-5.47735-.30438-8.162-.46527.62073-5.26782 1.17035-9.93219 1.70282-14.45056-14.61871 0-28.42541-.24451-42.22046.0531-25.29693.54578-50.58673 1.41791-75.88067 2.11328a8.02793 8.02793 0 0 1 -2.38123-.62732c-4.03357-1.22949-7.46075-3.13507-9.96338-6.82568-3.44592-5.08191-8.69836-9.38825-10.61261-14.915-1.48791-4.2959-3.34741-4.50421-6.20416-3.8822-5.2984 1.15368-10.47284 2.87658-16.29138 4.53094-.50885-.32678-1.7973-1.15436-3.52362-2.26312-1.99445 4.53644-.21369 7.64673 1.96838 10.59906 6.29889 8.52271 15.88251 11.34906 25.40607 13.3703 9.64429 2.04681 18.77936 4.58118 25.89905 11.74255 5.77478 5.80866 5.15747 11.51838-1.06989 15.14154-2.87219-2.59948-5.26044-5.94342-8.50537-7.48962-12.913-6.15289-25.70532-5.57422-38.008 2.11585-1.29986.81256-3.11425 1.81219-4.38684 1.49786-9.82617-2.42719-19.90466-4.35706-29.2033-8.15765-4.14472-1.6941-5.94275-1.01728-8.45819 1.34515-14.44892 13.57-29.0597 26.97382-43.26978 40.78961-8.47064 8.2356-16.34924 17.08423-24.38019 25.76264-1.06311 1.14886-1.45166 2.92187-2.15265 4.40582q.77592.51232 1.55176 1.02478c1.87207-1.52179 3.84943-2.932 5.60028-4.58228q32.913-31.02309 65.81885-62.05334c1.12213-1.05329 3.28046-2.2207 4.43286-1.822 6.52051 2.25586 12.88116 4.97369 20.11212 7.8598 2.23053 54.45557 4.48834 109.57751 6.75763 164.97845-1.5625-.09741-2.53259-.15283-3.50195-.21911-10.0025-.68445-10.72455.0968-9.11841 9.88971.10773.65674.31464 1.30121.37732 1.96075.33575 3.52979.64044 7.0625 1.01215 11.22534-3.33643 0-5.82551-.157-8.2884.03016-6.74932.51287-8.40429 2.94055-6.54913 9.52111 1.28638 4.563 2.70044 9.09 4.33875 14.57447-5.70356 0-10.516-.12622-15.3191.03289-5.62274.18628-7.36358 3.1474-5.21661 8.28974 2.55981 6.131 5.03223 12.2987 7.50751 18.46454 1.23877 3.08563 2.75116 6.30237 6.7312 5.00049 3.82867-1.25232 3.62884-4.62269 2.51361-7.855-1.82666-5.29431-3.7085-10.56964-5.58069-15.89178 12.47528-2.56976 220.59577.50031 228.6673 3.28217-1.15949 5.01959-2.78046 9.99261-3.24347 15.07116-.17932 1.9671 1.78247 5.08313 3.62408 6.05463 2.68421 1.41608 5.30121-.45538 6.03455-3.45752 1.84979-7.5733 3.5058-15.197 5.07117-22.835.57579-2.8099-.68458-4.45138-3.80043-4.39419zm-194.92065-256.48865c3.982-1.83532 7.22571-3.33038 10.51849-4.848 4.15936 5.31458 7.90582 10.10156 12.20661 15.5968-8.9151-1.44582-15.8086-5.12856-22.7251-10.7488zm151.31164 19.20111c-1.459 9.86683-.21478 8.7605-9.04058 8.87189-19.78431.2497-39.57123.278-59.35578.51251-6.4768.07673-13.01526.03217-19.40643.91016-7.30359 1.00336-11.91663-1.50055-14.45062-8.76141 34.02897-.51026 67.97097-1.01917 102.25341-1.53315zm-161.67157 22.15839c5.16736 4.10254 8.07489 1.82013 11.72565.42694 6.71942-2.56433 13.97345-3.79 21.072-5.24505 1.37549-.28193 3.19922.70239 4.56543 1.52093a44.47047 44.47047 0 0 1 5.14264 3.95435c9.72675 7.97674 17.38892 6.04321 22.8338-5.64051a3.92148 3.92148 0 0 1 2.93695-1.81463q52.47236-.15345 104.94544-.09394a17.18439 17.18439 0 0 1 2.195.38984c-5.42267 58.01428-10.84571 116.03265-16.33625 174.77386-49.77374-.50311-99.33008-1.004-149.79864-1.5141-3.06742-55.10815-6.13004-110.13061-9.28202-166.75769zm2.51954 173.77173c42.472.257 84.94348.61237 127.41571.798 10.81152.04731 21.6253-.57385 32.438-.56994 4.42456.00158 8.84888.84674 13.85114 1.36841-.93732 4.98846-1.80792 9.62213-2.56409 13.6466h-176.70711c-.85992-5.0719-1.63239-9.62823-2.50952-14.80194 2.91302-.16678 5.49536-.45676 8.07587-.44113zm180.33667 40.41241c-.26136.93726-2.14673 2.02863-3.27863 2.0246-15.9726-.05737-31.94824-.14374-47.91534-.53729-10.14112-.24994-20.26349-1.25336-30.40461-1.51312q-44.18142-1.1316-88.37219-1.87836c-7.14612-.12048-14.30994.3501-21.45343.7605-3.02014.17346-4.51825-.89112-5.32867-3.82093-1.09931-3.97436-2.64008-7.82666-4.30548-12.63842 68.48455-3.93036 136.37725.18219 205.038.57727-1.47013 6.50543-2.52799 11.82049-3.97965 17.02575zm-150.08308-273.54688c-6.93567-3.84113-12.337-10.45288-18.96607-16.30847-14.69647 4.97912-30.41131 9.782-45.66687 15.75732-5.275 2.0661-9.44458 7.00141-14.05591 10.70484-8.81872 7.08252-17.52221 14.31018-26.40045 21.31671q-21.35833 16.85569-42.89605 33.48377c-1.75073 1.35913-3.72735 2.42743-5.59924 3.63056q-.55636-.54081-1.11267-1.08149a51.28791 51.28791 0 0 1 3.6579-4.51593c19.45862-19.27465 41.35699-35.56811 63.28546-51.83581 3.2887-2.43976 5.84827-5.86792 9.15424-8.27753 5.05389-3.68353 10.05993-8.02368 15.80413-10.0498 13.28168-4.68494 26.95813-8.27832 40.549-12.04584 5.74579-1.59277 10.77027-.62061 15.31348 4.22473 5.32 5.67365 11.56836 10.4881 17.52808 15.54077 1.18707 1.00635 2.96686 1.27893 4.33178 2.11969 1.42322.87665 3.39869 1.77051 3.88044 3.108 2.41754 6.71125 4.488 13.55152 6.51568 20.39533.34735 1.17236-.10272 2.58093-.18438 3.88037q-.82828.2612-1.65644.52234c-1.54632-2.56073-3.8009-4.93952-4.51349-7.71436-2.75395-10.72458-9.29762-17.49911-18.96862-22.8552zm105.482 179.42773c-2.29492-5.74395-6.74035-8.548-12.7901-8.62237-5.568-.06854-9.713 2.193-12.60431 7.34259a9.37014 9.37014 0 0 1 -6.452 4.07471c-1.33576.12133-3.52765-2.94043-4.38672-4.97059a13.16662 13.16662 0 0 0 -15.77161-7.906c-5.49286 1.40655-8.60779 4.973-11.0708 9.88928a10.02452 10.02452 0 0 1 -6.105 4.80072c-1.3208.27637-3.31531-2.85187-5.06195-4.38367-2.75726-2.41827-5.20374-6.00323-8.41211-6.94348-9.84442-2.88513-21.64227 10.26062-18.89789 20.49994.04737.17688.56372.228 1.26038.48517 1.96478-3.66827 3.60455-7.637 6.01922-11.05884 6.01563-8.525 11.48566-7.95825 15.98975 1.358 2.34283 4.84589 6.05182 6.56421 11.41022 5.72889 5.37542-.838 7.87439-4.81623 9.82049-9.02814 1.85395-4.01245 4.82648-6.09918 8.872-6.03363 3.88648.06305 5.89136 2.76556 7.1413 6.52777 1.97967 5.9585 8.03985 8.92157 13.58752 6.30469 3.075-1.4505 5.74689-4.3382 7.84821-7.14185 3.73273-4.98053 9.568-5.28516 13.08453-.15192 1.31464 1.919 2.31232 4.07508 3.76288 5.87458a29.89556 29.89556 0 0 0 4.13117 3.60321q.94975-.6363 1.89959-1.27246c-1.08593-2.99441-2.09356-6.02023-3.27471-8.97659zm-96.324-72.01773c-1.15394-.75866-2.98206-.492-4.49982-.69726.73144 1.48321 1.18268 3.21661 2.24377 4.40564 4.144 4.64337 8.48084 9.1145 12.86914 13.78058-1.24578 1.07464-1.87652 1.59649-2.48285 2.14538-3.57147 3.23316-7.58612 6.12317-10.50164 9.86823-1.3122 1.68542-.4264 5.082-.53791 7.70221 1.82642-.739 3.9596-1.10047 5.421-2.28827 4.22217-3.43183 8.17377-7.19635 11.58973-10.25537 4.44921 4.01171 8.3507 7.61145 12.349 11.10034 1.99262 1.73877 3.918 4.963 6.99036 1.696 4.54889-4.8371 4.55011-6.4649.47229-10.2185-3.41156-3.14014-6.8927-6.20465-10.58978-9.52417 4.80621-3.964 9.17523-7.29291 13.15893-11.03229 1.09278-1.02564 1.03186-3.28034 1.50037-4.97107-1.802.12219-3.97821-.3609-5.33643.479-4.23345 2.61786-8.21307 5.66339-12.17828 8.69086-2.07324 1.58289-3.48364 1.4021-5.585-.27649-4.75462-3.79814-9.7938-7.25877-14.88288-10.60482zm59.73761 37.14264c1.72955-.42352 3.84381-.35968 5.11529-1.36346 3.58856-2.833 6.83118-6.10419 10.43787-9.41156 3.89306 4.58612 7.20416 8.75012 10.83551 12.613 1.178 1.25311 3.19482 1.71771 4.82794 2.543.67663-2.3861 1.81451-4.7666 1.84375-7.1607.01569-1.28211-1.82422-2.63471-2.9198-3.87311-2.72571-3.08111-5.5047-6.115-8.59937-9.54114 4.6734-4.12945 9.11945-7.83581 13.25293-11.863 1.0633-1.036 1.14209-3.08252 1.67316-4.6648-1.79712-.4248-3.60626-1.20532-5.387-1.145-1.12207.038-2.2779 1.24262-3.28662 2.0824-3.80695 3.16956-7.55988 6.40411-11.27045 9.561-3.37653-3.22131-6.4455-6.48986-9.90289-9.27648-1.34528-1.08429-3.56647-1.082-5.38868-1.57459.095 1.90985-.4776 4.24133.41181 5.64954 2.54333 4.027 5.6803 7.679 8.50586 11.37652-3.14 3.89-6.20587 7.40222-8.89691 11.18146-.90701 1.27382-.86224 3.22528-1.25243 4.86696z"
        fill="#003041" />
</svg>