<svg viewBox="0 0 430 384.1" xmlns="http://www.w3.org/2000/svg">
    <!-- ©2023 COMICS/SRC by @nyuudo -->
    <path
        d="m234 378.6c-2.8-11.2-7.4-18.3 23.9-18.3 31.2 0 61.5-9 42.3-26.2 73.8 0 94.4-27.7 74.3-49.5-4.1-4.5-2-11.8 3.9-13.4 67-18.9 54-82.6 19.3-100.7-5.5-2.9-6.2-10.5-1.4-14.5 62.7-52.5 4.4-138.2-112.1-147.2-101.6-7.8-145.2-6.5-189.5 9.1-65.5 23.1-60.4 79.6-39.3 96.7s11.5 25.2-14 29.6c-34.8 6-51.5 58.1-21.3 80.2s55.8 14.6 54.4 25.2c-1.1 8.1-49.9-3.1-45.4 40.3 2.9 27.7 66.5 17.1 81.6 23.2s-29.2 3-20.1 26.2 121.5 27.2 121.5 27.2z"
        fill="#fff" />
    <path
        d="m430 218.3c-.1 7.6-2.2 15.1-5.6 21.8s-8.3 12.6-13.9 17.4c-5.5 4.9-11.7 8.8-18.1 12-2.4 1.2-4.8 2.4-7.1 3.3-2.3 1-4.5 1.9-6.7 2.5s-4.2 1.4-6.2 1.9-3.8 1-5.5 1.3c-1.7.4-3.2.6-4.6.8s-2.5.3-3.5.3c-2 .1-3.1-.2-3.2-.8s.7-1.4 2.4-2.3c.8-.5 1.9-1 3.1-1.5s2.7-1.1 4.2-1.7 3.2-1.3 5-2 3.7-1.6 5.7-2.4 4.1-1.8 6.2-2.8 4.3-2.1 6.5-3.3c5.9-3.2 11.4-6.9 16.3-11.3s9-9.4 11.9-15.1 4.6-11.9 4.9-18.2c0-1.6.1-3.2-.1-4.8-.1-.8-.1-1.6-.2-2.4l-.4-2.4c-.1-.4-.1-.8-.2-1.2l-.3-1.2-.6-2.3-.7-2.3-.4-1.1-.5-1.1c-1.8-4.5-4-8.5-6.4-11.9s-5-6.2-7.2-8.6c-4.5-4.6-7.9-7-7.2-8.2.3-.6 1.5-.5 3.4.1s4.5 1.9 7.5 4c2.9 2.1 6.1 4.9 9.2 8.6 3 3.7 5.8 8.1 8 13.2l.6 1.3.5 1.3 1 2.7.7 2.7.3 1.4c.1.5.2.9.3 1.4l.5 2.8c.1.9.2 1.9.3 2.8.2 1.5 0 3.4.1 5.3zm-329.6 91.1c-.1-1.3-4.1-1.9-10.3-2-6.2-.2-14.8.1-24-.7-6.2-.5-12.3-1.5-17.9-3.4-5.5-1.9-10.4-5.1-13-9.6-1.3-2.3-1.9-4.6-2.5-7.7-.5-2.9-.6-5.8-.3-8.5.5-5.5 3.2-10.1 7.8-13.2 3.3-2.4 7.4-3.8 11.1-4.9 3.8-1.1 7.3-1.8 10.3-2.4s5.5-1.1 7.2-1.7c1.8-.6 2.7-1.2 2.6-1.9-.1-.6-1.1-1.1-2.8-1.4s-4.4-.6-7.6-.5c-3.2 0-7.1.3-11.4 1.1-2.1.4-4.4 1-6.7 1.9-2.3.8-4.7 1.9-7 3.4-.8.5-1.5 1.1-2.3 1.6-.7.6-1.4 1.2-2.1 1.9-1.3 1.4-2.6 2.8-3.6 4.5-2 3.3-3.2 7-3.6 10.7-.5 3.7-.2 7.3.3 10.7.3 1.8.6 3.4 1.2 5.3.2.9.6 1.8 1 2.7s.8 1.8 1.3 2.6c1.9 3.4 4.7 6.2 7.7 8.3 3.1 2.1 6.3 3.6 9.7 4.8 6.7 2.3 13.4 3.1 20.1 3.4 9.9.5 18.7-.5 25-1.5 6.1-1 9.8-2.2 9.8-3.5zm325.5-213.6c-.8-8.9-3.8-18-8.7-26.4-4.8-8.4-11.3-16-18.8-22.7-5.1-4.5-10.5-8.5-16.2-12.2-5.7-3.6-11.6-6.8-17.6-9.7-12.1-5.7-24.8-10.1-37.7-13.3-13-3.2-26.1-5.4-39.4-6.6-3.3-.3-6.6-.5-9.8-.8l-9.8-.7-19.6-1.4-9.8-.6c-3.3-.2-6.6-.4-9.8-.5l-9.8-.5-9.9-.3c-13.2-.3-26.4-.5-39.6.1-13.4.8-26.7 2-39.8 4.4-1.6.2-3.3.6-4.9 1l-4.9 1c-3.2.7-6.4 1.6-9.7 2.4l-4.8 1.4c-1.6.5-3.2.9-4.8 1.5l-4.8 1.6-2.4.8-2.3.9c-1.2.5-2.3.9-3.5 1.4-1.1.5-2.3 1-3.4 1.5s-2.3 1-3.4 1.6-2.2 1.1-3.3 1.7-2.1 1.2-3.2 1.8c-1.2.6-2.2 1.2-3.2 1.8-1 .7-2 1.4-3 2-.5.3-1 .7-1.5 1l-1.4 1.1c-3.9 2.8-7.4 6.1-10.5 9.5-.8.8-1.5 1.8-2.3 2.6-.7.9-1.4 1.8-2.1 2.7-.3.5-.7.9-1 1.4l-1 1.4c-.6 1-1.3 1.9-1.8 2.8-4.5 7.7-7.2 15.9-8 23.8-.3 2-.3 3.9-.3 5.8.1 1.9.1 3.8.3 5.6.3 3.7 1 7.1 2 10.3s2.1 6.2 3.6 8.9c.7 1.4 1.5 2.6 2.3 3.8.8 1.1 1.6 2.3 2.5 3.3 1.7 2.1 3.7 3.7 5.4 5.1 1.7 1.2 3.2 2.4 4.5 3.6 1.3 1.1 2.3 2.2 3.3 3.2s2 1.8 2.8 2.3c1.6 1.1 2.5 1.5 2.8 1.2.2-.3-.4-1.1-1.5-2.5-.6-.7-1.2-1.6-2-2.7-.7-1.1-1.7-2.5-2.9-3.8-1.2-1.4-2.7-2.8-4.4-4.3-1.5-1.4-3-2.9-4.4-4.9-.7-.9-1.4-2-2-3.1s-1.2-2.3-1.8-3.5c-1.2-2.4-2.1-5.1-2.8-8.1-.7-2.9-1.2-6.1-1.4-9.3 0-1.7.1-3.4.1-5.1.1-1.7.2-3.4.5-5.2 1-7 3.5-14.3 7.7-21l.4-.6.5-.6.8-1.2.8-1.2c.3-.4.6-.8 1-1.2.6-.8 1.2-1.6 1.9-2.4s1.4-1.5 2.1-2.3c2.9-3 6.1-5.9 9.7-8.4l1.3-1c.5-.3.9-.6 1.4-.9.9-.6 1.9-1.2 2.8-1.8 1-.6 1.9-1.1 2.9-1.7s2-1.1 3-1.6l3.1-1.5c1-.6 2.1-1 3.2-1.4 1.1-.5 2.1-1 3.2-1.4s2.2-.8 3.3-1.2l2.2-.8 2.3-.7 4.6-1.5c1.5-.5 3.1-.9 4.6-1.4l4.6-1.4c3.1-.8 6.2-1.6 9.4-2.3l4.8-1c1.6-.3 3.2-.7 4.8-.9 12.7-2.2 25.6-3.3 38.5-3.8 13-.6 26-.3 39 0l9.8.3 9.8.5c3.3.1 6.5.3 9.8.5l9.8.6 19.6 1.3 9.8.7c3.3.2 6.6.5 9.7.7 12.8 1.1 25.6 3.2 38.1 6.3s24.7 7.2 36.3 12.7c5.4 2.7 11.1 5.7 16.4 9.1 5.4 3.4 10.5 7.2 15.3 11.3 7.1 6.2 13.1 13.1 17.5 20.6 4.5 7.5 7.2 15.5 8.1 23.4.5 4 .5 7.8.2 11.6-.3 3.7-1.1 7.4-2 10.8-.5 1.8-1.1 3.4-1.6 5-.6 1.6-1.2 3.2-1.9 4.7-1.4 3.1-2.9 5.9-4.5 8.5-6.4 10.6-13.4 18.1-18.2 23.2-2.4 2.5-4.4 4.6-5.6 5.9-1.2 1.4-1.8 2.3-1.6 2.5s1.1-.2 2.8-1.1c1.6-1 3.9-2.7 6.7-4.9 5.5-4.6 13.3-11.8 20.6-22.7 1.8-2.8 3.6-5.7 5.1-9 .8-1.6 1.5-3.3 2.3-5 .7-1.8 1.4-3.6 1.9-5.4 1.2-3.7 2.1-7.7 2.6-11.9.6-4.3.7-8.6.2-13.1zm-393.9 140.9c1.1.6 2.1 1.2 3.2 1.7 6.4 3.3 12.8 5.8 18.8 7.5s11.5 2.6 16 3.2 8.1.9 10.6 1.1 4 .1 4.2-.5c.1-.3-.2-.7-.7-1.1-.6-.5-1.5-1-2.7-1.5-2.4-1.1-6-2.1-10.4-3.3s-9.5-2.5-15-4.4-11.4-4.4-17.2-7.6c-1-.5-2-1.1-2.9-1.6l-2.9-1.7c-1.9-1.2-3.8-2.4-5.7-3.7l-2.8-2c-.9-.7-1.9-1.3-2.7-2s-1.6-1.3-2.4-2c-.7-.7-1.5-1.4-2.1-2.3-5.5-6.2-8.4-14.6-8.7-23.1s1.7-17.3 5.5-25.1c3.8-7.7 9.7-14.5 16.9-18.8 2.7-1.6 5.5-2.7 8.4-3.5.7-.2 1.5-.3 2.3-.6l.6-.2c.2 0 .3-.2.5-.2l.7-.3c.3-.2.7-.3 1-.5 1.4-.7 2.8-1.2 4.1-1.9 5.4-2.3 10.3-4 14.5-5.1s7.7-1.8 10.2-2.4c2.4-.6 3.8-1.1 3.8-1.8 0-.6-1.4-1.2-4-1.5s-6.4-.4-11.1.2-10.2 2-16 4.1c-1.5.5-2.9 1.1-4.4 1.8-.7.3-1.8.8-1.5.6-.8.2-1.6.3-2.5.5-3.5.8-7 2.1-10.3 4-4.5 2.5-8.4 5.8-11.9 9.5-3.4 3.7-6.3 7.9-8.5 12.4-4.5 8.9-7 18.9-6.6 29.1.2 5 1.2 10.1 3 14.9s4.5 9.3 7.9 13.2c.8 1 1.8 1.9 2.7 2.8s2 1.7 2.9 2.5c1 .8 2 1.5 3 2.1l2.9 2c2 1.4 4.1 2.5 6.1 3.8zm349.3 52.2c-3.2-3.7-6-5-6.8-4.2-1 .9.4 3.4 2.3 7.3.9 1.9 2 4.2 2.7 6.7s1.1 5.3.7 8c-.2 1.8-.8 3.6-1.7 5.1-1 1.6-2.1 3.1-3.6 4.4-2.9 2.7-6.7 4.8-10.7 6.4-4 1.7-8.3 2.9-12.7 4-4.4 1-8.9 1.8-13.3 2.4-13.5 1.8-24.7 2.5-24.7 5.1 0 2.5 11.3 3.8 25.5 2.5 4.8-.5 9.5-1.1 14.3-2.1s9.5-2.4 14.1-4.3 9.2-4.5 13.1-8.1c1.9-1.9 3.7-4.1 5-6.6s2.1-5.3 2.4-8.1c.3-4.2-.6-8.1-1.9-11.2-1.4-3-3.1-5.4-4.7-7.3zm-74 49.5c-.8-1.1-1.6-1.9-2.4-2.6-.8-.6-1.5-1.1-2.1-1.4-1.3-.6-2.1-.7-2.6-.2s-.3 1.4.2 2.5c.3.6.6 1.2 1 2 .3.7.7 1.5 1 2.4.3.8.5 1.8.5 2.5 0 .8-.2 1.5-.7 2.1-.5.7-1.2 1.5-2.2 2.3-1 .7-2.3 1.5-3.6 2.1-3.7 1.7-8 2.9-12.3 3.7-4.4.8-8.8 1.5-13.3 1.8-4.5.4-9 .6-13.6.6-4.8.1-9.5.3-14.4 1.1-1.8.3-3.7.7-5.5 1.3s-3.6 1.4-5.3 2.9c-.8.7-1.6 1.7-2.1 2.7s-.8 2.1-.9 3.1c-.2 1.9.2 3.4.5 4.6.4 1.3.8 2.4 1.3 3.2-1.8-1.4-3.8-2.8-6.1-4.5-1.6-1.1-3.3-2.3-5.1-3.6-.9-.6-1.8-1.2-2.7-1.9-.5-.3-1-.6-1.4-1-.7-.5-1.5-1-2.3-1.5-2.5-.1-3.1-.2-4.2-.3s-2.3-.2-3.4-.2c-2.3-.2-4.6-.3-7-.5-17-1.3-34-3-50.8-5.5-8.4-1.3-16.7-2.8-24.9-4.8-4.1-1-8.1-2.1-12-3.4-3.9-1.4-7.7-2.9-11-4.9-2.4-1.4-4.4-3.2-5.4-4.9l-.3-.6-.3-.8c-.1-.3-.2-.6-.3-.8-.1-.3-.2-.6-.2-.8-.3-1.1-.3-2.1-.2-3.1.2-1.9 1-3.4 2.4-4.9 1.4-1.4 3.1-2.5 4.8-3.5 3.4-1.9 6.5-3.2 8.6-4.3s3.2-2.1 2.9-2.7c-.2-.6-1.6-.7-3.9-.5-2.4.3-5.8.8-10 2.4-2.1.8-4.4 1.9-6.7 3.8-1.1 1-2.3 2.1-3.2 3.6s-1.6 3.2-1.9 5-.3 3.7.1 5.4c.1.5.2.8.3 1.3s.2.8.3 1.2.3.8.4 1.2c.2.5.4 1 .6 1.4 1 1.9 2.2 3.3 3.6 4.6s2.8 2.4 4.3 3.3c4 2.5 8.2 4.3 12.4 5.8s8.4 2.7 12.7 3.8c8.5 2.1 17.1 3.7 25.7 5 17.2 2.6 34.4 4.1 51.6 5 2.4.1 4.8.2 7.1.3 1.2.1 2.3.1 3.4.1 1 0 2.3.1 2.4.1l.1.1.2.1.4.2c.5.3 1 .6 1.5.9 1 .6 1.9 1.1 2.9 1.7 1.9 1.1 3.7 2.1 5.4 3.1 3.4 1.9 6.4 3.6 9 4.9 5.1 2.6 8.4 3.8 9 2.9.5-.8-1.3-2.8-4.8-5.7.3-.4.5-1 .5-1.9.1-1.4-.1-3.2-.1-5.3 0-1 .1-2 .3-2.7.1-.3.3-.6.5-.8s.4-.4.7-.6c.6-.5 1.8-.8 3.1-1.2 1.3-.3 2.8-.6 4.4-.8 4.3-.5 8.8-.6 13.3-.6 4.7.1 9.5-.1 14.3-.5s9.6-1.1 14.3-2.1c4.8-1.1 9.5-2.4 14.1-4.8 1.7-.9 3.4-2 4.9-3.2 1.5-1.3 2.9-2.9 3.8-4.9.8-1.9 1.1-4.2.7-6.1-.7-1.1-1.5-2.6-2.3-3.7z"
        fill="#003041" />
</svg>