<svg enable-background="new 0 0 374 348" viewBox="0 0 374 348" xmlns="http://www.w3.org/2000/svg">
    <!-- ©COMICS/SRC by @nyuudo -->
    <path
        d="m183.9 197.4c-.7 2.3-.3 3.8 2.6 3.6 4.2-.4 8.4-.3 12.5.4-4.8 1.8-9.5 3.5-14.3 5.3.2.8.4 1.5.6 2.3 3.7-.4 7.4-.9 11.1-1.3 1.2 4.7-5 10.4-10.7 9.1-4.2-.9-9.6.1-12-5.8-.6-1.4-4-1.8-5.9-2.5-.6-4 10.9-6.9-.3-11.2zm16.9-5c-1.6.1-3.1.3-4.7.6-4 1.3-8 2.8-11.9 4.3 5.7-.7 11.3-1.5 16.9-2.3-.1-.8-.2-1.7-.3-2.6zm-16.6 4.9c-.1 0-.2 0-.2 0h.1c0 .1 0 .1.1 0zm-59.4-21.2c4.7 5.6 6.2 10.4 3.3 17-.7 1.5-.1 3.6-.1 5.4h1.8c1.7-3.8 3.1-7.7 5-11.4 1.9-3.8 1.2-6.7-1.3-10-25.3-33.6-50.6-67.3-75.7-101-.8-1.1-1.8-2-3.3-3.6-.8 3.7-1 6.6-2.1 9.1-1.9 4.3-.4 7.2 2.4 10.6 23.4 27.9 46.4 56.2 70 83.9zm126.3 2.6c5.1-5.4 9.6-10.2 14.1-15 23.7-25.2 47.3-50.5 71-75.8 1.3-1.4 2.7-3.8 2.4-5.4-1-5.5-2.7-10.9-4.2-16.8-1 .8-1.9 1.6-2.7 2.6-26.5 32.5-52.9 65.1-79.5 97.4-3.6 4.2-3.2 7.9-1.1 13zm-116.8-45.9c10.9 7.5 17.9 17.2 19.5 30.5.4 3.5 1.1 6.9 2 10.3 4.4 16.3 5.7 18.4 24.5 19 3.3 0 6.6-.7 9.7-1.9 12.2-4.5 17.4-9 15.9-21.8-1.4-12.1-.6-18.3 6.3-28.3 2.5-3.7 5.5-8.3 8.3-11.8 7.3-9.2 13.4-18.8 14.9-30.3.9-8.1 1.4-16.3 1.2-24.5-.5-.3.3-12.6 0-13.9-1.4-7-4.2-13.8-6-20.7-1.9-7.5-5.4-14.3-11.7-18.4-6-3.9-12.5-7.5-18.9-10.8-5.2-2.4-10.7-4.2-16.4-5.3-35.4-4.7-72.1 21.9-78 57.3-.9 5.4-2.1 8.9-2.6 14.6-.3 5.3.2 10.7 1.4 15.9 3.3 18.1 14.6 29.7 29.9 40.1zm109.8 52.2c.6-.1 1.2-.1 1.8-.2 0-1.6.5-3.5-.1-4.8-3-6.9-1.3-12 3.6-17.9 24.2-28.4 47.7-57.2 71.5-86 .9-1 1.9-2.7 1.6-3.8-.8-4.3-2.2-8.5-3.5-13.5-1.5 1.8-2.5 3-3.5 4.3-4.8 6.4-9.5 12.9-14.2 19.3-20.5 27.4-41.1 54.9-61.6 82.3-1.1 1.5-2.3 3.8-1.9 5.3 1.7 5.2 4.1 10.1 6.3 15zm81.2 4.4c-.5 3.7-.9 7.5-1.4 11.2-1 7.8-1.9 15.6-2.9 23.3-.4 3.4 1.5 4.4 4.3 4.7 4 .5 7.6-2.4 8.1-6.4.1-.5.1-.9 0-1.4-.1-2 .2-3.9.2-5.9.4-9.3-1.5-17.9-6.8-25.6-.4.1-.9.1-1.5.1zm-17.8 5.2c-.6 1.4-1.7 2.9-1.6 4.3.2 11.1.6 22.1 1.1 33.2.3 1.2 1.2 2.1 2.3 2.5 1.4.1 2.8-.3 3.9-1.2 1-1.1 1.7-2.5 1.8-3.9 1.2-12.1-2.1-23.4-5.8-34.6-.5-.1-1.1-.2-1.7-.3zm-242.9 53.3c.6.1 2.1-2.2 2.2-3.5.7-9.2 1.4-18.5 1.6-27.7.1-2.8-1.2-5.7-1.8-8.5-.8.1-1.5.2-2.3.3-3.4 10.7-6 21.5-5.7 32.8 0 1.4.3 3.3 1.2 4.2 1.3 1.3 2.9 2.1 4.8 2.4zm54.4-59.5c1.1 1.2 2.5 2.3 3.7 3.5 2.9-5.6 1.6-9.4-1.9-13.6-26-31.6-51.7-63.3-77.5-95.1-1.1-1.4-2.3-2.7-3.9-4.7-1.5 6-2.5 10.9-4 15.6-1 3.2-.1 5.2 2.1 7.5 27.2 28.9 54.4 57.8 81.5 86.8zm248.4-28.6c-3.7-18.1-7.2-36.2-10.8-54.3-1.7-8.6-3.4-17.1-5.2-26.4-1.4 1.2-2.2 1.8-2.9 2.5-32.4 35.3-64.7 70.7-97.5 105.7-4.3 4.6-4.1 8.1-2.4 13.1 1.6 4.8 3.2 9.6 4.8 14.5l-4-1-31.1-4.9s5.4 23-29.5 32.1c-36.2 9.5-37.5-24-37.5-24l-26 11.5-22.7 53.7-21.4-11.2c.6-.9 1.1-1.8 1.5-2.8 3-8 2.8-16.3 1.2-24.6-1.1-5.5-2-11-6.1-15.2-.5.1-1 .1-1.5.2-1.4 9.6-2.5 19.3-4.5 28.9-.8 3.1-.4 6.3 1.1 9.1l-4.6-2.4-26.4 83.7h53.1l21.4-44 4.8 44h131.4l2.4-32.9 4.3-19.8 22 52.7h56.5l-31.9-93.7-4.1-4.2c.4-.8.5-1.7.5-2.6-.7-10.8-3.2-21.4-5.2-33.6-1.9 2.6-3.5 4-3.9 5.6-1.4 6-2.9 12-3.8 18.1l-3.3-3.4c.8-6 1.9-12 3-18 .5-2.4 3.5-4.9 5.9-6 3-1.3 4-2.9 4.4-5.8.4-3.1.4-6.6 1.9-9.2 1.6-2.3 4-4 6.8-4.6 1.5-.3 4 2.1 5.3 3.8 1.6 2.1 2.4 4.8 4 8.3.6-4.7.9-8.2 1.4-11.6.5-3.7 1.2-7.6 5.6-8.5 4.7-1 7.5 2 9.6 5.6 1.7 2.9 3 6.1 5.2 10.7 2.1-2.8 3.5-4.9 5.1-6.7 6.5-7.1 12.7-14.6 19.8-21.1 3.7-3.5 4.2-6.8 3.3-11.3zm-314.6 76.4c-.7-5.6-1.6-11.3-2.3-16.9-.7-5.5-1.4-10.9-2.1-16.4-.5-.1-1-.2-1.4-.3-1.2 1.8-2.3 3.8-3.3 5.7-4 8.9-3.8 18.3-3.3 27.7.2 3.6 4 6.1 7.9 6.1 3.9-.1 5-2.4 4.5-5.9zm63.1 4c3.1-9.3 6.6-18.5 9.7-27.8 1-3.1 2.5-6.3-.5-9.3-3.4-3.4-6.6-7.1-9.8-10.6-24.2-26.1-48.4-52.3-72.5-78.4-6.5-7-13-14.1-19.9-21.6-.6 2.2-1.2 3.6-1.4 5-5.3 26.6-10.5 53.2-15.5 79.8-.1 1.9.5 3.7 1.8 5.1 5.7 6.3 11.5 12.4 17.4 18.6 3.2 3.4 6.4 6.7 9.7 10.1 2.4-4.3 4-8.4 6.8-11.5 1.8-2 5.6-3.7 8-3.2 2 .4 4.1 4 4.9 6.6 1.1 4 1.2 8.3 1.8 13.5 1.7-3.5 2.9-6 4.1-8.5 1.2-2.6 2.8-5.1 5.9-4 2.4.9 5.1 2.6 6.1 4.7 1.5 3 1.3 6.8 2.2 10.1.4 1.5 1.4 3.7 2.5 4 6.2 1.3 8.5 6 9.2 11.2 1.3 10 1.8 20.1 2.6 30.1.1 1.4.2 3.1 1 4.1 3.8 4.5 7.9 8.9 12.7 14.1 1.2-3.5 1.7-5.2 2.2-6.9 3.6-11.7 7.2-23.5 11-35.2z"
        fill="#fff" />
    <path
        d="m160 123.2c-2.7-4.3-1.9-7.3 2.9-8.1 7.6-1.2 15.4-1.7 23.1-1.4-6.5 4.5-14.5 3.3-21.4 6.1 3.6 5.3 9.5 8 14.6 4.9 4.5-2.7 7.8-7.4 12.3-11.8.3 6.3-1.7 11.4-6.3 15-7.7 5.9-20.1 3.4-25.2-4.7zm20.8-65.3c5.8-7.1 13.4-7.5 21.6-6.2 1.1.2 2.4-1 3.6-1.5-.9-1.1-1.5-2.7-2.6-3.1-7-2.6-14-2.8-20.5 1.5-3.1 2.1-5.3 4.9-3.6 9.4.9-.1 1.4 0 1.5-.1zm-50.5 1.7c3.7-4 7.9-4.3 12.7-2.6 1.9.5 3.8.9 5.8 1-2.2-5.9-6.7-7.3-11.5-7.6-4.8-.4-8.2 2.4-10.6 6.2-.7 1.1-.2 2.9-.2 4.4 1.3-.4 3-.5 3.8-1.4zm66 14.3c-2.9 2.4-3.5 4.9-1.7 7.6 5.6-6.3 7.9-6.7 13 .7 3-2.9 2.2-5.2 0-7.5-2.9-3.1-7.9-3.5-11.3-.8zm-55.3 5.5c-2.5 2.4-4.6 5.3-1.9 8.5 2.5-2.4 4.5-5.6 7-6.2 1.6-.4 4.2 2.9 6.6 4.8 2.2-2.1 1-4.2-1-6.2-3.2-3.3-7.8-3.7-10.7-.9zm-45.2 5.9c-.7-1.9-2-3.8-1.9-5.5.1-1.3 1.9-3.1 3.3-3.5 2.8-.7 3.4-2.3 3.7-4.9 3.8-29.9 20.2-51.3 46.8-63.8 18-8.5 37.4-9.1 55.6 1.8.1.1.3.2.4.2 20.5 8.8 31.9 24.3 33.8 46.6.2 2.6 1.3 4.3 4.2 5.4 4.8 1.9 4.8 6.1.1 9.4-.4-2.2-.7-4.2-1.1-6.2l-.4.2c0 5.6-.1 11.1 0 16.7.3 18.1-5.7 33.9-16.9 47.9-1.9 2.3-3.7 4.7-5.6 7.1-7.1 9.2-10.8 19.4-9.5 31.1.9 8.1.3 15.7-7.1 21.4 7.6 6.1 7.6 6.2 2.1 9.3-.6 2.9-1 4.8-1.5 6.7-.1.3-.6.7-.5.8 3.3 6.1-2.4 10.3-3.3 15.5-.7 4.1-3 6.3-7 6.4-3.5 0-7-.2-10.4-.5-1.3-.1-2.6-.6-3.6-1.5-3-3.4-5.8-7-8.6-10.6-.3-.6-.7-1.1-1.1-1.6-5.1-4.4-5.1-4.3-2.3-9-1.3-3.4-2.3-6-3.3-8.6-.2-.4-.3-1-.6-1.3-9.7-7.1-10.4-18.3-12.2-28.5-2.3-13-8.6-22.3-19.2-30-18.2-13.2-28.8-31-29.1-54.1-.1-1-.2-1.9-.4-2.8-3.4.4-3.4.4-4.4 5.9zm103.2 116.2c-4.1-.7-8.3-.9-12.5-.4-2.9.2-3.3-1.3-2.5-3.6h-16.4c11.1 4.2-.3 7.2.3 11.2 1.9.8 5.3 1.1 5.9 2.5 2.3 5.9 7.8 4.8 12 5.8 5.7 1.3 11.9-4.4 10.7-9.1-3.7.4-7.4.9-11.1 1.3-.2-.8-.4-1.5-.6-2.3 4.7-1.9 9.5-3.7 14.2-5.4zm2.1-6.4c-.1-.9-.2-1.8-.4-2.6-1.6.1-3.1.3-4.7.6-4 1.3-8 2.9-12 4.3zm-87.6-115.3c2.5 1.4 4.9 2.9 7.4 4.2 1.4.6 2.9 1.1 4.4 1.6 2.6-13.1 6.5-19.2 14.1-20.1 10.4-1.2 18.7 2.9 24.1 13.1 4.3-7 10-6.2 15.9-3.7 5-8.5 10.4-16.4 21.2-16 10.1.1 17.4 5.2 20 16.1 4.1-3.8 7.6-6.8 10.8-10.2 1-1.2 1.4-2.8 1.2-4.4-1.4-7-3.1-13.9-4.8-20.8-1.9-7.5-6.6-13-12.9-17.1-5.9-4-12.1-7.7-18.4-11-3.8-2-7.9-3.4-12.2-4.1-35.4-4.7-71.9 22.5-77.8 58-1.8 9.6-1.8 9.6 7 14.4zm101.2-10.3c-3.2-4.8-11.9-8.5-17.1-7.2-8.1 2.1-15 12.1-13.9 20.2.9 7.1 10 14.4 19.1 14.6 1.2-.1 2.3-.3 3.4-.6 7.6-3 13-20.3 8.5-27zm-69.6-1.7c-8.1-.3-14.2 6.3-14.6 15.7-.4 9.5 5.7 16.1 15.3 16.5 7.3.3 15.5-8.1 15.6-16 0-8.9-7-15.8-16.3-16.2zm-39.9 11.7c.3 4.2.2 7.3.7 10.4 3.3 18.3 13.1 32.5 28.3 42.9 10.9 7.5 17.9 17.2 19.5 30.5.4 3.5 1.1 6.9 2 10.3 4.4 16.3 5.7 18.4 24.5 19 3.3 0 6.6-.7 9.7-1.9 12.2-4.5 15-9 13.5-21.8-1.5-11.7 1.4-23.5 8.2-33.1 2.5-3.7 5.2-7.3 8-10.8 7.3-9.2 12.2-19.6 13.7-31.1 1.1-8.2.2-16.6.2-24.9-.5-.3-1-.6-1.5-1-1.9 2.3-3.6 4.7-5.7 6.8-3.6 3.7-6.5 7.2-7.6 12.8-1.9 10.2-8.8 15.1-18.5 14-10.4-1.2-17.2-7.2-20.7-17-1.9-5.3-4.9-7.5-8.9-6.5-3.8 1-6.4 5.5-6 9.8.2 1.5 0 3-.6 4.3-3.9 6.4-8.5 12.1-17.1 12-9-.1-16.1-3.5-20.1-12.1-.5-1.1-1.2-2.5-2.2-3.1-6-3.1-12.2-6-19.4-9.5zm264.5 93c-2.2 1.1-3.7 3.8-5.6 5.6-7.8 7.5-15.7 14.8-23.3 22.4-1 1-1.2 3.3-.9 4.8 1.1 5.9.6 12-1.6 17.6-4.2 10.7-7 12.3-18.2 8.9-2.6 4.5-5.5 8.6-13.1 5 1.3 6.6 1.9 12.3 3.5 17.6 5.9 19.4 28.5 89 28.4 89.6-.3 1.3-.6 2.7-1 4-1-.9-2.5-1.6-2.9-2.7-5-13.4-19.6-56.4-24.4-69.9-1.9-5.5-3.6-11.1-5.5-17.2-4.4 5.2-8.7 10.2-16.9 4.2 0 3.1-.2 5.4 0 7.6 1.8 18.3 3.6 36.7 5.4 55 .1.7 2 19.1 1.9 19.8-.5 1.1-1.1 2.2-1.7 3.2-.9-1-2.5-1.9-2.6-3-1.1-7.9-3.7-33.7-4.6-41.6-.3-4.1-1.2-8.1-2.6-11.9-2.8 3.5-5.7 6.9-8.2 10.7-1.7 2.6-2.5 5.8-4.1 8.5-.9 1.5-2.6 2.6-3.9 3.8-1.3-1.4-2.9-2.6-3.8-4.2-1.2-2.5-2.2-5-3.1-7.6-2.3 9.2-4.4 35.4-6.5 43.6-.1.5-1.3.8-2.6 1.6-.2-1.6-.1-21.1-.1-22.7 1-17.7 2.1-35.5 3.1-53.2-.1-1 0-2 .2-3 .6-1.1 1.4-2.1 2.2-3 .9 1 2.2 1.8 2.7 3 .4 1.4.6 2.9.5 4.4.1 2.5.2 5 0 7.5-.6 8.5.9 16.3 7.5 22.9.7-1.7 1.5-3.3 2.5-4.8 3.5-4.4 7.3-8.5 10.8-12.9 1.2-1.6 2.5-3.8 2.4-5.7-.3-4.9-1.4-9.8-2.3-16.1-3.7 3.5-6.6 6.3-9.5 9.1-1.2 1.2-2.5 2.3-3.7 3.4-1.2-1.6-2.9-3.1-3.5-4.9-5.3-17-10.6-34-15.5-51.1-1.1-3.9-3.2-5.1-7-5.4-6.9-.6-13.8-1.8-21.4-2.9 0 12.7-9.5 19.4-18.1 25.2-10.3 6.9-22.9 8-35.2 6.3-10.1-1.4-16.2-9.6-15.9-19.9 0-1.6 0-3.2 0-4.5-7.9 2.9-15.7 5.7-23.3 8.7-1.1.4-2 2.2-2.4 3.5-5.4 17.5-10.8 34.9-16.2 52.4-.3 1.3-.7 2.6-1.2 3.8-1.5 2.9-3.7 2.8-5.7.3-2.8-3.4-5.9-6.6-8.8-9.9-.5.1-1 .2-1.4.3-.9 5.9-1.8 11.8-2.6 17.7.1.8.5 1.5 1.1 2 3 2.8 6.5 5.3 9.1 8.4 2.5 3 4.2 6.7 6.1 10 7.3-6.2 7.3-14.9 7.4-23.6 0-2.5-.3-5.1.2-7.5.4-2.2 1.6-4.2 2.5-6.3.9 2 2.4 4 2.5 6.1.5 9.3.3 18.6.9 27.9.5 8.1.8 21.2 1.7 29.3.1 1.6.1 3.3 0 4.9-4.2-1-3.5-6.4-5.3-17.1-.8-4.7-1.4-9.5-3-14.4-1 2.7-2.1 5.3-3.5 7.9-.8 1.4-2.5 3.2-3.7 3.2-1.3 0-3.1-1.8-3.7-3.2-3.1-7-5.7-14.2-13.3-19.2-.8 6.7-1.5 13-2.2 19.3-.6 5.1-1.7 14.8-2.5 19.9-.2 1.4-1.5 2.5-2.3 3.7-.7-1.4-2.1-2.9-2-4.2 1.6-18.5 4.1-41.5 5.8-60.1.2-2.4.3-4.8.4-7.6-8 4.4-9.6 4-17.1-4.4-7 20.5-17.3 56.9-26.4 76.3-.8-.1-1.6-.3-2.3-.4.3-2.6 4.8-21 5.5-23.4 5.7-18.4 11.7-36.7 17.3-55.2 1.7-5.6 2.5-11.4 3.9-18.5-7.6 3.4-10.7-.4-13.2-5.1-1.9.5-3.4 1.1-5 1.4-5.5 1-9.6-1.1-11.7-6.1-3-7-4.8-14.2-2.9-21.8.7-2.8-.3-4-2.6-5.9-6.8-5.8-13-12.3-19.5-18.6-3.3-3.2-6.8-6.3-9.8-9.8-1.2-1.5-1.7-3.4-1.6-5.3 1.2-8.9 2.2-17.8 4.2-26.6 4.5-19.8 9.6-39.4 14.4-59.1.4-2.4.7-4.9.9-7.4 4.9-.2 6.1 5.4 10.1 7 2.2-6.8 4.5-13.6 6.9-20.9l10 10c1.8-6.6 3.5-12.8 5.5-20.5 2.1 2.8 3.3 4.3 4.4 5.8 27.6 37.2 55.1 74.3 82.7 111.5 1.1 1.4 1.7 4.4 1 5.7-6.3 10.8-6.7 23.4-11 34.9-.5 1.3-.7 2.8-1.4 5.6 7.1-3.6 13.2-6.6 19.1-9.8 6.8-3.6 9.2-2.2 9.3 5.7.1 11.6 5.6 17.6 17.1 17.3 7.8-.3 15.6-1.4 23.1-3.2 8-2 13.5-7.9 17-15.1 1.1-2.4.8-5.8.3-8.6-.6-2.9-.4-4.9 2.9-4.6 7.3.5 14.7 1.2 22 1.9 1.7.2 3.4 1.1 6.5 2.2-1.8-5.4-3.3-9.5-4.4-13.7-.6-2.4-.3-5-.6-7.5-.1-1.4-.6-2.8-1.2-4.1-8.6-15.8-8.5-15.8 2-29.9 25-33.7 50-67.4 74.9-101.1.4-.7.9-1.4 1.4-2 .8-.9 1.8-1.6 2.7-2.4.7 1 1.8 1.9 2.1 3 1.3 4.9 2.4 9.9 3.7 15.6 2.8-3.2 5.2-5.8 7.5-8.4 7.1 5.1 7.2 12.5 9.5 19.7 2.9-2.7 5.3-4.9 8.4-7.7 1.7 5 3.5 9.1 4.5 13.4 5.7 26 11.2 52 16.7 78 .9 3.7.9 6.7-3.2 8.8zm-332.3-70.9c27.3 28.9 54.5 57.9 81.7 86.9 1.1 1.2 2.5 2.3 3.7 3.5 2.9-5.6 1.6-9.4-1.9-13.6-26-31.6-51.7-63.3-77.5-95.1-1.1-1.4-2.3-2.7-3.9-4.7-1.5 6-2.5 10.9-4 15.6-1.2 3.1-.3 5.1 1.9 7.4zm15.4 134.6c-.7-5.6-1.6-11.3-2.3-16.9-.7-5.5-1.4-10.9-2.1-16.4-.5-.1-1-.2-1.4-.3-1.2 1.8-2.3 3.8-3.3 5.7-4 8.9-3.8 18.3-3.3 27.7.2 3.6 4 6.1 7.9 6.1 3.9-.1 5-2.4 4.5-5.9zm15.6-19.5c.1-2.8-1.2-5.7-1.8-8.5-.8.1-1.5.2-2.3.3-3.4 10.7-6 21.5-5.7 32.8 0 1.4.3 3.3 1.2 4.2 1.3 1.3 3 2.1 4.8 2.4.6.1 2.1-2.2 2.2-3.5.7-9.2 1.4-18.4 1.6-27.7zm15.5 27.1c-1.1-5.5-2-11-6.1-15.2-.5.1-1 .1-1.5.2-1.4 9.6-2.5 19.3-4.5 28.9-1.1 4.2.1 8.7 3.1 11.9 1.2 1.4 3.2 2.8 4.8 2.8 1.1 0 2.5-2.4 3.1-4 3-8.1 2.8-16.4 1.1-24.6zm41.2-40.6c-3.4-3.4-6.6-7.1-9.8-10.6-24.2-26.1-48.4-52.3-72.5-78.4-6.5-7-13-14.1-19.9-21.6-.6 2.2-1.2 3.6-1.4 5-5.3 26.5-10.5 53.1-15.5 79.7-.1 1.9.5 3.7 1.8 5.1 5.7 6.3 11.5 12.4 17.4 18.6 3.2 3.4 6.4 6.7 9.7 10.1 2.4-4.3 4-8.4 6.8-11.5 1.8-2 5.6-3.7 8-3.2 2 .4 4.1 4 4.9 6.6 1.1 4 1.2 8.3 1.8 13.5 1.7-3.5 2.9-6 4.1-8.5 1.2-2.6 2.8-5.1 5.9-4 2.4.9 5.1 2.6 6.1 4.7 1.5 3 1.3 6.8 2.2 10.1.4 1.5 1.4 3.7 2.5 4 6.2 1.3 8.5 6 9.2 11.2 1.3 10 1.8 20.1 2.6 30.1.1 1.4.2 3.1 1 4.1 3.8 4.5 7.9 8.9 12.7 14.1 1.2-3.5 1.7-5.2 2.2-6.9 3.7-11.7 7.2-23.5 11-35.2 3.1-9.3 6.6-18.5 9.7-27.8 1.1-3 2.5-6.2-.5-9.2zm4.6-4.7c1.7-3.8 3.1-7.7 5-11.4 1.9-3.8 1.2-6.7-1.3-10-25.3-33.6-50.6-67.3-75.7-101-.8-1.1-1.8-2-3.3-3.6-.8 3.7-1 6.6-2.1 9.1-1.9 4.3-.4 7.2 2.4 10.6 23.4 27.9 46.4 56.2 70 83.9 4.7 5.6 6.2 10.4 3.3 17-.7 1.5-.1 3.6-.1 5.4zm122.4-32.8c-3.5 4.2-3.1 7.9-1 13 5.1-5.4 9.6-10.2 14.1-15 23.7-25.2 47.3-50.5 71-75.8 1.3-1.4 2.7-3.8 2.4-5.4-1-5.5-2.7-10.9-4.2-16.8-1 .8-1.9 1.6-2.7 2.6-26.5 32.5-52.9 65-79.6 97.4zm-2.7-3.5c24.2-28.4 47.7-57.2 71.5-86 .9-1 1.9-2.7 1.6-3.8-.8-4.3-2.2-8.5-3.5-13.5-1.5 1.8-2.5 3-3.5 4.3-4.8 6.4-9.5 12.9-14.2 19.3-20.5 27.4-41.1 54.9-61.6 82.3-1.1 1.5-2.3 3.8-1.9 5.3 1.7 5.1 4.1 10 6.2 15 .6-.1 1.2-.1 1.8-.2 0-1.6.5-3.5-.1-4.8-3-7-1.3-12.1 3.7-17.9zm52.8 85.3c-.7-10.8-3.2-21.4-5.2-33.6-1.9 2.6-3.5 4-3.9 5.6-1.7 7.5-3.7 15.1-4.3 22.8-.4 4.6 1.5 9.4 2.9 14 .4 1.2 4.1 2.5 4.2 2.3 2.4-3.6 6.6-7.5 6.3-11.1zm7-52.6c-.6-.1-1.1-.2-1.7-.2-.6 1.4-1.7 2.9-1.6 4.3.2 11.1.6 22.1 1.1 33.2.3 1.2 1.2 2.1 2.3 2.5 1.4.1 2.8-.3 3.9-1.2 1-1.1 1.7-2.5 1.8-3.9 1.2-12.2-2-23.5-5.8-34.7zm17.8-5.6c-.5 0-1.1.1-1.6.1-.5 3.7-.9 7.5-1.4 11.2-1 7.8-1.9 15.6-2.9 23.3-.4 3.4 1.5 4.4 4.3 4.7 4 .5 7.6-2.4 8.1-6.4.1-.5.1-.9 0-1.4-.1-2 .2-3.9.2-5.9.4-9.3-1.4-17.9-6.7-25.6zm40.4-29.5c-3.7-18.1-7.2-36.2-10.8-54.3-1.7-8.6-3.4-17.1-5.2-26.4-1.4 1.2-2.2 1.8-2.9 2.5-32.4 35.3-64.7 70.7-97.5 105.7-4.3 4.6-4.1 8.1-2.4 13.1 6.9 20.5 13.5 41 20.3 61.6.5 1.6 1.1 3.2 1.6 4.8.7.4 1.3.7 2 1.1 2.6-3.2 5-6.7 8-9.5 3.4-3.2 4-6.7 4.2-11.4.7-10.4 2.1-20.7 4.2-30.9.5-2.4 3.5-4.9 5.9-6 3-1.3 4-2.9 4.4-5.8.4-3.1.4-6.6 1.9-9.2 1.6-2.3 4-4 6.8-4.6 1.5-.3 4 2.1 5.3 3.8 1.6 2.1 2.4 4.8 4 8.3.6-4.7.9-8.2 1.4-11.6.5-3.7 1.2-7.6 5.6-8.5 4.7-1 7.5 2 9.6 5.6 1.7 2.9 3 6.1 5.2 10.7 2.1-2.8 3.5-4.9 5.1-6.7 6.5-7.1 12.7-14.6 19.8-21.1 3.9-3.4 4.4-6.7 3.5-11.2zm-219.3 75.8c-.2-.7-1.7-1.6-2.2-1.4-.9.3-2.2 1.5-2.1 2.2.2 2.6.4 5.5 1.6 7.6 5.3 9 24.1 13.7 33.9 7.7-3-.6-6.1-1.2-9.1-1.6-9.6-1.6-19.2-2.8-22.1-14.5z"
        fill="#00a4de" />
</svg>