<svg viewBox="0 0 494.2 507.8"
    xmlns="http://www.w3.org/2000/svg">
    <path fill="#def6ff"
        d="m123.9 504.7c.5-2.1-.1-3.4-2-3.9-.9-.3-1.8-.5-2.7-.8-.3 1-.5 2.1-.8 3.1-.5 2.1.1 3.4 2 3.9.9.3 1.8.5 2.7.8.3-1 .6-2.1.8-3.1zm-10.5 1.5c.3-1 0-2.2-.8-3.5s-2.1-1.7-3.9-1.2-2.7 1.7-2.7 3.5v2.7h3.5c2.3.1 3.6-.4 3.9-1.5zm-11.3 0c0-1-.5-2.1-1.6-3.1s-2.1-1.4-3.1-1.2-2 .9-2.7 2-1.2 2-1.2 2.7v1.2h4.3s2.9 0 4.3 0c0-.5 0-1 0-1.6zm-11.8 0c0-1-.5-1.8-1.6-2.3s-2.3-.4-3.9.4-2.3 1.6-2.3 2.3v1.2h3.9s2.6 0 3.9 0c0-.5 0-1 0-1.6zm-11.7.4c-.5-.8-1.8-.9-3.9-.4-1 .3-2.1.5-3.1.8 1.3.1 2.6.3 3.9.4s2.6.3 3.9.4c-.3-.4-.5-.8-.8-1.2zm-32.4-1.1c1.3-1.6 1.7-2.9 1.2-3.9s-1.3-1.6-2.4-1.6-2.2.8-3.5 2.3-1.8 2.9-1.6 3.9 1 1.6 2.3 1.6 2.7-.8 4-2.3zm-9.4 0c.3-1.6.1-2.5-.4-2.7s-1.3-.3-2.3 0-2.1 1-3.1 2.3c-.5.7-1 1.3-1.6 2 1.2.1 2.3.3 3.5.4 2.4.2 3.7-.5 3.9-2zm-10.1 1.1c-.1-.4-.3-.8-.4-1.2-.8.3-1.6.5-2.3.8s-1.6.5-2.3.8c.9.1 1.8.3 2.7.4s1.8.3 2.7.4c-.2-.4-.3-.8-.4-1.2zm-18.4.4c.5-.5.7-1.2.4-2-.1-.4-.3-.8-.4-1.2-.7.4-1.3.8-2 1.2-1.3.8-2 1.4-2 2v.8h1.6c1.1 0 1.9-.2 2.4-.8zm127-3.1c.4-.8.8-1.6 1.2-2.3-.8-.4-1.6-.8-2.3-1.2s-1.6-.8-2.3-1.2c-.3.9-.5 1.8-.8 2.7-.5 1.8-.1 3 1.2 3.5s2.2.1 3-1.5zm-78.6-.4c1-1.3 1.4-2.6 1.2-3.9s-1-2-2.3-2-2.5.5-3.5 1.6-1.6 2.2-1.6 3.5.8 2.1 2.3 2.3 2.9-.2 3.9-1.5zm-39.4 1.2c.8-.5 1.3-1.4 1.6-2.7.1-.7.3-1.3.4-2-.5 0-1 0-1.6 0-1 0-2 .4-2.7 1.2s-1.3 1.6-1.6 2.3c-.1.4-.3.8-.4 1.2.5.1 1 .3 1.6.4 1 .2 1.9.1 2.7-.4zm130.1-2.7c0-1.3-.7-2.1-2-2.3-.7-.1-1.3-.3-2-.4-.1.7-.3 1.3-.4 2s-.3 1.3-.4 2c.8.1 1.6.3 2.3.4s1.6.3 2.3.4c.2-.8.2-1.5.2-2.1zm-80.9.3c1.3-1 2.1-2.1 2.3-3.1s.1-2-.4-2.7-1.4-1.2-2.7-1.2-2.3.4-3.1 1.2-1.2 2-1.2 3.5.5 2.6 1.6 3.1 2.2.3 3.5-.8zm-65.2 0c.3-.5.5-1 .8-1.6-.4.3-.8.5-1.2.8-.8.5-1 1-.8 1.6.1.3.3.5.4.8.2-.5.5-1 .8-1.6zm158.2-1.1c.3-.8-.1-1.4-1.2-2-.5-.3-1-.5-1.6-.8-.1.7-.3 1.3-.4 2s-.3 1.3-.4 2h1.6c1.1-.1 1.7-.4 2-1.2zm-132.1.4c.8-.5 1.3-1.6 1.6-3.1.1-.8.3-1.6.4-2.3-.7 0-1.3 0-2 0-1.3 0-2.3.4-3.1 1.2s-1.3 1.8-1.6 3.1c-.1.7-.3 1.3-.4 2h2c1.3-.2 2.4-.4 3.1-.9zm144.2-1.6c0-.5 0-1 0-1.6-.4 0-.8 0-1.2 0-.8 0-1.3.4-1.6 1.2-.1.4-.3.8-.4 1.2.5.1 1 .3 1.6.4s1 .3 1.6.4c0-.6 0-1.1 0-1.6zm-93.8 0c1-1 1.4-2.5 1.2-4.3-.1-.9-.3-1.8-.4-2.7-.9.1-1.8.3-2.7.4-1.8.3-3 .9-3.5 2s-.7 2.2-.4 3.5 1 2.1 2.3 2.3 2.5-.2 3.5-1.2zm416.4-59.4c0-39.6-.3-59.5-.8-59.8-.3-.1-.5-.3-.8-.4l.8-.8c.5-.5.8-28.3.8-83.2 0-27.5 0-54.9 0-82.4-.3 0-.5 0-.8 0s-.5 0-.8 0c.3-.3.5-.5.8-.8.5-.5.8-36.2.8-107 0-35.4 0-70.8 0-106.2-17.7 0-35.4 0-53.1 0-35.4 0-53.3.8-53.5 2.3s0 3.1.8 4.7c.4.8.8 1.6 1.2 2.3-.9-.4-1.8-.8-2.7-1.2-1.8-.8-3.6-1-5.5-.8s-3 1.6-3.5 3.9.1 4.4 2 6.2 4 2.7 6.6 2.7h3.9c-.3.9-.5 1.8-.8 2.7-.5 1.8 0 3.9 1.6 6.2s3.6 3.6 6.2 3.9c1.3.1 2.6.3 3.9.4-.1 1-.3 2.1-.4 3.1-.3 2.1-.1 3.6.4 4.7.3.5.5 1 .8 1.6-1.4-.4-2.9-.8-4.3-1.2-2.9-.8-5.1-.5-6.6.8s-2.1 3.3-1.6 5.9 1.4 4.4 2.7 5.5 3 1.7 5.1 2 3.1 2 3.1 5.1v4.7c-.7-.4-1.3-.8-2-1.2-1.3-.8-2.9-1.2-4.7-1.2s-3.4.7-4.7 2-1.7 3.4-1.2 6.2 1.3 4.7 2.3 5.5 2.6 1.3 4.7 1.6c1 .1 2.1.3 3.1.4-.3.5-.5 1-.8 1.6-.5 1-.5 2.7 0 5.1.3 1.2.5 2.3.8 3.5-.7-.5-1.3-1-2-1.6-1.3-1-3.3-1.4-5.9-1.2-1.3.1-2.6.3-3.9.4.5-.8 1-1.6 1.6-2.3 1-1.6 1-3.6 0-6.2s-2.9-4.2-5.5-4.7-4.6-.1-5.9 1.2-2 2.9-2 4.7.7 3.5 2 5.1 3.3 2.3 5.9 2.3h3.9c-.4.5-.8 1-1.2 1.6-.8 1-1 2.9-.8 5.5s1.2 4.6 2.7 5.9 3.1 2 4.7 2h2.3c-.3 1.7-.5 3.4-.8 5.1s-.5 3.4-.8 5.1c-.5-.5-1-1-1.6-1.6-1-1-2.5-1.6-4.3-1.6-.9 0-1.8 0-2.7 0 .3-1.3.5-2.6.8-3.9.5-2.6.4-4.6-.4-5.9s-2.6-2.2-5.5-2.7-4.9 0-6.2 1.6-1.8 3.4-1.6 5.5.9 3.6 2 4.7 2.9 1.6 5.5 1.6h3.9c-.5.8-1 1.6-1.6 2.3-1 1.6-1.2 3.8-.4 6.6s2.5 4.7 5.1 5.5 3.5 2.6 2.7 5.5c-.4 1.4-.8 2.9-1.2 4.3-.4-.4-.8-.8-1.2-1.2-.8-.8-2.1-1.2-3.9-1.2-.9 0-1.8 0-2.7 0 .3-1.4.5-2.9.8-4.3.5-2.9.3-4.9-.8-6.2s-2.5-2.2-4.3-2.7-3.4-.5-4.7 0-2.3 1.4-3.1 2.7-1 3-.8 5.1 1.2 3.8 2.7 5.1 3.1 2 4.7 2h2.3c-.4 1.3-.8 2.6-1.2 3.9-.8 2.6-.4 4.9 1.2 7s3.1 3.3 4.7 3.5 2.2 1.8 2 4.7c-.1 1.4-.3 2.9-.4 4.3-.7-.5-1.3-1-2-1.6-1.3-1-2.7-1.6-4.3-1.6-.8 0-1.6 0-2.3 0 .4-1 .8-2.1 1.2-3.1.8-2.1.5-4.2-.8-6.2s-3.4-3.1-6.2-3.1c-1.4 0-2.9 0-4.3 0 .5-.7 1-1.3 1.6-2 1-1.3 1.6-2.9 1.6-4.7s-.5-3.4-1.6-4.7-2.6-2.1-4.7-2.3-3.9.4-5.5 2-2.1 3.6-1.6 6.2 1.6 4.3 3.1 5.1 3.1 1 4.7.8c.8-.1 1.6-.3 2.3-.4-.5.7-1 1.3-1.6 2-1 1.3-1.6 2.9-1.6 4.7s.5 3.4 1.6 4.7 2.6 2.2 4.7 2.7c1 .3 2.1.5 3.1.8-.3.5-.5 1-.8 1.6-.5 1-.5 2.9 0 5.5s1.3 4.3 2.3 5.1 2.3 1.2 3.9 1.2h2.3v.8c0 .5-.3 1-.8 1.6s-.7 2-.4 4.3c.1 1.2.3 2.3.4 3.5-.8-.7-1.6-1.3-2.3-2-1.6-1.3-3.3-2-5.1-2-.9 0-1.8 0-2.7 0 .4-.4.8-.8 1.2-1.2.8-.8 1.3-2 1.6-3.5s0-3.1-.8-4.7-2.6-2.6-5.5-3.1c-1.4-.3-2.9-.5-4.3-.8.4-.5.8-1 1.2-1.6.8-1 1-2.7.8-5.1s-1-4-2.3-5.1-2.7-1.6-4.3-1.6-3 .5-4.3 1.6-2.1 2.6-2.3 4.7.3 3.9 1.6 5.5 3.3 2.2 5.9 2c1.3-.1 2.6-.3 3.9-.4-.7.7-1.3 1.3-2 2-1.3 1.3-2 3-2 5.1s.7 3.8 2 5.1 3 2 5.1 2h3.1c-.5.8-1 1.6-1.6 2.3-1 1.6-1.3 3.4-.8 5.5s1.2 3.5 2 4.3 2.1 1.3 3.9 1.6c.9.1 1.8.3 2.7.4-.4 1.4-.8 2.9-1.2 4.3s-.8 2.9-1.2 4.3c-.7-.5-1.3-1-2-1.6-1.3-1-2.9-1.4-4.7-1.2-.9.1-1.8.3-2.7.4.5-.5 1-1 1.6-1.6 1-1 1.6-2.6 1.6-4.7s-.7-3.8-2-5.1-3-2-5.1-2-3.8.8-5.1 2.3-1.7 3.5-1.2 5.9 1.8 3.9 3.9 4.7 3.6 1 4.7.8c.5-.1 1-.3 1.6-.4-.5.4-1 .8-1.6 1.2-1 .8-1.7 2-2 3.5s0 3.1.8 4.7 2.3 2.6 4.7 3.1c1.2.3 2.3.5 3.5.8-.3.4-.5.8-.8 1.2-.5.8-.7 2.5-.4 5.1s1.3 4.4 3.1 5.5 3.1 1.4 3.9 1.2c.4-.1.8-.3 1.2-.4-.3 1.4-.5 2.9-.8 4.3s-.5 2.9-.8 4.3c-.7-.5-1.3-1-2-1.6-1.3-1-3-1.6-5.1-1.6-1 0-2.1 0-3.1 0 .5-.4 1-.8 1.6-1.2 1-.8 1.6-2.2 1.6-4.3s-.8-3.8-2.3-5.1-3.4-1.8-5.5-1.6-3.5.9-4.3 2-1.2 2.3-1.2 3.9.8 3 2.3 4.3 3.3 2 5.1 2h2.7c-.5.7-1 1.3-1.6 2-1 1.3-1.3 3-.8 5.1s2.1 3.5 4.7 4.3c1.3.4 2.6.8 3.9 1.2-.4.5-.8 1-1.2 1.6-.8 1-.9 2.6-.4 4.7s2.1 3.5 4.7 4.3l3.9 1.2c-.4 1-.8 2.1-1.2 3.1-.8 2.1-.4 4 1.2 5.9s3.1 2.7 4.7 2.7h2.3c-.4 1-.8 2.1-1.2 3.1-.8 2.1-.5 3.9.8 5.5s2.9 2.6 4.7 3.1c.9.3 1.8.5 2.7.8-.4.4-.8.8-1.2 1.2-.8.8-1 2-.8 3.5s.9 2.9 2 3.9 2.5 1.8 4.3 2.3c.9.3 1.8.5 2.7.8-.4.3-.8.5-1.2.8-.8.5-1.2 1.4-1.2 2.7s.7 2.7 2 4.3 2.7 2.5 4.3 2.7c.8.1 1.6.3 2.3.4-.3.3-.5.5-.8.8-.5.5-.5 2 0 4.3s1.4 4 2.7 5.1 2.9 1.6 4.7 1.6 3-.8 3.5-2.3c.3-.8.5-1.6.8-2.3.3.5.5 1 .8 1.6.5 1 1.4 1.8 2.7 2.3s1.8 1.8 1.6 3.9c-.1 1-.3 2.1-.4 3.1-1-.9-2.1-1.8-3.1-2.7-2.1-1.8-3.8-2.6-5.1-2.3s-2 1.2-2 2.7 1 3.3 3.1 5.1 3.8 2.7 5.1 2.7 2.2-.7 2.7-2c.3-.7.5-1.3.8-2 .1.4.3.8.4 1.2.3.8 1.2 1.6 2.7 2.3.8.4 1.6.8 2.3 1.2-.3.3-.5.5-.8.8-.5.5-.7 1.6-.4 3.1.1.8.3 1.6.4 2.3-1-1-2.1-2.1-3.1-3.1-2.1-2.1-3.8-2.9-5.1-2.3s-1.8 1.4-1.6 2.7 1.3 2.7 3.1 4.3 3.4 2.3 4.7 2.3 2.1-.7 2.3-2c.1-.7.3-1.3.4-2l2.7 2.7c1.8 1.8 2.6 3.5 2.3 5.1s0 3.1.8 4.7 2.1 2.9 3.9 3.9c.9.5 1.8 1 2.7 1.6-.4.4-.8.8-1.2 1.2-.8.8-1 1.7-.8 2.7s1.4 2.6 3.5 4.7 3 3.9 2.7 5.5-.1 2.9.4 3.9 1.7 2.3 3.5 3.9c.9.8 1.8 1.6 2.7 2.3-.3.1-.5.3-.8.4-.5.3-.5 1.4 0 3.5s1.7 3.9 3.5 5.5 2.3 2.9 1.6 3.9c-.4.5-.8 1-1.2 1.6-.1-.5-.3-1-.4-1.6-.3-1-1.2-2.2-2.7-3.5-.8-.7-1.6-1.3-2.3-2 .5 1 1 2.1 1.6 3.1 1 2.1 1.4 3.4 1.2 3.9-.1.3-.3.5-.4.8-.9-.8-1.8-1.6-2.7-2.3-1.8-1.6-2.7-2.6-2.7-3.1 0-.3 0-.5 0-.8l.8.8.8.8c.1-.3.3-.5.4-.8.3-.5-.3-1.7-1.6-3.5s-2.2-2.7-2.7-2.7c-.3 0-.5 0-.8 0 .1.7.3 1.3.4 2s.3 1.3.4 2c.3-.1.5-.3.8-.4s.5-.3.8-.4c-.1.5-.3 1-.4 1.6-.3 1 .8 2.6 3.1 4.7s3.9 4 4.7 5.9 1.7 2.9 2.7 3.1c.5.1 1 .3 1.6.4-.1.4-.3.8-.4 1.2-.3.8.7 2.3 2.7 4.7 2.1 2.3 5.3 7.7 9.8 16 4.4 8.3 8.1 16.1 10.9 23.4 2.9 7.3 6.6 19.3 11.3 35.9 2.3 8.3 4.7 16.7 7 25 1.3-20.5 1.3-40.3 1.3-60.1zm-457.4 57.8c1.3-1 2-2.3 2-3.9 0-.8 0-1.6 0-2.3-1 .5-2.1 1-3.1 1.6-2.1 1-3.1 2.2-3.1 3.5s.4 2.1 1.2 2.3 1.7-.1 3-1.2zm52.4-.4c.8-.8 1.2-2 1.2-3.5s-.8-2.6-2.3-3.1-2.9.3-3.9 2.3-1.3 3.5-.8 4.3 1.4 1.2 2.7 1.2 2.3-.4 3.1-1.2zm-78.2-.3c.1-.5.3-1 .4-1.6-.5.3-1 .5-1.6.8-1 .5-1.6 1-1.6 1.6v.8h1.2c.9-.1 1.4-.6 1.6-1.6zm89.1-1.2c.8-.8 1.2-2 1.2-3.5s-.9-2.6-2.7-3.1c-.9-.3-1.8-.5-2.7-.8-.3 1.2-.5 2.3-.8 3.5-.5 2.3 0 3.8 1.6 4.3s2.6.4 3.4-.4zm-53.1-1.2c1.3-1 1.8-2.3 1.6-3.9-.1-.8-.3-1.6-.4-2.3-.7.1-1.3.3-2 .4-1.3.3-2.3 1-3.1 2.3s-.7 2.5.4 3.5 2.2 1.1 3.5 0zm-27-1.5c.5-.8 1-1.6 1.6-2.3-.8.4-1.6.8-2.3 1.2s-1.6.8-2.3 1.2c.3.4.5.8.8 1.2s.5.8.8 1.2c.4-1 .9-1.8 1.4-2.5zm91.4-1.6c.5-2.1 0-3.4-1.6-3.9s-2.7.1-3.5 2-.9 3.1-.4 3.9 1.4 1.2 2.7 1.2 2.3-1.1 2.8-3.2zm11.4-.8c.8-1.6.5-2.9-.8-3.9s-2.3-1.3-3.1-.8-1.3 1.4-1.6 2.7.4 2.3 2 3.1c.8.4 1.6.8 2.3 1.2.4-.7.8-1.5 1.2-2.3zm-65.3.8c1-1 1.4-2.3 1.2-3.9s-.9-2.3-2-2.3-2.1.7-3.1 2-1.6 2.5-1.6 3.5.7 1.7 2 2 2.5-.3 3.5-1.3zm-27.3-2.7c.5-.9 1-1.8 1.6-2.7-.5 0-1 0-1.6 0-1 0-2 .4-2.7 1.2s-1.3 1.7-1.6 2.7c-.1.5-.3 1-.4 1.6h1.6c1-.1 2-1 3.1-2.8zm103.9-.8c0-.9 0-1.8 0-2.7-.7 0-1.3 0-2 0-1.3 0-2.1.8-2.3 2.3-.1.8-.3 1.6-.4 2.3.8.1 1.6.3 2.3.4s1.6.3 2.3.4c.1-.9.1-1.8.1-2.7zm-66.8 1.1c1.3-1 2-2.3 2-3.9s-.3-2.5-.8-2.7-1.3-.3-2.3 0-2 .9-2.7 2-1.2 2.1-1.2 3.1.5 1.8 1.6 2.3 2.1.3 3.4-.8zm78.1-1.9c.3-1.3-.1-2.1-1.2-2.3-.5-.1-1-.3-1.6-.4-.1.7-.3 1.3-.4 2-.3 1.3.1 2.1 1.2 2.3.5.1 1 .3 1.6.4.1-.7.3-1.4.4-2zm-105.8-.8c1-1.3 1.4-2.5 1.2-3.5-.1-.5-.3-1-.4-1.6-.5.1-1 .3-1.6.4-1 .3-2 .9-2.7 2s-1.2 2-1.2 2.7.5 1.3 1.6 1.6 2-.3 3.1-1.6zm117.5-.4c.3-1 0-1.7-.8-2-.4-.1-.8-.3-1.2-.4-.1.7-.3 1.3-.4 2s-.3 1.3-.4 2h1.2c.8 0 1.4-.5 1.6-1.6zm-78.5-.8c1-1.6 1.3-2.9.8-3.9s-1.6-1.4-3.1-1.2-2.6.9-3.1 2-.7 2.2-.4 3.5 1 2 2.3 2 2.5-.8 3.5-2.4zm90.2 0c.1-.5.3-1 .4-1.6-.4 0-.8 0-1.2 0s-.8 0-1.2 0c.3.5.5 1 .8 1.6s.5 1 .8 1.6c.2-.5.3-1 .4-1.6zm-146-1.1c.4-.7.8-1.3 1.2-2-.5.3-1 .5-1.6.8-1 .5-1.4 1.2-1.2 2 .1.4.3.8.4 1.2.4-.7.8-1.4 1.2-2zm66.4-2c.8-2.1 1-3.4.8-3.9s-1-.8-2.3-.8-2.3.4-3.1 1.2-1.2 2-1.2 3.5.8 2.5 2.3 2.7 2.7-.6 3.5-2.7zm-39.9.8c.8-1 1-2.2.8-3.5-.1-.7-.3-1.3-.4-2-.5.1-1 .3-1.6.4-1 .3-2 .9-2.7 2s-1 2.1-.8 3.1.9 1.6 2 1.6 1.9-.6 2.7-1.6zm50.4-.8c.5-.5.8-1.7.8-3.5s-.7-2.9-2-3.1-2.3 0-3.1.8-1.2 2-1.2 3.5.8 2.5 2.3 2.7 2.7.1 3.2-.4zm-41-1.9c.8-.8 1.2-2 1.2-3.5 0-.8 0-1.6 0-2.3-.8.1-1.6.3-2.3.4-1.6.3-2.6.9-3.1 2s-.7 2.1-.4 3.1.9 1.6 2 1.6 1.8-.6 2.6-1.3zm-26.6-1.2c.4-.8.8-1.6 1.2-2.3-.5.1-1 .3-1.6.4-1 .3-1.8 1-2.3 2.3-.3.7-.5 1.3-.8 2h1.2c.8-.1 1.5-.9 2.3-2.4zm78.5-1.2c.5-1.8.1-3-1.2-3.5s-2.3-.4-3.1.4-1.2 1.7-1.2 2.7.8 1.8 2.3 2.3c.8.3 1.6.5 2.3.8.4-.9.7-1.8.9-2.7zm10.6-1.2c.8-1.6.9-2.7.4-3.5s-1.2-1.2-2-1.2-1.4.9-2 2.7-.3 3 .8 3.5c.5.3 1 .5 1.6.8.4-.7.8-1.5 1.2-2.3zm-52.7 0c1-1 1.4-2.3 1.2-3.9-.1-.8-.3-1.6-.4-2.3-.7.1-1.3.3-2 .4-1.3.3-2.2.8-2.7 1.6s-.8 1.8-.8 3.1.5 2.1 1.6 2.3 2-.1 3.1-1.2zm-27-.3c.8-.8 1.2-1.7 1.2-2.7 0-.5 0-1 0-1.6-.5 0-1 0-1.6 0-1 0-2 .7-2.7 2-.4.7-.8 1.3-1.2 2 .5.3 1 .5 1.6.8 1 .4 1.9.2 2.7-.5zm91-1.6c.3-.7.5-1.3.8-2-.7-.3-1.3-.5-2-.8s-1.3-.5-2-.8c-.1.8-.3 1.6-.4 2.3-.3 1.6.1 2.5 1.2 2.7s1.9-.1 2.4-1.4zm-107 .4c.3-.5.5-1 .8-1.6-.4.3-.8.5-1.2.8-.8.5-1 1-.8 1.6.1.3.3.5.4.8.3-.6.5-1.1.8-1.6zm118.3-2c.3-1.3-.1-2.1-1.2-2.3-.5-.1-1-.3-1.6-.4-.1.7-.3 1.3-.4 2-.3 1.3.1 2.1 1.2 2.3.5.1 1 .3 1.6.4.2-.7.3-1.3.4-2zm-64.8.4c.8-1 1-2.3.8-3.9s-.9-2.3-2-2.3-2 .4-2.7 1.2-1.2 2-1.2 3.5.7 2.5 2 2.7 2.3-.1 3.1-1.2zm76.6-1.2c.3-.8 0-1.4-.8-2-.4-.3-.8-.5-1.2-.8-.1.5-.3 1-.4 1.6-.3 1 0 1.7.8 2 .4.1.8.3 1.2.4.1-.4.2-.8.4-1.2zm-104.7-1.9c.4-1 .8-2.1 1.2-3.1-.5 0-1 0-1.6 0-1 0-2 .5-2.7 1.6s-1.2 2.1-1.2 3.1v1.6h1.6c1-.1 1.9-1.1 2.7-3.2zm38.3.4c.8-.8.9-2.1.4-3.9-.3-.9-.5-1.8-.8-2.7-.8.4-1.6.8-2.3 1.2-1.6.8-2.3 2.1-2.3 3.9v2.7h2c1.1 0 2.2-.4 3-1.2zm-54.7-.8c.4-.7.8-1.3 1.2-2-.5.1-1 .3-1.6.4-1 .3-1.7.8-2 1.6s-.1 1.3.4 1.6 1.2-.3 2-1.6zm64.8-3.1c.8-1.8.7-3.1-.4-3.9s-2-.9-2.7-.4-1.3 1.6-1.6 3.1.3 2.6 1.6 3.1 2.3-.1 3.1-1.9zm-39 1.2c.8-1 1-2.2.8-3.5-.1-.7-.3-1.3-.4-2-.8.5-1.6 1-2.3 1.6-1.6 1-2.3 2.2-2.3 3.5v2h1.6c.9-.1 1.8-.6 2.6-1.6zm48.8-2c1-.8 1.4-2 1.2-3.5-.1-.8-.3-1.6-.4-2.3-.8.3-1.6.5-2.3.8-1.6.5-2.3 1.4-2.3 2.7s.4 2.2 1.2 2.7 1.5.4 2.6-.4zm-66 0c.8-.8 1.2-1.7 1.2-2.7 0-.5 0-1 0-1.6-.7.4-1.3.8-2 1.2-1.3.8-2 1.7-2 2.7v1.6h.8c.5 0 1.2-.4 2-1.2zm26.5-1.6c.8-.8 1-2 .8-3.5s-.8-2.3-1.6-2.3-1.7.8-2.7 2.3-1.4 2.7-1.2 3.5.9 1.2 2 1.2 1.9-.4 2.7-1.2zm50.4-2.3c.3-.9.5-1.8.8-2.7-.7-.1-1.3-.3-2-.4s-1.3-.3-2-.4c-.1.8-.3 1.6-.4 2.3-.3 1.6.1 2.6 1.2 3.1.5.3 1 .5 1.6.8.3-.9.6-1.8.8-2.7zm11.3-2c.3-1.6-.1-2.5-1.2-2.7s-1.8.3-2.3 1.6c-.3.7-.5 1.3-.8 2 .7.3 1.3.5 2 .8s1.3.5 2 .8c.1-.9.2-1.7.3-2.5zm-52.3 1.2c.8-.8 1.2-2 1.2-3.5s-.3-2.5-.8-2.7-1.4.1-2.7 1.1-2 2.2-2 3.5.5 2.1 1.6 2.3 1.9.1 2.7-.7zm-26.9-.4c1-1 1.4-2.1 1.2-3.1-.1-.5-.3-1-.4-1.6-.7.5-1.3 1-2 1.6-1.3 1-2 2.1-2 3.1v1.6h.8c.5 0 1.3-.5 2.4-1.6zm-15.3-.8c.1-.5.3-1 .4-1.6-.4.3-.8.5-1.2.8s-.8.5-1.2.8c.3.3.5.5.8.8s.5.5.8.8c.2-.5.3-1 .4-1.6zm105.5-1.5c.1-.5.3-1 .4-1.6-.5-.1-1-.3-1.6-.4s-1-.3-1.6-.4c-.1.5-.3 1-.4 1.6s-.3 1-.4 1.6c.5.1 1 .3 1.6.4s1 .3 1.6.4c.1-.6.3-1.1.4-1.6zm-53.1-1.6c.8-1 1-2.1.8-3.1s-.9-1.6-2-1.6-2 .5-2.7 1.6-1 2.1-.8 3.1.9 1.6 2 1.6 1.9-.5 2.7-1.6zm-28.2-.4c.8-.8 1-1.8.8-3.1-.1-.7-.3-1.3-.4-2-.7.5-1.3 1-2 1.6-1.3 1-2 2.1-2 3.1v1.6h1.2c.9 0 1.7-.4 2.4-1.2zm-15.6-2.3c.1-.7.3-1.3.4-2-.5.4-1 .8-1.6 1.2-1 .8-1.6 1.4-1.6 2v.8h1.2c.8-.1 1.3-.7 1.6-2zm53.5-1.6c.3-.9.5-1.8.8-2.7-.5-.1-1-.3-1.6-.4-1-.3-2 .4-2.7 2-.4.8-.8 1.6-1.2 2.3.7.3 1.3.5 2 .8s1.3.5 2 .8c.2-1 .5-1.9.7-2.8zm-28.9-.4c1-1 1.4-2.1 1.2-3.1-.1-.5-.3-1-.4-1.6-.7.3-1.3.5-2 .8-1.3.5-2 1.6-2 3.1v2.3h.8c.6.1 1.4-.4 2.4-1.5zm38.7-.4c.8-.8.9-1.8.4-3.1-.3-.7-.5-1.3-.8-2-.5.3-1 .5-1.6.8-1 .5-1.6 1.4-1.6 2.7s.4 2.1 1.2 2.3 1.6.1 2.4-.7zm-55.1-2.7c.3-.8.5-1.6.8-2.3-.5.3-1 .5-1.6.8-1 .5-1.6 1.3-1.6 2.3v1.6h.8c.6-.1 1.1-.8 1.6-2.4zm66-1.2c.1-.7.3-1.3.4-2-.7-.1-1.3-.3-2-.4s-1.3-.3-2-.4v2.3s0 1.6 0 2.3h1.6c1.1.2 1.8-.5 2-1.8zm-39.4-.8c.5-1.3.4-2.3-.4-3.1s-1.6-.9-2.3-.4-1.3 1.4-1.6 2.7c-.1.7-.3 1.3-.4 2 .7.1 1.3.3 2 .4 1.2.3 2.2-.3 2.7-1.6zm49.2.8c.5-.3.8-1 .8-2.3s-.4-2.1-1.2-2.3-1.4.3-2 1.6-.4 2.2.4 2.7 1.5.6 2 .3zm11.3-3.1c.3-.8 0-1.4-.8-2-.4-.3-.8-.5-1.2-.8-.1.5-.3 1-.4 1.6-.3 1 0 1.7.8 2 .4.1.8.3 1.2.4.2-.4.3-.8.4-1.2zm-52.3.4c.8-.5 1.2-1.6 1.2-3.1 0-.8 0-1.6 0-2.3-.5 0-1 0-1.6 0-1 0-1.8.4-2.3 1.2s-.8 1.6-.8 2.3.4 1.4 1.2 2 1.5.4 2.3-.1zm-26.2-1.6c.3-.8.5-1.6.8-2.3-.4 0-.8 0-1.2 0-.8 0-1.4.5-2 1.6s-.8 1.8-.8 2.3v.8h1.2c.8 0 1.5-.8 2-2.4zm-15.2.8c.1-.5.3-1 .4-1.6-.4.4-.8.8-1.2 1.2s-.8.8-1.2 1.2c.3.1.5.3.8.4s.5.3.8.4c.1-.5.2-1.1.4-1.6zm51.1-5.1c.3-.9.5-1.8.8-2.7-.7.3-1.3.5-2 .8-1.3.5-2 1.3-2 2.3s.4 1.7 1.2 2c.4.1.8.3 1.2.4.3-.9.6-1.9.8-2.8zm-27.3-.7c.3-.9.5-1.8.8-2.7-.7.5-1.3 1-2 1.6-1.3 1-2 2-2 2.7v1.2h1.2c.8-.1 1.5-1 2-2.8zm-15.6 0c.3-.7.5-1.3.8-2-.5.4-1 .8-1.6 1.2s-1 .8-1.6 1.2l.8.8s.5.5.8.8c.3-.7.5-1.4.8-2zm52.3 0c.5-.3.7-1.2.4-2.7-.1-.8-.3-1.6-.4-2.3-.4.3-.8.5-1.2.8-.8.5-.9 1.4-.4 2.7.3.7.5 1.3.8 2 .3-.3.6-.4.8-.5zm372.7-.4c-.3-.7-.5-1.3-.8-2s-.5-1.3-.8-2c.3.7.5 1.3.8 2s.5 1.3.8 2zm-400-2.8c.5-.8.7-1.7.4-2.7-.1-.5-.3-1-.4-1.6-.5.3-1 .5-1.6.8-1 .5-1.6 1.4-1.6 2.7v2h1.2c.8 0 1.5-.4 2-1.2zm37.9-1.5c.1-.7.3-1.3.4-2-.5 0-1 0-1.6 0s-1 0-1.6 0v1.6c0 1 .4 1.7 1.2 2 .4.1.8.3 1.2.4.1-.7.2-1.4.4-2zm-55.1-1.2c.3-.8.5-1.6.8-2.3-.4.3-.8.5-1.2.8-.8.5-1 1.3-.8 2.3.1.5.3 1 .4 1.6.3-.8.5-1.6.8-2.4zm65.2-.8c.3-1 0-1.7-.8-2-.4-.1-.8-.3-1.2-.4-.1.4-.3.8-.4 1.2-.3.8 0 1.4.8 2 .4.3.8.5 1.2.8.2-.5.3-1.1.4-1.6zm-39.4-.4c.5-.8.7-1.7.4-2.7-.1-.5-.3-1-.4-1.6-.5.4-1 .8-1.6 1.2-1 .8-1.6 1.6-1.6 2.3s.4 1.3 1.2 1.6 1.4 0 2-.8zm-17.2-4.3c.3-.8.5-1.6.8-2.3-.5.4-1 .8-1.6 1.2-1 .8-1.3 1.6-.8 2.3.3.4.5.8.8 1.2.3-.8.5-1.6.8-2.4zm-14.5.8c.1-.5.3-1 .4-1.6-.4.3-.8.5-1.2.8s-.8.5-1.2.8c.3.3.5.5.8.8s.5.5.8.8c.2-.6.3-1.1.4-1.6zm41-1.9c0-.7 0-1.3 0-2-.3 0-.5 0-.8 0-.5 0-1 .7-1.6 2-.3.7-.5 1.3-.8 2h1.6s1 0 1.6 0c0-.7 0-1.4 0-2zm379.7-1.2c-.4-.7-.8-1.3-1.2-2s-.8-1.3-1.2-2c.4.7.8 1.3 1.2 2s.8 1.3 1.2 2zm-370.7-2c.1-.7.3-1.3.4-2-.4 0-.8 0-1.2 0s-.8 0-1.2 0c.3.7.5 1.3.8 2s.5 1.3.8 2c.2-.7.3-1.3.4-2zm-26.5-.8c.1-.7.3-1.3.4-2-.4 0-.8 0-1.2 0-.8 0-1.3.7-1.6 2-.1.7-.3 1.3-.4 2h1.2c.8 0 1.3-.7 1.6-2zm-15.7-.3c.1-.5.3-1 .4-1.6-.4.1-.8.3-1.2.4-.8.3-1.2.8-1.2 1.6v1.2h.8c.6-.1 1-.6 1.2-1.6zm52-1.6c0-.5 0-1 0-1.6-.3 0-.5 0-.8 0-.5 0-.9.3-1.2.8s0 1 .8 1.6c.4.3.8.5 1.2.8 0-.6 0-1.1 0-1.6zm-28.1-1.6c.5-.5.7-1.2.4-2-.1-.4-.3-.8-.4-1.2-.4.3-.8.5-1.2.8-.8.5-1.2 1.2-1.2 2v1.2h.8c.5 0 1-.2 1.6-.8zm392.9-.7c-.3-.7-.5-1.3-.8-2s-.5-1.3-.8-2c.3.7.5 1.3.8 2 .3.6.6 1.3.8 2zm-9.3 0c-.5-.8-1-1.6-1.6-2.3-.5-.8-1-1.6-1.6-2.3.5.8 1 1.6 1.6 2.3.5.7 1 1.5 1.6 2.3zm-399.6-2.4c.1-.5.3-1 .4-1.6-.4.3-.8.5-1.2.8s-.8.5-1.2.8l.8.8s.5.5.8.8c.1-.6.2-1.1.4-1.6zm25-2.3c.1-.5.3-1 .4-1.6-.4 0-.8 0-1.2 0s-.8 0-1.2 0v1.6s0 1 0 1.6h.8c.5-.1.9-.6 1.2-1.6zm369.1-.8c-.7-1.2-1.3-2.3-2-3.5s-1.3-2.3-2-3.5c.7 1.2 1.3 2.3 2 3.5.7 1.1 1.3 2.3 2 3.5zm7.8-.8c-.3-.7-.5-1.3-.8-2s-.5-1.3-.8-2c.3.7.5 1.3.8 2s.5 1.3.8 2zm-394.1-1.6c.1-.5.3-1 .4-1.6-.4.3-.8.5-1.2.8s-.8.5-1.2.8l.8.8s.5.5.8.8c.1-.5.2-1 .4-1.6zm26.1-.7c0-.5 0-1 0-1.6-.3 0-.5 0-.8 0-.5 0-.9.4-1.2 1.2-.1.4-.3.8-.4 1.2.4.1.8.3 1.2.4s.8.3 1.2.4c0-.6 0-1.1 0-1.6zm-18.3-4.3c.1-.7.3-1.3.4-2-.3.1-.5.3-.8.4-.5.3-.7.9-.4 2 .1.5.3 1 .4 1.6.1-.7.2-1.4.4-2zm373 1.1c-.8-1.4-1.6-2.9-2.3-4.3s-1.6-2.9-2.3-4.3c.8 1.4 1.6 2.9 2.3 4.3s1.5 2.9 2.3 4.3zm.8-5.4c-.7-1.2-1.3-2.3-2-3.5s-1.3-2.3-2-3.5h.8c.5 0 1.2 1.2 2 3.5.4 1.1.8 2.3 1.2 3.5zm10.2-3.2c-.3 0-.5 0-.8 0-.5 0-.9-.7-1.2-2-.1-.7-.3-1.3-.4-2 .4.7.8 1.3 1.2 2s.8 1.4 1.2 2zm-15.7-1.5c-.8-1.2-1.6-2.3-2.3-3.5s-1.6-2.3-2.3-3.5v2s0 1.3 0 2c-.3-.1-.5-.3-.8-.4-.5-.3-1.2-1.3-2-3.1-.4-.9-.8-1.8-1.2-2.7.5.1 1 .3 1.6.4 1 .3 1.7 0 2-.8.1-.4.3-.8.4-1.2.1.7.3 1.3.4 2 .3 1.3 1 2.6 2.3 3.9s2 2.5 2 3.5c-.1.3-.1.9-.1 1.4zm7.9-3.1c-.5-.8-1-1.6-1.6-2.3-.5-.8-1-1.6-1.6-2.3.4.1.8.3 1.2.4.8.3 1.3 1 1.6 2.3.1.5.2 1.2.4 1.9zm-7.1-4c-.8-.9-1.6-1.8-2.3-2.7-1.6-1.8-2.2-3.1-2-3.9.1-.4.3-.8.4-1.2.7.8 1.3 1.6 2 2.3 1.3 1.6 2 2.9 2 3.9-.1.6-.1 1.1-.1 1.6zm20.3-.7c-.3 0-.5 0-.8 0-.5 0-.9-.5-1.2-1.6-.1-.5-.3-1-.4-1.6h.8c.5 0 .9.5 1.2 1.6.2.5.3 1 .4 1.6zm-8.6-4.7c-.3 0-.5 0-.8 0-.5 0-.9-.7-1.2-2-.1-.7-.3-1.3-.4-2 .4.7.8 1.3 1.2 2s.8 1.3 1.2 2zm-8.6-4.7c-.4-.1-.8-.3-1.2-.4-.8-.3-1.2-.9-1.2-2 0-.5 0-1 0-1.6.4.7.8 1.3 1.2 2s.9 1.3 1.2 2zm-7.8-2.4c-.8-.8-1.6-1.6-2.3-2.3-1.6-1.6-2.2-2.9-2-3.9.1-.5.3-1 .4-1.6.7.8 1.3 1.6 2 2.3 1.3 1.6 2 2.9 2 3.9-.1.6-.1 1.1-.1 1.6zm-7.8-2.7c-.5-1.8-2-3.5-4.3-5.1-1.2-.8-2.3-1.6-3.5-2.3.7 1.2 1.3 2.3 2 3.5 1.3 2.3 2.7 4 4.3 5.1.8.5 1.6 1 2.3 1.6-.3-1-.5-1.9-.8-2.8zm-9.4-1.2c-.8-.8-1.6-1.6-2.3-2.3.4.8.8 1.6 1.2 2.3.8 1.6 1.6 2.3 2.3 2.3h1.2c-.8-.7-1.6-1.5-2.4-2.3zm39.1.8c-.4-.4-.8-.8-1.2-1.2-.8-.8-1-1.4-.8-2 .1-.3.3-.5.4-.8.3.7.5 1.3.8 2s.5 1.4.8 2zm-37.9-5.1c-.8-1.8-1.8-3-3.1-3.5-.7-.3-1.3-.5-2-.8.5.9 1 1.8 1.6 2.7 1 1.8 2.1 3 3.1 3.5.5.3 1 .5 1.6.8-.4-.8-.8-1.7-1.2-2.7zm28.5 1.2c-.4-.3-.8-.5-1.2-.8-.8-.5-1-1.2-.8-2 .1-.4.3-.8.4-1.2l1.2 1.2c.8.8 1 1.4.8 2-.1.3-.2.6-.4.8zm-8.6-2.3c-.5-.9-1-1.8-1.6-2.7-.5-.9-1-1.8-1.6-2.7.5.4 1 .8 1.6 1.2 1 .8 1.6 1.7 1.6 2.7zm-16.8-3.9c-.3-1.6-1.4-3.1-3.5-4.7-1-.8-2.1-1.6-3.1-2.3.1.9.3 1.8.4 2.7.3 1.8 1.4 3.4 3.5 4.7 1 .7 2.1 1.3 3.1 2-.1-.9-.2-1.7-.4-2.4zm-12.1 0c-.8-.8-1.6-1.6-2.3-2.3.8.7 1.6 1.5 2.3 2.3s1.6 1.6 2.3 2.3c-.7-.8-1.5-1.6-2.3-2.3zm20.3 1.5c-1-.9-2.1-1.8-3.1-2.7s-2.1-1.8-3.1-2.7c.4-.1.8-.3 1.2-.4.8-.3 1.2-.8 1.2-1.6 0-.4 0-.8 0-1.2.7.8 1.3 1.6 2 2.3 1.3 1.6 2 3 2 4.3-.2.7-.2 1.4-.2 2zm34.4-3.9c-.3 0-.5 0-.8 0-.5 0-.9-.5-1.2-1.6-.1-.5-.3-1-.4-1.6.4.1.8.3 1.2.4.8.3 1.2.8 1.2 1.6zm-51.5-2.3c-.5-1.6-1.6-2.7-3.1-3.5-.8-.4-1.6-.8-2.3-1.2v1.2c0 .8 1 2 3.1 3.5 1 .8 2.1 1.6 3.1 2.3-.3-.8-.6-1.5-.8-2.3zm-10.2 0c-.5-.5-1-1-1.6-1.6.6.5 1.1 1.1 1.6 1.6s1 1 1.6 1.6c-.6-.6-1.1-1.1-1.6-1.6zm51.6-.8c-.4-.1-.8-.3-1.2-.4-.8-.3-1.2-.8-1.2-1.6 0-.4 0-.8 0-1.2h.8c.5 0 .9.5 1.2 1.6.1.6.2 1.1.4 1.6zm-51.6-4.3c-.8-.9-1.6-1.8-2.3-2.7v1.2c0 .8.8 1.7 2.3 2.7.8.5 1.6 1 2.3 1.6-.7-1-1.5-1.9-2.3-2.8zm41.4 1.9c-.5-.4-1-.8-1.6-1.2-1-.8-1.4-1.6-1.2-2.3.1-.4.3-.8.4-1.2.4.8.8 1.6 1.2 2.3s.8 1.7 1.2 2.4zm-28.9-4.6c-1-2.6-2.5-4.2-4.3-4.7-.9-.3-1.8-.5-2.7-.8.3.9.5 1.8.8 2.7.5 1.8 1.3 3.3 2.3 4.3s2.2 1.7 3.5 2c.7.1 1.3.3 2 .4-.6-1.3-1.1-2.6-1.6-3.9zm18.8 2.3c-.5-.4-1-.8-1.6-1.2-1-.8-1.4-1.7-1.2-2.7.1-.5.3-1 .4-1.6l1.6 1.6c1 1 1.4 2 1.2 2.7-.2.4-.3.8-.4 1.2zm-8.6-.8c-.9-.8-1.8-1.6-2.7-2.3-1.8-1.6-2.5-2.9-2-3.9.3-.5.5-1 .8-1.6l2 2c1.3 1.3 2 2.6 2 3.9-.1.6-.1 1.3-.1 1.9zm-30.5-2.3c-.5-.5-1-1-1.6-1.6l1.6 1.6s1 1 1.6 1.6c-.6-.6-1.1-1.1-1.6-1.6zm12.1-1.2c-.3-1.3-1.3-2.6-3.1-3.9-.9-.7-1.8-1.3-2.7-2-.1.5-.3 1-.4 1.6-.3 1 .8 2.3 3.1 3.9 1.2.8 2.3 1.6 3.5 2.3-.1-.6-.3-1.2-.4-1.9zm-9-3.1c0-.8-.9-1.7-2.7-2.7-.9-.5-1.8-1-2.7-1.6.1.5.3 1 .4 1.6.3 1 1.2 2 2.7 2.7.8.4 1.6.8 2.3 1.2 0-.4 0-.8 0-1.2zm63.3-1.2c-.3-.3-.5-.5-.8-.8-.5-.5-.7-1.2-.4-2 .1-.4.3-.8.4-1.2l.8.8c.5.5.7 1.2.4 2-.1.4-.3.8-.4 1.2zm-50.8-1.2c.5-.3.5-1.3 0-3.1s-1.3-3.3-2.3-4.3-2.2-1.7-3.5-2c-.7-.1-1.3-.3-2-.4v2.7c0 1.8 1.2 3.5 3.5 5.1s3.8 2.3 4.3 2zm39.9-.3c-.4-.4-.8-.8-1.2-1.2-.8-.8-1-1.6-.8-2.3.1-.4.3-.8.4-1.2l1.2 1.2c.8.8 1 1.6.8 2.3-.2.4-.3.8-.4 1.2zm-62.2-1.6c-.8-1-1.6-1.6-2.3-1.6-.4 0-.8 0-1.2 0 .8.5 1.6 1 2.3 1.6s1.6 1 2.3 1.6c-.3-.6-.7-1.1-1.1-1.6zm52 0c-.5-.4-1-.8-1.6-1.2-1-.8-1.4-1.6-1.2-2.3.1-.4.3-.8.4-1.2.4.3.8.5 1.2.8.8.5 1.2 1.3 1.2 2.3zm-39.8-2.7c0-1.3-.7-2.6-2-3.9s-2.5-2-3.5-2c-.5 0-1 0-1.6 0v1.6c0 1 1.2 2.3 3.5 3.9 1.2.8 2.3 1.6 3.5 2.3.1-.6.1-1.3.1-1.9zm29.6 1.1c-.7-.4-1.3-.8-2-1.2-1.3-.8-1.8-1.7-1.6-2.7.1-.5.3-1 .4-1.6.5.4 1 .8 1.6 1.2 1 .8 1.6 1.7 1.6 2.7zm-10.1-.8c-.8-.5-1.6-1-2.3-1.6-1.6-1-2.2-2.3-2-3.9.1-.8.3-1.6.4-2.3.8.7 1.6 1.3 2.3 2 1.6 1.3 2.2 2.6 2 3.9-.2.6-.3 1.3-.4 1.9zm-28.9-2.7c0-.8-1-1.8-3.1-3.1-1-.7-2.1-1.3-3.1-2v1.2c0 .8 1 1.8 3.1 3.1 1 .7 2.1 1.3 3.1 2 0-.4 0-.8 0-1.2zm-9.8-3.1c-.3-.8-1-1.4-2.3-2-.7-.3-1.3-.5-2-.8.4.7.8 1.3 1.2 2 .8 1.3 1.6 2 2.3 2h1.2c-.1-.4-.3-.8-.4-1.2zm-9.7-2.4c-.5-.8-1.2-1.2-2-1.2-.4 0-.8 0-1.2 0 .7.4 1.3.8 2 1.2s1.3.8 2 1.2c-.3-.4-.6-.8-.8-1.2zm22.6-3.1c0-1.3-.4-2.3-1.2-3.1s-1.6-1.4-2.3-2-1.8-.7-3.1-.4c-.7.1-1.3.3-2 .4.7 1 1.3 2.1 2 3.1 1.3 2.1 2.7 3.3 4.3 3.5.8.1 1.6.3 2.3.4 0-.6 0-1.2 0-1.9zm64.9.4c-.4-.3-.8-.5-1.2-.8-.8-.5-1-1.2-.8-2 .1-.4.3-.8.4-1.2.3.7.5 1.3.8 2 .2.7.5 1.4.8 2zm-75-1.6c0-1-.4-2-1.2-2.7s-2-1.3-3.5-1.6c-.8-.1-1.6-.3-2.3-.4.5.9 1 1.8 1.6 2.7 1 1.8 2.2 2.9 3.5 3.1.7.1 1.3.3 2 .4-.1-.4-.1-.9-.1-1.5zm63.2.8c-.4-.3-.8-.5-1.2-.8-.8-.5-1.2-1.2-1.2-2 0-.4 0-.8 0-1.2.5.3 1 .5 1.6.8 1 .5 1.4 1.2 1.2 2-.1.4-.2.8-.4 1.2zm-10.9-.8c-.5-.3-1-.5-1.6-.8-1-.5-1.4-1.3-1.2-2.3.1-.5.3-1 .4-1.6.4.8.8 1.6 1.2 2.3s.8 1.7 1.2 2.4zm-10.9 0c-.7-.5-1.3-1-2-1.6-1.3-1-1.8-2.1-1.6-3.1.1-.5.3-1 .4-1.6.5.4 1 .8 1.6 1.2 1 .8 1.6 1.8 1.6 3.1zm-11 0c-.8-.7-1.6-1.3-2.3-2-1.6-1.3-2.2-2.6-2-3.9.1-.7.3-1.3.4-2 .8.7 1.6 1.3 2.3 2 1.6 1.3 2.2 2.6 2 3.9-.1.7-.3 1.4-.4 2zm-41.8-2.7c-.8-1.3-1.7-2.1-2.7-2.3-.5-.1-1-.3-1.6-.4.3.7.5 1.3.8 2 .5 1.3 1.4 2.1 2.7 2.3.7.1 1.3.3 2 .4-.4-.7-.8-1.3-1.2-2zm-9.7-1.2c-.5-1-1.2-1.6-2-1.6-.4 0-.8 0-1.2 0 .1.4.3.8.4 1.2.3.8.9 1.3 2 1.6.5.1 1 .3 1.6.4-.3-.5-.6-1-.8-1.6zm-8.6-.7c0-.5-.5-.9-1.6-1.2-.5-.1-1-.3-1.6-.4.5.4 1 .8 1.6 1.2s1 .8 1.6 1.2c0-.3 0-.6 0-.8zm32.8-5.5c-.5-2.1-1.4-3.5-2.7-4.3s-2.6-1-3.9-.8-2 .9-2 2 .7 2.2 2 3.5 2.9 2.1 4.7 2.3c.9.1 1.8.3 2.7.4-.3-1-.6-2.1-.8-3.1zm-10.6.4c.3-1.3-.3-2.5-1.6-3.5s-2.6-1.6-3.9-1.6c-.7 0-1.3 0-2 0v1.6c0 1 1.2 2.2 3.5 3.5 1.2.7 2.3 1.3 3.5 2 .3-.7.4-1.4.5-2zm-10.1-.4c.3-.5-.1-1.3-1.2-2.3s-2.2-1.6-3.5-1.6c-.7 0-1.3 0-2 0v1.2c0 .8 1 1.6 3.1 2.3s3.3.9 3.6.4zm-11.7-2c-.8-1.3-1.7-2-2.7-2-.5 0-1 0-1.6 0 .3.5.5 1 .8 1.6.5 1 1.4 1.7 2.7 2 .7.1 1.3.3 2 .4-.5-.7-.9-1.3-1.2-2zm-9.4 0c-.3-.8-1-1.3-2.3-1.6-.7-.1-1.3-.3-2-.4.8.5 1.6 1 2.3 1.6s1.6 1 2.3 1.6c-.1-.4-.2-.8-.3-1.2zm63.7-1.1c-.8-.5-1.6-1-2.3-1.6-1.6-1-2.2-2.3-2-3.9.1-.8.3-1.6.4-2.3.8.7 1.6 1.3 2.3 2 1.6 1.3 2.2 2.6 2 3.9-.2.6-.3 1.2-.4 1.9zm22.6-.8c-.5-.4-1-.8-1.6-1.2-1-.8-1.4-1.7-1.2-2.7.1-.5.3-1 .4-1.6.5.4 1 .8 1.6 1.2 1 .8 1.4 1.7 1.2 2.7-.1.5-.3 1.1-.4 1.6zm-11.7 0c-.7-.4-1.3-.8-2-1.2-1.3-.8-1.8-1.7-1.6-2.7.1-.5.3-1 .4-1.6.7.4 1.3.8 2 1.2 1.3.8 1.8 1.7 1.6 2.7-.2.5-.3 1.1-.4 1.6zm23.4-.8c-.4-.3-.8-.5-1.2-.8-.8-.5-1.2-1.2-1.2-2 0-.4 0-.8 0-1.2.5.3 1 .5 1.6.8 1 .5 1.4 1.2 1.2 2-.1.4-.2.8-.4 1.2zm25-.8c-.4-.3-.8-.5-1.2-.8-.8-.5-1-1-.8-1.6.1-.3.3-.5.4-.8.3.5.5 1 .8 1.6s.6 1.1.8 1.6zm-12.5 0c-.4-.1-.8-.3-1.2-.4s-.8-.3-1.2-.4c.1-.4.3-.8.4-1.2s.3-.8.4-1.2c.3.5.5 1 .8 1.6s.6 1.1.8 1.6zm-74.6-3.9c.3-1.6.1-2.7-.4-3.5s-1.4-1.6-2.7-2.3-2.9-.9-4.7-.4c-.9.3-1.8.5-2.7.8.3.8.5 1.6.8 2.3.5 1.6 2.2 2.9 5.1 3.9 1.4.5 2.9 1 4.3 1.6.1-.8.2-1.6.3-2.4zm-11.3-.4c0-1.3-.4-2.3-1.2-3.1s-2.3-1.2-4.7-1.2c-1.2 0-2.3 0-3.5 0 .4.8.8 1.6 1.2 2.3.8 1.6 2.3 2.6 4.7 3.1 1.2.3 2.3.5 3.5.8 0-.6 0-1.2 0-1.9zm-11.7-.4c-.5-1.6-1.8-2.6-3.9-3.1-1-.3-2.1-.5-3.1-.8v1.6c0 1 .4 2 1.2 2.7s2.1 1.3 3.9 1.6c.9.1 1.8.3 2.7.4-.3-.8-.6-1.6-.8-2.4zm-10.6 1.2c.3-.8.1-1.4-.4-2s-1.7-.9-3.5-1.2c-.9-.1-1.8-.3-2.7-.4.3.5.5 1 .8 1.6.5 1 1.6 1.8 3.1 2.3.8.3 1.6.5 2.3.8.2-.3.3-.7.4-1.1zm-12.1-1.2c-1-1-2-1.4-2.7-1.2-.4.1-.8.3-1.2.4l1.2 1.2c.8.8 1.7 1.2 2.7 1.2h1.6c-.5-.5-1.1-1-1.6-1.6zm-9.4.8c0-.3 0-.5 0-.8-.7 0-1.3 0-2 0s-1.3 0-2 0c.7.3 1.3.5 2 .8s1.3.5 2 .8c0-.3 0-.5 0-.8zm67.2-2.3c-.4-.7-.8-1.3-1.2-2-.8-1.3-2.2-2.3-4.3-3.1-1-.4-2.1-.8-3.1-1.2.4-.3.8-.5 1.2-.8.8-.5 1.2-1.4 1.2-2.7 0-.7 0-1.3 0-2 1 .7 2.1 1.3 3.1 2 2.1 1.3 3.1 3.3 3.1 5.9zm-87.5-3.5c-.5-.8-1.2-1-2-.8-.4.1-.8.3-1.2.4.7.3 1.3.5 2 .8s1.3.5 2 .8c-.3-.5-.5-.9-.8-1.2zm11-.8c0-.8-.7-1.3-2-1.6-.7-.1-1.3-.3-2-.4v1.2c0 .8.7 1.3 2 1.6.7.1 1.3.3 2 .4 0-.4 0-.8 0-1.2zm86.7.4c-.9-.5-1.8-1-2.7-1.6-1.8-1-2.5-2.3-2-3.9.3-.8.5-1.6.8-2.3.8.5 1.6 1 2.3 1.6 1.6 1 2.2 2.3 2 3.9-.2.7-.3 1.5-.4 2.3zm-75-1.2c0-.8-.4-1.4-1.2-2s-1.8-.8-3.1-.8c-.7 0-1.3 0-2 0 .1.5.3 1 .4 1.6.3 1 1.3 1.7 3.1 2 .9.1 1.8.3 2.7.4.1-.4.1-.8.1-1.2zm22.6-1.2c.5-1 .3-2.1-.8-3.1s-2.6-1.7-4.7-2c-1-.1-2.1-.3-3.1-.4.1.8.3 1.6.4 2.3.3 1.6 1.6 2.7 3.9 3.5s3.8.8 4.3-.3zm-10.9.4c0-.8-.5-1.6-1.6-2.3s-2.1-1.3-3.1-1.6-2-.1-2.7.4c-.4.3-.8.5-1.2.8l2 2c1.3 1.3 2.7 2 4.3 2h2.3c0-.5 0-.9 0-1.3zm75 .4c-.8-.5-1.6-1-2.3-1.6-1.6-1-2.1-2.1-1.6-3.1.3-.5.5-1 .8-1.6.7.4 1.3.8 2 1.2 1.3.8 1.8 1.8 1.6 3.1-.2.7-.4 1.3-.5 2zm-52.3-1.6c.5-1 .3-2.2-.8-3.5s-2.2-2.2-3.5-2.7-2.6-.5-3.9 0-1.7 1.6-1.2 3.1 2.1 2.7 4.7 3.5 4.1.7 4.7-.4zm12.1-1.1c.3-1.3-.3-2.7-1.6-4.3s-2.6-2.6-3.9-3.1-2.6-.5-3.9 0-2 1.4-2 2.7.7 2.6 2 3.9 3.1 2.1 5.5 2.3 3.6-.2 3.9-1.5zm51.9 1.1c-.5-.4-1-.8-1.6-1.2-1-.8-1.4-1.7-1.2-2.7.1-.5.3-1 .4-1.6.5.4 1 .8 1.6 1.2 1 .8 1.4 1.7 1.2 2.7-.1.6-.3 1.1-.4 1.6zm-142.6-.7c-.7-.3-1.3-.5-2-.8.7.2 1.4.5 2 .8s1.3.5 2 .8c-.7-.3-1.3-.6-2-.8zm155.1-.8c-.5-.3-1-.5-1.6-.8-1-.5-1.4-1.3-1.2-2.3.1-.5.3-1 .4-1.6.4.3.8.5 1.2.8.8.5 1.2 1.3 1.2 2.3zm-142.2-.8c0-.5-.8-.9-2.3-1.2-.8-.1-1.6-.3-2.3-.4.1.4.3.8.4 1.2.3.8 1 1.2 2.3 1.2h2c-.1-.3-.1-.5-.1-.8zm153.5-1.2c-.8-.3-1-.9-.8-2 .1-.5.3-1 .4-1.6l1.2 1.2c.8.8 1 1.4.8 2-.3.6-.8.7-1.6.4zm-142.9-1.1c-.8-1-2-1.4-3.5-1.2-.8.1-1.6.3-2.3.4l1.2 1.2c.8.8 2 1.2 3.5 1.2h2.3c-.4-.6-.8-1.1-1.2-1.6zm-42.6.7c0-.3 0-.5 0-.8-.7 0-1.3 0-2 0s-1.3 0-2 0v.8s0 .5 0 .8h2s1.3 0 2 0c0-.2 0-.5 0-.8zm54.7-.4c.5-.3.7-.9.4-2s-1-1.8-2.3-2.3-2.6-.5-3.9 0c-.7.3-1.3.5-2 .8.4.5.8 1 1.2 1.6.8 1 2 1.7 3.5 2s2.6.2 3.1-.1zm-76.2-1.1c.1-.3.3-.5.4-.8-.7 0-1.3 0-2 0s-1.3 0-2 0c.5.3 1 .5 1.6.8s1 .5 1.6.8c.2-.3.3-.6.4-.8zm88.3-1.6c.3-1 0-2-.8-2.7s-2.3-1.2-4.7-1.2c-1.2 0-2.3 0-3.5 0 .4.8.8 1.6 1.2 2.3.8 1.6 2.2 2.5 4.3 2.7s3.2-.1 3.5-1.1zm-56.3.4c-.8-.8-1.7-1-2.7-.8-.5.1-1 .3-1.6.4.1.3.3.5.4.8.3.5 1.2.8 2.7.8h2.3c-.3-.4-.7-.8-1.1-1.2zm-53.9.4c.1-.3.3-.5.4-.8-.7 0-1.3 0-2 0s-1.3 0-2 0v.8s0 .5 0 .8h1.6c1.1 0 1.8-.3 2-.8zm164.5-.8c-1.3-.7-2.6-1.3-3.9-2s-2.6-1.3-3.9-2l1.2-1.2c.8-.8 1-2 .8-3.5-.1-.8-.3-1.6-.4-2.3.5.7 1 1.3 1.6 2 1 1.3 2.2 2.1 3.5 2.3s1.8 1.4 1.6 3.5c-.2 1.1-.4 2.2-.5 3.2zm-42.6-1.9c.3-1.3 0-2.3-.8-3.1s-2.5-1.3-5.1-1.6c-1.3-.1-2.6-.3-3.9-.4.3.9.5 1.8.8 2.7.5 1.8 2.1 3 4.7 3.5 1.3.3 2.6.5 3.9.8.2-.6.3-1.3.4-1.9zm-55.8 1.5c.5-.3.7-.8.4-1.6s-1.4-1.2-3.5-1.2c-1 0-2.1 0-3.1 0v.8c0 .5.9 1 2.7 1.6s2.9.7 3.5.4zm-32.9-1.5c-.5-.8-1.4-1.2-2.7-1.2-.7 0-1.3 0-2 0 .1.4.3.8.4 1.2.3.8 1.2 1.2 2.7 1.2h2.3c-.1-.5-.4-.9-.7-1.2zm100.8-1.2c.5-1 .1-2.3-1.2-3.9s-3-2.5-5.1-2.7-3.4-.1-3.9.4-.8 1.3-.8 2.3.5 2.1 1.6 3.1 2.7 1.7 5.1 2 3.8-.2 4.3-1.2zm42.2.8c-1-.7-2.1-1.3-3.1-2-2.1-1.3-2.9-2.7-2.3-4.3.3-.8.5-1.6.8-2.3.9.5 1.8 1 2.7 1.6 1.8 1 2.6 2.5 2.3 4.3-.1.8-.3 1.8-.4 2.7zm-31.2-1.2c1-.8 1.4-2 1.2-3.5s-1.4-3-3.5-4.3-3.8-1.8-5.1-1.6-2.2.8-2.7 1.6-.7 1.7-.4 2.7.9 2.1 2 3.1 2.5 1.8 4.3 2.3 3.1.5 4.2-.3zm-66.8-.4c.1-.5.3-1 .4-1.6-1.3-.3-2.6-.5-3.9-.8s-2.6-.5-3.9-.8c.1.7.3 1.3.4 2 .3 1.3 1.4 2.1 3.5 2.3s3.2-.1 3.5-1.1zm-66.8.4c-.5-.8-1.4-1-2.7-.8-.7.1-1.3.3-2 .4.1.3.3.5.4.8.3.5 1.2.8 2.7.8h2.3c-.2-.4-.5-.8-.7-1.2zm-22.7 0c.3-.4.5-.8.8-1.2-.7 0-1.3 0-2 0s-1.3 0-2 0c.4.4.8.8 1.2 1.2s.8.8 1.2 1.2c.3-.4.6-.8.8-1.2zm55.9-2c-.8-1-1.8-1.4-3.1-1.2-.7.1-1.3.3-2 .4.1.4.3.8.4 1.2.3.8 1.3 1.2 3.1 1.2h2.7c-.3-.5-.7-1-1.1-1.6zm45.3-1.1c.3-1.3-.1-2.2-1.2-2.7s-2.6-.7-4.7-.4c-1 .1-2.1.3-3.1.4.1.5.3 1 .4 1.6.3 1 1.7 1.8 4.3 2.3 1.3.3 2.6.5 3.9.8.1-.7.3-1.4.4-2zm98 1.1c-.8-.4-1.6-.8-2.3-1.2-1.6-.8-2.1-1.8-1.6-3.1.3-.7.5-1.3.8-2 .7.4 1.3.8 2 1.2 1.3.8 1.8 1.8 1.6 3.1-.2.7-.3 1.4-.5 2zm-164.8-.4c.5-.3.7-.8.4-1.6s-1.3-1-3.1-.8c-.9.1-1.8.3-2.7.4.8.4 1.6.8 2.3 1.2 1.5.8 2.6 1.1 3.1.8zm34.4-1.1c.5-.5.5-1.2 0-2s-2-1.2-4.3-1.2c-1.2 0-2.3 0-3.5 0v1.2c0 .8 1.2 1.4 3.5 2s3.7.5 4.3 0zm44.9-1.6c.3-1 0-2-.8-2.7s-2.5-1.3-5.1-1.6c-1.3-.1-2.6-.3-3.9-.4.1.8.3 1.6.4 2.3.3 1.6 1.8 2.6 4.7 3.1s4.4.4 4.7-.7zm-101.2.4c0-.4 0-.8 0-1.2-.8.1-1.6.3-2.3.4s-1.6.3-2.3.4c.1.3.3.5.4.8.3.5 1 .8 2.3.8h2c-.1-.4-.1-.8-.1-1.2zm-22.6.4.8-.8c-.7-.1-1.3-.3-2-.4s-1.3-.3-2-.4c.4.4.8.8 1.2 1.2s.8.8 1.2 1.2c.2-.3.5-.5.8-.8zm221.8 0c-.5-.3-1-.5-1.6-.8-1-.5-1.4-1.4-1.2-2.7.1-.7.3-1.3.4-2 .5.4 1 .8 1.6 1.2 1 .8 1.4 1.7 1.2 2.7-.1.6-.2 1.1-.4 1.6zm-86.3-3.5c.3-1.3.1-2.3-.4-3.1s-1.3-1.4-2.3-2-2.6-.5-4.7 0-3 1.4-2.7 2.7.9 2.3 2 3.1 2.6 1.2 4.7 1.2 3.1-.6 3.4-1.9zm-44.9 1.5c.5-.3.5-1 0-2.3s-1.8-2.1-3.9-2.3-3.4-.1-3.9.4-.5 1.3 0 2.3 1.8 1.7 3.9 2 3.4.2 3.9-.1zm-33.2-.7c.3-.8.1-1.4-.4-2s-1.8-.7-3.9-.4c-1 .1-2.1.3-3.1.4.4.5.8 1 1.2 1.6.8 1 2 1.6 3.5 1.6s2.4-.5 2.7-1.2zm176.9.3c-.4-.3-.8-.5-1.2-.8-.8-.5-1.2-1.3-1.2-2.3 0-.5 0-1 0-1.6.5.3 1 .5 1.6.8 1 .5 1.4 1.3 1.2 2.3-.1.6-.2 1.1-.4 1.6zm-199.6-1.9c.4-.4.8-.8 1.2-1.2-.9-.3-1.8-.5-2.7-.8s-1.8-.5-2.7-.8c-.1.5-.3 1-.4 1.6s-.3 1-.4 1.6c.7.1 1.3.3 2 .4 1.2.2 2.2 0 3-.8zm144.9.4c-.8-.7-1.6-1.3-2.3-2-1.6-1.3-2.9-2-3.9-2-.5 0-1 0-1.6 0 .4-.7.8-1.3 1.2-2 .8-1.3 1-2.5.8-3.5-.1-.5-.3-1-.4-1.6 1.2.8 2.3 1.6 3.5 2.3s2.3 1.6 3.5 2.3c-.3.4-.5.8-.8 1.2-.5.8-.7 1.8-.4 3.1.2.9.3 1.5.4 2.2zm-31.6-2.4c.3-1.6-.3-3-1.6-4.3s-3-2-5.1-2-3.4.3-3.9.8-.5 1.7 0 3.5 2.3 3 5.5 3.5c1.6.3 3.1.5 4.7.8.1-.7.3-1.5.4-2.3zm99.6 1.6c-.4-.1-.8-.3-1.2-.4-.8-.3-1-.9-.8-2 .1-.5.3-1 .4-1.6.3.7.5 1.3.8 2s.6 1.4.8 2zm-144.9-1.9c.3-1.3.1-2.2-.4-2.7s-1.8-.9-3.9-1.2-3.4-.1-3.9.4-.5 1.4 0 2.7 2 2.1 4.3 2.3 3.6-.2 3.9-1.5zm-89.9.7c-.3-.8-1.2-1-2.7-.8s-2.3.7-2.3 1.2v.8h2.7s1.8 0 2.7 0c-.1-.4-.2-.8-.4-1.2zm-22.6.4c.1-.3.3-.5.4-.8-.7 0-1.3 0-2 0s-1.3 0-2 0v.8s0 .5 0 .8h1.6c1.1 0 1.7-.3 2-.8zm169.1-1.1c1-.8 1.4-2.1 1.2-3.9s-1.2-3.3-2.7-4.3-3.4-1.4-5.5-1.2-3.1 1.4-3.1 3.5.7 3.6 2 4.7 2.7 1.7 4.3 2 2.8-.1 3.8-.8zm-89.8-.8c0-.7 0-1.3 0-2-1.3 0-2.6 0-3.9 0s-2.6 0-3.9 0c.3.7.5 1.3.8 2 .5 1.3 1.8 2 3.9 2h3.1c0-.7 0-1.4 0-2zm191.4.4c-.4-.1-.8-.3-1.2-.4s-.8-.3-1.2-.4c.1-.4.3-.8.4-1.2s.3-.8.4-1.2c.3.5.5 1 .8 1.6.3.5.5 1 .8 1.6zm-69.5-.8c-.9-.5-1.8-1-2.7-1.6-1.8-1-2.6-2.3-2.3-3.9.1-.8.3-1.6.4-2.3l2.7 1.2c1.8.8 2.6 2.1 2.3 3.9-.2.9-.3 1.8-.4 2.7zm-76.6-2c.5-1.3.4-2.3-.4-3.1s-2.2-1.3-4.3-1.6-3.4-.1-3.9.4-.5 1.6 0 3.1 2 2.5 4.3 2.7 3.8-.2 4.3-1.5zm-67.2 1.6c.5-.3.7-.9.4-2s-1.6-1.4-3.9-1.2c-1.2.1-2.3.3-3.5.4.3.5.5 1 .8 1.6.5 1 1.6 1.6 3.1 1.6s2.6-.1 3.1-.4zm34.4-3.1c0-1.3-.5-2.2-1.6-2.7s-2.5-.7-4.3-.4c-.9.1-1.8.3-2.7.4.3.8.5 1.6.8 2.3.5 1.6 2 2.3 4.3 2.3h3.5c0-.6 0-1.3 0-1.9zm-56.7.4c.1-.5.3-1 .4-1.6-1 0-2.1 0-3.1 0s-2.1 0-3.1 0c.1.5.3 1 .4 1.6.3 1 1.2 1.6 2.7 1.6s2.5-.6 2.7-1.6zm-45.7.3c.3-.4.5-.8.8-1.2-.7.1-1.3.3-2 .4s-1.3.3-2 .4c.4.3.8.5 1.2.8s.8.5 1.2.8c.3-.4.6-.8.8-1.2zm23.5-.7c0-.4 0-.8 0-1.2-.8 0-1.6 0-2.3 0s-1.6 0-2.3 0v1.2s0 .8 0 1.2h2.3s1.6 0 2.3 0c0-.5 0-.8 0-1.2zm124.2-2c.5-1.6.4-2.7-.4-3.5s-2.3-1.3-4.7-1.6-3.8-.1-4.3.4-.8 1.3-.8 2.3.4 2 1.2 2.7 2.3 1.3 4.7 1.6 3.8-.3 4.3-1.9zm76.6 1.6c-.8-.4-1.6-.8-2.3-1.2-1.6-.8-2.2-1.7-2-2.7.1-.5.3-1 .4-1.6.8.3 1.6.5 2.3.8 1.6.5 2.2 1.4 2 2.7-.2.7-.3 1.3-.4 2zm-144.6-.8c1-.5 1.6-1.2 1.6-2s-1.3-1.4-3.9-2c-1.3-.3-2.6-.5-3.9-.8-.1.7-.3 1.3-.4 2-.3 1.3.5 2.2 2.3 2.7s3.3.6 4.3.1zm33.6-.8c1-.5 1.6-1.3 1.6-2.3s-.7-2-2-2.7-2.7-1-4.3-.8-2.5 1-2.7 2.3.7 2.3 2.7 3.1 3.7.9 4.7.4zm46.9-1.5c.5-.5.5-1.8 0-3.9s-2-3.4-4.3-3.9-4-.4-5.1.4-1.6 1.7-1.6 2.7.5 2.1 1.6 3.1 2.7 1.7 5.1 2 3.8.1 4.3-.4zm-102 0c.8-.5.9-1.3.4-2.3s-1.8-1.4-3.9-1.2c-1 .1-2.1.3-3.1.4.1.5.3 1 .4 1.6.3 1 1.2 1.7 2.7 2s2.8 0 3.5-.5zm178.6 0c-.5-.3-1-.5-1.6-.8-1-.5-1.4-1.4-1.2-2.7.1-.7.3-1.3.4-2 .5.4 1 .8 1.6 1.2 1 .8 1.4 1.7 1.2 2.7-.2.5-.3 1-.4 1.6zm-43-.8c-.7-.7-1.3-1.3-2-2-1.3-1.3-2.7-2.1-4.3-2.3-.8-.1-1.6-.3-2.3-.4.4-.4.8-.8 1.2-1.2.8-.8 1-2 .8-3.5-.1-.8-.3-1.6-.4-2.3l1.6 1.6c1 1 2.2 1.7 3.5 2s2 1.7 2 4.3c-.1 1.2-.1 2.5-.1 3.8zm-157.8-.4c.5-.3.7-.9.4-2s-1.3-1.4-3.1-1.2c-.9.1-1.8.3-2.7.4.1.5.3 1 .4 1.6.3 1 1 1.6 2.3 1.6s2.2-.2 2.7-.4zm136.3-1.6c1.3-.8 2-2 2-3.5s-.7-3-2-4.3-3.1-2-5.5-2-3.8.3-4.3.8-.7 1.8-.4 3.9 1.7 3.6 4.3 4.7 4.6 1.2 5.9.4zm-45.7-.4c1-1 1.4-2 1.2-2.7s-1-1.6-2.3-2.3-2.9-1-4.7-.8-2.9 1-3.1 2.3 0 2.3.8 3.1 2.1 1.3 3.9 1.6 3.2-.1 4.2-1.2zm-34 .8c.8-.5 1.2-1.3 1.2-2.3s-.5-1.8-1.6-2.3-2.6-.5-4.7 0c-1 .3-2.1.5-3.1.8.3.7.5 1.3.8 2 .5 1.3 1.7 2.1 3.5 2.3s3.1 0 3.9-.5zm-78.9-.4c.1-.4.3-.8.4-1.2-.8 0-1.6 0-2.3 0s-1.6 0-2.3 0v1.2s0 .8 0 1.2h2c1.2 0 2-.4 2.2-1.2zm236.3-.4c-.5-.3-1-.5-1.6-.8-1-.5-1.4-1.3-1.2-2.3.1-.5.3-1 .4-1.6.5.3 1 .5 1.6.8 1 .5 1.4 1.3 1.2 2.3-.1.6-.2 1.1-.4 1.6zm-178.1-2.7c.5-.8.5-1.6 0-2.3s-1.7-1.3-3.5-1.6-3.1-.1-3.9.4-.9 1.4-.4 2.7 1.8 2 3.9 2 3.4-.4 3.9-1.2zm67.6-.8c.8-.8.8-2.1 0-3.9s-2.2-2.9-4.3-3.1-3.5-.1-4.3.4-1.2 1.4-1.2 2.7.4 2.3 1.2 3.1 2.2 1.3 4.3 1.6 3.5 0 4.3-.8zm123.8.4c-.4-.3-.8-.5-1.2-.8-.8-.5-1.2-1.2-1.2-2 0-.4 0-.8 0-1.2.5.3 1 .5 1.6.8 1 .5 1.4 1.2 1.2 2-.1.4-.2.8-.4 1.2zm-57.8 0c-.9-.4-1.8-.8-2.7-1.2-1.8-.8-2.6-2.1-2.3-3.9.1-.9.3-1.8.4-2.7.9.4 1.8.8 2.7 1.2 1.8.8 2.6 2.1 2.3 3.9-.1.9-.3 1.8-.4 2.7zm-100-.8c.5-.5.5-1.6 0-3.1s-1.7-2.5-3.5-2.7-3.1-.1-3.9.4-.9 1.6-.4 3.1 1.8 2.5 3.9 2.7 3.4.1 3.9-.4zm-56.2 0c.5-.5.7-1.3.4-2.3s-1.3-1.6-3.1-1.6-3 .3-3.5.8-.5 1.3 0 2.3 1.6 1.6 3.1 1.6 2.5-.3 3.1-.8zm-22.3-2.3c.1-.5.3-1 .4-1.6-.9 0-1.8 0-2.7 0s-1.8 0-2.7 0v1.6s0 1 0 1.6h2.3c1.5-.1 2.4-.6 2.7-1.6zm-22.7.4c.1-.4.3-.8.4-1.2-.7 0-1.3 0-2 0s-1.3 0-2 0v1.2s0 .8 0 1.2h1.6c1.1-.1 1.8-.5 2-1.2zm148.1-1.6c1-.8 1.3-2.1.8-3.9s-2.2-3-5.1-3.5-4.7-.4-5.5.4-1 1.8-.8 3.1 1 2.5 2.3 3.5 2.7 1.6 4.3 1.6 2.9-.4 4-1.2zm-69.2.8c.8-.3 1.3-1 1.6-2.3s.1-2.2-.4-2.7-1.8-.8-3.9-.8-3.4.7-3.9 2c-.3.7-.5 1.3-.8 2 1 .4 2.1.8 3.1 1.2 2.1.6 3.6.8 4.3.6zm134.8-1.2c-.7-.3-1.3-.5-2-.8-1.3-.5-1.8-1.6-1.6-3.1.1-.8.3-1.6.4-2.3.7.4 1.3.8 2 1.2 1.3.8 1.8 1.8 1.6 3.1-.1.6-.3 1.3-.4 1.9zm-99.2-2.3c.5-1.6.4-2.7-.4-3.5s-2.1-1.3-3.9-1.6-3.1-.1-3.9.4-1.3 1.2-1.6 2 0 1.7.8 2.7 2.3 1.7 4.7 2 3.8-.5 4.3-2zm-57 .7c1-.5 1.6-1.3 1.6-2.3s-.4-1.8-1.2-2.3-2.1-.7-3.9-.4-2.7 1.2-2.7 2.7.8 2.5 2.3 2.7c1.5.3 2.8.2 3.9-.4zm125-.7c-.8-.7-1.6-1.3-2.3-2-1.6-1.3-3-2-4.3-2-.7 0-1.3 0-2 0 .4-.5.8-1 1.2-1.6.8-1 1.2-2.2 1.2-3.5s-.7-2.7-2-4.3-3.3-2.3-5.9-2.3c-1.3 0-2.6 0-3.9 0 .8-.7 1.6-1.3 2.3-2 1.6-1.3 2.2-2.9 2-4.7-.1-.9-.3-1.8-.4-2.7l2 2c1.3 1.3 2.7 2.1 4.3 2.3.8.1 1.6.3 2.3.4-.4.9-.8 1.8-1.2 2.7-.8 1.8-.5 3.8.8 5.9s2.7 3.3 4.3 3.5c.8.1 1.6.3 2.3.4-.3.5-.5 1-.8 1.6-.5 1-.7 2.3-.4 3.9.2.8.3 1.6.5 2.4zm-21.1-1.6c1-1 1.3-2.5.8-4.3s-1.4-3.1-2.7-3.9-3-1-5.1-.8-3.4.8-3.9 1.6-.7 2-.4 3.5 1 2.9 2.3 3.9 2.9 1.6 4.7 1.6 3.2-.6 4.3-1.6zm-125.4-1.2c.1-.7.3-1.3.4-2-.8-.1-1.6-.3-2.3-.4-1.6-.3-2.7-.1-3.5.4s-1 1.3-.8 2.3 1.3 1.6 3.1 1.6 2.8-.6 3.1-1.9zm191 1.2c-.7-.3-1.3-.5-2-.8-1.3-.5-1.8-1.4-1.6-2.7.1-.7.3-1.3.4-2 .7.3 1.3.5 2 .8 1.3.5 1.8 1.4 1.6 2.7-.1.7-.3 1.4-.4 2zm-134-1.2c.8-.8.9-1.8.4-3.1s-1.8-2.1-3.9-2.3-3.5-.1-4.3.4-.9 1.6-.4 3.1 1.8 2.5 3.9 2.7 3.5 0 4.3-.8zm-79.7-.4c.1-.5.3-1 .4-1.6-.8 0-1.6 0-2.3 0s-1.6 0-2.3 0v1.6s0 1 0 1.6h2c1.2 0 2-.5 2.2-1.6zm114.1-.3c.8-.8.8-2.1 0-3.9s-2.2-2.9-4.3-3.1-3.5-.1-4.3.4-1.3 1.3-1.6 2.3 0 2.1.8 3.1 2.3 1.7 4.7 2 3.9-.1 4.7-.8zm-56.3-2c.8-.5.9-1.6.4-3.1s-1.8-2.3-3.9-2.3-3.4.3-3.9.8-.7 1.4-.4 2.7 1.4 2.1 3.5 2.3 3.6.1 4.3-.4zm169.2 0c-.5-.3-1-.5-1.6-.8-1-.5-1.4-1.3-1.2-2.3.1-.5.3-1 .4-1.6.5.3 1 .5 1.6.8 1 .5 1.4 1.3 1.2 2.3-.2.6-.3 1.1-.4 1.6zm-45.3-.8c-1-.4-2.1-.8-3.1-1.2-2.1-.8-2.9-2.1-2.3-3.9.3-.9.5-1.8.8-2.7.8.4 1.6.8 2.3 1.2 1.6.8 2.3 2.1 2.3 3.9zm-54.3-1.9c.8-.8.8-2.2 0-4.3s-2.3-3.3-4.7-3.5-3.9-.1-4.7.4-1.2 1.7-1.2 3.5.3 3 .8 3.5 2.1.9 4.7 1.2 4.3-.1 5.1-.8zm-34.4-.4c.8-1 .8-2.2 0-3.5s-2.2-2.1-4.3-2.3-3.5 0-4.3.8-.9 2-.4 3.5 2 2.5 4.3 2.7 3.9-.2 4.7-1.2zm-56.6.8c.5-.5.5-1.4 0-2.7s-2-1.7-4.3-1.2c-1.2.3-2.3.5-3.5.8.3.7.5 1.3.8 2 .5 1.3 1.7 2 3.5 2s2.9-.4 3.5-.9zm-22.7-1.6c.5-.5.7-1.2.4-2s-.9-1.3-2-1.6-2-.1-2.7.4-1.2 1.3-1.2 2.3v1.6h2.3c1.6.1 2.7-.2 3.2-.7zm226.6 0c-.4-.3-.8-.5-1.2-.8-.8-.5-1-1.2-.8-2 .1-.4.3-.8.4-1.2.4.1.8.3 1.2.4.8.3 1 .9.8 2-.2.6-.3 1.1-.4 1.6zm-249.3-1.6c0-.5 0-1 0-1.6-.7.1-1.3.3-2 .4s-1.3.3-2 .4c.1.4.3.8.4 1.2.3.8.9 1.2 2 1.2h1.6c0-.5 0-1 0-1.6zm-22.2.4c.1-.4.3-.8.4-1.2-.4 0-.8 0-1.2 0-.8 0-1.3.3-1.6.8-.1.3-.3.5-.4.8.4.1.8.3 1.2.4s.8.3 1.2.4c.1-.4.2-.8.4-1.2zm101.5-.8c1.3-.8 2-1.7 2-2.7s-.5-2-1.6-2.7-2.5-1-4.3-.8-3 .8-3.5 1.6-.7 1.7-.4 2.7 1.3 1.8 3.1 2.3 3.4.4 4.7-.4zm69.2-.3c1-.5 1.7-1.8 2-3.9s-.1-3.6-1.2-4.7-2.7-1.6-5.1-1.6-3.9.4-4.7 1.2-1.2 2-1.2 3.5.5 2.9 1.6 3.9 2.5 1.7 4.3 2 3.2.1 4.3-.4zm54.7 0c-.8-.3-1.6-.5-2.3-.8s-1.6-.5-2.3-.8c.3-.8.5-1.6.8-2.3s.5-1.6.8-2.3c.7.4 1.3.8 2 1.2 1.3.8 1.8 1.8 1.6 3.1-.4.5-.5 1.2-.6 1.9zm-87.9-2c.8-.8.8-2.1 0-3.9s-2.2-2.9-4.3-3.1-3.5-.1-4.3.4-1.3 1.4-1.6 2.7-.1 2.3.4 3.1 2.1 1.3 4.7 1.6 4.3 0 5.1-.8zm-56.7-2.3c.5-1.8.3-3-.8-3.5s-2.5-.5-4.3 0-2.7 1.6-2.7 3.1 1.2 2.5 3.5 2.7 3.8-.5 4.3-2.3zm-22.2-2c.1-.8.3-1.6.4-2.3-.8-.1-1.6-.3-2.3-.4-1.6-.3-2.7-.1-3.5.4s-1 1.4-.8 2.7 1.3 2 3.1 2 2.8-.8 3.1-2.4zm180 1.6c-.7-.3-1.3-.5-2-.8s-1.3-.5-2-.8c.3-.7.5-1.3.8-2s.5-1.3.8-2c.5.3 1 .5 1.6.8 1 .5 1.4 1.4 1.2 2.7-.1.8-.2 1.4-.4 2.1zm-123-1.2c.8-.8 1-2 .8-3.5s-1.2-2.6-2.7-3.1-3.1-.4-4.7.4-2.3 1.8-2.3 3.1.4 2.3 1.2 3.1 2.1 1.2 3.9 1.2 3-.4 3.8-1.2zm-80.1 0c1-.8 1.3-1.6.8-2.3s-1.3-1.2-2.3-1.2-1.8.4-2.3 1.2-.3 1.6.8 2.3 2 .8 3 0zm114.5-.8c1.3-.8 1.8-2.1 1.6-3.9s-.9-3.1-2-3.9-2.6-1-4.7-.8-3.4 1.4-3.9 3.5-.4 3.5.4 4.3 2.1 1.3 3.9 1.6 3.4 0 4.7-.8zm-136-.8c.1-.4.3-.8.4-1.2-.7.1-1.3.3-2 .4-1.3.3-2 .7-2 1.2v.8h1.6c1.1 0 1.8-.4 2-1.2zm191.8-.4c-1-.4-2.1-.8-3.1-1.2-2.1-.8-2.9-2.2-2.3-4.3.3-1 .5-2.1.8-3.1.9.5 1.8 1 2.7 1.6 1.8 1 2.6 2.5 2.3 4.3-.1.9-.2 1.8-.4 2.7zm-112.1-.7c.8-.5 1.2-1.6 1.2-3.1s-.4-2.6-1.2-3.1-2.1-.7-3.9-.4-3 1.3-3.5 3.1c-.3.9-.5 1.8-.8 2.7 1.2.3 2.3.5 3.5.8 2.4.5 3.9.5 4.7 0zm159-.8c-.5-.1-1-.3-1.6-.4-1-.3-1.4-1-1.2-2.3.1-.7.3-1.3.4-2 .5.3 1 .5 1.6.8 1 .5 1.4 1.3 1.2 2.3-.1.5-.3 1.1-.4 1.6zm-181.2-2c1-.8 1.6-1.7 1.6-2.7s-.9-1.8-2.7-2.3-3.3-.4-4.3.4-1.6 1.6-1.6 2.3.9 1.6 2.7 2.3 3.2.8 4.3 0zm92.5-1.5c1.3-1.3 1.7-2.9 1.2-4.7s-1.2-3-2-3.5-2.5-.7-5.1-.4-4.2.8-4.7 1.6-.5 2.2 0 4.3 2.1 3.4 4.7 3.9 4.6.1 5.9-1.2zm-34.3-.4c.8-1.6.7-3-.4-4.3s-2.9-1.7-5.5-1.2-4 1.4-4.3 2.7-.1 2.3.4 3.1 2.1 1.3 4.7 1.6 4.3-.4 5.1-1.9zm-80.1-1.6c.3-.8.5-1.6.8-2.3-.9 0-1.8 0-2.7 0-1.8 0-2.9.7-3.1 2-.1.7-.3 1.3-.4 2 .8.1 1.6.3 2.3.4 1.5.1 2.6-.5 3.1-2.1zm169.5 1.6c-.9-.4-1.8-.8-2.7-1.2-1.8-.8-2.5-2-2-3.5.3-.8.5-1.6.8-2.3.8.4 1.6.8 2.3 1.2 1.6.8 2.2 2 2 3.5-.1.7-.3 1.5-.4 2.3zm46.9-.8c-.4-.3-.8-.5-1.2-.8-.8-.5-1-1.2-.8-2 .1-.4.3-.8.4-1.2.4.1.8.3 1.2.4.8.3 1 .9.8 2-.2.5-.3 1.1-.4 1.6zm-238.3-1.6c.3-.5.5-1 .8-1.6-.7-.1-1.3-.3-2-.4s-1.3-.3-2-.4c-.1.7-.3 1.3-.4 2s-.3 1.3-.4 2h1.6c1.1 0 1.9-.5 2.4-1.6zm80.1-.4c.8-.8 1.2-1.7 1.2-2.7s-.4-2-1.2-2.7-2.5-.9-5.1-.4-4 1.3-4.3 2.3 0 2.1.8 3.1 2.2 1.6 4.3 1.6 3.5-.4 4.3-1.2zm-102.4 0c.1-.4.3-.8.4-1.2-.4 0-.8 0-1.2 0-.8 0-1.3.3-1.6.8-.1.3-.3.5-.4.8.4.1.8.3 1.2.4s.8.3 1.2.4c.2-.4.3-.8.4-1.2zm136.4-1.1c1-.5 1.7-1.7 2-3.5s-.1-3.3-1.2-4.3-2.7-1.4-5.1-1.2-3.8 1.4-4.3 3.5-.1 3.6 1.2 4.7 2.6 1.6 3.9 1.6 2.4-.3 3.5-.8zm-55.9-3.2c.8-1.6.8-2.7 0-3.5s-2-1.2-3.5-1.2-2.7.4-3.5 1.2-1.2 1.7-1.2 2.7.3 1.8.8 2.3 1.7.8 3.5.8 3.1-.7 3.9-2.3zm194.9.8c-.4-.1-.8-.3-1.2-.4s-.8-.3-1.2-.4c.1-.4.3-.8.4-1.2s.3-.8.4-1.2c.3.5.5 1 .8 1.6s.6 1.1.8 1.6zm-48.4 0c-.7-.3-1.3-.5-2-.8-1.3-.5-1.8-1.4-1.6-2.7.1-.7.3-1.3.4-2 .7.3 1.3.5 2 .8 1.3.5 1.8 1.4 1.6 2.7-.1.7-.3 1.4-.4 2zm-32.8 0c-.7-.5-1.3-1-2-1.6-1.3-1-2.6-1.6-3.9-1.6-.7 0-1.3 0-2 0 .4-.5.8-1 1.2-1.6.8-1 1-2.3.8-3.9-.1-.8-.3-1.6-.4-2.3 1.2.7 2.3 1.3 3.5 2 2.3 1.3 3.4 3.1 3.1 5.5-.1 1.2-.2 2.3-.3 3.5zm-136-3.1c.5-1.6.4-2.6-.4-3.1s-1.8-.7-3.1-.4-2.2 1-2.7 2.3c-.3.7-.5 1.3-.8 2 1 .3 2.1.5 3.1.8 2.1.5 3.4 0 3.9-1.6zm57.5.4c.8-.8 1.2-2 1.2-3.5s-.5-2.7-1.6-3.5-2.5-1-4.3-.8-3.1.8-3.9 1.6-1 2-.8 3.5 1.7 2.6 4.3 3.1 4.3.4 5.1-.4zm-79.3-.4c.5-.5.7-1.3.4-2.3s-1.2-1.6-2.7-1.6-2.5.7-2.7 2c-.1.7-.3 1.3-.4 2 .8.1 1.6.3 2.3.4 1.5.1 2.5 0 3.1-.5zm114.8-1.6c1-1 1.4-2.5 1.2-4.3s-.9-3.1-2-3.9-2.7-1-5.1-.8-3.8 1.6-4.3 3.9-.3 4 .8 5.1 2.6 1.6 4.7 1.6 3.7-.5 4.7-1.6zm-137.1-.7c.1-.5.3-1 .4-1.6-.5 0-1 0-1.6 0-1 0-1.7.4-2 1.2-.1.4-.3.8-.4 1.2.5.1 1 .3 1.6.4s1 .3 1.6.4c.1-.6.3-1.1.4-1.6zm227 0c-.5-.1-1-.3-1.6-.4-1-.3-1.4-1-1.2-2.3.1-.7.3-1.3.4-2 .5.3 1 .5 1.6.8 1 .5 1.4 1.3 1.2 2.3-.2.5-.3 1-.4 1.6zm-146.9-.8c.5-.5.5-1.8 0-3.9s-2.1-2.9-4.7-2.3c-1.3.3-2.6.5-3.9.8.3 1 .5 2.1.8 3.1.5 2.1 1.8 3.1 3.9 3.1s3.4-.3 3.9-.8zm113.3-.8c-1-.4-2.1-.8-3.1-1.2-2.1-.8-2.9-2.2-2.3-4.3.3-1 .5-2.1.8-3.1.9.5 1.8 1 2.7 1.6 1.8 1 2.6 2.5 2.3 4.3-.2.9-.3 1.8-.4 2.7zm-78.6-2.4c1.3-1 2-2.3 2-3.9s-.4-2.7-1.2-3.5-2.5-1-5.1-.8-4.2.8-4.7 1.6-.7 2-.4 3.5.9 2.7 2 3.5 2.2 1.2 3.5 1.2 2.6-.5 3.9-1.6zm-57.8.4c1.3-.8 1.7-2 1.2-3.5s-1.6-2.3-3.1-2.3-2.7.4-3.5 1.2-1.2 1.6-1.2 2.3.8 1.6 2.3 2.3c1.6.8 3 .8 4.3 0zm93.4-1.5c1.6-1.3 2.2-3 2-5.1s-.9-3.5-2-4.3-2.9-1-5.5-.8-4.3 1-5.1 2.3-.9 2.9-.4 4.7 2.1 3.1 4.7 3.9 4.7.6 6.3-.7zm-114.8-1.2c1-1 1.3-2.1.8-3.1s-1.7-1.3-3.5-.8-2.7 1.3-2.7 2.3.7 1.8 2 2.3 2.3.3 3.4-.7zm205.4.8c-.4-.1-.8-.3-1.2-.4-.8-.3-1.2-.9-1.2-2 0-.5 0-1 0-1.6.5.3 1 .5 1.6.8 1 .5 1.4 1.2 1.2 2-.1.4-.3.8-.4 1.2zm-148-2.4c1.3-1 2-2.3 2-3.9s-.7-2.7-2-3.5-2.7-1-4.3-.8-2.7 1.4-3.5 3.5-.8 3.5 0 4.3 2 1.3 3.5 1.6 3-.1 4.3-1.2zm-78.9-1.1c.3-1.3-.1-2.1-1.2-2.3s-2 .1-2.7 1.2-1 1.8-.8 2.3 1 .8 2.3.8 2.1-.7 2.4-2zm159 1.1c-.5-.4-1-.8-1.6-1.2-1-.8-2.5-1.2-4.3-1.2-.9 0-1.8 0-2.7 0 .4-.5.8-1 1.2-1.6.8-1 1-2.7.8-5.1-.1-1.2-.3-2.3-.4-3.5.5.7 1 1.3 1.6 2 1 1.3 2.5 2.1 4.3 2.3.9.1 1.8.3 2.7.4-.3 1.3-.5 2.6-.8 3.9s-.6 2.7-.8 4zm33.5-.7c-.8-.3-1.6-.5-2.3-.8-1.6-.5-2.2-1.6-2-3.1.1-.8.3-1.6.4-2.3.8.3 1.6.5 2.3.8 1.6.5 2.2 1.6 2 3.1-.1.7-.2 1.5-.4 2.3zm-214.4-1.2c.1-.4.3-.8.4-1.2-.5 0-1 0-1.6 0s-1 0-1.6 0v1.2s0 .8 0 1.2h1.2c.8 0 1.3-.4 1.6-1.2zm137.1-1.2c1-1 1.6-2.3 1.6-3.9s-.5-2.9-1.6-3.9-2.6-1.6-4.7-1.6-3.6.5-4.7 1.6-1.4 2.6-1.2 4.7 1.8 3.4 4.7 3.9 4.9.3 5.9-.8zm-58.2 0c.8-.5 1.3-1.4 1.6-2.7s0-2.3-.8-3.1-2-1.2-3.5-1.2-2.7.4-3.5 1.2-1.2 1.7-1.2 2.7.4 2 1.2 2.7 1.8 1.2 3.1 1.2 2.3-.3 3.1-.8zm184 0c-.3-.5-.5-1-.8-1.6-.3-.5-.5-1-.8-1.6.4.1.8.3 1.2.4s.8.3 1.2.4c-.1.4-.3.8-.4 1.2-.2.4-.3.8-.4 1.2zm-148.8-3.9c1.8-1 2.7-2.3 2.7-3.9s-.5-2.9-1.6-3.9-2.3-1.6-3.9-1.6-3 .7-4.3 2-1.8 2.7-1.6 4.3 1.3 2.7 3.1 3.5 3.7.6 5.6-.4zm-56.7-1.2c.3-.9.5-1.8.8-2.7-.9-.1-1.8-.3-2.7-.4-1.8-.3-3 .5-3.5 2.3-.3.9-.5 1.8-.8 2.7.9.1 1.8.3 2.7.4 1.8.3 3-.4 3.5-2.3zm171.1 1.2c-.7-.3-1.3-.5-2-.8-1.3-.5-1.8-1.4-1.6-2.7.1-.7.3-1.3.4-2 .7.3 1.3.5 2 .8 1.3.5 1.8 1.4 1.6 2.7-.1.7-.3 1.4-.4 2zm-34.4 0c-.5-.4-1-.8-1.6-1.2-1-.8-2.2-1.2-3.5-1.2-.7 0-1.3 0-2 0 .3-.3.5-.5.8-.8.5-.5.8-1.8.8-3.9 0-1 0-2.1 0-3.1.7.5 1.3 1 2 1.6 1.3 1 2.5 1.6 3.5 1.6h1.6c-.3 1.2-.5 2.3-.8 3.5s-.5 2.3-.8 3.5zm-43.3-2.7c1.3-1.3 1.8-3 1.6-5.1s-.9-3.5-2-4.3-2.7-1-5.1-.8-3.9.9-4.7 2-1 2.6-.8 4.7 1 3.5 2.3 4.3 2.7 1.2 4.3 1.2 3.1-.7 4.4-2zm-115.3 0c.5-1.3.3-2.2-.8-2.7s-2.1-.1-3.1 1.2-1.4 2.2-1.2 2.7 1 .8 2.3.8 2.3-.7 2.8-2zm-21.8-1.2c.3-.5.5-1 .8-1.6-.5-.1-1-.3-1.6-.4s-1-.3-1.6-.4c-.1.5-.3 1-.4 1.6-.3 1 0 1.7.8 2s1.4-.2 2-1.2zm79.7-.8c1-1 1.4-2.2 1.2-3.5s-.7-2.2-1.2-2.7-1.7-.8-3.5-.8-3.1.4-3.9 1.2-1 2.1-.8 3.9 1.4 2.9 3.5 3.1 3.6-.1 4.7-1.2zm35.9-3.1c1-1 1.4-2.6 1.2-4.7s-1.2-3.5-2.7-4.3-3-1-4.3-.8-2.5 1-3.5 2.3-1.4 2.7-1.2 4.3.8 2.7 1.6 3.5 2.2 1.2 4.3 1.2 3.5-.5 4.6-1.5zm-58.6.4c1-.8 1.6-1.8 1.6-3.1s-.8-2.2-2.3-2.7-2.9-.4-3.9.4-1.6 1.8-1.6 3.1.8 2.2 2.3 2.7 2.9.4 3.9-.4zm171.9.4c-.5-.1-1-.3-1.6-.4s-1-.3-1.6-.4c.1-.5.3-1 .4-1.6s.3-1 .4-1.6c.4.3.8.5 1.2.8.8.5 1.2 1.2 1.2 2zm-35.2-.8c-.8-.3-1.6-.5-2.3-.8-1.6-.5-2.2-1.7-2-3.5.1-.9.3-1.8.4-2.7.9.3 1.8.5 2.7.8s1.8.5 2.7.8c-.3.9-.5 1.8-.8 2.7s-.4 1.8-.7 2.7zm-157.8-3.5c.3-.7.5-1.3.8-2-.9-.3-1.8-.5-2.7-.8s-1.8-.5-2.7-.8c-.1.8-.3 1.6-.4 2.3s-.3 1.6-.4 2.3c.8.1 1.6.3 2.3.4 1.5.4 2.6-.1 3.1-1.4zm57 0c1-.8 1.7-2.1 2-3.9s-.3-3.3-1.6-4.3-3-1.3-5.1-.8-3.4 1.3-3.9 2.3-.7 2.2-.4 3.5.9 2.3 2 3.1 2.2 1.2 3.5 1.2 2.5-.3 3.5-1.1zm-79.3-2.4c.1-.7.3-1.3.4-2-.5 0-1 0-1.6 0-1 0-1.7.7-2 2-.1.7-.3 1.3-.4 2h1.6c1.1 0 1.8-.7 2-2zm229.3.4c-.4-.1-.8-.3-1.2-.4s-.8-.3-1.2-.4c.1-.4.3-.8.4-1.2s.3-.8.4-1.2c.4.1.8.3 1.2.4s.8.3 1.2.4c-.1.4-.3.8-.4 1.2s-.2.8-.4 1.2zm-69.5 0c-.5-.4-1-.8-1.6-1.2-1-.8-2.3-1.2-3.9-1.2-.8 0-1.6 0-2.3 0 .4-.7.8-1.3 1.2-2 .8-1.3 1-2.9.8-4.7-.1-.9-.3-1.8-.4-2.7l2 2c1.3 1.3 2.6 2 3.9 2h2c-.3 1.3-.5 2.6-.8 3.9s-.6 2.6-.9 3.9zm-44.1-1.9c1.3-1.3 2-2.7 2-4.3s-.8-3-2.3-4.3-3-2-4.3-2-2.6.5-3.9 1.6-2.1 2.3-2.3 3.9-.1 2.9.4 3.9 2.1 1.8 4.7 2.3 4.4.2 5.7-1.1zm-58.6-.4c1.3-1 1.7-2.5 1.2-4.3s-2-2.5-4.3-2-3.5 1.7-3.5 3.5.8 3 2.3 3.5 3 .3 4.3-.7zm-78.2.4c.1-.4.3-.8.4-1.2-.4 0-.8 0-1.2 0-.8 0-1.3.4-1.6 1.2-.1.4-.3.8-.4 1.2h1.2c.9-.1 1.4-.4 1.6-1.2zm215.3.4c-.8-.3-1.6-.5-2.3-.8s-1.6-.5-2.3-.8c.3-.8.5-1.6.8-2.3s.5-1.6.8-2.3c.7.3 1.3.5 2 .8 1.3.5 1.8 1.6 1.6 3.1-.4.7-.5 1.5-.6 2.3zm-100.4-5.1c1.3-1.3 1.8-2.9 1.6-4.7s-1-3.1-2.3-3.9-2.7-1-4.3-.8-2.9 1.2-3.9 2.7-1.4 3-1.2 4.3.9 2.3 2 3.1 2.3 1.2 3.9 1.2 2.9-.6 4.2-1.9zm-58.2-.8c.3-.9.5-1.8.8-2.7-.8-.1-1.6-.3-2.3-.4-1.6-.3-2.6.5-3.1 2.3-.3.9-.5 1.8-.8 2.7.8.1 1.6.3 2.3.4 1.5.3 2.6-.5 3.1-2.3zm93.3-.8c1.3-.8 2.1-2.3 2.3-4.7s-.1-4.2-1.2-5.5-2.7-2-5.1-2-4 .5-5.1 1.6-1.6 2.6-1.6 4.7.8 3.8 2.3 5.1 3 2 4.3 2 2.8-.4 4.1-1.2zm45 .4c-1.2-.4-2.3-.8-3.5-1.2s-2.3-.8-3.5-1.2c.3-.3.5-.5.8-.8.5-.5.8-1.7.8-3.5 0-.9 0-1.8 0-2.7 1 .5 2.1 1 3.1 1.6 2.1 1 3 2.6 2.7 4.7-.2 1-.3 2.1-.4 3.1zm-159.8-1.6c.3-1 .1-1.8-.4-2.3s-1.2-.7-2-.4-1.3 1-1.6 2.3c-.1.7-.3 1.3-.4 2h2c1.4 0 2.1-.5 2.4-1.6zm194.1.8c-.5-.1-1-.3-1.6-.4-1-.3-1.4-1-1.2-2.3.1-.7.3-1.3.4-2 .5.1 1 .3 1.6.4 1 .3 1.4 1 1.2 2.3-.1.7-.2 1.4-.4 2zm-136.3-1.9c.8-.8 1.2-2 1.2-3.5s-.5-2.7-1.6-3.5-2.2-1.2-3.5-1.2-2.5 1-3.5 3.1-1.2 3.6-.4 4.7 2.1 1.6 3.9 1.6 3.1-.4 3.9-1.2zm-79.7-1.2c.1-.5.3-1 .4-1.6-.4 0-.8 0-1.2 0-.8 0-1.3.5-1.6 1.6-.1.5-.3 1-.4 1.6h1.2c.8 0 1.4-.6 1.6-1.6zm115.3-1.9c1-.8 1.7-2.1 2-3.9s-.1-3.4-1.2-4.7-2.3-2.1-3.9-2.3-3 0-4.3.8-2.1 2.3-2.3 4.7.3 4 1.6 5.1 2.7 1.6 4.3 1.6 2.7-.6 3.8-1.3zm-58.2-.8c.8-.8 1.2-1.7 1.2-2.7s-.9-1.8-2.7-2.3-3.1 0-3.9 1.6-.9 2.7-.4 3.5 1.4 1.2 2.7 1.2 2.3-.5 3.1-1.3zm137.8-1.2c-.8-.3-1.6-.5-2.3-.8-1.6-.5-2.2-1.8-2-3.9.1-1 .3-2.1.4-3.1.8.4 1.6.8 2.3 1.2 1.6.8 2.2 2.1 2 3.9-.1.9-.2 1.8-.4 2.7zm35.2-.8c-.4-.1-.8-.3-1.2-.4s-.8-.3-1.2-.4c.1-.4.3-.8.4-1.2s.3-.8.4-1.2c.4.1.8.3 1.2.4s.8.3 1.2.4c-.1.4-.3.8-.4 1.2s-.3.8-.4 1.2zm-195.3-.4c.5-.3.8-1 .8-2.3s-.5-2.1-1.6-2.3-1.8.4-2.3 2c-.3.8-.5 1.6-.8 2.3.5.1 1 .3 1.6.4 1 .2 1.8.2 2.3-.1zm58.6-1.9c1-1 1.6-2.3 1.6-3.9s-.7-2.9-2-3.9-2.5-1.6-3.5-1.6-2.2.7-3.5 2-2 2.7-2 4.3.4 2.7 1.2 3.5 2.1 1.2 3.9 1.2 3.2-.6 4.3-1.6zm-79.3-2c.3-.8 0-1.4-.8-2-.4-.3-.8-.5-1.2-.8-.3.7-.5 1.3-.8 2s-.5 1.3-.8 2h1.6c1.1 0 1.7-.4 2-1.2zm115.6-1.5c1.3-1.3 2-2.7 2-4.3s-.5-3-1.6-4.3-2.5-2.1-4.3-2.3-3.5.3-5.1 1.6-2.3 2.9-2.3 4.7.7 3.4 2 4.7 2.9 2 4.7 2 3.3-.8 4.6-2.1zm-59.4-.4c1.3-1 1.7-2.5 1.2-4.3s-1.6-2.7-3.1-2.7-2.7.5-3.5 1.6-1 2.2-.8 3.5 1 2.2 2.3 2.7 2.6.2 3.9-.8zm103.6.8c-1.2-.3-2.3-.5-3.5-.8-2.3-.5-3.3-2.2-2.7-5.1.3-1.4.5-2.9.8-4.3.7.5 1.3 1 2 1.6 1.3 1 2.5 1.6 3.5 1.6h1.6c-.3 1.2-.5 2.3-.8 3.5s-.7 2.3-.9 3.5zm35.1-2.4c-.7-.1-1.3-.3-2-.4-1.3-.3-1.8-1.2-1.6-2.7.1-.8.3-1.6.4-2.3.7.3 1.3.5 2 .8 1.3.5 1.8 1.4 1.6 2.7-.1.6-.3 1.3-.4 1.9zm-101.9-2.3c1.3-1 2-2.5 2-4.3s-.5-3.3-1.6-4.3-2.5-1.6-4.3-1.6-3.3.5-4.3 1.6-1.6 2.5-1.6 4.3.7 3.3 2 4.3 2.6 1.6 3.9 1.6 2.6-.6 3.9-1.6zm-57.9-1.6c.1-.8.3-1.6.4-2.3-.9 0-1.8 0-2.7 0s-1.8 0-2.7 0v2.3s0 1.6 0 2.3h2.3c1.6 0 2.5-.7 2.7-2.3zm-21.8-2.3c.1-.5.3-1 .4-1.6-.5-.1-1-.3-1.6-.4s-1-.3-1.6-.4c-.1.5-.3 1-.4 1.6s-.3 1-.4 1.6c.5.1 1 .3 1.6.4s1 .3 1.6.4c.1-.6.2-1.1.4-1.6zm57.4-.8c1-1 1.4-2.5 1.2-4.3s-1.7-2.7-4.3-2.7c-1.3 0-2.6 0-3.9 0v3.9c0 2.6.9 4 2.7 4.3s3.2-.2 4.3-1.2zm103.1.8c-1-.3-2.1-.5-3.1-.8s-2.1-.5-3.1-.8c.3-1 .5-2.1.8-3.1s.5-2.1.8-3.1c.9.4 1.8.8 2.7 1.2 1.8.8 2.6 2.1 2.3 3.9-.1.8-.3 1.7-.4 2.7zm-182.4-2.4c.1-.5.3-1 .4-1.6-.4.1-.8.3-1.2.4s-.8.3-1.2.4c.3.4.5.8.8 1.2s.5.8.8 1.2c.1-.5.3-1.1.4-1.6zm217.6.8c-.5-.1-1-.3-1.6-.4s-1-.3-1.6-.4c.1-.5.3-1 .4-1.6s.3-1 .4-1.6c.4.1.8.3 1.2.4.8.3 1.2.9 1.2 2zm-101.6-3.1c1-1 1.4-2.7 1.2-5.1s-.9-3.9-2-4.7-2.6-1-4.7-.8-3.5.9-4.3 2-1 2.7-.8 5.1 1.8 3.8 4.7 4.3 4.9.2 5.9-.8zm-58.6-.4c.5-.8.7-1.8.4-3.1s-1.2-2-2.7-2-2.6.8-3.1 2.3c-.3.8-.5 1.6-.8 2.3.9.3 1.8.5 2.7.8 1.8.6 3 .5 3.5-.3zm35.2-2.8c1-.5 1.8-1.8 2.3-3.9s.1-3.8-1.2-5.1-2.7-2-4.3-2-2.9.5-3.9 1.6-1.6 2.5-1.6 4.3.7 3.3 2 4.3 2.5 1.6 3.5 1.6 2.1-.2 3.2-.8zm-57.5-1.9c.1-.7.3-1.3.4-2-.7 0-1.3 0-2 0s-1.3 0-2 0v2s0 1.3 0 2h1.6c1.1-.1 1.8-.7 2-2zm160.6 1.2c-.7-.1-1.3-.3-2-.4-1.3-.3-1.8-1.2-1.6-2.7.1-.8.3-1.6.4-2.3.7.1 1.3.3 2 .4 1.3.3 1.8 1.2 1.6 2.7-.1.7-.3 1.5-.4 2.3zm-66-4.3c1.3-1.3 2-2.9 2-4.7s-.7-3.4-2-4.7-2.9-2-4.7-2-3.4.7-4.7 2-2 2.7-2 4.3.7 3.1 2 4.7 2.9 2.3 4.7 2.3 3.4-.6 4.7-1.9zm-115.6.7c.1-.4.3-.8.4-1.2-.4-.1-.8-.3-1.2-.4s-.8-.3-1.2-.4c-.1.5-.3 1-.4 1.6s-.3 1-.4 1.6h1.2c.8 0 1.3-.4 1.6-1.2zm57-1.5c.8-.8 1.2-1.7 1.2-2.7s-.4-2-1.2-2.7-1.8-1.2-3.1-1.2-2.3.9-3.1 2.7-.8 3.1 0 3.9 1.8 1.2 3.1 1.2 2.3-.4 3.1-1.2zm103.5.4c-1.2-.4-2.3-.8-3.5-1.2s-2.3-.8-3.5-1.2c.3-.5.5-1 .8-1.6.5-1 .7-2.3.4-3.9-.1-.8-.3-1.6-.4-2.3.9.5 1.8 1 2.7 1.6 1.8 1 3 1.4 3.5 1.2.3-.1.5-.3.8-.4-.1 1.3-.3 2.6-.4 3.9s-.3 2.6-.4 3.9zm-67.6-4.3c1.3-1.3 2-2.9 2-4.7s-.7-3.3-2-4.3-2.6-1.6-3.9-1.6-2.6.5-3.9 1.6-2 2.5-2 4.3.4 3.3 1.2 4.3 2.1 1.7 3.9 2 3.4-.3 4.7-1.6zm102.8 1.2c-.5-.3-1-.5-1.6-.8-1-.5-1.6-1.3-1.6-2.3 0-.5 0-1 0-1.6.7.1 1.3.3 2 .4s1.3.3 2 .4c-.1.7-.3 1.3-.4 2s-.3 1.2-.4 1.9zm-161-1.2c.5-.8.7-1.7.4-2.7s-1-1.6-2.3-1.6-2.1.8-2.3 2.3.3 2.5 1.6 2.7 2.1.1 2.6-.7zm-21.5-3.9c.3-.8 0-1.4-.8-2-.4-.3-.8-.5-1.2-.8-.3.5-.5 1-.8 1.6s-.5 1-.8 1.6c.5.1 1 .3 1.6.4 1.1.2 1.8 0 2-.8zm57.8-2.8c.8-2.1.7-3.6-.4-4.7s-2.2-1.6-3.5-1.6-2.5.8-3.5 2.3-1.4 2.9-1.2 3.9.7 1.8 1.2 2.3 1.7.8 3.5.8 3.2-.9 3.9-3zm102.8 1.6c-.9-.3-1.8-.5-2.7-.8-1.8-.5-2.6-1.8-2.3-3.9.1-1 .3-2.1.4-3.1.9.4 1.8.8 2.7 1.2 1.8.8 2.6 2.1 2.3 3.9-.2.9-.3 1.8-.4 2.7zm-68-2.3c1-.5 1.8-2 2.3-4.3s.3-4.2-.8-5.5-2.3-2.1-3.9-2.3-3 0-4.3.8-2.1 2.3-2.3 4.7-.1 3.9.4 4.7 1.8 1.4 3.9 2 3.7.4 4.7-.1zm103.9 0c-.4-.1-.8-.3-1.2-.4s-.8-.3-1.2-.4c.1-.4.3-.8.4-1.2.3-.8.7-1.2 1.2-1.2h.8v1.6s0 1 0 1.6zm-161.3-3.6c.3-1.8-.4-2.9-2-3.1s-2.6-.1-3.1.4-.7 1.6-.4 3.1 1.2 2.3 2.7 2.3 2.5-.8 2.8-2.7zm34.8-1.1c1-.5 1.8-1.7 2.3-3.5s.5-3.3 0-4.3-1.6-1.8-3.1-2.3-3.1-.3-4.7.8-2.3 2.5-2.3 4.3 1 3.3 3.1 4.3 3.6 1.2 4.7.7zm-56.7-1.6c.1-.5.3-1 .4-1.6-.7-.1-1.3-.3-2-.4-1.3-.3-2.1.1-2.3 1.2-.1.5-.3 1-.4 1.6.7.1 1.3.3 2 .4 1.3.2 2.1-.2 2.3-1.2zm159-1.2c-.8-.1-1.6-.3-2.3-.4.1-.8.3-1.6.4-2.3s.3-1.6.4-2.3c.8.3 1.6.5 2.3.8 1.6.5 2.2 1.4 2 2.7s-1.2 1.8-2.8 1.5zm-65.2-1.9c1.3-1 2-2.7 2-5.1s-.5-4-1.6-5.1-2.6-1.6-4.7-1.6-3.6.5-4.7 1.6-1.6 2.6-1.6 4.7.8 3.8 2.3 5.1 3 2 4.3 2 2.7-.6 4-1.6zm-115.7 0c.1-.5.3-1 .4-1.6-.4 0-.8 0-1.2 0s-.8 0-1.2 0v1.6s0 1 0 1.6h.8c.6-.1 1-.6 1.2-1.6zm57.1-1.2c.8-.8 1.2-1.7 1.2-2.7s-.4-2-1.2-2.7-1.7-1.2-2.7-1.2-2 .4-2.7 1.2-1.2 1.8-1.2 3.1.9 2.2 2.7 2.7 3.1.4 3.9-.4zm104.3-.4c-1.2-.4-2.3-.8-3.5-1.2-2.3-.8-3.4-2.5-3.1-5.1s.1-4.3-.4-5.1c-.3-.4-.5-.8-.8-1.2.4.5.8 1 1.2 1.6.8 1 2.2 1.8 4.3 2.3s3 2.1 2.7 4.7c-.2 1.4-.3 2.7-.4 4zm-69.2-2.7c1.3-.8 2.1-2.2 2.3-4.3s0-3.6-.8-4.7-2.1-1.7-3.9-2-3.3 0-4.3.8-1.7 2.1-2 3.9.1 3.4 1.2 4.7 2.2 2.1 3.5 2.3 2.7.1 4-.7zm-57.8-.4c.8-.5 1-1.4.8-2.7-.1-.7-.3-1.3-.4-2-.8.3-1.6.5-2.3.8-1.6.5-2.2 1.3-2 2.3s.8 1.7 1.6 2 1.5.1 2.3-.4zm162.1-1.6c-.5-.1-1-.3-1.6-.4-1-.3-1.4-1-1.2-2.3.1-.7.3-1.3.4-2 .5.3 1 .5 1.6.8 1 .5 1.4 1.3 1.2 2.3-.1.6-.2 1.1-.4 1.6zm-67.6-1.9c1.3-.8 2.1-2.3 2.3-4.7s-.3-4.3-1.6-5.9-3-2.3-5.1-2.3-3.8.9-5.1 2.7-1.8 3.5-1.6 5.1 1.2 3 2.7 4.3 3 2 4.3 2 2.8-.4 4.1-1.2zm-115.6-1.2c.3-1 0-1.7-.8-2-.4-.1-.8-.3-1.2-.4-.1.5-.3 1-.4 1.6-.3 1 0 1.7.8 2 .4.1.8.3 1.2.4.2-.6.3-1.1.4-1.6zm57.1 0c.8-.5 1.3-1.4 1.6-2.7s.1-2.5-.4-3.5-1.7-1.7-3.5-2-3.1 0-3.9.8-1.2 2-1.2 3.5.4 2.7 1.2 3.5 1.8 1.2 3.1 1.2 2.3-.3 3.1-.8zm104.3-2.3c-.9-.1-1.8-.3-2.7-.4-1.8-.3-2.7-1.6-2.7-3.9 0-1.2 0-2.3 0-3.5 1 .4 2.1.8 3.1 1.2 2.1.8 3 2.1 2.7 3.9-.2.8-.3 1.8-.4 2.7zm-68-2.4c1-1 1.6-2.5 1.6-4.3s-.4-3.3-1.2-4.3-2.1-1.7-3.9-2-3.4.1-4.7 1.2-2 2.5-2 4.3.7 3.4 2 4.7 2.7 2 4.3 2 2.8-.5 3.9-1.6zm-58.6-1.5c.3-.8.5-1.6.8-2.3-.8-.3-1.6-.5-2.3-.8s-1.6-.5-2.3-.8c-.3.8-.5 1.6-.8 2.3s-.5 1.6-.8 2.3c.8.3 1.6.5 2.3.8s1.6.5 2.3.8c.3-.8.5-1.6.8-2.3zm35.9-3.6c1-1.3 1.4-2.7 1.2-4.3s-.8-2.6-1.6-3.1-2.2-.7-4.3-.4-3.1 1.7-3.1 4.3 1 4.2 3.1 4.7 3.7.1 4.7-1.2zm-57.8.8c.5-.8.3-1.6-.8-2.3-.5-.4-1-.8-1.6-1.2-.3.5-.5 1-.8 1.6s-.5 1-.8 1.6c.5.3 1 .5 1.6.8 1.1.4 1.9.3 2.4-.5zm161.7-2.7c-.7-.1-1.3-.3-2-.4-1.3-.3-2-1.3-2-3.1 0-.9 0-1.8 0-2.7.8.4 1.6.8 2.3 1.2 1.6.8 2.2 1.8 2 3.1 0 .6-.1 1.2-.3 1.9zm-67.5-2.4c1.3-1.6 1.8-3.3 1.6-5.1s-.8-3.1-1.6-3.9-2.2-1.3-4.3-1.6-3.8.3-5.1 1.6-1.8 3-1.6 5.1 1 3.6 2.3 4.7 2.7 1.6 4.3 1.6 3.1-.8 4.4-2.4zm-115.7 1.2c.3-.8.1-1.3-.4-1.6-.3-.1-.5-.3-.8-.4-.1.5-.3 1-.4 1.6s-.3 1-.4 1.6h.8c.6 0 1-.4 1.2-1.2zm56.3-.8c.8-.8 1.2-1.8 1.2-3.1s-.9-2.2-2.7-2.7-3.1-.3-3.9.8-1 2.1-.8 3.1 1.2 1.8 2.7 2.3 2.7.4 3.5-.4zm105.8-1.1c-.7-.4-1.3-.8-2-1.2-1.3-.8-2.7-1.2-4.3-1.2-.8 0-1.6 0-2.3 0 .3-1.2.5-2.3.8-3.5.5-2.3.5-4 0-5.1-.3-.5-.5-1-.8-1.6.7.7 1.3 1.3 2 2 1.3 1.3 2.7 2.1 4.3 2.3s2.3 1.7 2.3 4.3zm-70.3-2.4c1-.5 1.7-1.8 2-3.9s0-3.6-.8-4.7-2.1-1.7-3.9-2-3.3 0-4.3.8-1.6 2.2-1.6 4.3.7 3.6 2 4.7 2.5 1.6 3.5 1.6 2.1-.3 3.1-.8zm-57.4-2.3c.1-.8.3-1.6.4-2.3-.8 0-1.6 0-2.3 0s-1.6 0-2.3 0v2c0 1.3.7 2.1 2 2.3.7.1 1.3.3 2 .4-.1-.9.1-1.6.2-2.4zm94.5-2.8c1.3-1.3 1.8-3.1 1.6-5.5s-1.2-4-2.7-5.1-3.5-1.3-5.9-.8-3.5 2.3-3.5 5.5.7 5.2 2 6.2 2.7 1.6 4.3 1.6 2.9-.6 4.2-1.9zm67.6 1.2c-.5-.1-1-.3-1.6-.4s-1-.3-1.6-.4c.1-.5.3-1 .4-1.6s.3-1 .4-1.6c.5.1 1 .3 1.6.4s1 .3 1.6.4c-.1.5-.3 1-.4 1.6s-.3 1.1-.4 1.6zm-127.3-1.2c1-.8 1.6-2 1.6-3.5s-.4-2.7-1.2-3.5-1.8-1.2-3.1-1.2-2.3.4-3.1 1.2-1.2 1.8-1.2 3.1.3 2.3.8 3.1 1.4 1.3 2.7 1.6 2.4 0 3.5-.8zm-56.3-.3c0-1-.4-1.7-1.2-2-.4-.1-.8-.3-1.2-.4-.1.5-.3 1-.4 1.6s-.3 1-.4 1.6c.5.1 1 .3 1.6.4.5.1 1 .3 1.6.4 0-.6 0-1.1 0-1.6zm161.7-2.4c-1-.3-2.1-.5-3.1-.8-2.1-.5-3.1-2-3.1-4.3 0-1.2 0-2.3 0-3.5 1 .4 2.1.8 3.1 1.2 2.1.8 3.1 2.2 3.1 4.3zm-68.3-2.3c.8-1 1.2-2.3 1.2-3.9s-.7-3-2-4.3-2.9-2-4.7-2-3.3.8-4.3 2.3-1.4 3-1.2 4.3.9 2.5 2 3.5 2.6 1.6 4.7 1.6 3.5-.5 4.3-1.5zm-59-.8c.5-1.6 0-2.7-1.6-3.5-.8-.4-1.6-.8-2.3-1.2-.3.9-.5 1.8-.8 2.7-.5 1.8 0 3 1.6 3.5.8.3 1.6.5 2.3.8.3-.8.5-1.5.8-2.3zm35.5-3.5c.8-.8 1-2.1.8-3.9s-1-3.1-2.3-3.9-2.6-1-3.9-.8-2.2.9-2.7 2-.7 2.2-.4 3.5.8 2.3 1.6 3.1 2 1.2 3.5 1.2 2.7-.5 3.4-1.2zm-57.4-.8c0-.7 0-1.3 0-2-.5 0-1 0-1.6 0-1 0-1.7.5-2 1.6-.1.5-.3 1-.4 1.6.7.1 1.3.3 2 .4s1.3.3 2 .4c0-.7 0-1.4 0-2zm93.8-3.9c1-1.3 1.4-2.9 1.2-4.7s-1-3.3-2.3-4.3-2.9-1.6-4.7-1.6-3.3.8-4.3 2.3-1.3 3.3-.8 5.1 1.3 3.1 2.3 3.9 2.5 1.2 4.3 1.2 3.2-.6 4.3-1.9zm-59.4-.4c1-1.6 1.2-2.9.4-3.9s-1.7-1.7-2.7-2-2-.1-2.7.4-1.2 1.6-1.2 3.1.8 2.7 2.3 3.5 2.9.4 3.9-1.1zm-55.5 1.2c0-.8-.4-1.3-1.2-1.6-.4-.1-.8-.3-1.2-.4v1.6s0 1 0 1.6h1.2s.8 0 1.2 0c0-.5 0-.9 0-1.2zm183.6.3c-.9-.1-1.8-.3-2.7-.4s-1.8-.3-2.7-.4c.1-.8.3-1.6.4-2.3s.3-1.6.4-2.3c.8.1 1.6.3 2.3.4 1.6.3 2.3 1.2 2.3 2.7zm-22.6-3.1c-1.4-.3-2.9-.5-4.3-.8s-2.9-.5-4.3-.8c.3-1.2.5-2.3.8-3.5.5-2.3.4-4.2-.4-5.5-.4-.7-.8-1.3-1.2-2 1 .8 2.1 1.6 3.1 2.3 2.1 1.6 3.8 2.3 5.1 2.3h2c-.1 1.3-.3 2.6-.4 3.9s-.3 2.8-.4 4.1zm-69.6-2.7c1-1.3 1.3-2.9.8-4.7s-1.2-3-2-3.5-2.2-.7-4.3-.4-3.1 1.8-3.1 4.7 1.2 4.6 3.5 5.1 4.1.1 5.1-1.2zm-58.2-.4c.3-1.6-.3-2.5-1.6-2.7-.7-.1-1.3-.3-2-.4-.1.8-.3 1.6-.4 2.3-.3 1.6.3 2.5 1.6 2.7.7.1 1.3.3 2 .4.2-.7.3-1.5.4-2.3zm94.6-3.9c1.3-1.6 1.7-3.4 1.2-5.5s-1.3-3.5-2.3-4.3-2.9-1-5.5-.8-4.2.9-4.7 2-.7 2.5-.4 4.3.9 3.3 2 4.3 2.6 1.7 4.7 2 3.7-.4 5-2zm-116.1.8c.3-.5.5-1 .8-1.6-.7-.1-1.3-.3-2-.4s-1.3-.3-2-.4v1.2c0 .8.4 1.4 1.2 2 .4.3.8.5 1.2.8.3-.6.6-1.1.8-1.6zm56.7-.4c.8-.8.9-2.1.4-3.9s-1.7-2.9-3.5-3.1-3 .7-3.5 2.7-.4 3.5.4 4.3 1.8 1.2 3.1 1.2 2.3-.4 3.1-1.2zm127.7.4c-.5-.1-1-.3-1.6-.4-1-.3-1.6-.9-1.6-2 0-.5 0-1 0-1.6.5.1 1 .3 1.6.4 1 .3 1.6.9 1.6 2zm-92.2-4.7c1-1 1.4-2.6 1.2-4.7s-.9-3.5-2-4.3-2.5-1.2-4.3-1.2-3.1.4-3.9 1.2-1.2 2.1-1.2 3.9.8 3.4 2.3 4.7 3 2 4.3 2 2.6-.6 3.6-1.6zm-58.2.4c.8-.8 1-1.7.8-2.7s-1.3-1.8-3.1-2.3c-.9-.3-1.8-.5-2.7-.8-.1.8-.3 1.6-.4 2.3-.3 1.6.4 2.7 2 3.5s2.6.8 3.4 0zm127.8.4c-1-.1-2.1-.3-3.1-.4-2.1-.3-3.1-1.6-3.1-3.9 0-1.2 0-2.3 0-3.5 1 .3 2.1.5 3.1.8 2.1.5 3.1 1.8 3.1 3.9zm-32.8-5.5c1.6-1.6 2.2-3.3 2-5.1s-1.2-3.4-2.7-4.7-3.5-2-5.9-2-3.9.5-4.7 1.6-1 2.7-.8 5.1 1.3 4.2 3.1 5.5 3.4 2 4.7 2 2.7-.8 4.3-2.4zm-59.8 0c.8-1 1-2.3.8-3.9s-1-2.7-2.3-3.5-2.6-1-3.9-.8-2.2.8-2.7 1.6-.7 2-.4 3.5.9 2.7 2 3.5 2.2 1.2 3.5 1.2 2.2-.6 3-1.6zm-57-.4c.1-.7.3-1.3.4-2-.7-.1-1.3-.3-2-.4s-1.3-.3-2-.4v2.3s0 1.6 0 2.3h1.6c1 .2 1.7-.5 2-1.8zm92.1-3.5c1.3-1 2-2.5 2-4.3s-.7-3.4-2-4.7-3-2-5.1-2-3.5.5-4.3 1.6-1.2 2.2-1.2 3.5.7 2.7 2 4.3 2.7 2.5 4.3 2.7 3-.1 4.3-1.1zm-113.2.4c.3-.8 0-1.4-.8-2-.4-.3-.8-.5-1.2-.8-.1.5-.3 1-.4 1.6-.3 1 0 1.7.8 2 .4.1.8.3 1.2.4.1-.4.2-.8.4-1.2zm55.4-2.4c.3-1.8-.7-3-2.7-3.5s-3.4-.5-3.9 0-.7 1.4-.4 2.7 1.4 2.2 3.5 2.7c1 .3 2.1.5 3.1.8.2-.8.3-1.7.4-2.7zm127.8 1.2c-.8-.1-1.6-.3-2.3-.4-1.6-.3-2.3-1.2-2.3-2.7 0-.8 0-1.6 0-2.3.8.3 1.6.5 2.3.8 1.6.5 2.3 1.4 2.3 2.7zm-22.7-2.3c-1.4-.3-2.9-.5-4.3-.8s-2.9-.5-4.3-.8c.3-.9.5-1.8.8-2.7.5-1.8.3-3.6-.8-5.5-.5-.9-1-1.8-1.6-2.7 1 .8 2.1 1.6 3.1 2.3 2.1 1.6 3.8 2.3 5.1 2.3h2v3.9s0 2.7 0 4zm-70.3-1.2c1-.8 1.3-2.3.8-4.7s-1.2-3.8-2-4.3-2.2-.7-4.3-.4-3.1 1.7-3.1 4.3.5 4.3 1.6 5.1 2.2 1.2 3.5 1.2 2.5-.4 3.5-1.2zm-57.4-1.2c.3-1.6.1-2.6-.4-3.1s-1.4-.7-2.7-.4-2 1-2 2.3.8 2.2 2.3 2.7c.8.3 1.6.5 2.3.8.2-.7.3-1.5.5-2.3zm-21.5-2.7c.5-.8.5-1.6 0-2.3s-1.2-1.2-2-1.2-1.3.5-1.6 1.6.1 1.8 1.2 2.3 1.9.4 2.4-.4zm115.6-1.6c1-1.3 1.3-3 .8-5.1s-1.4-3.5-2.7-4.3-3-1.2-5.1-1.2-3.5.5-4.3 1.6-1 2.5-.8 4.3 1.2 3.4 2.7 4.7 3.3 2 5.1 2 3.3-.7 4.3-2zm-59.4.8c.5-.8.7-1.8.4-3.1s-1.4-2.3-3.5-3.1-3.5-.7-4.3.4-1 2.1-.8 3.1.8 2 1.6 2.7 2 1.2 3.5 1.2 2.6-.4 3.1-1.2zm128.2-1.2c-.5-.1-1-.3-1.6-.4-1-.3-1.6-.9-1.6-2 0-.5 0-1 0-1.6.5.1 1 .3 1.6.4 1 .3 1.6.9 1.6 2zm-93.4-3.5c1.3-1.3 1.7-2.9 1.2-4.7s-1.4-3.1-2.7-3.9-2.9-1-4.7-.8-3 .9-3.5 2-.7 2.2-.4 3.5.9 2.5 2 3.5 2.3 1.7 3.9 2 2.9-.3 4.2-1.6zm-57.8-.8c.3-1.8-.5-3-2.3-3.5-.9-.3-1.8-.5-2.7-.8-.1.9-.3 1.8-.4 2.7-.3 1.8.5 3 2.3 3.5.9.3 1.8.5 2.7.8.1-.8.3-1.7.4-2.7zm-53.9 1.6c.1-.4.3-.8.4-1.2-.4-.1-.8-.3-1.2-.4s-.8-.3-1.2-.4c-.1.4-.3.8-.4 1.2s-.3.8-.4 1.2c.4.1.8.3 1.2.4s.8.3 1.2.4c.1-.4.3-.8.4-1.2zm181.6-.4c-1-.3-2.1-.5-3.1-.8-2.1-.5-3.1-1.8-3.1-3.9 0-1 0-2.1 0-3.1 1 .3 2.1.5 3.1.8 2.1.5 3.1 1.8 3.1 3.9zm-149.6-4.7c.1-.8.3-1.6.4-2.3-.8-.1-1.6-.3-2.3-.4s-1.6-.3-2.3-.4v2.3c0 1.6.7 2.5 2 2.7.7.1 1.3.3 2 .4 0-.7.1-1.5.2-2.3zm116.8 0c1-1 1.4-2.6 1.2-4.7s-1.2-3.8-2.7-5.1-3.5-2-5.9-2-3.9.4-4.7 1.2-1 2.3-.8 4.7 1.2 4.2 2.7 5.5 3.4 2 5.5 2 3.7-.5 4.7-1.6zm-60.1-1.5c.5-2.1.1-3.6-1.2-4.7s-2.6-1.6-3.9-1.6-2.3.5-3.1 1.6-1 2.2-.8 3.5.9 2.3 2 3.1 2.3 1.2 3.9 1.2 2.5-1.1 3.1-3.1zm-23.5-1.2c.5-.3.8-1.2.8-2.7s-.4-2.7-1.2-3.5-1.8-1.2-3.1-1.2-2.2.3-2.7.8-.7 1.6-.4 3.1 1.3 2.6 3.1 3.1 3 .7 3.5.4zm-54.3-1.6c-.3-1.3-.9-2-2-2-.5 0-1 0-1.6 0v1.6c0 1 .7 1.7 2 2 .7.1 1.3.3 2 .4-.1-.7-.2-1.3-.4-2zm113.3 0c.8-.8 1-2.2.8-4.3s-1.2-3.6-2.7-4.7-3.3-1.4-5.1-1.2-3 .7-3.5 1.2-.7 1.8-.4 3.9 1 3.6 2.3 4.7 2.9 1.6 4.7 1.6 3.1-.4 3.9-1.2zm69.9-1.1c-.8-.1-1.6-.3-2.3-.4-1.6-.3-2.3-1-2.3-2.3 0-.7 0-1.3 0-2 .7.1 1.3.3 2 .4 1.3.3 2.1 1 2.3 2.3.1.7.2 1.3.3 2zm-150.8-2.8c.5-1.3.4-2.3-.4-3.1s-1.8-1.2-3.1-1.2c-.7 0-1.3 0-2 0v2.3c0 1.6.8 2.6 2.3 3.1s2.7.2 3.2-1.1zm57.1.4c.5-.5.7-1.8.4-3.9s-.9-3.5-2-4.3-2.3-1.2-3.9-1.2-2.7.4-3.5 1.2-.9 2.2-.4 4.3 2.1 3.4 4.7 3.9 4.2.5 4.7 0zm-109.8 0c.1-.3.3-.5.4-.8-.5-.1-1-.3-1.6-.4s-1-.3-1.6-.4c.4.4.8.8 1.2 1.2s.8.8 1.2 1.2c.1-.3.3-.5.4-.8zm180.1 0c-1.3-.3-2.6-.5-3.9-.8-2.6-.5-3.9-1.8-3.9-3.9s-.7-3.9-2-5.5-3.3-2.6-5.9-3.1-4.4-.5-5.5 0c-.5.3-1 .5-1.6.8.4-1 .8-2.1 1.2-3.1.8-2.1.7-3.9-.4-5.5-.5-.8-1-1.6-1.6-2.3.9.5 1.8 1 2.7 1.6 1.8 1 3.6 1.6 5.5 1.6s2.9 1.3 3.1 3.9 1.3 4.7 3.1 6.2 3.6 2.5 5.5 2.7 2.9 1.6 3.1 3.9c.3 1.2.5 2.3.6 3.5zm-148.8-4.3c.3-1.3-.4-2.2-2-2.7-.8-.3-1.6-.5-2.3-.8v2.3c0 1.6.7 2.5 2 2.7.7.1 1.3.3 2 .4 0-.6.1-1.2.3-1.9zm55-1.5c.5-1.8.1-3.3-1.2-4.3s-2.5-1.6-3.5-1.6-1.8.3-2.3.8-.7 1.7-.4 3.5 1.4 3 3.5 3.5 3.4-.1 3.9-1.9zm59.8.7c.8-.8.9-2.3.4-4.7s-1.7-4-3.5-5.1-3.8-1.3-5.9-.8-3.3 1.7-3.5 3.5-.1 3.3.4 4.3 1.4 2 2.7 2.7 3 1.2 5.1 1.2 3.5-.3 4.3-1.1zm-82.4-2.7c.5-.5.7-1.4.4-2.7s-1.3-2.2-3.1-2.7-3-.5-3.5 0-.7 1.4-.4 2.7 1.3 2.2 3.1 2.7 3 .5 3.5 0zm-53.1-.8c0-1-.5-1.7-1.6-2s-1.7 0-2 .8.3 1.4 1.6 2c.7.3 1.3.5 2 .8 0-.5 0-1.1 0-1.6zm204.6.8c-.5 0-1 0-1.6 0-.5 0-1 0-1.6 0 0-.5 0-1 0-1.6s0-1 0-1.6c.5.1 1 .3 1.6.4 1 .3 1.6.8 1.6 1.6zm-93.7-.8c.5-.5.7-1.8.4-3.9s-1.2-3.6-2.7-4.7-3.1-1.4-4.7-1.2-2.6.8-3.1 1.6-.7 2-.4 3.5 1 2.9 2.3 3.9 2.9 1.6 4.7 1.6 3-.3 3.5-.8zm69.5-1.5c-.9-.1-1.8-.3-2.7-.4-1.8-.3-2.9-1.3-3.1-3.1-.1-.9-.3-1.8-.4-2.7 1 .3 2.1.5 3.1.8 2.1.5 3.1 1.6 3.1 3.1zm-149.2-3.2c0-1.6-.4-2.6-1.2-3.1s-1.7-.7-2.7-.4-1.6 1-1.6 2.3.9 2.2 2.7 2.7c.9.3 1.8.5 2.7.8.1-.7.1-1.5.1-2.3zm56.3.8c.5-.5.7-1.6.4-3.1s-1.2-2.9-2.7-3.9-3-1.4-4.3-1.2-2 1.6-2 3.9 1.3 3.8 3.9 4.3 4.1.5 4.7 0zm-24.7-2.7c.8-.3 1.3-1 1.6-2.3s-.7-2.6-2.7-3.9-3.5-1.7-4.3-1.2-1.2 1.3-1.2 2.3.4 2.1 1.2 3.1 1.7 1.7 2.7 2 2 .2 2.7 0zm-53.1-1.6c.3-1.3-.3-2.2-1.6-2.7-.7-.3-1.3-.5-2-.8v2.3c0 1.6.5 2.5 1.6 2.7.5.1 1 .3 1.6.4.2-.6.3-1.2.4-1.9zm112.9-.4c.5-.5.7-1.8.4-3.9s-1-3.6-2.3-4.7-3-1.6-5.1-1.6-3.4.3-3.9.8-.7 1.8-.4 3.9 1 3.6 2.3 4.7 3 1.6 5.1 1.6 3.4-.3 3.9-.8zm-81.2-2.3c.5-.5.7-1.4.4-2.7s-.8-2.2-1.6-2.7-1.8-.7-3.1-.4-1.8 1.2-1.6 2.7 1.2 2.6 2.7 3.1 2.6.5 3.2 0zm56.2-1.2c1-.8 1.4-2 1.2-3.5s-1-2.9-2.3-3.9-2.7-1.6-4.3-1.6-2.6.3-3.1.8-.7 1.7-.4 3.5 1.6 3.3 3.9 4.3 4 1.2 5 .4zm-108.2-.4c.1-.5.3-1 .4-1.6-.5-.1-1-.3-1.6-.4s-1-.3-1.6-.4v1.6c0 1 .4 1.7 1.2 2 .4.1.8.3 1.2.4.1-.5.3-1.1.4-1.6zm202.7.8c-.7 0-1.3 0-2 0-1.3 0-2.1-.7-2.3-2-.1-.7-.3-1.3-.4-2 .7.1 1.3.3 2 .4 1.3.3 2.1.9 2.3 2 .2.6.3 1.1.4 1.6zm-23.4-2.3c-1.3-.1-2.6-.3-3.9-.4-2.6-.3-4-1.4-4.3-3.5-.1-1-.3-2.1-.4-3.1 1.2.3 2.3.5 3.5.8 2.3.5 3.8 1.7 4.3 3.5.3.8.5 1.7.8 2.7zm-149.2-2.8c0-1.8-.7-2.9-2-3.1-.7-.1-1.3-.3-2-.4-.1.7-.3 1.3-.4 2-.3 1.3.4 2.3 2 3.1.8.4 1.6.8 2.3 1.2.1-1 .1-1.9.1-2.8zm55.1.8c.8-.8 1-1.7.8-2.7s-1-2.1-2.3-3.1-2.7-1.4-4.3-1.2-2.3 1.2-2.3 2.7.7 2.9 2 3.9 2.5 1.6 3.5 1.6 1.8-.4 2.6-1.2zm59-.8c1-.8 1.4-2.2 1.2-4.3s-2.6-3.1-7-3.1c-2.2 0-4.4 0-6.6 0v1.6c0 1 .5 2.2 1.6 3.5s2.9 2.2 5.5 2.7 4.2.4 5.3-.4zm-163.3-.8c0-.8-.4-1.3-1.2-1.6-.4-.1-.8-.3-1.2-.4v1.2c0 .8.4 1.3 1.2 1.6.4.1.8.3 1.2.4 0-.4 0-.8 0-1.2zm81.2-3.9c0-.9 0-1.8 0-2.7-1.2 0-2.3 0-3.5 0s-2.3 0-3.5 0c.3.8.5 1.6.8 2.3.5 1.6 1.7 2.5 3.5 2.7.9.1 1.8.3 2.7.4 0-.8 0-1.8 0-2.7zm-52.3.8c0-1.3-.7-2.1-2-2.3-.7-.1-1.3-.3-2-.4v2c0 1.3.7 2.1 2 2.3.7.1 1.3.3 2 .4 0-.7 0-1.3 0-2zm109.7.4c.8-.5 1.2-1.3 1.2-2.3 0-.5 0-1 0-1.6-1.8 0-3.6 0-5.5 0s-3.6 0-5.5 0c.4.7.8 1.3 1.2 2 .8 1.3 2.2 2.1 4.3 2.3s3.6.1 4.3-.4zm-79.3-2.7c.3-.4.5-.8.8-1.2-.9 0-1.8 0-2.7 0s-1.8 0-2.7 0c.7.4 1.3.8 2 1.2 1.2.8 2.1.8 2.6 0zm54.3-.4c.4-.3.8-.5 1.2-.8-.9 0-1.8 0-2.7 0s-1.8 0-2.7 0c.5.3 1 .5 1.6.8.9.5 1.9.5 2.6 0z" />
</svg>