<svg viewBox="0 0 600 371" xmlns="http://www.w3.org/2000/svg">
    <!-- ©COMICS/SRC by @nyuudo -->
    <path fill="#00a4de"
        d="m552.5 176.5 47.5-2.3v1.2zm47.5-6.2v-.8l-48 2.9zm0-5.9v-.8l-24.9 2.2zm0-11.3v-.5l-27.3 3.2zm0 5.4v-.8l-61.7 6zm0-2.1v-1.2l-38.4 4.4zm0-7.1v-1.6l-52 7.3zm0-2.7v-1.1l-29.2 4.4zm0-2.2v-1.4l-41.6 6.5zm0-13.9v-.6l-23.1 4.6zm0 10.3v-1l-31 5.2zm0-3.8v-1l-26.5 4.9zm0-13.3v-1.3l-54.6 12zm0 3v-.9l-59.1 12.2zm0-15.3v-1l-26.4 7.1zm0 4.7v-.6l-18.3 4.6zm0 5.7v-1.8l-44.2 10.4zm0-17.2v-.2l-7.8 2.2zm0-4v-.8l-21.2 6.4zm0-5.7v-1.5l-51.5 16.4zm0-7.7v-.7l-34.3 11.6zm0 2.6v-1.7l-43.7 14.9zm0-9.3v-.7l-27.9 10.2zm0-2.2v-1.5l-60.7 22.6zm0-5.1v-3.7l-89.7 36zm0-9.1v-1l-43.5 18.2zm0-5.5v-5.2l-107.3 48.9zm0-5.6v-2.6l-85.1 39.3zm0-3.1v-1.3l-38.2 18zm0-20.5v-3.5l-70.9 39.1zm-9.4 10.2-88.8 45.6 98.2-47.3v-6.8l-67.5 36.3zm9.4 3.3v-2.7l-57.5 29zm0-20.9v-2.5l-97.4 54.7zm0-6v-3.5l-87.7 51.8zm-123.6 62.7 123.6-72.4v-5zm45.7-38-42.9 29.3 114.8-70h-16.7l-112.4 76.9zm51.3-40.7h-8.3l-100.2 71.9zm-14.1 0h-4.3l-43.6 33zm-16.6 0h-2.9l-55 43.4zm-10.2 0h-6.2l-47.2 40.6zm-6.2 0h-3.7l-56.7 48.4zm-13.1 0h-3.1l-53.9 48.6zm-9.2 0h-3.2l-49.3 46.6zm-9.7 0h-3.3l-44.6 44.5zm-8.9 0h-4.4l-58.5 61.5zm-7.4 0h-1.2l-14.5 15.8zm-11.5 0h-1.8l-10.6 12.9zm-4.5 0h-4.9l-46.8 57.3zm-22.1 0-7.2 10.3 8.5-10.3zm8.5 0h-1.6l-14 18.6zm-43.8 0h-2.6l-15.7 30.6zm14.7 0-1.4 2.3 1.6-2.3zm10.5 0h-1.3l-7.2 11.2zm-4 0h-1.9l-22.1 34.3zm-14.5 0h-3l-19.3 35.2zm4.1 0h-4l-28.4 49.6zm-19 0h-2.6l-21.1 43.5zm-31 0h-1l-8.4 25.4zm5.9 0h-2.9l-15.1 44zm13 0-4 10 5.2-10zm-4.6 0h-.9l-6.6 16.4zm-4.6 0h-1.8l-6.9 19.3zm-20.5 0-6.3 24.4 8.3-24.4zm-8.1 0-3.6 16.3 4.6-16.3zm-7.8 0-2.3 12 2.8-12zm-4.8 0-1.2 8 1.7-8zm-13.7 0-.6 7.3 1-7.3zm-15.9 14.3.8-14.3h-.7zm-5.8-3.7.3-10.6h-.8zm-7.7-10.6 2.5 36.6-.9-36.6zm-10.4 0h-1.7l3.3 22.1zm-8.8 0h-2l5.2 26.2zm-4.2 0 .1.5zm-17.2 0 9.9 34.8-8.5-34.8zm-8 0h-2.1l8.9 24.8zm2.4 0h-1.6l8.2 24.5zm-7.7 0 7.7 21.5-6.9-21.5zm-6.5 0h-.5l4.6 11.5zm-12.7 0h-3l17.3 34.9zm-6.1 0h-2.1l16.5 32.1zm-17.1 0h-.3l1.9 3zm6.5 0h-1.7l9.5 16zm-13.9 0h-3.3l32.4 49.8zm-8.1 0h-2.9l23.8 33.8zm-23.4 0h-2.6l39.2 48.2zm9.6 1.2 31.9 41.4-28.5-42.6h-7.7l23.8 29.8zm-22.7-1.2h-1.4l18.5 20.9zm5 0h-2.1l25.7 29.8zm-13.6 0h-4.6l52.8 55.6zm-42.6 2.3 71.6 60.7-67.1-63h-11.1l41 33.8zm29.3-2.3h-1.7l26.1 26zm10.5 18.1 29.7 28-43.3-46.1h-8.9l53.4 50zm-27.3-18.1h-3.2l40.4 36.4zm-29.2 0h-3l36.1 28.2zm-14.2 0h-5l78.2 58zm-8.9 12.5 90.2 60.7-50.7-37.7 48.3 34.1-94.3-69.6h-19.6l93.3 61zm-33.6-12.5h-5.2l72 45.2zm-11.5 7.5 71.2 41.9-77.6-49.3v7.8l101.2 58.4zm-6.4 42.3v4.8l109.2 46.2zm0 5v1.7l43.7 18.1zm6-6.4 92.8 42.3-98.8-48v6.2l92.4 40.9zm-6-10.3v2.8l58.8 27.2zm0-18.6v4.9l87.8 45.5zm0 38.4v2.1l46.5 18.5zm33.1-7.2 72 35.1-59.1-31.7 65.4 32.9-111.4-60.6v10.6l108.1 52.5zm-33.1-38.3v4.9l100.6 54.8zm0 51.9v2.3l97.7 37.9zm0 16.3v.8l22.2 7.3zm0-7.6v1.3l62.9 22.8zm0 2.1v1.3l35.8 12.5zm0 12.4v1.3l70.8 22.4zm6.8 8.2 72.6 21.2-79.4-26.3v5.9l72.7 20.5zm-6.8 5.2v1.6l42.2 11zm0 4.9v1.1l67.4 17.2zm0 2.1v.8l33.3 8.2zm0 5.9v1.7l41.3 8.9zm0 1.8v1.9l68.6 14.8zm0 8.9v.8l19.7 3.6zm0-1.9v.9l37.6 7.4zm0 7v1.2l74.9 13.2zm0 6v1.8l49.7 7.2zm0 11.3v2.4l69.7 7.5zm0-3.7v.2l6.6.8zm0 10.1v1l56.6 5.5zm0 9.2v1.2l43 2.6zm0-5v1.8l61.6 4.6zm0 2.3v1.2l67.2 5zm0 9.8v1.3l48 1.8zm0 9.5v.4l17.3.1zm0 7.8v1l29.1-.7zm0-2.8v.2l5.1-.1zm0-2.6v.8l65.1.4zm0 27.3v.9l37.2-3.4zm0-16.4v.5l17.3-.6zm0 6.8v.4l11.9-.8zm0 12.4 2-.2zm0 6.3v1.9l68.8-8.6zm0-1.4v.8l50.6-5.7zm0 6.7v1.5l40.6-6zm0 3.3v1l53.2-7.8zm0 8.4v1.4l50-9zm0 5.1v1l28.8-5.8zm0 5.4v.8l25.2-5.5zm0 3.7v1.9l72.5-16.6zm0-1.3v.3l14.8-3.2zm0 7.1v1.4l74.7-18.2zm0 9.4v.6l12.2-3.5zm0-5.5v1.7l59.6-15.5zm0 31.7v3.5l80.8-30.5zm0 5.2v.8l20.9-8.1zm0-17.4v1.1l25.8-8.6zm0 8.2v2.8l62.8-22.9zm0-12.8v1.4l50.3-15.6zm0-2.9v1.7l38-11.7zm0 9.8v1.2l69.9-22.9zm0 4.5v.6l13.9-4.9zm0 18v1.2l36.1-14.8zm0 6.1v1.9l80.1-34.2zm0 13.8v1.6l39.5-19zm0-6.5v3.7l99.2-45.8zm0 9.6v2.4l46.7-23.3zm0 6.7v1.7l64.8-32.9zm0 4.1v4.3l114.4-60.7zm2.9 17.7 74.5-43.9-77.4 41.6v8.5l71.2-43.4zm-2.9-6.6v2.1l74.3-41.6zm17.7 23h7l115.4-79.1zm-17.7-6.5v4.1l76.1-48zm0 4.9v1.6h4.7l82.9-53.7zm7.3 1.6h9.7l74.7-51.2zm30.2 0h7l47.2-36.2zm-7 0h6.2l71.5-51.9zm24.6 0h3.9l59.2-46.7zm90.5 0h1.7l29.3-36.4zm-39.3 0h2.2l19.2-19.6zm-4.9 0h3l27.1-26.9zm-33.5 0h3.8l59.7-49.7zm21.1 0h6.5l57.2-53.9zm25.5 0h4.6l49.1-52zm-42.4 0h5.3l38.4-33.7zm7.2 0h3.8l39.6-35.2zm45.5 0h2.5l18.8-21.3zm15.1 0h1.2l9.2-11.4zm-7.1 0h1.7l19.6-22.8zm33.6 0h3.8l25.8-38.9zm-6.2 0h2.3l28.9-40.2zm-6.9 0h2.1l36.8-48.2zm3.8 0h2.2l27.5-37.4zm16.4 0h.8l11.4-17.4zm7.3 0h2l13.5-22.7zm26.4 0h3.2l14.3-32.3zm8.3 0h1.5l16.6-38.5zm-19.5 0h2.5l15.7-30.5zm-4.2 0h1.5l17.4-31.3zm11.6 0h1.7l14.4-29.5zm-2.2 0h.4l2.6-5.2zm36.8 0 1-3.3-1.2 3.3zm-4.1 0 6.2-18.3-6.9 18.3zm11.9 0h1.5l4.1-16.9zm5.1 0 6.4-27.6-8.6 27.6zm12.7 0 6.7-37.7-8.5 37.7zm-5.6 0 1-4.9-1.2 4.9zm16.7 0h1.3l3.8-33.3zm5.7 0 2.8-36.9-5.6 36.9zm8.8 0 .9-33-3.4 33zm16.6 0h.9l-.9-14.3zm-5 0h1.5l-1-29.1zm8 0h1.2l-1.9-25.5zm6.4 0h3.2l-4.9-36.8zm5.7 0h2.2l-4.6-29.5zm8.7 0h1.8l-7-37.3zm23.3 0h2.1l-10.3-31.6zm-12.4 0h1.3l-6.6-26.9zm-3.4 0h1.5l-4.7-19.3zm9.2 0h1.3l-4.8-16.3zm15.1 0h1.5l-9.2-25.1zm18.3 0h.2l-1-2.1zm7.2 0h2.9l-18.3-35.5zm-17.7 0h3.5l-18.7-44.1zm40.4 0h.4l-2.5-3.8zm-7.2 0h.6l-3.6-6zm17 0h1.3l-13.3-19.6zm9.5 0h1.9l-32.7-45.4zm-5.7 0h2.2l-19.4-27.3zm15 0h3.5l-32.2-40.4zm18.3 0h2l-38.2-43.8zm-6.9 0h4l-47.6-55.9zm14.1 0h2.5l-29.9-32.2zm16.2 0h3.7l-43.2-42.2zm9.8 0h3l-27.7-25.5zm-17.3 0h3l-48.6-50.2zm12 0h4.8l-42.8-40.1zm-8 0h3.4l-44.6-44.7zm19.4 0h4l-54-48.8zm34.6 0h2.9l-60.3-47.1zm-8 0h7.6l-77.7-60.6zm-16.6 0h5.5l-67-57.1zm6.4 0h8.5l-79.8-64.7zm40 0h6.3l-83-57.9zm-10.6 0h8.1l-100.9-73.1zm11.6-32.5-78-45.5 47.8 31-36.7-22.1 100.7 65.4-112-69 40.4 27.3-37.8-23.6 100 69h22.4v-9.2l-126.7-72.8zm12.9 32.5h8.1l-93-61zm33.9-14.8v-2.6l-95.5-52.6zm0-2.9v-3.9l-111.5-59.7zm0-6.8v-2.9l-58.2-29.6zm0-7.3v-2.6l-81.4-40.1zm0-6.8v-1.8l-54.1-25.4zm0-33v-3l-58-20.3zm0 16.1v-3.1l-82.2-33.7zm0 3.5v-3.3l-64.5-26.7zm0-12.1v-.9l-27.8-10.8zm0 18.7v-3.6l-63.6-27.5zm0-16v-.8l-29.7-11.8zm0-6.3v-1.1l-50.7-19.3zm0-17.1v-1.7l-87.9-28.4zm0 3.4v-.8l-21.6-7.1zm0 2.5v-.8l-28.5-9.7zm0-9.1v-1.8l-49.1-14.9zm0-6.9v-1.9l-50.7-14.2zm0-4.3v-1.2l-26.8-7.1zm0 9.2v-2l-47.9-14.1zm0-17.8v-1.8l-66.4-16.1zm0 2v-1.2l-78.4-20.1zm0-12.9v-.7l-16.7-3.3zm0 3.9v-1.2l-35.4-7.6zm0-13.5v-1.7l-46.5-7.9zm0 4.1v-.6l-19.9-3.7zm0 10.7-2.7-.7zm0-20.9v-.8l-44.5-7.1zm0-11.2v-.3l-11.7-1.4zm0-2.6v-.6l-28.5-3.2zm0-14.5v-.7l-25.1-1.5zm0-2.4v-1.8l-66.4-3.4zm0 11.4v-1.5l-50.6-4.5zm0-18.2v-.6l-23.8-.7zm0-8.7v-.8l-53.2-.4zm0 2.8v-.5l-17.3-.2zm0-11.5v-.8l-23.2.8zm0-1.1v-1.2l-35.2 1.2z" />
</svg>