<svg enable-background="new 0 0 430 400" viewBox="0 0 430 400" xmlns="http://www.w3.org/2000/svg">
    <!-- ©COMICS/SRC by @nyuudo -->
    <path
        d="m84.2 397c-1.7 0-2.9 0-3.9 0-.6 0-1.2 0-1.7 0-.6 0-1.2 0-1.9 0-1 0-2.2 0-3.9 0-2.9 0-4.4-.1-5.8-.3h-.1c-1.3-.1-2.7-.3-5.6-.3-1.7 0-2.9 0-3.9 0-.6 0-1.2 0-1.7 0-.6 0-1.2 0-1.9 0-1 0-2.2 0-3.9 0-2.9 0-4.2.2-5.5.4-1.5.2-3 .4-5.9.4-2.7 0-5.4-1.3-7.2-3.4-1.6-1.8-2.5-4.2-2.3-6.6v-.1c-.1-3.2-.1-4.7 0-6.3v-.1c.1-.8.1-1.6.1-2.8-4.4-1-9.4-4.1-12.9-6.6l-6.7-4.7 8.1-.8c4.8-.4 8.8-1.3 11.8-2.5v-5.7c0-.6 0-1.2 0-2 0-1 0-2.2 0-3.9 0-2.9-.1-4.4-.1-5.9-.1-1.6-.1-3-.1-5.9 0-1.7 0-3 0-4 0-.7 0-1.3 0-1.9s0-1.2 0-2c0-1 0-2.2 0-3.8 0-3 0-4.5.1-6v-5.7c0-2.8-.1-4.2-.3-5.7v-.2c-.1-1.4-.3-2.9-.3-5.9s0-4.5.1-6v-5.7c0-3 0-4.5.1-6v-6c0-1.7 0-3 0-4 0-.7 0-1.3 0-2-.1-1.6-.1-3-.1-5.8 0-3 .2-4.6.3-6l.1-1.4c0-.9 0-1.9 0-3.3 0-1.7 0-3 0-4 0-.7 0-1.3 0-1.9 0-.3 0-.6 0-1-.1-1.6-.1-3-.1-5.9 0-.5 0-.9.1-1.4 0-1.4 0-2.5.1-3.6v-5.7c0-2.8-.1-4.2-.3-5.7v-.2c-.1-1.4-.3-2.9-.3-5.9s0-4.5.1-6v-5.7c0-3 0-4.5.1-6v-5.7c0-1.7 0-3 0-4 0-.7 0-1.3 0-2-.1-1.6-.1-3-.1-5.8 0-3 .2-4.6.3-6l.1-.7c.1-1.1.2-2.2.3-4 0-2-.1-3.2-.3-4.4v-.2c-.1-1.4-.3-2.9-.3-5.9s0-4.5.1-6v-5.7c0-3 0-4.5.1-6v-5.7c0-1.7 0-3 0-4 0-.7 0-1.3 0-2-.1-1.5-.1-3-.1-5.8 0-3 .2-4.6.3-6l.1-.7c.1-1.2.3-2.5.3-4.8v-.5c0-2.8-.1-4.3-.1-5.6-.1-1.6-.1-3-.1-5.9v-.5c0-1.7 0-3 0-4 0-.7 0-1.3 0-1.9s0-1.2 0-2c0-1 0-2.2 0-3.8 0-3 0-4.5.1-6v-5.7c0-2.8-.1-4.2-.3-5.7v-.2c-.1-1.4-.3-2.9-.3-5.9s0-4.5.1-6v-5.7c0-3 0-4.5.1-6v-5.7c0-1.7 0-3 0-4 0-.7 0-1.3 0-2-.1-1.5-.1-3-.1-5.8 0-3 .2-4.6.3-6l-.4-1.2c.1-1.3.3-2.6.3-5 0-3-.1-4.4-.1-5.9-.1-1.6-.1-3-.1-5.9 0-2.4 1.2-6.8 9.3-8.8 2.5-.5 5.2-.8 8.1-.8 1.1 0 2 0 3 .1h1.6c3 0 4.5-.2 5.7-.3 1.5-.1 2.9-.2 6-.2 2.9 0 4.2.1 5.6.1 0 0 .8 0 1.1.1 1.2.1 2.5.2 4.7.2h4 1.8.1c1.3.1 2.8.1 5.7.1h23.4c2.2 0 3.6-.1 4.8-.2.4 0 1.8-.1 2.1-.1 1.2-.1 2.6-.2 4.8-.2 3 0 4.4.1 5.9.3l.9.1c1.3.1 2.6.3 5 .3 2.2 0 3.6-.1 4.8-.1.4 0 .7 0 1-.1 1.6-.2 3.3-.2 5.9-.2h11.6c3 0 4.4-.1 5.7-.2h.1c1.5-.1 3-.1 5.9-.1h4 1.8.1c1.3.1 2.8.1 5.7.1h4 1.8 2 3.9c3.2 0 4.7-.1 5.9-.3 1.2-.1 2.3-.2 4.4-.3h.1c2.8 0 4.2.1 5.7.1 0 0 .9 0 1.2.1 1.2.1 2.5.2 4.8.2s3.7.1 4.8.2c.3 0 1.1.1 1.1.1h.1c1.5.1 2.9.3 5.7.3 2.9 0 4.5-.1 5.8-.3h.1c1.4-.1 2.9-.3 5.8-.3 1.8 0 25.3.1 27 .3 1.3.1 2.9.3 5.8.3 2.8 0 4.2-.1 5.7-.3 1.5-.1 2.9-.2 6-.2 3 0 4.4.1 5.9.3l.8.1c1.3.1 2.6.3 5 .3 2.2 0 3.6-.1 4.8-.2.4 0 .7 0 1-.1 1.7-.2 3.3-.2 5.9-.2 2.9 0 4.4 0 5.7-.1h.2 5.8c3 0 4.4-.1 5.7-.2h.1c1.5-.1 2.9-.1 5.8-.1 2.5 0 4 .2 5.3.3l.8.1c1.4.2 2.8.4 5.6.4s4.2-.1 5.7-.3c1.5-.1 2.9-.2 6-.2 2.9 0 4.4 0 6 .1h5.7c3 0 4.4-.1 5.7-.1.6 0 1.1 0 1.8-.1v-.2h14.2c2.9 0 4.4.1 5.8.1 0 0 .8 0 1.1.1 1.2.1 2.5.2 4.7.2h3.9 1.9 2 3.9.9c2.5 0 7.2 0 11.2 2.7 2.4 1.6 5.6 4.7 6.7 10.6v.2.2c.1 3 0 4.5-.2 6.2-.2 1.4-.3 2.8-.3 5.4v11.9c-.1 5.7-.1 5.7-.1 11.5v23.4 4 1.8.2c-.1 1.3-.1 2.8-.1 5.7s.1 4.5.3 5.8v.1c.1 1.4.3 2.9.3 5.8v5.2 1.7 5c0 .1.1.3.1.5v.2.2c.1 3 0 4.5-.2 6.2-.2 1.5-.3 2.8-.3 5.4v11.9c-.1 5.7-.1 5.7-.1 11.5v19.3c.2.7.3 1.3.5 1.9v.2.2c.1 3 0 4.5-.2 6.2-.2 1.5-.3 2.8-.3 5.4v7.8c.1 1.4.3 2.9.3 5.7v5.2 1.7 4.8c0 3-.1 4.5-.2 6-.1.6-.1 1.1-.1 1.8v7.2.8l.2 3.2h-.2v2.5 4 1.8.2c-.1 1.3-.1 2.8-.1 5.7s.1 4.5.3 5.8c.1 1.3.2 2.5.3 4.4 0 .2.1.3.1.5v.2.2c.1 3 0 4.4-.1 6.2v1.2 4.8c0 3-.1 4.5-.2 6 0 .2 0 .4-.1.7v4.7 4.1l.2 3.5h-.2v27.3 4 1.8.2c-.1 1.3-.1 2.8-.1 5.7s.1 4.5.3 5.8v.1c.1 1.4.3 2.9.3 5.8v5.2 1.7 4.8c0 3-.1 4.5-.2 6-.1 1.2-.2 2.6-.2 5.7 0 2.2.1 3.6.1 4.8 0 .4 0 .7.1 1 .2 1.7.2 3.3.2 5.9v2.9 1.4.6c-.1 1.8-.1 3.2 0 6.6v.1c.5 4.7-1.2 9.4-4.9 13-1.1 1.2-5.2 5.1-9 5.1-2.9 0-4.3.1-5.6.3-1.5.1-2.9.2-5.9.2-2.4 0-3.8-.2-5.1-.3l-.9-.1c-1.2-.2-2.6-.4-5.5-.4-2.7 0-4.1.1-5.5.3h-.2c-1.4.1-2.9.3-5.7.3-.5 0-1 0-1.4 0v.1l-3.2-.2c-1.2-.1-2.6-.1-4.8-.1-2.8 0-4.2 0-5.6.1h-.1-5.7c-2.8 0-4.3.1-5.7.1-1.4.1-3 .1-5.8.1-1.7 0-2.9 0-3.9 0-.7 0-1.2 0-1.8 0h-.1c-1.5-.1-2.8-.1-5.7-.1h-11.5c-1.7 0-2.9 0-3.9 0-.6 0-1.2 0-1.7 0h-.2c-1.4-.1-2.8-.1-5.7-.1h-11.5c-2.9 0-4.3.1-5.6.3-1.5.1-2.9.2-5.9.2-2.8 0-4.3-.1-6-.4-1.3-.2-2.7-.3-5.5-.3h-5.7c-.6 0-1.2 0-1.9 0-1 0-2.1 0-3.8 0h-32.5c-2.9 0-4.2.2-5.5.4-1.7.3-3.1.4-6 .4-1.7 0-2.9 0-3.9 0-.6 0-1.2 0-1.7 0h-.2c-1.4-.1-2.8-.1-5.7-.1-1.7 0-2.8 0-3.8 0-.7 0-1.4 0-2 0s-1.2 0-1.8 0c-1 0-2.2 0-3.8 0-2.2 0-3.6-.1-4.7-.2-.4 0-1.2-.1-1.2-.1-1.3-.1-2.7-.3-5.6-.3-1.7 0-2.8 0-3.8 0-.7 0-1.4 0-2 0s-1.2 0-1.8 0c-1 0-2.2 0-3.8 0-1.7 0-2.8 0-3.8 0-.7 0-1.4 0-2 0s-1.2 0-1.8 0c-1 0-2.2 0-3.8 0-2.8 0-4.3-.1-5.7-.1-.4 0-.8 0-1.1-.1-1.2-.1-2.5-.2-4.7-.2-2.7 0-4.1.1-5.5.3h-.2c-1.4.1-2.9.3-5.7.3-1.7 0-2.9 0-3.9 0-.6 0-1.2 0-1.7 0h-.2c-1.4-.1-2.8-.1-5.7-.1-2.2 0-3.6-.1-4.7-.2-.4 0-1.2-.1-1.2-.1-1.3-.1-2.7-.3-5.6-.3-2.2 0-3.5.1-4.7.2-.3 0-.6 0-.9.1-1.4.1-2.9.2-5.8.2h-11.7c-2.8 0-4.2.1-5.4.2-1.6.5-3.2.6-5.9.6z"
        fill="#fff" />
    <path
        d="m384.6 6c2.9 0 4.3.1 5.8.1 1.4.1 2.9.2 5.9.2 2.9 0 4.4.1 5.9.1s3 .1 6 .1h.9c2.2 0 6.3 0 9.5 2.2 2 1.3 4.5 3.8 5.4 8.6.1 3 0 4.3-.1 5.9-.1 1.4-.3 2.9-.3 5.7v11.9c-.1 5.7-.1 5.7-.1 11.5v5.9 5.8 5.9 5.8c0 2.9-.1 4.4-.1 5.8-.1 1.4-.1 2.9-.1 5.9s.1 4.6.3 6.1c.1 1.4.3 2.8.3 5.6-.1 3.7 0 5 0 6.9v4.8.6c0 .2.1.4.1.6.1 3 0 4.3-.1 5.9-.1 1.4-.3 2.9-.3 5.7v11.9c-.1 5.7-.1 5.7-.1 11.5v5.9 5.8 5.9 2.1c.2.6.4 1.3.5 2 .1 3 0 4.3-.1 5.9-.1 1.4-.3 2.9-.3 5.7v8c.1 1.4.3 2.8.3 5.6-.1 3.7 0 5 0 6.9v4.8c0 2.9-.1 4.2-.2 5.7-.1.6-.1 1.2-.1 2v2.1 5.3.9 5.5c0 2.9-.1 4.4-.1 5.8-.1 1.4-.1 2.9-.1 5.9s.1 4.6.3 6.1c.1 1.2.2 2.4.3 4.5 0 .2.1.4.2.6.1 3 0 4.3-.1 5.9v.1 1.3 4.8c0 2.9-.1 4.2-.2 5.7 0 .3-.1.5-.1.8v4.8c0 1.9 0 3.1-.1 4.2v.4 6.9 5.9 5.8 5.9 5.8c0 2.9-.1 4.4-.1 5.8-.1 1.4-.1 2.9-.1 5.9s.1 4.6.3 6.1c.1 1.4.3 2.8.3 5.6-.1 3.7 0 5 0 6.9v4.8c0 2.9-.1 4.2-.2 5.7-.1 1.4-.2 2.9-.2 6 0 3 .1 4.5.2 6 .1 1.4.2 2.9.2 5.7 0 2-.1 3.3-.1 4.4-.1 2.1-.1 3.4 0 7.3v.1.1c.5 3.9-1 7.7-4 10.7-2.4 2.5-5.2 4.2-6.9 4.2-2.9 0-4.4.1-5.9.3-1.4.1-2.8.2-5.6.2-2.7 0-4.1-.2-5.5-.4s-3-.4-6-.4c-2.9 0-4.4.1-6 .4-1.4.1-2.8.3-5.5.3-2 0-3.3-.1-4.4-.2-1.2-.1-2.6-.1-5-.1-2.9 0-4.3 0-5.7.1-1.4 0-2.9 0-5.7 0-2.9 0-4.4.1-5.8.1-1.4.1-2.9.1-5.7.1s-4.3-.1-5.7-.1c-1.4-.1-2.9-.1-5.8-.1h-11.5c-2.9 0-4.3-.1-5.7-.1-1.4-.1-2.9-.1-5.8-.1s-4.3 0-5.7 0-2.9 0-5.7 0c-2.9 0-4.4.1-5.9.3-1.4.1-2.8.2-5.6.2-2.7 0-4.1-.1-5.5-.4-1.4-.2-3-.4-6-.4-2.9 0-4.3 0-5.7 0s-2.9-.1-5.7-.1c-2.9 0-25.3 0-26.7 0s-2.9 0-5.7 0c-3 0-4.5.2-6 .4-1.4.2-2.7.4-5.5.4-2.9 0-4.3-.1-5.7-.1-1.4-.1-2.9-.1-5.8-.1s-4.4.1-5.8.1-2.9.1-5.7.1-4.2-.1-5.6-.2-2.9-.3-5.9-.3c-2.9 0-4.4.1-5.8.1s-2.9.1-5.7.1c-2.9 0-4.4.1-5.8.1s-2.9.1-5.7.1-4.2-.1-5.6-.1c-1.4-.1-2.9-.2-5.9-.2-2.9 0-4.4.1-6 .4-1.4.1-2.8.3-5.5.3-2.9 0-4.3-.1-5.7-.1-1.4-.1-2.9-.1-5.8-.1-2.8 0-4.2-.1-5.6-.2s-2.9-.3-5.9-.3c-2.9 0-4.4.1-5.9.2-1.4.1-2.8.2-5.6.2-2.9 0-4.3 0-5.7 0s-2.9 0-5.7 0c-2.9 0-4.4.1-5.9.2-1.3.3-2.7.4-5.5.4-2.9 0-4.3-.1-5.7-.1s-2.9-.1-5.8-.1c-2.8 0-4.2-.1-5.6-.3-1.4-.1-2.9-.3-5.9-.3-2.9 0-4.3-.1-5.7-.1s-2.9-.1-5.8-.1c-3 0-4.5.2-6 .4-1.4.2-2.7.4-5.5.4-1.8 0-3.7-.9-4.9-2.3-1.1-1.3-1.7-2.9-1.6-4.5v-.6-.1c-.1-3.2-.1-4.6 0-6.2.1-1 .1-2.2.1-3.9v-1.5l-1.5-.2c-3.9-.6-9.1-3.8-12.7-6.3 3.9-.4 9.3-1.1 13.4-3l1.1-.5v-1.8c0-2.9 0-4.4 0-5.9 0-1.4.1-2.9.1-5.9s-.1-4.5-.1-6c-.1-1.5-.1-2.9-.1-5.7 0-2.9.1-4.4.1-6 0-1.4.1-2.9.1-5.8 0-3 0-4.4.1-6 0-1.4 0-2.9 0-5.8 0-3.1-.1-4.6-.4-6.1-.1-1.4-.3-2.8-.3-5.7 0-3 0-4.4.1-6 0-1.4 0-2.9 0-5.8 0-3 0-4.4.1-6 0-1.4 0-2.9 0-5.8 0-3-.1-4.5-.1-6-.1-1.5-.1-2.9-.1-5.7s.1-4.3.3-5.7c0-.5.1-1 .2-1.5 0-.9 0-2 0-3.4 0-2.9.1-4.4.1-6 0-.3 0-.6 0-.9 0-.1 0-.1 0-.2-.1-1.5-.1-2.9-.1-5.7 0-.4.1-.7.1-1.1 0-1.7 0-2.7.1-3.8 0-1.4 0-2.9 0-5.8 0-3.1-.1-4.6-.4-6.1-.1-1.4-.3-2.8-.3-5.7 0-3 0-4.4.1-6 0-1.4 0-2.9 0-5.8 0-3 0-4.4.1-6 0-1.4 0-2.9 0-5.8 0-3-.1-4.5-.1-6-.1-1.5-.1-2.9-.1-5.7 0-2.9.1-4.3.3-5.7.1-1.3.3-2.6.3-5 0-2.3-.2-3.6-.3-4.9-.1-1.4-.3-2.8-.3-5.7 0-3 0-4.4.1-6 0-1.4 0-2.9 0-5.8 0-3 0-4.4.1-6 0-1.4 0-2.9 0-5.8 0-3-.1-4.5-.1-6-.1-1.5-.1-2.9-.1-5.7 0-2.9.1-4.3.3-5.7.1-1.5.3-2.9.4-5.8 0-.2 0-.3 0-.5 0-2.8-.1-4.3-.1-5.8-.1-1.5-.1-2.9-.1-5.7 0-.2 0-.3 0-.5 0-2.9.1-4.4.1-6 0-1.4.1-2.9.1-5.8 0-3 0-4.4.1-6 0-1.4 0-2.9 0-5.8 0-3.1-.1-4.6-.4-6.1-.1-1.4-.3-2.8-.3-5.7 0-3 0-4.4.1-6 0-1.4 0-2.9 0-5.8 0-3 0-4.4.1-6 0-1.4 0-2.9 0-5.8 0-3-.1-4.5-.1-6-.1-1.5-.1-2.9-.1-5.7s.1-4.3.3-5.7c.1-1.5.4-3 .4-6s-.1-4.5-.1-6c-.1-1.5-.1-2.9-.1-5.7 0-3.7 4.4-5.2 7-5.9 2-.4 4.4-.7 7.4-.7 1.1 0 2 0 2.9.1h1.7c3 0 4.6-.1 6-.3 1.4-.1 2.8-.2 5.7-.2s4.2.1 5.5.1c1.4.1 2.9.2 5.9.2 2.9 0 4.4.1 5.8.1 1.4.1 2.9.1 5.9.1h11.7 5.9 5.8c3 0 4.5-.1 6-.2 1.4-.1 2.9-.2 5.7-.2 2.9 0 4.2.1 5.7.3 1.5.1 3 .4 6 .4s4.5-.1 6-.2c1.4-.1 2.9-.2 5.7-.2h11.4c3 0 4.5-.1 6-.2 1.4-.1 2.9-.1 5.7-.1 2.9 0 4.4.1 5.8.1 1.4.1 2.9.1 5.9.1 2.9 0 4.4.1 5.8.1s2.9.1 5.9.1c3.3 0 4.8-.1 6.2-.3 1.1-.1 2.2-.2 4.2-.3 2.9 0 4.2.1 5.7.1 1.4.1 2.9.2 6 .2 2.9 0 4.2.1 5.7.2 1.4.1 3 .3 6 .3s4.6-.1 6.1-.3c1.4-.1 2.8-.3 5.6-.3s25.2.1 26.7.3c1.5.1 3.1.3 6.1.3s4.6-.1 6-.3 2.8-.2 5.7-.2 4.2.1 5.7.3c1.5.1 3 .4 6 .4s4.5-.1 6-.2c1.4-.1 2.9-.2 5.7-.2 2.9 0 4.4 0 5.9-.1h5.8c3 0 4.5-.1 6-.2 1.4-.1 2.9-.1 5.7-.1s4.2.2 5.7.4 3 .4 6 .4 4.6-.1 6-.3c1.4-.1 2.8-.2 5.7-.2s4.4 0 5.9.1h5.8c2.9 0 4.4-.1 5.9-.1 1.2-.1 2.5-.1 4.6-.1v-.7h5.3zm0-6h-5.9-5.3-6v.4c-1.1 0-2.4.1-4.5.1h-5.7c-1.6-.1-3.1-.1-6-.1-2.8 0-4.5.1-6.3.2-1.2.1-2.6.3-5.4.3-2.6 0-3.8-.2-5.2-.4h-.1-.1c-.2 0-.4 0-.7-.1-1.3-.1-2.9-.3-5.6-.3-2.9 0-4.5.1-6 .2h-.1-.1c-1.3.1-2.5.2-5.5.2h-5.8-.1-.1c-1.3.1-2.7.1-5.6.1-2.7 0-4.4.1-6.1.2-.3 0-.7 0-1 .1-1.2.1-2.5.1-4.6.1-2.2 0-3.5-.1-4.7-.3-.3 0-.5-.1-.8-.1h-.1c-1.5-.2-3.1-.3-6.2-.3-2.8 0-4.5.1-6.3.2-1.2.1-2.6.3-5.4.3s-4.2-.1-5.5-.3c-2.1-.2-27.1-.3-27.3-.3-3 0-4.6.2-6.1.3h-.1c-1.3.1-2.7.3-5.5.3-2.9 0-4.2-.1-5.4-.3h-.1-.1c-.3 0-.6 0-1-.1-1.2-.1-2.6-.2-5-.2-2.2 0-3.5-.1-4.6-.1-.4 0-.7 0-1-.1h-.2c-1.4-.1-2.9-.1-5.8-.1h-.1-.1c-2.1.1-3.3.2-4.6.3-1.2.1-2.6.3-5.6.3-1.7 0-2.8 0-3.9 0-.8 0-1.4 0-2 0s-1.1 0-1.8 0c-1 0-2.3 0-4.1 0-2.9 0-4.3-.1-5.6-.1h-.1-.1c-.6 0-1.1 0-1.8 0-1 0-2.3 0-4.1 0-3 0-4.6.1-6 .2h-.1-.2c-1.1.1-2.4.2-5.4.2h-11.6c-2.7 0-4.4.1-6.1.2-.3 0-.7 0-1 .1-1.2.1-2.5.1-4.6.1-2.2 0-3.5-.1-4.7-.3-.3 0-.5-.1-.8-.1h-.1c-1.5-.2-3.1-.3-6.2-.3-2.3 0-3.8.1-5 .2-.3 0-.7 0-1 .1-.4 0-.7 0-1.1.1-1.2.1-2.5.1-4.6.1h-5.8-5.9-11.6c-2.9 0-4.3-.1-5.6-.1h-.1-.2c-.6 0-1.1 0-1.8 0-1 0-2.3 0-4.1 0-2.1 0-3.4-.1-4.5-.1-.4 0-.7 0-1.1-.1h-.1c-1.4-.1-2.8-.1-5.7-.1-2.8 0-4.5.1-6.3.2-1.2.1-2.6.3-5.4.3h-1.5c-1-.1-2-.1-3.1-.1-3.1 0-6 .3-8.6.9h-.1-.1c-10.5 2.5-11.6 9-11.6 11.7 0 2.9 0 4.4.1 6 .1 1.5.1 2.9.1 5.7 0 2.2-.1 3.5-.3 4.7 0 .3-.1.5-.1.8-.1 1.5-.3 3.1-.3 6.3 0 2.8 0 4.3.1 5.9v2 3.9 5.7c-.1 1.6-.1 3.1-.1 6.1v5.3c-.1 1.6-.1 3.1-.1 6.1 0 3.1.2 4.7.3 6.2v.1.1.1c.2 1.1.3 2.3.3 5.2v5.7c-.1 1.6-.1 3.1-.1 6.1v3.8 2 1.9 4.1.3.2c0 2.9 0 4.4.1 6 .1 1.4.1 2.8.1 5.5v.4c0 2.1-.1 3.3-.3 4.5 0 .3-.1.5-.1.8-.1 1.5-.3 3.1-.3 6.3 0 2.8 0 4.3.1 5.9v2 3.9 5.7c-.1 1.6-.1 3.1-.1 6.1v5.7c-.1 1.6-.1 3.1-.1 6.1 0 3.1.2 4.7.3 6.2v.1.1.1c.2 1.1.3 2.1.3 4 0 1.6-.1 2.6-.2 3.7 0 .3-.1.5-.1.8-.1 1.5-.3 3.1-.3 6.3 0 2.8 0 4.3.1 5.9v2 3.9 5.7c-.1 1.6-.1 3.1-.1 6.1v5.7c-.1 1.6-.1 3.1-.1 6.1 0 3.1.2 4.7.3 6.2v.1.1.1c.2 1.1.3 2.3.3 5.2v5.7c0 1-.1 2.1-.1 3.3-.1.6-.1 1.1-.1 1.7 0 2.9 0 4.4.1 6v.8 1.9 4.1 3.2.5c0 .3-.1.5-.1.8-.1 1.5-.3 3.1-.3 6.3 0 2.8 0 4.3.1 5.9v2 3.9 5.7c-.1 1.6-.1 3.1-.1 6.1v5.7c-.1 1.6-.1 3.1-.1 6.1 0 3.1.2 4.7.3 6.2v.1.1.1c.2 1.1.3 2.3.3 5.2v5.7c-.1 1.6-.1 3.1-.1 6.1v3.8 2 1.9 4.1c0 2.9 0 4.4.1 6 .1 1.5.1 2.9.1 5.7v3.9 2 3.6c-2.4.7-5.5 1.3-9 1.6l-16.3 1.5 13.4 9.4c4.4 3 8.2 5.2 11.6 6.4v.3.1.1.1c-.1 1.6-.1 3.2 0 6.4-.2 3.1.9 6.2 3 8.6 2.3 2.7 5.9 4.4 9.4 4.4 3 0 4.7-.2 6.4-.4 1.2-.2 2.4-.4 5-.4h3.8 2 1.7 4c2.7 0 4 .1 5.3.3h.1c1.5.2 3.1.3 6.1.3h3.8 2 1.7 4c2.8 0 4.6-.1 6.4-.4 1.1-.1 2.4-.2 5-.2h5.7 5.7c2.7 0 4.3-.1 6-.2.3 0 .6 0 .9-.1 1.1-.1 2.4-.1 4.5-.1 2.7 0 4 .1 5.3.3h.1.1c.3 0 .6 0 1 .1 1.2.1 2.6.2 4.9.2 2.8 0 4.1.1 5.5.1h.1.2 1.7 4c3 0 4.5-.2 6-.3h.1.1.1c1.1-.2 2.3-.3 5.1-.3 2.1 0 3.4.1 4.5.1.4 0 .7 0 1.1.1h.1c1.4.1 2.9.1 5.8.1h3.9 1.8 2 3.8 3.9 1.8 2 3.8c2.7 0 4 .1 5.3.3h.1.1c.3 0 .6 0 1 .1 1.2.1 2.6.2 4.9.2h3.9 1.8 2 3.8c2.8 0 4.1.1 5.5.1h.1.1 1.7 4c3 0 4.6-.2 6.4-.4 1.2-.2 2.4-.4 5.1-.4h5.7 26.7 3.7 2 5.7c2.6 0 3.9.1 5.1.3 1.7.3 3.4.4 6.4.4 2.8 0 4.4-.1 6.2-.2 1.3-.1 2.6-.3 5.3-.3h5.7 5.7c2.8 0 4.1.1 5.5.1h.1.2 1.7 4 11.5c2.8 0 4.1.1 5.5.1h.1.2 1.7 4c2.9 0 4.5 0 6-.1 1.3-.1 2.7-.1 5.5-.1h5.7.1.1c1.3-.1 2.7-.1 5.4-.1 2.1 0 3.4 0 4.5.1l6.5.5v-.3c2 0 3.2-.2 4.4-.3h.1.1.1c1.1-.2 2.3-.3 5.1-.3 2.6 0 3.9.2 5.1.4h.1.1c.2 0 .5 0 .7.1 1.3.1 2.8.3 5.4.3 2.8 0 4.4-.1 6.2-.2 1.3-.1 2.6-.3 5.3-.3 4.7 0 9.3-4.1 11.1-6 4.3-4.2 6.4-9.8 5.8-15.3-.1-3.3-.1-4.6 0-6.4v-.5-.1-.1c0-.4 0-.9 0-1.4 0-.8 0-1.8 0-3 0-2.7-.1-4.4-.2-6.1 0-.3 0-.7-.1-1-.1-1.2-.1-2.5-.1-4.6 0-2.9.1-4.2.2-5.4.2-1.6.2-3.2.2-6.3v-4.8c0-.6 0-1.2 0-1.8 0-1.2 0-2.6 0-5v-.1-.1c0-3-.2-4.6-.3-6.1v-.1c-.1-1.3-.3-2.7-.3-5.5 0-2.9.1-4.3.1-5.6v-.1-.1c0-.6 0-1.1 0-1.8 0-1 0-2.3 0-4.1v-5.8-5.9-5.8-5.9c0-.3 0-.6 0-.9h.4l-.3-6.3v-.2c0-1 0-2.2 0-4v-4.6c0-.2 0-.3 0-.5.2-1.6.2-3.2.2-6.3v-4.9c0-.4 0-.7 0-1.1.2-1.8.2-3.3.1-6.4v-.5l-.1-.5c0-.1 0-.2-.1-.4 0-1.9-.2-3.2-.3-4.3v-.1c-.1-1.3-.3-2.7-.3-5.5 0-2.9.1-4.3.1-5.6v-.1-.1c0-.6 0-1.1 0-1.8 0-.9 0-2 0-3.6h.3l-.3-6.3c0-.2 0-.4 0-.7v-5.1-1.9c0-.6.1-1 .1-1.5.2-1.6.2-3.2.2-6.3v-4.8c0-.6 0-1.2 0-1.8 0-1.2 0-2.6 0-5v-.1-.1c0-2.9-.1-4.4-.3-5.9v-7.5c0-2.6.1-4 .3-5 .2-1.9.2-3.4.2-6.6v-.5l-.1-.5c-.1-.6-.2-1.2-.4-1.8v-1.2-5.9-5.8-5.9c0-5.8 0-5.8.1-11.4v-11.9c0-2.6.1-4 .3-5 .2-1.9.2-3.4.2-6.6v-.5l-.1-.5c0-.1 0-.2 0-.3v-4.7c0-.6 0-1.2 0-1.8 0-1.2 0-2.6 0-5v-.1c0-3-.2-4.6-.3-6.1v-.1c-.1-1.3-.3-2.7-.3-5.5 0-2.9.1-4.3.1-5.6v-.1-.1c0-.6 0-1.1 0-1.8 0-1 0-2.3 0-4.1v-5.8-5.9-5.8-5.9c0-5.8 0-5.8.1-11.4v-12c0-2.6.1-4 .3-5 .2-1.9.2-3.4.2-6.6v-.5l-.1-.5c-1.2-6.9-5-10.6-8-12.6-4.7-3.1-10.2-3.1-12.8-3.1h-.9c-1.7 0-2.8 0-3.8 0-.8 0-1.4 0-2.1 0-.6 0-1.2 0-1.9 0-1 0-2.3 0-4 0-2.1 0-3.4-.1-4.5-.1-.4 0-.7 0-1.1-.1h-.1c-.2-.2-1.7-.3-4.7-.3z"
        fill="#00a4de" />
</svg>