<svg viewBox="0 0 294 360" xmlns="http://www.w3.org/2000/svg">
    <!-- ©2023 COMICS/SRC by @nyuudo -->
    <path
        d="m202.18542 359.801h-106.65118c8.74322-20.54328 29.49036-36.94654 56.86432-36.94654s46.41544 14.94113 49.78686 36.94654zm73.54658-171.26658c2.34442-15.90283 14.84967-32.53381 14.37519-42.31128-.28968-5.9685-3.66285-12.6054-7.95282-21.6734.38427-.116.90026-20.48779.55328-25.40985-2.89417-1.24981-28.17755-14.02008-35.04755-16.98687l.15656-7.92688s-102.07594-67.11744-103.09541-67.11744-98.74536 67.11744-98.74536 67.11744l1.67468 10.21368c-11.09289 4.78509-24.12121 8.22589-35.57092 13.165.87518 27.30011-7.9198 38.84082-8.39429 48.61834s12.0307 26.40845 14.37518 42.31128 3.43665 36.92621 4.44465 69.46759-4.44465 101.56141-4.44465 101.56141l40.73627.23761s-6.5581-68.21363-7.25415-84.90259.27124-58.00342 5.27631-76.204c.7326-2.66388 2.58984-9.06433 2.58984-9.06433l5.70374-1.13123c-.6662.43323-1.33948.871-2.00489 1.30371.55262 4.36023 1.13459 8.95227 1.84253 14.53882 16.525-12.58368 30.861-26.93274 45.37372-40.87219l24.84418-17.45038c-18.40485 18.15289-35.85632 37.317-56.53729 53.06268-1.01606.77356-2.61847 1.86444-2.58155 2.75074.20063 4.81475.83081 9.61157 1.3537 14.81958 6.01172-5.34015 11.32788-10.37177 16.96527-15.01459 20.38849-16.79151 38.16449-35.65241 48.96649-60.2074a11.26928 11.26928 0 0 1 2.22931-2.66077l.44129.29779c10.29614 14.65125 19.26623 29.87757 30.75519 42.88556 11.78051 13.338 26.09924 24.44172 40.00677 37.16474.33246-4.75025.14612-8.59571.99243-12.1994.72693-3.09522-.54815-4.38672-2.60925-6.14051-8.605-7.3222-17.26611-14.60656-25.46777-22.367-10.96851-10.37842-21.6745-21.03559-32.36133-31.70716l23.21911 15.66877c15.5929 14.857 30.7074 30.52557 48.53278 43.85894.70544-5.45373 1.29913-10.04357 1.86475-14.41668-2.10517-1.3692-4.23-2.75122-6.3429-4.12543l9.78864 1.94141s1.85723 6.40045 2.58978 9.06433c5.00513 18.20056 5.97241 59.51507 5.27637 76.204s-7.25415 84.90259-7.25415 84.90259l40.73626-.23761s-5.45263-69.02-4.44464-101.56141 2.10022-53.56477 4.44465-69.46761z"
        fill="#fff" />
    <path
        d="m290.00659 138.74347a20.9572 20.9572 0 0 1 -4.2157-14.47962c.382-7.287-.01031-14.62817-.34534-21.93347-.18084-3.94232-.74493-6.20758-6.3-7.86438-10.64508-3.175-18.77552-8.65149-28.8595-13.68-.31726-.15814.86761-2.11023 2.14673-3.71539a47.079 47.079 0 0 0 -3.55249-3.16q-37.01374-25.92391-74.05845-51.8038c-7.76789-5.43365-15.50788-10.907-23.27741-16.3385-4.44086-3.10443-8.62286-2.39789-12.90143.60883q-46.36917 32.58553-92.80548 65.076a50.92705 50.92705 0 0 0 -4.31677 3.91468 36.82817 36.82817 0 0 0 1.14618 5.08008c-10.52783 4.79215-17.25311 7.82871-27.78993 12.6011-.42627.19306-1.09088.50269-1.48712.65088-3.78234 1.41481-4.36358 3.30329-4.47888 5.99665-.36225 8.46234-.8761 14.28656-.67377 22.73938.12665 5.29273-.96606 10.15027-4.07733 14.00971-5.44182 6.75038-3.7269 13.18506-.63769 19.96753 8.97559 19.70636 14.86036 40.05237 13.58985 62.05291a166.41282 166.41282 0 0 0 .28058 22.94373c1.84558 22.81073-.32215 45.48834-1.66577 68.20221q-1.42695 24.12177-2.71784 48.25146a8.85718 8.85718 0 0 0 .48981 2.13654c1.5343-.14685 2.93139-.28058 4.5617-.43658 1.61677-25.23475 4.18342-50.07178 4.54053-74.94043.39594-27.57123-.94842-55.18274-2.0733-82.75476a115.62874 115.62874 0 0 0 -12.42523-48.27552c-3.967-7.74859-2.99872-13.61737 1.28338-20.78534a136.57325 136.57325 0 0 0 12.06482-26.62866c1.647-4.92731 3.82093-5.59607 7.81055-4.57446 4.65851 1.19293 9.17554 3.18152 13.89209 3.8432 6.35144.891 12.83484.84424 19.2572 1.19971.42194 4.43292-.58758 6.1582-4.42212 8.34307-6.85748 3.90741-14.29663 3.8761-21.84161 3.60126-1.3761-.05011-3.75952.57117-4.032 1.41321-2.48407 7.67786-4.60346 15.47333-6.81543 23.18567 2.2406.78424 4.21808.95282 5.46179 1.99457 9.97272 8.35284 18.10333 18.29254 18.122 31.80487.00995 7.21978-3.21405 14.43646-4.9032 21.67212-.36987 1.58422-.41937 3.243-.703 5.5813 1.55413-.70307 2.40948-.80359 2.6618-1.24653 4.83466-8.48663 10.18011-16.80255 9.43347-27.23181-.57666-8.0556-5.1239-15.1355-4.58832-23.70221.58289-9.32287-.97839-18.77935-1.59472-28.02514 3.18908-1.18592 6.14972-2.22748 9.06463-3.384 5.05139-2.00408 8.85407-5.101 9.93366-10.84741 1.02185-5.43927-1.07617-8.23309-6.68134-8.306-4.38635-.057-8.77405-.01141-14.21277-.01141 2.36567-3.03815 4.00934-4.88745 5.34455-6.937a30.85262 30.85262 0 0 0 3.50647-6.53986c2.22387-6.4237-.25977-11.18658-6.77912-13.027.97358-.66894 1.77954-1.2171 2.57984-1.77349 28.145-19.56751 56.51422-38.82691 84.25311-58.95221 5.88275-4.26813 10.2019-4.30188 15.678-1.22187a76.88845 76.88845 0 0 1 6.74933 4.22779c21.3291 15.10363 42.59009 30.30352 63.96441 45.343 7.1222 5.01136 14.5152 9.63923 20.9665 13.902-1.82654 1.666-4.46772 2.991-5.34253 5.06024-3.81946 9.03388 3.41266 14.59558 8.26788 21.92786-4.6814 0-8.51471.46783-12.18768-.09949-7.1659-1.10669-11.63337 3.81464-6.98334 12.3169a15.654 15.654 0 0 0 6.04309 5.63751c3.57288 1.9826 7.55682 3.227 11.16327 4.702-.50049 12.24762-.98859 24.49182-1.52954 36.7337a5.5652 5.5652 0 0 1 -.7486 2.34027c-7.63843 13.76733-2.00268 26.01758 4.42725 38.1322.59741 1.12561 1.94824 1.85272 2.94928 2.76483l1.35418-.62768c-1.2268-11.38721-9.7019-22.06049-4.91113-33.96887 4.45429-11.0719 10.06391-21.48883 22.45716-26.99652-1.49366-5.22437-3.567-11.02118-4.73615-16.99433-1.06622-5.44726-3.22113-8.14679-9.15948-6.90948a14.21468 14.21468 0 0 1 -7.43189-.09937 118.55655 118.55655 0 0 1 -14.93671-6.98627c-.8385-.45245-1.24383-2.90576-.81878-4.05517.26935-.72864 2.429-.94623 3.76977-1.06287 6.4397-.56036 12.92823-.726 19.31989-1.60687 3.56842-.49182 6.93323-2.307 10.47833-3.158 3.69421-.88678 5.92218-.37781 7.51843 4.36267a130.62261 130.62261 0 0 0 11.98438 26.658c4.64105 7.5564 4.62268 13.49585 1.198 21.68939-5.13373 12.28235-9.9441 25.35041-11.235 38.44361-2.49048 25.25982-3.20123 50.77124-3.18927 76.17767.011 23.22632 1.89758 46.45447 3.077 69.67578.30273 5.96063 1.04559 11.89942 1.62335 17.84461a6.118 6.118 0 0 0 .71936 1.54968c1.39129-.12866 2.76221-.25549 4.52173-.41821-.54694-11.8451-.96393-23.28968-1.62836-34.72-1.09821-18.89288-2.94885-37.763-3.38074-56.66778-.4364-19.1001.3197-38.23456.84082-57.34619.28907-10.6023 1.02436-21.1471 5.44129-31.14881 3.27746-7.42144 5.59405-15.26025 8.68719-22.77014 2.61511-6.34951 3.61932-12.09133-1.17237-18.14748zm-259.35974.38727c1.62335-4.624 3.53033-10.056 5.61169-15.98468l6.748.406q.81693 13.60988 1.59912 26.64106c-4.69288-3.71912-9.1656-7.26374-13.95881-11.06238zm20.35431-56.13623c1.0415 4.10711-2.5387 7.29126-4.55945 11.08062-2.71881 5.09815-6.18353 7.07349-11.91888 4.51868-2.31891-1.033-5.18482-1.09918-7.80842-1.13592-4.38635-.06141-7.40948 1.51751-8.37805 6.51428-.82458 4.25384-2.7633 8.29254-4.2091 12.42645l-1.17243-.29242c.39368-6.03168.78742-12.06329 1.12165-17.18353 12.6026-5.4364 24.69525-10.65277 36.92468-15.92816zm200.00049 42.64471q3.15554-.25735 6.70825-.54706l5.6867 16.04486-13.97277 11.03559c.50793-8.54218 1.02765-17.28161 1.57782-26.53339zm28.95788-7.24408c-1.61291-4.51806-3.66424-8.93915-4.69507-13.58581-.77575-3.49659-2.78216-5.03077-5.70739-5.06409-3.927-.04468-8.0979.02826-11.73413 1.28778-4.29126 1.48639-6.74738.57385-8.92981-3.12189-2.557-4.33032-6.61133-7.99511-5.931-12.93628 12.08459 5.21869 24.18646 10.44483 36.952 15.95752.347 4.92206.77661 11.01721 1.20624 17.11231zm-44.22375 69.11353c-7.60883-5.08606-15.269-10.10334-23.03571-14.94489-21.53448-13.42425-43.13476-26.74341-64.07025-39.70849.43207-2.9455.06824-7.75654.05792-10.50916-.01678-4.47595.64087-6.89978.25739-11.36768-.25739-2.99877.64435-4.27264 3.969-4.79309 8.65729-1.3554 16.69153-4.54205 23.3949-10.40149 1.18353-1.03454 1.86548-2.641 2.779-3.98333q-.62017-.54621-1.24029-1.09235c-8.39065 6.87181-17.58174 11.61725-28.86947 11.90281-1.04211-15.62317-2.2157-30.674-2.99731-45.745-.61982-11.95118.54632-23.68848.11657-35.65076-.05432-1.51257.50574-3.90344.13861-5.40485-.62439.09693-2.61841.6225-3.24279.71943.81524 28.81567.53137 57.86187 1.35577 87.00067-10.269-.80292-19.24194-1.91681-26.82312-8.02454-1.03973-.83765-3.15247-.3479-4.76843-.47272.6358 1.60169.82745 4.04364 1.98706 4.65454a65.86032 65.86032 0 0 0 13.262 5.57489c5.19837 1.40686 10.66113 1.84 16.17438 2.72315.337 7.42755.668 14.72107 1.00238 22.09039-5.69739 3.9046-11.04743 7.83728-16.65265 11.366-22.67206 14.273-45.42554 28.417-68.13727 42.62744a15.56087 15.56087 0 0 0 -3.97265 2.96173 5.05293 5.05293 0 0 0 -.39863 3.28479c3.66919 1.00873 2.0044 3.749 2.13678 5.93115.26056 4.29633.438 8.61536 1.07856 12.8606.19806 1.31274 1.78412 2.41681 2.73468 3.61646a18.61793 18.61793 0 0 1 2.02032-2.96521c1.85132-1.85474 3.85492-3.55793 5.79651-5.32282q.657.5517 1.314 1.10333c0 4.794-.34113 9.61914.09381 14.37342.45508 4.97412 2.99029 5.81994 6.73834 2.64318 6.60223-5.59576 13.20593-11.19091 19.73846-16.86724 13.70429-11.90815 27.42237-23.817 37.21595-39.40473 3.95312-6.29187 7.83215-12.63013 11.73474-18.931 17.09814 30.9513 22.89764 35.79151 40.312 52.05506 9.23657 8.62616 19.09186 16.59533 28.74878 24.76574 1.269 1.07367 3.01984 1.57984 4.54748 2.34888.92585-1.84784 2.48627-3.6413 2.65082-5.55432.39258-4.56458.12665-9.18561.12665-13.78388q.6469-.426 1.29388-.852c1.91608 1.7804 3.87372 3.51893 5.73053 5.35895a34.97347 34.97347 0 0 1 2.45594 3.00971c.80285-1.17493 2.16931-2.28577 2.31189-3.53577.6521-5.71588.96106-11.4707 1.429-17.686 3.52906-1.99609 3.6659-3.18933-.49553-5.971zm-170.78559 16.83276c-.70794-5.58655-1.28991-10.17859-1.84253-14.53882 20.60743-13.40039 41.60205-27.05261 62.59662-40.70477-20.14135 18.0647-38.45428 38.26239-60.75409 55.24359zm152.80951 2.57636c-.84631 3.60369-.66 7.44915-.99243 12.1994-13.90753-12.723-28.22626-23.82672-40.00677-37.16474-11.60456-13.13885-20.63721-28.54174-31.06427-43.32843a12.92136 12.92136 0 0 0 -2.36152 2.80585c-10.802 24.555-28.578 43.41589-48.96649 60.2074-5.63739 4.64282-10.95355 9.67444-16.96527 15.01459-.52289-5.208-1.15307-10.00483-1.3537-14.81958-.03692-.8863 1.56549-1.97718 2.58155-2.75074 22.88263-17.42193 41.80731-39.03326 62.44946-58.824 1.75806-1.68549 3.04736-3.85816 5.00037-6.38049 2.7597 3.34234 5.10919 6.70471 7.96746 9.55944 11.7757 11.76123 23.54657 23.53608 35.63459 34.97376 8.20166 7.76044 16.86273 15.0448 25.46777 22.367 2.0611 1.75382 3.33618 3.04532 2.60925 6.14054zm11.31354-.687c-22.41992-16.77008-40.54889-37.239-60.73889-55.13391 20.99805 13.657 41.99609 27.31415 62.60364 40.71723-.56562 4.37315-1.15931 8.96299-1.86475 14.41672zm-31.52124 153.57021c-5.74428-17.22171-17.4536-29.59072-35.29335-33.37085-16.69627-3.53786-31.82166 1.30469-45.092 11.20782-6.43962 4.8056-11.78306 11.17736-17.18634 17.22854-3.53168 3.95509-1.55038 5.678-9.305 4.93449.675-1.43435 1.49312-3.97414 2.23552-5.19315 14.96526-24.57371 36.19428-38.0052 65.67214-36.40745 21.64268 1.173 41.695 19.68853 46.30353 41.6006zm-133.25925 0h-5.49592c-6.09551-23.965-10.97955-139.8145-5.402-149.42173.64873 3.484 1.38029 5.72152 1.43536 7.97557.45065 18.44452.91552 36.8907 1.10444 55.33915.2692 26.287 3.43921 52.28 7.43575 78.20487.37721 2.44673.57911 4.92028.92233 7.90214zm171.12049.01646h-6.13044c10.55537-48.32342 8.07692-97.35408 10.20584-146.05228l3.10112.18227c1.04939 48.62978 1.86104 97.25013-7.17656 145.87006zm-112.0035-289.86324c-2.51516-1.28037-4.42778-2.85665-6.5458-3.21172-5.02012-.84156-9.03386 1.07466-11.81635 5.52225-.56528.90356-1.91134 1.32027-2.89748 1.9614-.34052-1.30616-1.007-2.63477-.91874-3.91137a6.0113 6.0113 0 0 1 1.65592-2.96442c3.68-4.38194 11.665-6.21576 16.93236-3.96889 3.19659 1.36353 3.7465 2.24976 3.59009 6.57275zm57.33184-1.7741a20.10061 20.10061 0 0 1 -3.08394-1.71695c-6.39135-6.38228-6.7467-6.40626-14.83731-2.32107-.95456.482-2.3036.18532-3.46976.24961.08033-.92564-.13873-2.47461.28806-2.67893 3.61894-1.7324 7.25274-4.0892 11.08527-4.54106 3.99189-.47061 7.69842 1.86706 9.49494 5.91873.50616 1.14155.29705 2.59919.52274 5.08967z"
        fill="#003041" />
</svg>