<svg viewBox="0 0 50 92" xmlns="http://www.w3.org/2000/svg">
    <!-- ©COMICS/SRC by @nyuudo -->
    <path
        d="m49.5 71.4c-.3-7.8 0-20.2-.5-21.6-.4-1.4-4.8-4.7-7.3-6.5-2.5-1.7-5.3-3.6-8.3-5 .6-.6 1.5-1 2.6-.9l1.3-35.6s-25.6-1.1-28.3.2c-3.9 1.7-2.3 3.4-2.3 3.4l3.2 33.4 2.6.5c-1.3.7-2.6 1.5-3.8 2.3-2.1 1.4-4.8 2.3-6.1 4.4-1.5 2.3-1.4 5.2-1.8 7.9-.3 2.8-.4 5.6-.2 8.5.3 7.2.5 13.5 4.4 19.9 1 .9 2.2 1.5 3.5 1.8 3 0 1.6-2.1 2-4.5.7.1 2.3 3.1 2.9 3.1 1-.1 1.8-1 2.8-.8 2.8.6 4.1 4.1 6.2 6.1 1.6 1.4 3.5-.5 3.8-2 .2-1.1-1.7-3.2-2-3.4 1.6.5 3.4.4 5.1.8 3.3.7 6.2 5.5 7.9 7.7 1.4 1.9 5.8.3 5.4-2.2-.6-2.5-1.3-4-2.2-6.4 2.2-.3 1.2.1 2.9-1.4 0 1.6.1 3.1.4 4.6.6 2.1 4.5 1.9 4.8-.4.8-4.7 1.1-9.3 1-13.9z"
        fill="#fff" />
    <path
        d="m6.7 53.9c-.1 0-.2.1-.2.2.1 2.2.3 4.5.5 6.7.1 1.4.2 2.8.4 4.1.1.9.3 1.8.5 2.6.2.9.3 1.7.5 2.6.3 1.4.6 2.8 1 4.1.3 1.1.7 2.2 1.2 3.2.1.2.4.3.6.2s.3-.3.2-.5c-.6-1.3-1.1-2.7-1.4-4.2-.4-1.7-.7-3.5-1-5.2-.1-.7-.2-1.3-.3-2-.2-1.5-.5-3-.8-4.5-.4-2.4-.8-4.8-1.1-7.2.2-.1 0-.2-.1-.1zm33.6 4.7c-.1 0-.2.1-.2.2.1 1.9.1 3.9.1 5.8 0 1.1 0 2.2.1 3.3.1 1.2.2 2.3.3 3.5.2 2.2.3 4.5.4 6.8 0 .2.2.4.5.4.2 0 .4-.2.5-.4 0-2.2-.1-4.3-.2-6.5 0-.6 0-1.2-.1-1.9 0-.7 0-1.4-.1-2.1-.1-1.2-.3-2.3-.4-3.5-.2-1.8-.5-3.5-.7-5.3.1-.3 0-.4-.2-.3zm-13.1-27.9c0-.2-.1-.3-.2-.4-.5-.5-1.2-.8-1.9-.9-.1 0-.2 0-.2.1 0 .1 0 .2.1.2.3.2.7.5.9.8 0 .1.1.1.1.2-.5.6-1.2.9-1.9 1-.1 0-.3 0-.4.1-.3 0-.5.1-.8.1-.4.1-.8.2-1.2.2-.8.2-1.5.3-2.3.4-.1 0-.2.1-.1.2 0 .1.1.2.2.2.8.1 1.6.1 2.4 0 .4 0 .8 0 1.3-.1.6-.1 1.1-.3 1.6-.5.7-.2 1.2-.6 1.7-1.1.1.1.1.2.1.3 0 .4 0 .8-.2 1.1-.1.2 0 .4.2.4.2.1.4 0 .4-.1.3-.7.4-1.5.2-2.2zm22.6 25.5c0-1.9-.1-3.7-.2-5.6 0-.5 0-.9 0-1.4 0-.3 0-.5-.1-.8-.1-.1-.2-.2-.3-.3s-.3-.2-.4-.4c-.5-.4-1.1-.9-1.7-1.3-1.9-1.5-3.8-2.9-5.8-4.2-2-1.4-4.2-2.7-6.3-3.8.3-.1.7-.2 1.1-.2.3 0 .5-.1.7-.3s.3-.4.3-.7l1.3-35.6v-.1c0-.4-.3-.8-.8-.9 0 0 0 0-.1 0h-.1c-4.4 0-26.1-.9-28.9.4-1.8.9-2.9 1.9-3.1 3.1-.1.6 0 1.2.3 1.6l1.1 11.8c-1.2.4-1.8 1.3-1.6 3.2.3 2.4.9 4 2.4 4.9l1.3 13.3c0 .4.4.8.8.9l.5.1c-.1.1-.2.1-.3.2-2 1.2-4 2.5-5.8 4-.5.4-1 .8-1.5 1.2-.3.2-.5.4-.6.6-.1.1-.1.3-.1.4-.1.3-.2.5-.3.8-.2.5-.3 1.1-.5 1.6-.5 2.3-.9 4.6-1 7-.2 4.3 0 8.6.5 12.8.4 3.2.9 6.3 1.6 9.5 0 .1.2.2.3.2s.3-.2.2-.3c-.7-3.1-1.1-6.3-1.4-9.4-.4-3.9-.5-7.9-.3-11.8.1-2.4.5-4.9 1-7.2.2-.8.4-1.6.7-2.3 0-.1.1-.2.1-.4.2-.3.2-.4.2-.4s.1-.1.1-.1c.1-.1.3-.2.4-.3.4-.3.8-.6 1.1-.9 1.2-.9 2.4-1.7 3.6-2.5 1.3-.8 2.6-1.6 3.9-2.3l-4.4 6.1v.1c-.1.3 0 .5.2.7l3 1.4-2.4 2.5c-.2.2-.2.4-.1.6l11.4 19c-.6 2.6-1 4.4-1 4.6s.1.5.3.6h.2c.2 0 .3-.1.4-.2l15.9-21.2c.2-.2.1-.5 0-.7l-3.6-3.6 4.3-.5c.2 0 .4-.2.4-.5v-8.2c2 1.1 3.9 2.3 5.7 3.6 2 1.4 4 2.9 5.9 4.4v.4 1.3c.1 1.9.1 3.7.2 5.6.2 4.6.3 9.1.3 13.7v5c0 1.1-.1 2.2-.2 3.3 0 .3.2.5.4.5.3 0 .5-.1.6-.4.2-1.1.2-2.3.2-3.4 0-1.7.1-3.3.1-5 .1-4.6 0-9.2-.1-13.8zm-42.4-51.7c0-.2.3-.8 2-1.7 1.4-.6 11.9-.6 22.6-.3-.3.2-.6.4-.9.6-.1.1-.2.2-.3.3s-.1.1-.2.2-.2.2-.3.3c-.2.2-.3.5-.4.7-.1.4-.2.9-.1 1.3zm2.3 21.8c.3.1.6.1.9.1 4.4.4 6.6-2 6.7-4.7 0 0 0 0 0-.1 0 0 .1 0 .1-.1.4-.4.9-.6 1.4-.6.6.1 1 .4 1.3.9 0 0 .1.1.1.1v.5c.1 2.7 2.4 4.5 6.8 4.9 4 .4 5.1-.7 5.5-4.3s-2.6-4.2-5.9-4.3c-2.8 0-5.5-.4-6.2 1.9-.4-.4-1-.7-1.5-.7-.6 0-1.1.1-1.6.5-.5-2.9-3.5-2.8-6.4-3.1-.7-.1-1.4-.1-2-.1l-1-10.8 22.6 1.6v9.7c.7.2 1.4.5 2 1v-11.4c.1-.3 0-.6-.2-.8 0-.1-.1-.1-.1-.2-.2 0-.2-.1-.3-.2-.1-.2-.1-.5-.1-.7 0-.1.1-.4.6-.7 1-.6 2.1-1 3.3-1.4.2-.1.3-.1.5-.2l-1.2 33.3c-1 .2-1.8.6-2.5 1.4v-10.2c-.5.6-1.2 1-2 1.2v13.1l-19.7-3.9zm20 17.3-2.9 4.8-1.9-5.8zm-9.6-1.8-3.1 5.6-.4-6.3zm-10.4 9.7 2.6-2.7s.1-.1.1-.1c.1-.3 0-.5-.2-.7l-3.1-1.4 4.3-6 1.7.3c.1 2.7.2 5.4.5 8 .4 3.7 3.1 14.3 4.5 19.8zm9.3-3-1.1 7.6c-.5-2.6-1-4.9-1.2-6.5.1 0 .3-.1.4-.2l1.9-3.3.3 1.8c.6-.2 1.3-.3 1.9-.2.8.1 1.5.4 2.2.8l1.5-2.7 1.4 4.3s0 .1.1.1c-.8 1.6-1.7 4-2.6 6.9l-.5-8.1c-.7-.4-1.5-.6-2.3-.8-.7 0-1.3 0-2 .3zm1.6 19.8c0-.1 0-.2-.1-.2zm10.4-18.9c-.2 0-.3.2-.4.3-.1.2 0 .4.1.5l4.1 4.1-14.3 19c.2-.7.3-1.5.6-2.4.1-.1.1-.2.1-.4.3-1.4.7-3.1 1.2-4.8l1.6-5.5v-.4c1.1-4 2.3-7.6 3.4-9.6 1.2-2.2 2.5-4.4 3.7-6.3h.2c.1.1.3.1.4.1.5 0 .9-.3 1-.8 0-.1 0-.1 0-.2s0 0 0-.1v-.1c.1-.5.3-2.4 1.2-3.5.2.1.3.2.5.3.5.3 1 .5 1.5.8l.1 8.4z"
        fill="#003041" />
</svg>