<svg enable-background="new 0 0 368 520" viewBox="0 0 368 520" xmlns="http://www.w3.org/2000/svg">
    <!-- ©COMICS/SRC by @nyuudo -->
    <path
        d="m1.2 502.3c.5.9 2.2-2.8-.8-2.2.6-.4-1.2 1.9.8 2.2zm0-22c.5.9 2.2-2.8-.8-2.2.6-.4-1.2 1.9.8 2.2zm0-21.9c.5.9 2.2-2.8-.8-2.2.6-.4-1.2 1.9.8 2.2zm-.5-23s.6-1 0 0c0 0-.6.9 0 0zm.5-21.1c1.7.7-.6-4.2-.8-.8.3-.6-.8 1.6.8.8zm-.2-21.7c.7 1.1.1-3.9-.4-1.1.4 0-1.2 1.1.4 1.1zm.2-21.9c.5.9 2.2-2.8-.8-2.2.6-.4-1.2 1.9.8 2.2zm-.2-22.7c-.4.5-.5.8 0 0 .9-.5-.9-2.1 0 0zm.2-65c.7.6 1.4-1.8-.8-2.2.6-.4-1.2 1.9.8 2.2zm0-21.7c1.2 1.4.1-5.2-.5-1.3.4-.2-1.2 1.8.5 1.3zm-.2-23.2c-.3.3 1.1-1.1 0 0 0 0-1 .9 0 0zm.2-21.2c1.7.7-.6-4.2-.8-.8.3-.6-.8 1.6.8.8zm.3-21.6c2.5.4-1.3-5.2-1-1.1.5-0-1.1 2.4 1 1.1zm-.3-22.2c1.2.8.1-3.4-.5-.8.3 0-1.1 1.5.5.8zm0-21.4c1.8-.1-.5-4.9-.8-1.1.3.1-.7 1.8.8 1.1zm0-22.5c1.7.7-.6-4.2-.8-.8.3-.6-.8 1.6.8.8zm0-21.9c1.7.7-.6-4.2-.8-.8.3-.6-.8 1.6.8.8zm-.2-44.4c.1-.3.9-1.1-.5-.8.2-.5-.5 2.8.5.8zm.2-20.6c2.2.5-.4-5.4-.8-1.3.5-.5-1.1 1.2.8 1.3zm0-22.2c1.9-.2-.6-4.7-.8-1 .4-.6-.9 1.8.8 1zm5 492.8c.9.5 3.2-2.9-.8-1.1 0 .5-.8 1 .8 1.1zm.3-109.3c2.6 1.5 1-5.2-1.3-1.1.1-.3-.4 1.6 1.3 1.1zm-.3-43.6c-.9-.7-.8-1.6 0 0 2.5 2.1.9-5.7 0 0zm0-21.9c.9 1.2 3.8-3.3-.9-2.3.4.1-.9.9.9 2.3zm0-65.8c-.9-.7-.8-1.6 0 0 2.5 2.1.9-5.7 0 0zm0-22.4c.9.5 3.2-2.9-.8-1.1 0 .5-.8.9.8 1.1zm0-43.4c.9 1.2 3.8-3.3-.9-2.3.3 0-.9 1.1.9 2.3zm0-44.4c-.7-.2-1-.3 0 0 2 1.3.8-3.7 0 0zm0-109.6c-.7-.2-1.2-.2 0 0 2.8.6-.3-3.8 0 0zm.3 394.4c-.8 0-.8 0 0 0 2 .4-.7-2.8 0 0zm-.3-21.7c-.4-.5-.3-1.1 0 0 1.1 1.5.9-3.5 0 0zm.3-43.5c.5.9 2.2-2.8-.8-2.2.6-.4-1.2 1.9.8 2.2zm0-153.5c.7.6 1.4-1.8-.8-2.2.6-.4-1.2 1.9.8 2.2zm0-44.7c1.2.2.1-2.1-.8.1.3.1 0 0 .8-.1zm0-43.1c.7 1.3.9-3.8-.3-1.1.5 0-1.5 1.2.3 1.1zm-.3-22.2c0 .9 2.2-1.5.3-1.3-.3 0-1.6-.1-.3 1.3zm.3-88.2c-.5.2-.9.2 0 0 1.1.3-.1-1.9 0 0zm0-21.9c-.5.2-.8.2 0 0 1 .3.1-1.9 0 0zm0 482.1c.1 0 .5-.9 0 0 .1 0-.6 1 0 0zm0-175.4c.1 0 .5-.9 0 0 0 0-.6 1 0 0zm0-21.9c.1 0 .5-1 0 0 0 0-.6 1 0 0zm0-197.3c.1 0 .5-1 0 0 0 0-.6.9 0 0zm0-22c.1 0 .5-.9 0 0 0 0-.6 1 0 0zm4.1 99.7c1.1 2 3.4-3.8-.8-1.6 0 .6-1.2 1.3.8 1.6zm0-43.8c1.1 2 3.4-3.8-.8-1.6 0 .6-1.2 1.2.8 1.6zm.3 328.7c.9.5 3.2-2.9-.8-1.1 0 .5-.8.9.8 1.1zm0-87.8c-.7-.2-1.2-.2 0 0 2.8.6-.3-3.8 0 0zm0-218.7c2.3 1.8 1.4-5.8-1-1.4 0 .7 0 0 1 1.4zm0-44.1c2.9-.1-.5-4.8-1.2 0zm0 372.5c-.4-.5-.3-1.1 0 0 1.1 1.5.9-3.5 0 0zm0-44.7c.1-.1.4-.4.5-.5.2-.2-1.7 1.7-.5.5zm0-43.8c.1-.1.4-.4.5-.5.2-.2-1.7 1.7-.5.5zm0-65.8c.1-.1.4-.4.5-.5.2-.2-1.7 1.7-.5.5zm.2-21.4c-.8 0-.8 0 0 0 2 .4-.7-2.8 0 0zm-.2-21.7c0 .9 2.2-1.5.3-1.3-.3 0-1.6-.1-.3 1.3zm.2-21.9c.9.8.8-3.5-.3-.8.3 0-1.3 1.5.3.8zm0-21.7c.7.6 1.4-1.8-.8-2.2.6-.4-1.2 1.9.8 2.2zm0-21.9c.7.6 1.4-1.8-.8-2.2.6-.4-1.2 1.9.8 2.2zm0-22.7c-.8.8-.8.8 0 0 1.6-.5-1.3-2.3 0 0zm0-131.6c-.5.2-.8.1 0 0 1.2.2.1-2.1 0 0zm-.2-21.4c-.5-.4-.5-.8 0 0 1.6 1 .4-2.4 0 0zm.2 459.7c.3-.4.3-.6-.3.5.2-.1.3-.3.3-.5zm0-153.5s.6-.9 0 0c-.1 0-.5.9 0 0zm5.3 165.8c2.7 2 1.5-6-1-1.6.4.1-1.4 1.4 1 1.6zm0-43.9c2.7 2 1.5-6-1-1.6.4.1-1.4 1.5 1 1.6zm-.8-22.4c1.3 2.1 4.4-3.4.6-1.6-.8.5 0 0-.6 1.6zm.8-153c2 1.3 1.4-5.3-.8-1.6.4.2-1.7 1.3.8 1.6zm0-109.7c2.2 1.8 2-4.8-.8-1.5.4.1-1.7 1.5.8 1.5zm-.8-87.4c1.1 1.6 5.2-3.3.1-3.2 0 .6-.7 1.1-.1 3.2zm.8-44.1c2.2 1.8 2-4.8-.8-1.5.5.1-1.7 1.4.8 1.5zm0 438c1.9 1.3 1.1-3.7-.5-1.1.2.2-1 .9.5 1.1zm0-152.9c.7 1.2 3.1-3.3-.8-2.3.3 0-.8.8.8 2.3zm0-263.7c.5 1.3 2.6-2.4-.3-1.1.3.2-1.3.7.3 1.1zm.2 328.1s1-.9 0 0c0 0-.9 1 0 0zm0-21.9s1-.9 0 0c0 0-.9 1 0 0zm0-21.9s1-.9 0 0c0 0-.9 1 0 0zm0-43.1c-.4-.4-.5-.8 0 0 1.6 1 .4-2.4 0 0zm0-44.6c.1-.1.4-.4.5-.5.2-.2-1.8 1.8-.5.5zm0-43.9c-.3.3 1.1-1.1 0 0 0 0-.9 1 0 0zm0-87.7c-.3.3 1.1-1.1 0 0 0 0-.9.9 0 0zm.3-109.1c-.5.4-.8.5 0 0 1.6-.2-1.6-2.5 0 0zm-.3-22.2c.1.1 1-.6 0 0 0 0-.9.6 0 0zm4.5 384.7c1.7 1.8 2.5-6.2-1.1-1.5.1.5-1 1.7 1.1 1.5zm0-21.9c2.7 2 1.5-6-1-1.6.4.1-1.4 1.5 1 1.6zm0-22.4c.9 1.9 3.3-3.9-1.1-1.1-.1.7-.7.9 1.1 1.1zm0-43.3c2.7 2 1.5-6-1-1.6.4.1-1.4 1.4 1 1.6zm0-153.5c2.7 2 1.5-6-1-1.6.4.1-1.4 1.4 1 1.6zm0-21.9c1.5 1 3.8-3.5-1.3-2.3.2.7-.6 1.3 1.3 2.3zm-.3-22.2c-.9-.8-.7-1.3 0 0 1.2 2 3.3-4.5 0 0zm.3-21.7c2 1.3 1.4-5.3-.8-1.6.4.1-1.7 1.4.8 1.6zm0-43.8c1.4.6 3.3-4.2-1-1.4.1.6-1 1.3 1 1.4zm.2 460.2c2.6 1.1-.1-5.2-1.1-1.1.5-.4-1.2 1.5 1.1 1.1zm-.2-22.2c1.9 1.3 1.1-3.7-.5-1.1.2.2-1.1.7.5 1.1zm0-21.9c1.9 1.3 1.1-3.7-.5-1.1.1.4-.8.8.5 1.1zm.2-131.4c2.6 1.1-.1-5.2-1.1-1.1.5-.4-1.2 1.5 1.1 1.1zm-.2-44.1c.8 1.1 1.9-1.8-.8-1.3.1.6-.3.6.8 1.3zm0-43.6c1.7.4.8-4.3-.5-1.1.4 0-1.3 1.2.5 1.1zm0-65.8c1.7.4.8-4.3-.5-1.1.4-0-1.3 1.2.5 1.1zm0-109.8c1.9 1.3 1.1-3.7-.5-1.1.2.2-1 .7.5 1.1zm0 371.9c.1 0 .5-1 0 0 0 0-.6.9 0 0zm.2-21.9c.1-.1.4-.4.5-.5-.1.1-.1.1-1 1 .2-.2.4-.3.5-.5zm0-153.5s1-.9 0 0c0 0-.9 1 0 0zm0-43.9s1-.9 0 0c0 0-.9 1 0 0zm0-197s1-.6 0 0c0 .1-.9.5 0 0zm5.2 252.9c1.3 1.9 3.9-3.6-1-1.7 0 .7-1.2 1.3 1 1.7zm-.2-196.8c1.9 2.3 3.6-6-.8-1.9.4.2-1.7 1.3.8 1.9zm.2 438.3c-.9-.7-.8-1.6 0 0 2.7.8 1.1-5.3 0 0zm0-109.6c-.9-.7-.8-1.6 0 0 2.7.8 1.1-5.3 0 0zm.3-22c1.7 1.8 2.5-6.3-1.1-1.6.3.2-1.3 1.4 1.1 1.6zm-.3-154c-.7-.2-1.1-.3 0 0 2.5.2.6-3.6 0 0zm0-43.8c.9.5 3.2-2.9-.8-1.1 0 .5-.8.9.8 1.1zm.3-21.5c2.6.9.3-5.4-1.1-1.6.3.1-1.3 1.5 1.1 1.6zm-.3-131.5c2.4 1.8 1.4-5-.8-1.4.3.2-1.2 1.1.8 1.4zm.3 459.6c1.2.9.6-3-.5-.8.3.1-1.2 1 .5.8zm0-21.3c2.4.2-.2-4.4-.8-1.1.5-.4-1.1 1.1.8 1.1zm0-22.5c-.8 0-.8 0 0 0 2 .4-.7-2.8 0 0zm0-21.4c2.4.2-.2-4.3-.8-1.1.5-.4-1.1 1.1.8 1.1zm0-87.7c1.1 1.2 1.5-4.8-.8-.8.4-.3-.9 1.1.8.8zm0-44.1c1.4 1.7.6-3.4-.5-1.1.2.2-1 .7.5 1.1zm0-87.5c2.4.2-.2-4.3-.8-1.1.5-.4-1.1 1.1.8 1.1zm0-65.8c2.4.2-.2-4.3-.8-1.1.5-.4-1.1 1.1.8 1.1zm0-87.9c.8 1.1 1.9-1.8-.8-1.3.1.5-.3.5.8 1.3zm-.3-43.9c1 1.2 1.3-2.4-.2-.8.2.1-.8.5.2.8zm.3 350.1s.6-.9 0 0c-.1 0-.5 1 0 0zm0-43.9s.6-.9 0 0c-.1 0-.5 1 0 0zm.3-65.5c1-.1-.9-1.8-.5.1.2.1 0 0 .5-.1zm4.2 33.9c2.5 1.9 2.3-6-1.3-1.6.1.6-1.1 1.7 1.3 1.6zm-.3-65.5c0 1.5 4.6-2.1.7-3-1.1-.3-3 1.5-.7 3zm-.3-109.6c-.8-.9-.5-1.8 0 0 3.1 2 2.5-5.6 0 0zm.8 372.2c3.3 1.4 0-5.2-1.3-1.1.1-.3-.4 1.6 1.3 1.1zm-.2-44.1c-.7-.2-1.1-.3 0 0 2.5.2.6-3.6 0 0zm0-43.4c1.2 1.1 3.4-3.4-.9-2.3.2.6-.6 1.4.9 2.3zm-.3-21.9c1.4 1.3 1.7-5.3-.3-1.6.5.1-1.4.9.3 1.6zm.3-44.4c.9.5 3.2-2.9-.8-1.1 0 .5-.8 1 .8 1.1zm0-21.3c-1-.7-.8-1.6 0 0 2.5 2.1.9-5.7 0 0zm0-109.7c2.4 1.8 1.4-5-.8-1.4.3.2-1.2 1.2.8 1.4zm0-22.4c-.7-.2-1.1-.3 0 0 2.5.2.6-3.6 0 0zm0-21.4c1.5 1.7 2.9-5.2-.7-1.2.3.1-1.3 1.1.7 1.2zm0-21.9c2.9 1.4 1.3-5.6-.8-1.7-.1.5-.2 1 .8 1.7zm0-43.9c2.4 1.8 1.4-5-.8-1.4.3.2-1.2 1.1.8 1.4zm-.3-22.2c-.7-.8-.6-1.5 0 0 .7 1.7 3.6-3.6 0 0zm.3-21.6c1.2 1.1 3.4-3.4-.9-2.3.4-0-1 .9.9 2.3zm.2 416.1c1.7.7-.6-4.2-.8-.8.4-.5-.9 1.5.8.8zm0-197.2c2 1.1-.2-5-.8-1 .2-.3-.5 1.8.8 1zm0-21.9c.7 1.3.9-3.8-.3-1.1.5 0-1.5 1.2.3 1.1zm0 262.1s.6-1 0 0c0 0-.6 1 0 0zm0-87.7s.6-1 0 0c0 0-.6.9 0 0zm0-65.8s.6-.9 0 0c0 0-.6.9 0 0zm5.2 165.8c3.4 1 1.6-5.6-1.1-1.7.3.2-1.3 1.4 1.1 1.7zm0-66.1c1.1 2 3.4-3.8-.8-1.6-0 .6-1.2 1.3.8 1.6zm0-21.9c1.1 2 3.4-3.8-.8-1.6-0 .6-1.2 1.2.8 1.6zm0-43.6c3.1.7 1.1-5.3-1.2-1.6.1.6-.9 1.6 1.2 1.6zm-.8-43.6c.8 1.9 5.3-3.1 1.4-3.1-.7.4-2.1.1-1.4 3.1zm.8-154c-.8-.3-1.3-.5 0 0 3 2.2.5-6.2 0 0zm0-43.9c.9 1.8 3.7-3.2-.5-1.7-.1.5-1.6 1.3.5 1.7zm0-21.6c2.2 1.8 2-4.8-.8-1.5.4.1-1.7 1.4.8 1.5zm0-22c2.2 1.8 2-4.8-.8-1.5.4.1-1.6 1.5.8 1.5zm.3 219.1c2.6 1.1-.1-5.2-1.1-1.1.5-.4-1.2 1.5 1.1 1.1zm0-43.9c.9 1.6 2.5-4.8-.8-1.1.2.4-1.2 1.5.8 1.1zm-.3-22.1c.5 1.3 2.6-2.4-.3-1.1.3.2-1.3.6.3 1.1zm.3-175.3c1.8 1.3.6-4.3-.8-1.1.2.4-1.2 1.5.8 1.1zm0 415.6c-.3.3 1.1-1.1 0 0-.1 0-1 1.1 0 0zm0-21.9c.4-.4.6-.6-.5.5.1-.1.4-.3.5-.5zm0-65.8c.4-.4.6-.6-.5.5.1-.1.4-.3.5-.5zm.3-43.3c-.8 0-.8 0 0 0 2 .4-.7-2.8 0 0zm0-65.5c.9.8.8-3.5-.3-.8.4 0-1.4 1.5.3.8zm-.3-66.6c.1-.1.4-.4.5-.5-.1.1-.1 0-1 1 .1-.1.4-.3.5-.5zm0-175.4c-.3.3 1.1-1.1 0 0 0 0-1 .9 0 0zm0-43.9c.4-.4.6-.7-.5.5.1-.1.4-.3.5-.5zm3.4 450.6c-.6-1.2-.5-1.8 0 0 2.7 2.6 4.5-5.1 0 0zm.8-284.8c2 2.8 4.7-5.8-1-1.7 0 .7-1.3 1.1 1 1.7zm.3 263.1c2.7 2 1.5-6-1-1.6.4.1-1.4 1.4 1 1.6zm0-109.6c2.7 2 1.5-6-1-1.6.4.1-1.4 1.4 1 1.6zm.2-21.9c3.7 1.8-.6-7.2-1.6-.3.6.1 0 0 1.6.3zm-.2-22c2.7 2 1.5-6-1-1.6.4.1-1.4 1.5 1 1.6zm-.3-22.2c2.2 2.1 2.3-5-.6-1.6.3.3-1.5 1 .6 1.6zm.3-21.9c1.1 2 3.4-3.8-.8-1.6 0 .6-1.3 1.3.8 1.6zm0-43.8c1.2 2.1 3.4-3.8-.8-1.6 0 .6-1.3 1.2.8 1.6zm0-65.5c2 1.3 1.4-5.3-.8-1.6.4.2-1.7 1.4.8 1.6zm.2-22c-1-.2-1.6-.3 0 0 3.7 1.8-.6-7.2 0 0zm-.5-21.6c.8 1.5 4.3-3.3-.5-3.3 0 .3-.9 2.2.5 3.3zm.3-66.3c-1.2-.8-1-1.5 0 0 .7 1.7 4.5-3.4 0 0zm0 372.4c1.9 1.3 1.1-3.7-.5-1.1.2.2-1 .9.5 1.1zm0-43.8c1.9 1.3 1.1-3.7-.5-1.1.2.2-1.1.7.5 1.1zm.2 130.8c-.3.3 1.1-1.1 0 0 0 0-.9.9 0 0zm0-65.8s.9-1 0 0c0 0-1.1 1.1 0 0zm.2-43.6c1.7.1-1.3-2-.8.1.4.1 0 0 .8-.1zm-.2-153.8s.9-.9 0 0c0 0-.9 1 0 0zm0-153.2c0-.1.9-.5 0 0 0 0-.9.6 0 0zm0-21.9c0-.1.9-.5 0 0 0 .1-.9.5 0 0zm.2 460.2c.3-.4.3-.6-.3.5.2-.1.3-.3.3-.5zm4.2 12.5c-.5-1-.2-2 0 0 3 2.5 4-6.3 0 0zm-.2-131.5c.7 1.9 6.2-3.3 1.5-3.1-.8.3-2.5.1-1.5 3.1zm1-131.6c3.8 1.9 2.4-6.3-1.2-1.9-.1.5-.2 1 1.2 1.9zm0-109.6c3.8 1.9 2.4-6.3-1.2-1.9-.1.5-.2 1 1.2 1.9zm0-87.7c2.4 2.3 2.6-5.6-1-1.8.1.6-1.4 1.5 1 1.8zm0-22c3.8 1.5 2-5.8-1.3-1.8 0 .5-.1 1 1.3 1.8zm.3 460.2c2.7 2 1.5-6-1-1.6.4.1-1.4 1.5 1 1.6zm-.3-175.3c2.3.9 1.7-5.3-.6-1.6.4.1-1.5 1.2.6 1.6zm0-88c-.9-.8-.7-1.3 0 0 1.2 2 3.3-4.5 0 0zm0-22c-.9-.7-.7-1.3 0 0 1.2 2 3.3-4.5 0 0zm.3-21.7c2 1.3 1.4-5.3-.8-1.6.4.2-1.7 1.4.8 1.6zm-.3-66c-.9-.7-.7-1.5 0 0 .7 1.8 3.8-3.4 0 0zm.3 350.6c1.9 1.3 1.1-3.7-.5-1.1.2.2-1 .7.5 1.1zm-.3-21.9c.2 1.4 2.1-3.2.3-1.1.2.2-1.4.5-.3 1.1zm.3-87.5c2.4.2-.2-4.3-.8-1.1.5-.4-1.1 1.1.8 1.1zm0-22.2c.8 1.1 1.9-1.8-.8-1.3.1.6-.3.6.8 1.3zm0-44.1c-.8 0-.8 0 0 0 1 .2 1.3-1.9 0 0zm0-21.6c1.9 1.3 1.1-3.7-.5-1.1.2.2-1 .7.5 1.1zm0-197.4c.4 1.3 1.9-1.9 0-.8.1-0-1.6.4 0 .8zm0 350s.6-.9 0 0c0 0-.6 1 0 0zm.3-21.9c.4-.4.6-.6-.5.5.1-.1.2-.3.5-.5zm0-241.1c-.3.3 1.1-1.1 0 0 0 .1-1 .8 0 0zm0-153.3c-.4.5-.5.8 0 0 .9-.5-.9-2.1 0 0zm4.1 384.5c.8 2.1 5.1-4.4-.9-1.6 0 .6-1.3 1.3.9 1.6zm-.3-152.9c0 1.5 4.6-2.1.7-3-1.1-.3-3 1.4-.7 3zm.3-22.2c1 2 2.9-4.5-.4-1.5.6.1-1.6.9.4 1.5zm-.3-22.2c.7 1.7 3.6-3.6-.6-1.5-.1.7 0 0 .6 1.5zm0-43.9c.7 1.7 3.6-3.6-.6-1.5-.1.7 0 0 .6 1.5zm.6-44.1c1.4 1.3 2.3-2.5-1.1-1.1-.1.7-.7 1 1.1 1.1zm-.3-21.4c1.5 1.7 2.9-5.2-.7-1.2.3.1-1.3 1.1.7 1.2zm0-21.9c1.5 1.7 2.9-5.2-.7-1.2.3.1-1.3 1.1.7 1.2zm0-43.9c2.4 1.8 1.4-5-.8-1.4.3.2-1.2 1.1.8 1.4zm0 481.9c-.4-.5-.3-1.1 0 0 1.1 1.5.9-3.5 0 0zm.3-21.7c2.4.2-.2-4.3-.8-1.1.5-.4-1.1 1.1.8 1.1zm0-43.8c2.4.2-.2-4.3-.8-1.1.5-.4-1.1 1.1.8 1.1zm0-88c1.4 1.7.6-3.4-.5-1.1.2.2-1.1.7.5 1.1zm0-22c1.9 1.3 1.1-3.7-.5-1.1.2.2-1 .9.5 1.1zm0-43.8c.8 1.1 1.9-1.8-.8-1.3.1.6-.3.6.8 1.3zm0-22.2c-.8 0-.8 0 0 0 1 .2 1.3-1.9 0 0zm0-87.7c-.8 0-.8 0 0 0 2 .4-.7-2.8 0 0zm.2-131.5c1.5.6.1-3-.8-.4-0 .4-.8 1.6.8.4zm0 372.2c.1-.1.4-.4.5-.5.2-.2-1.7 1.7-.5.5zm0-43.6c1-.1-.9-1.8-.5.1.2.1 0 0 .5-.1zm0-66c.1-.1.4-.4.5-.5.2-.2-1.7 1.7-.5.5zm0-175.2c1-.1-.9-1.8-.5.1.2.1 0 0 .5-.1zm3.7 340.9c1.5 2.8 6.2-3.5.7-3-.6 1.1-1.2.7-.7 3zm0-153.4c1.4 2.6 6.1-2.7 1.1-3-1 1.1-1.3.6-1.1 3zm0-109.7c1.4 2.6 6.1-2.7 1.1-3-1 1.1-1.3.7-1.1 3zm1.3 175.2c1.2 2.1 3.4-3.8-.8-1.6-0 .6-1.3 1.2.8 1.6zm0-22c1.2 2.1 3.4-3.8-.8-1.6-0 .6-1.3 1.2.8 1.6zm0-65.7c1.1 2 3.4-3.8-.8-1.6-0 .6-1.3 1.2.8 1.6zm-.2-284.6c-1-.9-.5-1.8 0 0 3.1 2 2.5-5.6 0 0zm.7 503.8c3.5 1.4-.4-5.3-1.2-1.4.1.5-1 1.8 1.2 1.4zm0-65.8c3.5 1.4-.4-5.3-1.2-1.4.1.5-1 1.8 1.2 1.4zm-.2-197.5c2.3.7.7-3-.9-1-.1.6-.7.8.9 1zm0-153.1c-1.1-.5-.9-1.4 0 0 3 1.5.4-5.2 0 0zm.2 393.9c1.2.9.6-3-.5-.8.3.1-1.2 1 .5.8zm-.2-65.5c0 .9 2.2-1.5.3-1.3-.3 0-1.6-.1-.3 1.3zm.2-87.4c.7.6 1.4-1.8-.8-2.2.6-.4-1.2 1.9.8 2.2zm-.2-66c0 .9 2.2-1.5.3-1.3-.2.1-1.6-.4-.3 1.3zm.2-43.6c.7 1.3.9-3.8-.3-1.1.5 0-1.5 1.2.3 1.1zm-.2-44.1c0 .9 2.2-1.5.3-1.3-.2.1-1.7-.4-.3 1.3zm.2-66.3c-.5.1-.8.1 0 0 1.2.2.1-2.1 0 0zm-.2-43.4c1 1.2 1.3-2.4-.2-.8.2-0-.8.4.2.8zm.2-22.4c-.5.5-.8.8 0 0 1.6-.5-1.3-2.3 0 0zm-.2-22.2s.9-1 0 0c0 0-1 .9 0 0zm.2 372.7s.6-.9 0 0c0 0-.6 1 0 0zm0-241.1s.6-1 0 0c0 0-.6.9 0 0zm2.9 253.4c1.5 2.6 6.6-3.5.7-3-.7 1.1-1.1.7-.7 3zm1-65.5c3.2 2.7 2.5-7.3-1.1-2.1.5.2-1.9 1.7 1.1 2.1zm-1-175.7c1.3 2.6 6-2.9 1.2-3-1 1.1-1.3.7-1.2 3zm1.3 328.7c1.1 2 3.4-3.8-.8-1.6 0 .6-1.2 1.2.8 1.6zm0-21.7c2 1.3 3.1-5.5-1.1-1.6.3.2-1.3 1.4 1.1 1.6zm-.8-153.3c-.4-.9-.2-1.8 0 0 2.7 2.3 4.7-5.9 0 0zm0-65.7c.8 1.9 5.3-3.1 1.4-3.1-.7.4-2.1 0-1.4 3.1zm.8-21.9c-1.2-1-1.1-1.8 0 0 3 2 2.2-6.1 0 0zm.3-22.2c2.8 1.4 2.1-5.4-1.4-1.6.1.7-1 1.6 1.4 1.6zm0-65.8c1.1 1.1 4.3-3.3-1.6-2.3.1.6-.5 1.8 1.6 2.3zm-.3-21.9c2.2 1.8 2-4.8-.8-1.5.4.1-1.7 1.4.8 1.5zm-.3-21.7c1.3.2 4.4-2.8-.6-3.1-.1 1.1-.9 1.4.6 3.1zm.3 284.2c1.9 1.3 1.1-3.7-.5-1.1.2.2-.9.9.5 1.1zm.3-87.7c1.9 1.7.8-3.4-.8-1.1-0 .5-.8 1 .8 1.1zm-.3-262.8c.7.9 3.5-1.2-.4-2.1-.2.8-.7.7.4 2.1zm.3-21.7c2.4 1.8 1.4-5-.8-1.4.3.2-1.2 1.1.8 1.4zm0 415.3c-.3.3 1.1-1.1 0 0 0 0-1.1 1.1 0 0zm0-65.7s.9-1 0 0c0 .1-1 .9 0 0zm0-87.8s.9-.9 0 0c0 0-1.1 1.1 0 0zm.2-86.9c.9.8.8-3.5-.3-.8.3 0-1.3 1.5.3.8zm-.2-132.3s.9-1 0 0c0 0-1 .9 0 0zm.2 394.7s.6-1 0 0c-.1 0-.5.9 0 0zm5 56.3c3.2 2.7 2.5-7.3-1.1-2.1.5.2-1.9 1.7 1.1 2.1zm0-153.4c3.2 2.7 2.5-7.3-1.1-2.1.5.2-1.9 1.6 1.1 2.1zm.2-21.7c4.3.9.1-7.3-1.6-2.1.5.2-1.8 2 1.6 2.1zm-.2-153.8c3.8 1.9 2.5-6.3-1.2-1.9-.1.5-.2 1 1.2 1.9zm0-131.5c3.6 2.3 2.6-6.2-.7-2.1.4.2-2.2 1.5.7 2.1zm0-43.9c3.2 1.1 3-5-1.1-1.8 0 .7-1.3 1.5 1.1 1.8zm.2 481.9c1.1 2.1 4.1-4.6-1-1.6-.2.7 0 0 1 1.6zm-.2-43.9c2.2 2.1 2.3-5-.6-1.6.3.3-1.5 1 .6 1.6zm.2-131.2c2.7 2 1.5-6-1-1.6.4.2-1.4 1.3 1 1.6zm0-65.6c3.1.6 1-6.3-1-1.6.2 0-1.1 1.9 1 1.6zm0-22.2c2.7 2 1.5-6-1-1.6.3.1-1.3 1.4 1 1.6zm0-87.7c2 1.3 1.4-5.3-.8-1.6.4.1-1.6 1.4.8 1.6zm0-65.8c2 1.3 1.4-5.3-.8-1.6.4.1-1.6 1.5.8 1.6zm.3 394.5c2.6 1.1-.1-5.2-1.1-1.1.5-.4-1.2 1.5 1.1 1.1zm-.3-262.9c.7 1.2 3.1-3.3-.8-2.3.3 0-.7 1 .8 2.3zm0-44.4c-.5-.2-.8-.3 0 0 1.8.4 1-2.5 0 0zm0-65.8c-.7-.4-.8-.9 0 0 2.2.3.3-2.3 0 0zm.3 306.2s1-.9 0 0c0 0-.9 1 0 0zm0-21.9s1-.9 0 0c0 0-.9 1 0 0zm0-87.4s1-.6 0 0c0 .1-.9.5 0 0zm0-22c1-.1-.9-1.8-.5.1.2.1 0 0 .5-.1zm0-153.4s1-.6 0 0c0 .1-.9.5 0 0zm0-87.8s1-.6 0 0c0 0-.9.6 0 0zm4.2 473c4.2.9 1.4-7.3-1.3-2.1 0 .7-.2 1.3 1.3 2.1zm-1.4-88.5c.1 1.6 6.6-1.6 1.9-2.4-1.1.1-2.1 0-1.9 2.4zm1.4-21.4c3.8 1.9 2.5-6.2-1-2.1.5.2-1.9 1.6 1 2.1zm0-153.2c3.7 1.1 2.1-7.2-1.1-2.1.8.1-2.3 1.5 1.1 2.1zm0-153.7c3.9 2.3 2.3-6.4-1-2.2.5.2-1.9 1.5 1 2.2zm0 284.5c2.2 2.1 2.3-5-.6-1.6.3.3-1.5 1 .6 1.6zm0-22c2.1 1.7 1.6-4.5-.5-1.6.4.2-1.5 1 .5 1.6zm.3-65.5c2.7 2 1.5-6-1-1.6.4.1-1.4 1.5 1 1.6zm-.3-87.9c-1-.8-.7-1.3 0 0 1.2 2 3.3-4.5 0 0zm0-174.7c3.1.5 1.2-6.9-.8-1.9 0 .6-.2 1.2.8 1.9zm.3 284.3c2.4.2-.2-4.3-.8-1.1.5-.4-1.1 1.1.8 1.1zm0-44.1c.4 1.3 1.9-1.9 0-.8.2 0-1.7.4 0 .8zm0-43.9c.8 1.1 1.9-1.8-.8-1.3.1.6-.3.6.8 1.3zm0-87.7c2.2.3.3-2.3-.8-.9 0 .5 0 0 .8.9zm0-21.9c.4 1.3 1.9-1.9 0-.8.1 0-1.6.5 0 .8zm0-43.6c1.7.4.8-4.3-.5-1.1.4 0-1.3 1.2.5 1.1zm0 415.6c.1 0 .5-1 0 0 0 0-.6.9 0 0zm.2-153.5s.9-1 0 0c0 0-1 .9 0 0zm0-153.3c0-.1.9-.5 0 0 0 0-1 .6 0 0zm0-21.9c0-.1.9-.5 0 0 0 0-1 .6 0 0zm0-109.6c.4-.3.6-.3-.5.3.1-.2.3-.2.5-.3zm4.4 78.3c1.5 1.7 6.3-3.7.1-3.4-.4.6-1.8 1.8-.1 3.4zm.3-21.9c4.1 2.5 3.5-6.5-1-2.3-.1.6-.3 1 1 2.3zm.2 416.3c3 2.5 1.5-7.3-.8-2.1-.1.6-.3 1.1.8 2.1zm-1-22.4c.1 1.6 6.6-1.6 1.9-2.4-1 .2-2.2-.1-1.9 2.4zm1.3-65.5c3.1.5 2.1-5.2-1.3-1.6.1.6-1 1.6 1.3 1.6zm-.5-109.6c1.6 1.8 4.7-3.2-.2-2.5-.6.9-1.2.4.2 2.5zm-.8-22.2c-.1-1 .3-1.7 0 0 1.1 2.4 6.1-3.5 0 0zm1.3-87c2.9.7 3.9-4.3-1.5-3.4.2.8-.8 2.3 1.5 3.4zm-1.3-176.2c-.1-.8.3-1.7 0 0 1.1 2.4 6.1-3.5 0 0zm1.3 328.7c-.7-.2-1.1-.3 0 0 2.5.2.6-3.6 0 0zm0-22c.9.5 3.2-2.9-.8-1.1 0 .5-.8 1 .8 1.1zm0-65.2c-.9-.7-.8-1.6 0 0 2.7.8 1.1-5.3 0 0zm-.3-22.2c.7 1.7 3.6-3.6-.6-1.5-0 .7-0 0 .6 1.5zm.3-65.6c1.5 1.7 2.9-5.2-.7-1.2.3.1-1.2 1.2.7 1.2zm0-44.3c-.7-.2-1.1-.3 0 0 2.5.2.6-3.6 0 0zm-.3-65.6c-.6-.7-.6-1.5 0 0 .7 1.7 3.6-3.6 0 0zm.3 394.5c.2 1.4 2.1-3.2.3-1.1.2.2-1.3.5-.3 1.1zm.3-21.7c2.4.2-.2-4.3-.8-1.1.5-.4-1.1 1.1.8 1.1zm0-43.8c2.4.2-.2-4.3-.8-1.1.5-.4-1.1 1.1.8 1.1zm-.3-22.2c-.4-.5-.3-1.1 0 0 1.1 1.5.9-3.5 0 0zm0-153.5c0 .9 2.2-1.5.3-1.3-.3 0-1.6-.1-.3 1.3zm.6-175.7c1.5.6.1-3-.8-.4 0 .4-.9 1.7.8.4zm-.3-43.3c1.9.8-.1-3.6-.8-.7 0-0-.2 1.4.8.7zm0 152.5c.1 0 .5-1 0 0 0 0-.6.9 0 0zm2.9 253.4c.9 2 7.3-1.4 1.8-3.4-.8.6-2.3-.1-1.8 3.4zm1.3-21.7c3.5 1.1 3.2-6.1-1.3-2.1.1.7-1.5 2 1.3 2.1zm-.3-372.5c2.5 2.6 4.2-5.6-.3-3.5-.8 1.3-1.5 2 .3 3.5zm.8 482.2c4.7 1.8-1-9.5-2-.1.3.1.8-.2 2 .1zm-.5-65.6c1.6-.3 4.3-4.7-1.3-3.4.2.7-.7 2.4 1.3 3.4zm0-88.5c1.3 1 4.1-3.7-.8-1.6 0 .6-1.3 1.3.8 1.6zm.2-43.5c3.1.5 2.1-5.2-1.3-1.6.1.6-1 1.6 1.3 1.6zm0-87.2c3 2.6 1.5-7.7-1-2.1.3.1-1.4 2 1 2.1zm0-109.6c3 2.6 1.5-7.7-1-2.1.8.2-2.2 1.3 1 2.1zm0 349.8c.9.5 3.2-2.9-.8-1.1-0 .5-.8.9.8 1.1zm0-87.3c1.2 1.1 3.4-3.4-.9-2.3.3 0-.8 1.2.9 2.3zm.3-44.1c3.3 1.4 0-5.2-1.3-1.1.1-.3-.4 1.6 1.3 1.1zm-.3-43.6c1.2 1.1 3.4-3.4-.9-2.3.3 0-.8 1.2.9 2.3zm0-131.5c3 1.5.4-5.2-.9-1.4-.1.7 0 0 .9 1.4zm.3-66c2.9 1.4.4-4.2-1.2-1.1 0 .2-.8 1.4 1.2 1.1zm-.3-21.7c-.9-.7-.8-1.6 0 0 2.5 2.1.9-5.7 0 0zm.3 415.8c-.8 0-.8 0 0 0 2 .4-.7-2.8 0 0zm0-218.8c2 1.1-.2-5-.8-1 .2-.3-.5 1.8.8 1zm0-66.3c-.8 0-.8 0 0 0 2 .4-.7-2.8 0 0zm0-66c-.8.8-.8.8 0 0 1.4-.4-1.3-2.3 0 0zm-.3-87.2c0 .9 2.2-1.5.3-1.3-.3 0-1.6-.1-.3 1.3zm.3 196.6s.6-1 0 0c0 0-.6.9 0 0zm0-65.8s.6-.9 0 0c0 0-.6 1 0 0zm4.4 275.7c3.8 3.2 5.2-6.1-.5-2.5.4.4-2.6 1.2.5 2.5zm.8 66c5.2 1.4.8-8.5-1.6-2.1.5.2-1.7 2.1 1.6 2.1zm-.2-131.8c2.4 2.5 3.3-6.2-.8-2.1.4.2-2.3 1.5.8 2.1zm-1.1-175.7c1.3 2 6-1.4 1.1-3.4-.2.7-1.3.8-1.1 3.4zm1.3-21.7c3.8 2.4 1.2-7.6-1.9-1.6.1.4.2.8 1.9 1.6zm0 131.4c2.7 2 1.5-6-1-1.6.4.2-1.5 1.3 1 1.6zm0-66.1c1.2 2.1 3.4-3.8-.8-1.6-0 .6-1.3 1.2.8 1.6zm.3-131.3c2.8 1.4 2.1-5.4-1.4-1.6.1.7-1 1.6 1.4 1.6zm-.3-44.2c.7 1.7 4.5-3.4-1-1.5-.1.4-.2.8 1 1.5zm.3 416.7c2.8.2-.2-4.4-1-1.1.6-.4-1.4 1.1 1 1.1zm-.3-21.7c-.8-.7-.8-1.4 0 0 1.9.7 1.6-5.5 0 0zm.3-66.3c.9 1.9 2.6-3.9-.8-1.1 0 .5-.8 1 .8 1.1zm0-109.3c.9 1.6 2.5-4.8-.8-1.1.2.4-1.2 1.5.8 1.1zm-.3-21.7c2.7.3.3-4.8-.8-1.4-0 .8-0-0 .8 1.4zm0-176c3.3.2-1.3-2.2 0 0zm.3-65.5c1.8 1.3.6-4.3-.8-1.1.2.4-1.2 1.5.8 1.1zm0 393.6c.1-.1.4-.4.5-.5-.3.3 0 0-1 1 .1-.1.3-.2.5-.5zm0-65.7c.1-.1.4-.4.5-.5-.3.3 0 0-1 1 .1-.1.3-.4.5-.5zm0-131.3c.4-.3.6-.3-.5.3.1-.2.3-.2.5-.3zm0-88c-.3.3 1.1-1.1 0 0 0 0-1 .9 0 0zm0-87.7s.9-.9 0 0c0 0-1 .9 0 0zm0-43.9c.1-.1.4-.4.5-.5-.2.2-.2.2-1 1 .1-.1.3-.3.5-.5zm.3 328.9c.1 0 .5-.9 0 0 0 0-.6 1 0 0zm4.1-9.4c3.7 2.6 1.2-7.2-1.3-2.1.1.7-1.5 2 1.3 2.1zm0-131.2c4.5.7-.3-9-1.8-.3.2 0 .5.1 1.8.3zm0-21.9c3.8 1.1 1-7.3-1.3-2.1.6.2-2.1 1.9 1.3 2.1zm-.3-65.6c5 2.1 1.5-8.3-1.4-2.4.1.7 0 1.3 1.4 2.4zm0-22.4c4.2 2.2 2.1-6.3-1.2-1.9 0 .5-.1.9 1.2 1.9zm.3 350.5c2.7 2 1.5-6-1-1.6.4.1-1.4 1.4 1 1.6zm0-21.9c2.7 2 1.5-6-1-1.6.4.1-1.4 1.4 1 1.6zm-.8-21.7c-.3-1 0-2 0 0 2.6 2.9 2.8-6.9 0 0zm.8-22.2c2.7 2 1.5-6-1-1.6.4.1-1.4 1.5 1 1.6zm.2-65.5c3.8 1.5-.1-6.5-1.3-1.6.1.1-1.1 2 1.3 1.6zm0-263.1c3.8 1.5-.1-6.5-1.3-1.6.1.1-1.1 2 1.3 1.6zm0 240.4c1.9 1.7.8-3.4-.8-1.1 0 .5-.7.9.8 1.1zm-.2-131.5c1.9 1.3 1.1-3.7-.5-1.1.2.2-1 .8.5 1.1zm0-131.6c.2 1.2 2.8-2.2.3-.8.2 0-2 .3-.3.8zm.2 481.6c-.1.1 1-1 0 0 0 0-.9 1 0 0zm0-21.9c-.3.3 1.1-1.1 0 0 0 0-1.1 1.1 0 0zm0-21.9c-.3.3 1.1-1.1 0 0-.1.1-1 1 0 0zm0-109.7c.4-.4.6-.6-.5.5.2-.2.4-.3.5-.5zm0-87.7c-.3.3 1.1-1.1 0 0 0 0-1.1 1.1 0 0zm0-20.9c.2.7 1.5-1.9-.5-1.6.3-.3-.7 1.5.5 1.6zm0-22.7c0-.1 1-.5 0 0 0 0-.9.6 0 0zm0-88s1-.9 0 0c-.1 0-.9 1 0 0zm0-64.7c.2.7 1.5-1.9-.5-1.6.3-.3-.7 1.5.5 1.6zm5.3 450c3 2.4 3.5-6.3-.8-3.3-.5 1.5-2.7 3.1.8 3.3zm0-21.9c3 2.4 3.5-6.3-.8-3.3-.5 1.5-2.7 3 .8 3.3zm-1.3-87.4c2.1 2.6 7.1-5.2.7-3.5-.4.6-1.8 1.8-.7 3.5zm0-43.9c.9 2.3 7.5-3.8 1.4-4.2-.6.1-2.6 2-1.4 4.2zm.8-197.4c4.1 3 3.6-6.4-1-2.2-.1.6-.4 1 1 2.2zm.3-21.6c5.2 2 2.4-9-1.4-2.4.2.8-1.6 2.1 1.4 2.4zm-1.1-66.3c1.4 3.3 7.5-2.8.7-3.1-.8 1.1-1.4.5-.7 3.1zm.2 197.3c1.7 1.8 5.5-3.4.3-2.8-.5 1-1 .9-.3 2.8zm1.1-65.5c4.1.2 2.1-7.4-1.6-1.9.1.6.1 1.1 1.6 1.9zm-.2-88c1.9 2.3 3.6-6-.8-1.9.4.2-1.7 1.3.8 1.9zm.2 328.7c-.9-.7-.8-1.6 0 0 2.7.8 1.1-5.3 0 0zm0-21.9c-.9-.7-.8-1.6 0 0 2.7.8 1.1-5.3 0 0zm0-109.6c1 2 2.9-4.5-.4-1.5.5.1-1.5 1.1.4 1.5zm.3 153.2c2.4.2-.2-4.3-.8-1.1.5-.4-1.1 1.1.8 1.1zm0-131.6c2.4.2-.2-4.3-.8-1.1.5-.4-1.1 1.1.8 1.1zm0-153.5c1.7.4.8-4.3-.5-1.1.4-0-1.3 1.2.5 1.1zm.2-88.2c1.5.6.1-3-.8-.4 0 .4-.8 1.6.8.4zm-.2-43.6c.8 1.1 1.9-1.8-.8-1.3.1.5-.3.5.8 1.3zm0 328.1c.1 0 .5-.9 0 0 0 0-.6 1 0 0zm.2-87.4c1-.1-.9-1.8-.5.1.2 0 0 0 .5-.1zm0-44.2c-.3.3 1.1-1.1 0 0 0 0-.9 1 0 0zm-.2-21.9c.1 0 .5-1 0 0 0 0-.6 1 0 0zm.2-197.1s1-.6 0 0c-.1-.1-.9.6 0 0zm0-21.9c.9.3-.4-1.7-.5-.4.1-.2-.3.9.5.4zm2.7 297.1c1.6 2.6 7.4-3.5.8-3-.7 1-1.3.6-.8 3zm1.2-108.9c.5 2.2 6-4.1-.1-4.5-.8.1-3.1 2.7.1 4.5zm0 306.5c1.5 1.9 3.9-4.9-.1-3.2-.7 1-1.4 1.9.1 3.2zm0-43.9c3 2.5 1.5-7.3-.8-2.1-.1.6-.3 1.1.8 2.1zm-1-66.3c.1 1.6 6.6-1.6 1.9-2.4-1 .2-2.2-.1-1.9 2.4zm0-43.9c.2 1.6 6.2-1.4 2.2-2.4-.3.3-1.4-.7-2.2 2.4zm1-284.7c-1.1-1.2-.8-1.9 0 0 .4 2.8 5.4-4.9 0 0zm.3-21.7c1.6 1.8 4.2-4.2-.6-2.9-.6.9-1.4 1.8.6 2.9zm0-21.7c4.1 1.4 2.1-6.7-1-2 .8.1-2.3 1.5 1 2zm0 460c-1-.7-.8-1.6 0 0 2.5 2.1.9-5.7 0 0zm0-153.5c1.2 1.1 3.4-3.4-.9-2.3.3.1-.9 1.1.9 2.3zm0-87.7c1.5 1.7 2.9-5.2-.7-1.2.3.1-1.3 1.1.7 1.2zm0-65.8c-1.1-.6-1-1.3 0 0 3.4 1 .6-5.1 0 0zm.2 109.1c1.4 1.7.6-3.4-.5-1.1.2.2-1 .8.5 1.1zm0-66c-.8 0-.8 0 0 0 1 .2 1.3-1.9 0 0zm.3-109.4c1.3.9 1.3-4.3-1.1-.5.1.2-.3 1.3 1.1.5zm-.3-21.6c.7 1.3.9-3.8-.3-1.1.5-0-1.5 1.2.3 1.1zm.3 349.7c-.3.3 1.1-1.1 0 0-.1 0-1 .9 0 0zm-.3-21.9s.6-1 0 0c-.1 0-.5.9 0 0zm0-43.8s.6-1 0 0c-.2.2-.4.8 0 0zm0-109.7s.6-.9 0 0c-.1 0-.5 1 0 0zm.3-109.4c.9.2-.3-1.7-.5-.4.2-.2-.4.9.5.4zm-.3-22.2s.6-.9 0 0c-.2 0-.4 1 0 0zm3.7 363.4c1.8 3.7 8.1-3.4 1-3.6-1 1.3-1.6.7-1 3.6zm.3-66c-.9-1.7-.5-2.3 0 0 3.1 3.8 7.9-6.4 0 0zm-.3-21.7c1.2 2.6 7.3-.7 2.8-3.6-.8-.5-3.8.8-2.8 3.6zm0-21.9c.6 2.7 8.5-1.3 1.8-4.1-.7 0-2.8 1.7-1.8 4.1zm0-109.7c1.5 3.1 7.3-2.8 1.3-3.5-.5.5-2.3 1.6-1.3 3.5zm.3 241c1.6 2.9 6.5-4.4.7-3-.6 1.1-1.2.7-.7 3zm0-43.9c1.9 3.1 6.8-3.2.7-3-.6 1.1-1.2.7-.7 3zm0-307c1.6 2.8 6.7-2.4 1.2-3-1 1.1-1.3.7-1.2 3zm0-65c1.5 2.2 7.5-4.3 1.3-3.9-1 .6-2.6.3-1.3 3.9zm1.2 131.3c3.3.7 1.8-6.8-1.2-1.9.1.6 0 1.2 1.2 1.9zm0-22.7c.9 2 3.7-3.8-.5-1.6-.1.5-1.6 1.2.5 1.6zm0-65c3.3.7 1.8-6.8-1.2-1.9.1.6 0 1.1 1.2 1.9zm0-22.4c2.2 1.8 2-4.8-.8-1.5.4.1-1.7 1.4.8 1.5zm0-88c.9 2 3.7-3.8-.5-1.6-.1.5-1.6 1.2.5 1.6zm0-21.9c1.1 2 3.4-3.8-.8-1.6 0 .6-1.2 1.3.8 1.6zm0 329.2c2.7.3.3-4.8-.8-1.4.1.7 0-0 .8 1.4zm.3-22.2c.9 1.6 2.5-4.8-.8-1.1.2.4-1.2 1.5.8 1.1zm0-66c.9 1.9 2.6-3.9-.8-1.1 0 .5-.8.9.8 1.1zm0 197.3c-.4-.6-.3-1.1 0 0 1.1 1.5.9-3.5 0 0zm0-263.9c-.3.3 1.1-1.1 0 0 0 0-.9.9 0 0zm0-108.9c-.5-.4-.5-.8 0 0 1.6 1 .4-2.4 0 0zm0-22.7s1-.9 0 0c0 0-.9.9 0 0zm.3 307s.6-.9 0 0c0 0-.6 1 0 0zm0-65.8s.6-1 0 0c0 0-.6 1 0 0zm3.4 209.9c3.8 3.2 5.2-6.1-.5-2.5.5.4-2.7 1.1.5 2.5zm-.3-21.5c3.1 2.3 5.8-6.7 0-3.7-.3.7-1.2 2.5 0 3.7zm0-43.8c.8 1.8 7.4-3.6.8-4.3-.6 0-2.1 2.4-.8 4.3zm.8-22.7c2.1 2.9 3.6-5.5-.8-2.1-.2.7-1.7 1.4.8 2.1zm0-21.7c3.2 2.7 2.5-7.3-1.1-2.1.5.2-1.9 1.6 1.1 2.1zm-.8-43.3c.8 1.8 7.4-3.6.8-4.3-.6 0-2.1 2.3-.8 4.3zm.5-22.2c3.5 1.5 3.8-7.3-.8-2.3-.1.6-.3 1.1.8 2.3zm.6-219.5c2.7 2.5 2.8-6.2-1.1-2.1-.1.7-1.9 1.9 1.1 2.1zm0 350.3c1.2 2.1 3.4-3.8-.8-1.6 0 .6-1.3 1.2.8 1.6zm0-284.2c3.3 1.4 1.7-6.7-1.1-1.8 0 .5-.1.9 1.1 1.8zm0-153.6c3.6.8 1.2-6.3-1.2-1.8 0 .6 0 1.1 1.2 1.8zm.2 196.6c2.8.2-.2-4.4-1-1.1.6-.4-1.4 1.1 1 1.1zm0-22.2c1.9 1.7.8-3.4-.8-1.1 0 .5-.7 1 .8 1.1zm0-109.6c1.9 1.7.8-3.4-.8-1.1 0 .5-.7.9.8 1.1zm.3 284.5c1.4.2-.4-1.6-.8-.4.1.2-.2.8.8.4zm-.3-66c.4-.4.6-.6-.5.5.2-.2.4-.3.5-.5zm.3-21.7c-.5.5-.8.8 0 0 1.6-.5-1.3-2.3 0 0zm-.3-22.2c-.3.3 1.1-1.1 0 0 0 0-.9 1 0 0zm0-21.2c.2 1.3 1.2-1.9 0-.8.2 0-1 .5 0 .8zm.3-88.2c-.5.6-.8.8 0 0 1.6-.5-1.3-2.3 0 0zm-.3-21.4c.5.6 2.2-.9-.5-1.3.1.4-.2.6.5 1.3zm0-66.5s.9-1 0 0c0 0-.9.9 0 0zm0-22s.9-.9 0 0c0 0-.9 1 0 0zm4.7 385.6c4.6 1.9 3.7-9-1.6-1.9.1.4.2.8 1.6 1.9zm0-88c3.9 3.5 4-6.5-1-2.3-.1.5-.3 1 1 2.3zm.5-87.2c5.3 2.4 2.5-8.2-1.7-2.3-.1.7-.2 1.3 1.7 2.3zm0-175.4c5 1.5 2-10.3-2.1-1.8.1.5.2.9 2.1 1.8zm0-65.7c5.1 1.6.9-9.3-2.1-1.8.1.5.2.9 2.1 1.8zm-1 502.9c1.5 2.8 6-3.9.4-2.2-.5.7-1 .3-.4 2.2zm.2-130.7c1.9 2.1 5.6-4.9.1-2.8-.5 1.1-1.1.9-.1 2.8zm.8-263.2c3.9 2.3 2.2-6.4-1-2.1.5.2-1.9 1.6 1 2.1zm0-65.7c3.7 2.2 1.5-7.6-1.6-1.6.1.4.2.7 1.6 1.6zm.3 394.4c2.7 2 1.5-6-1-1.6.3.1-1.3 1.5 1 1.6zm-.3-241.5c-.9-.7-.7-1.3 0 0 1.2 2 3.3-4.5 0 0zm.3-175.1c1.4.6 3.3-4.2-1-1.4 0 .6-.9 1.3 1 1.4zm0 460.2c2.2 0 .2-4.8-.8-1.1.5-.4-1.1 1.1.8 1.1zm-.3-22.2c-.4-.6-.3-1.1 0 0 1.1 1.5.9-3.5 0 0zm0-109.6c0 .9 2.2-1.5.3-1.3-.3 0-1.6-.1-.3 1.3zm.3-65.8c1.9 1.3 1.1-3.7-.5-1.1.2.2-1 .7.5 1.1zm0-21.9c1.5 1 .8-3.2-.5-1.1.2.2-1 .7.5 1.1zm.3-87.5c2.5 1.2-.6-4.5-1.1-1.1.5-.4-1.2 1.5 1.1 1.1zm0-21.9c2.6 1.1-.1-5.2-1.1-1.1.5-.4-1.2 1.5 1.1 1.1zm-.3-22c1.7.4.8-4.3-.5-1.1.4 0-1.3 1.2.5 1.1zm.3-43.8c1.8 1.3.6-4.3-.8-1.1.2.4-1.2 1.5.8 1.1zm0 305.9c-.3.3 1.1-1.1 0 0 0 0-1.1 1.1 0 0zm0-87.7c.4-.4.6-.6-.5.5.1-.1.3-.3.5-.5zm0-87.7c.4-.4.6-.6-.5.5.1-.1.3-.3.5-.5zm3.9 35c3.9 2 4.4-7-1-3.9-.6 1.4-1.4 2.7 1 3.9zm.3-65.8c5 1.5 2-10.1-2.1-2.1-0 .6-0 1.2 2.1 2.1zm-1.4-22.1c-.1 2.1 8.4-2 1.8-3.9-.9.6-2.8-.3-1.8 3.9zm0 262.3c0-1 .6-1.8 0 0 1.4 2.5 6.1-4.1 0 0zm.3-196.8c1.3 1.7 5.9-3 1-3.4-.7.6-1.8.3-1 3.4zm.8-22c0 1.5 4.6-2.1.7-3-1.1-.3-3 1.5-.7 3zm.3-65.7c3.9 1.4 1.3-6.9-1.6-1.6.1.4.1.7 1.6 1.6zm0-22c4.1 1.9 1-6.5-1.6-1.5.1.4.1.7 1.6 1.5zm0-43.8c4 2.3 2.3-6.2-1.2-1.8-.1.5-.2.9 1.2 1.8zm0-65.6c3.7 1.1 2.1-7.2-1.1-2.1.8.1-2.3 1.5 1.1 2.1zm.5 459.7c4.1 1.8-.7-6.7-1.6-.1.5.1-0 0 1.6.1zm-.3-22.1c.9 1.9 3.3-3.9-1.1-1.1-.1.7-.7.8 1.1 1.1zm-.2-131.1c2.3.9 1.7-5.3-.6-1.6.4.1-1.6 1.3.6 1.6zm.2-21.9c2.7 2 1.5-6-1-1.6.4.1-1.4 1.4 1 1.6zm-.2-263.4c-1-.8-.7-1.3 0 0 1.2 2 3.3-4.5 0 0zm.2 372.5c.5 1.7 1.9-2.8 0-1.1.2.2-1.6.7 0 1.1zm0-65.6c2.4.2-.2-4.3-.8-1.1.5-.4-1.1 1.1.8 1.1zm0-66c.8 1.1 1.9-1.8-.8-1.3.1.6-.3.6.8 1.3zm.3 218.5c.4-.4.6-.6-.5.5.1-.1.3-.3.5-.5zm0-109.6c-.3.3 1.1-1.1 0 0 0 0-1 .9 0 0zm-.3-21.9s.6-1 0 0c0 0-.6.9 0 0zm.3-263.2c.1-.1.4-.4.5-.5-.3.3 0 0-1 1 .1-.1.3-.3.5-.5zm3.6 79.1c2.9 3 7.9-5.7.4-4.4-.5.8-1.8 2.5-.4 4.4zm-.3-66.6c2 3.7 8.4-4.2 1-3.6-1 1.4-1.3.8-1 3.6zm.8-87.1c3.7 3.3 6-6 .1-4.3-1 1.4-1.7 2.3-.1 4.3zm-.5 481.6c1.6 2.6 7.4-3.5.8-3-.7 1-1.2.6-.8 3zm0-43.9c.9 2 7.3-1.5 1.8-3.4-.8.6-2.2-.2-1.8 3.4zm0-219.2c.3 1.7 7.3-.5 2.3-3.2-.8.4-2.5-.4-2.3 3.2zm0-175.5c-.1 1.5 7.4 0 2.3-3.2-.8.4-2.5-.4-2.3 3.2zm1.9 416.9c4.9 1.1-.4-7-1.8-1.6.1.7-.6 2 1.8 1.6zm-.3-87.9c3.1.5 2.1-5.2-1.3-1.6.1.6-1.1 1.6 1.3 1.6zm-.3-241c0 1.5 4.6-2.1.7-3-1.1-.3-3 1.5-.7 3zm-1-66.3c-.1-.9.3-1.7 0 0 1.1 2.4 6.1-3.5 0 0zm1.3 351.1c-.9-.7-.8-1.6 0 0 2.5 2.1.9-5.7 0 0zm.3-66c3.3 1.4 0-5.2-1.3-1.1.1-.3-.4 1.6 1.3 1.1zm0-43.9c3.9 1-2.3-5.4-1.3 0zm-.3-22.2c-.7-.2-1.1-.3 0 0 2.5.2.6-3.6 0 0zm-.3-21.4c.7 0 3.3-2.4-.4-2.5-.1.8-.7 1.2.4 2.5zm.3-22.4c-.7-.2-1.1-.3 0 0 2.5.2.6-3.6 0 0zm0-43.9c-.7-.2-1.1-.3 0 0 2.5.2.6-3.6 0 0zm.3 197.1c1.2.9.6-3-.5-.8.3.1-1.2 1 .5.8zm0-65.8c-.8 0-.8 0 0 0 2 .4-.7-2.8 0 0zm0-219.5c1.2.2.1-2.1-.8.1.2.1 0 0 .8-.1zm0-87.7c-.6.2-.8.1 0 0 1.2.2.1-2.1 0 0zm-.3-43.4c0 .9 2.2-1.5.3-1.3-.3 0-1.6-.1-.3 1.3zm.3 196.6c.1-.1.1-.4.3-.5 0-.2-1 1.7-.3.5zm2.3 276.1c2.1 1.9 8.6-1.3 2.6-4.4-1.2-.4-3.6 1.7-2.6 4.4zm.8-65.5c2.8 3 7.6-5.8.2-4.4-.5.8-2.1 2.6-.2 4.4zm0-87.9c1.4 1.8 7.4-3.4 1.1-4.3-.7 0-2.5 2.2-1.1 4.3zm1-132.1c4 2.1 2.9-6.5-1.3-2.1.1.7-1.5 1.9 1.3 2.1zm-.5-65.5c2.6 2 5.4-5.2 0-3.6-.7 1.2-1.6 2.1 0 3.6zm.5 174.6c1.3 1 4.1-3.7-.8-1.6 0 .6-1.2 1.3.8 1.6zm0-131c0 1.5 4.6-2.1.7-3-1.1-.3-3 1.4-.7 3zm0-109.7c0 1.5 4.6-2.1.7-3-1.1-.3-3 1.6-.7 3zm.5-21.9c4.2 1.5 0-6.5-1.7-1.6-0 .2-1 2.1 1.7 1.6zm-.5-22.4c1.1 2 3.4-3.8-.8-1.6 0 .6-1.2 1.2.8 1.6zm.5 438.5c3.3 1.4 0-5.2-1.3-1.1.1-.3-.4 1.6 1.3 1.1zm-.2-66.1c.9 1.9 2.6-3.9-.8-1.1 0 .5-.8 1 .8 1.1zm.2-43.6c3.3 1.4 0-5.2-1.3-1.1.1-.3-.4 1.6 1.3 1.1zm-.2-197c-1-.7-.8-1.6 0 0 2.5 2.1.9-5.7 0 0zm0-43.9c-1-.6-.9-1.4 0 0 3 1.5.4-5.2 0 0zm0-22.4c1.9 1.7.8-3.4-.8-1.1 0 .5-.8.9.8 1.1zm0 416.6c-.5-.5-.3-1.1 0 0 1.1 1.5.9-3.5 0 0zm.2-66c-.8 0-.8 0 0 0 2 .4-.7-2.8 0 0zm-.2-154.1c-.3.3 1.1-1.1 0 0 0 0-.9 1 0 0zm.2-20.9c.7.6 1.4-1.8-.8-2.2.6-.4-1.2 1.9.8 2.2zm0-22.2c.9.8.8-3.5-.3-.8.3 0-1.3 1.5.3.8zm0 130.9s.6-1 0 0c-.1 0-.5.9 0 0zm0-153.6c.3-.4.3-.6-.3.5.2-.1.3-.2.3-.5zm3.2 209.9c1.8 4.7 10.9-5.6.8-4 .1.8-1.9-.5-.8 4zm-.3-109.6c3.3 5 9.7-4.1 1-4-.1.9-1.7-.5-1 4zm2.1 154c4.8 1.8 3.3-9.3-1.5-2.7.7.3-2.3 2.1 1.5 2.7zm0-65.8c4.4 3.2 2.5-9.6-1.6-2.6.7.3-2.3 2.3 1.6 2.6zm-1.3-153.8c2.5 3.8 8.2-6.2 0-3.6.2.6-1.7-0 0 3.6zm1.3-43.5c5.3 2.4 2.5-8.2-1.7-2.3-.1.7-.2 1.3 1.7 2.3zm-1.3-109.9c1.7 2.5 7.8-2.6 1.4-4.1-.4.4-2.8-.6-1.4 4.1zm.5 87.9c1.8 1.7 7.2-5.2-.8-3.6.2 1.4-.7 1 .8 3.6zm1.3 306.2c2.5 1.9 1.9-5.9-1.1-1.8.5.1-1.9 1.9 1.1 1.8zm-.5-131.8c2.2 2.1 2.3-5-.6-1.6.4.3-1.5.9.6 1.6zm.5-87.2c4.2.4-1.2-7.4-1.7 0zm-.2-109.9c2.7 2 1.5-6-1-1.6.4.1-1.4 1.5 1 1.6zm0-87.1c3.6.8 1.2-6.3-1.2-1.8 0 .5 0 1 1.2 1.8zm.2 218.5c2.6 1.1-.1-5.2-1.1-1.1.5-.4-1.2 1.5 1.1 1.1zm-.2-153.8c1.9 1.3 1.1-3.7-.5-1.1.2.2-1 .7.5 1.1zm0-21.4c-.7-.6-.6-1.3 0 0 1.7 1.1 2.4-4.5 0 0zm.2 393.4.5-.5c.2-.2-1.8 1.8-.5.5zm0-65.8c-.3.3 1.1-1.1 0 0 0 0-.9.9 0 0zm0-65.8c-.3.3 1.1-1.1 0 0 0 0-.9 1 0 0zm0-43.9c.4-.4.6-.6-.5.5zm0-109.6.5-.5c.2-.2-1.7 1.7-.5.5zm.3-174.9c-.5.4-.8.5 0 0 1.6-.2-1.6-2.5 0 0zm-.3-21.4c.2.7 1.5-1.9-.5-1.6.3-.3-.7 1.5.5 1.6zm0-21.9c1.3.7-.2-3.5-.5-.7 0-.2-.2 1.4.5.7zm2.1 318.7c2.4 4.8 10.4-5.8.8-3.8-.1.9-1.7-.2-.8 3.8zm0-263.4c1.6 3.7 9.3-1.9 2.7-4.2-1 0-3.2 1.4-2.7 4.2zm.8 219.6c4.6 4 5.7-9.6-.8-1.9 0 .7 0-0 .8 1.9zm1.3-43.6c5.4 2.4 2.4-8.2-1.7-2.3-.1.6-.2 1.2 1.7 2.3zm-1.3-66c1.7 3.2 8.4-4.4.2-3.6.1.7-2.1-.3-.2 3.6zm1 218.6c2.3 3.2 3.8-6-.5-2.1.3.3-2 1 .5 2.1zm-1-175.1c1.6 1.8 7.1-3.2.7-3.7.1.7-.5-.1-.7 3.7zm1.6-21.6c3.8 1.1 1-7.3-1.3-2.1.6.2-2.1 2 1.3 2.1zm0 284.5c1.7 1.8 2.5-6.3-1.1-1.6.1.5-1 1.6 1.1 1.6zm0-65.8c2.7 2 1.5-6-1-1.6.4.1-1.4 1.4 1 1.6zm-.3-65.8c2.3.9 1.7-5.3-.6-1.6.4.1-1.5 1.4.6 1.6zm.3-263.1c2 1.3 1.4-5.3-.8-1.6.4.1-1.7 1.4.8 1.6zm0-65.8c2 1.3 1.4-5.3-.8-1.6.4.2-1.7 1.3.8 1.6zm.2 438.3c2.6 1.1-.1-5.2-1.1-1.1.5-.4-1.2 1.5 1.1 1.1zm0-87.7c2.6 1.1-.1-5.2-1.1-1.1.5-.4-1.2 1.5 1.1 1.1zm-.2-66.1c1.5 1 .8-3.2-.5-1.1.2.2-1 .9.5 1.1zm0-43.8c1.9 1.3 1.1-3.7-.5-1.1.2.2-1.1.7.5 1.1zm0-131c2.7.3.3-4.8-.8-1.4 0 .7 0 0 .8 1.4zm0-22.5c-.6-.1-.8-.3 0 0 1.8.4 1-2.5 0 0zm0-65.2c-.7-.7-.5-1.3 0 0 1.8 1.8.9-4.7 0 0zm.2 459.1.5-.5c.2-.2-1.7 1.7-.5.5zm0-65.8.5-.5c.2-.2-1.7 1.7-.5.5zm0-284c.2.7 1.5-1.9-.5-1.6.3-.3-.7 1.5.5 1.6zm3.7 165.5c.2 2.7 9.2-3.2 1.3-4.9-.7.1-3 2.2-1.3 4.9zm-.5-66.1c.8 2.7 9.1-.9 3.1-3.8-1.4-.1-4.9-.8-3.1 3.8zm1.8 219.6c5 2.5 2.9-8.5-1.3-2.6-.1.7-.3 1.4 1.3 2.6zm0-175.4c5.2 1.6 2.2-9.1-1.7-2.4.1.7 0 1.3 1.7 2.4zm0-22c5.8 2.7 2.5-10.3-1.8-2.1.1.6.1 1.2 1.8 2.1zm-.3-197.5c4.1 2.5 3.5-6.5-1-2.3-.1.5-.3 1 1 2.3zm-.7 415.8c.1 1.6 6.6-1.6 1.9-2.4-1 .2-2.2-.1-1.9 2.4zm0-131.6c.2 1.6 6.2-1.4 2.2-2.4-.3.3-1.5-.8-2.2 2.4zm1.2-21.1c4.9 2 .7-7.9-1.3-2.2 0 .7-.1 1.3 1.3 2.2zm-.2-131.9c0 1.5 4.6-2.1.7-3-1.1-.3-3 1.6-.7 3zm0-65.7c0 1.5 4.6-2.1.7-3-1.1-.3-3 1.5-.7 3zm0-43.9c0 1.5 4.6-2.1.7-3-1.1-.3-3 1.6-.7 3zm0-44.1c-1.2-1.1-.8-1.8 0 0 .7 2.5 5-3.9 0 0zm0-43.6c1.4 1.8 3.9-4.2-.1-2.9 0 .7-2.7 1.9.1 2.9zm.5 415.8c.9 1.9 3.3-3.9-1.1-1.1-.1.7-.7 1 1.1 1.1zm0-21.6c2.4.2-.2-4.3-.8-1.1.5-.4-1.1 1.1.8 1.1zm-.3-22.2c-.4-.5-.3-1.1 0 0 1.1 1.5.9-3.5 0 0zm.3-197.6c-.8 0-.8 0 0 0 1 .2 1.3-1.9 0 0zm.3-21.9c1.5.6.1-3-.8-.4 0 .4-.8 1.6.8.4zm-.6-131.4c.1 1.2 2.1-2.2.3-.8.1 0-1.3.4-.3.8zm.6 481.7c-.3.3 1.1-1.1 0 0 0 0-1.1 1.1 0 0zm0-65.8c-.3.3 1.1-1.1 0 0 0 0-.9.9 0 0zm0-219.3c-.3.3 1.1-1.1 0 0 0 0-.9 1 0 0zm0-109.3c-.3.1-.5.1 0 0 1-.1-.9-1.8 0 0zm2.3 99.9c-.4 2 8.9-.2 2.4-4.2-.6 0-3.2 1.5-2.4 4.2zm1.1 153.8c1.5 1.7 6.3-3.7.1-3.4-.4.6-1.9 1.8-.1 3.4zm-.8-176c1.3 2.3 6.7-2 1.1-2.9-.9.9-1.3.5-1.1 2.9zm1-87.1c4.1 2.5 3.5-6.5-1-2.3-.1.5-.3 1 1 2.3zm.3-21.7c3.7 2.9 2.5-8.2-1.3-2.3.6.3-2.1 1.8 1.3 2.3zm-.3-44.2c4.1 2.5 3.5-6.5-1-2.3-.1.6-.3 1.2 1 2.3zm.3 394.7c1.6-.3 4.3-4.7-1.3-3.4.2.7-.7 2.4 1.3 3.4zm-1.1-88.5c.1 1.6 6.6-1.6 1.9-2.4-1.1.1-2.1 0-1.9 2.4zm1.4-21.9c1.3 1.9 3.9-3.6-1-1.7 0 .7-1.3 1.3 1 1.7zm-.3-21.4c0 1.5 4.6-2.1.7-3-1.1-.3-3 1.6-.7 3zm.3-21.6c2.9.7 4-4.3-1.5-3.4.3.8-.9 2.4 1.5 3.4zm-.3-131.8c0 1.5 4.6-2.1.7-3-1.1-.3-3 1.4-.7 3zm.3 350c-.7-.2-1.1-.3 0 0 2.5.2.6-3.6 0 0zm.2-21.7c3.3 1.4 0-5.2-1.3-1.1.1-.3-.4 1.6 1.3 1.1zm-.2-21.7c-1-.7-.8-1.6 0 0 2.5 2.1.9-5.7 0 0zm0-66.3c.9.5 3.2-2.9-.8-1.1 0 .5-.8 1 .8 1.1zm0-131.5c-.7-.2-1.1-.3 0 0 2.5.2.6-3.6 0 0zm0-87.2c-1-.7-.8-1.6 0 0 2.5 2.1.9-5.7 0 0zm0-153.2c1.8.2 1.6-4.9-1-1.9.6.3-1.4 1.7 1 1.9zm.2 394.1c.5.9 2.2-2.8-.8-2.2.6-.4-1.2 1.9.8 2.2zm-.2-175.7c.5.8 2.3-2-.5-1.3 0 .5-.3.6.5 1.3zm.5-109.6c1.3.9 1.3-4.3-1.1-.5.1.2-.3 1.3 1.1.5zm-.3-65.5c.7 1.3.9-3.8-.3-1.1.5 0-1.5 1.2.3 1.1zm3.9 385.1c.9 2.7 9.2-3.9 1.2-5.3-.8.1-3 2.4-1.2 5.3zm-.2-44.4c2.6 3.3 7.1-5.7 0-3.6.2.7-1.7-.2 0 3.6zm0-240.7c-.3 2.5 9.9-1.8 1.9-4.9-.9-.1-3.2 2.2-1.9 4.9zm0-131.6c-.3 2.5 9.9-1.8 1.9-4.9-.9-.1-3.2 2.3-1.9 4.9zm1.2 459.7c2.5 2.4 3.8-6.9-1.1-2.1.5.2-1.9 1.6 1.1 2.1zm-1-285.3c1.3 2.6 6-2.9 1.2-3-1 1.1-1.3.7-1.2 3zm1.3-131.3c2.7 2.5 2.8-6.2-1.1-2.1-.1.7-1.9 2 1.1 2.1zm0-65.8c2.7 2.5 2.8-6.2-1.1-2.1-.1.7-1.9 1.9 1.1 2.1zm-.8 328.9c.8 1.9 5.3-3.1 1.4-3.1-.7.4-2.1.1-1.4 3.1zm.8-22.4c1.1 2 3.4-3.8-.8-1.6 0 .6-1.2 1.2.8 1.6zm0-87.7c1.1 2 3.4-3.8-.8-1.6 0 .6-1.2 1.2.8 1.6zm0-109.7c-1.2-.7-1-1.5 0 0 .7 1.7 4.5-3.4 0 0zm.3 394.4c.9 1.9 2.6-3.9-.8-1.1 0 .5-.8 1 .8 1.1zm-.3-43.3c2.7.3.3-4.8-.8-1.4 0 .8 0-0 .8 1.4zm-.5-44.6c.6 1.6 3.3-2.2.5-1.1-.5.4 0 0-.5 1.1zm.8-153.2c.9 1.9 2.6-3.9-.8-1.1 0 .5-.8.9.8 1.1zm-.3-21.4c2.7.3.3-4.8-.8-1.4 0 .7 0 0 .8 1.4zm.3-110.2c1.9 1.7.8-3.4-.8-1.1 0 .5-.8.9.8 1.1zm0-43.9c1.9 1.7.8-3.4-.8-1.1 0 .5-.8 1 .8 1.1zm0 284.3c.4-.4.6-.6-.5.5.1-.1.3-.3.5-.5zm.3-21.1c1.7.7-.6-4.2-.8-.8.4-.5-.9 1.5.8.8zm-.3-65.8c-.4-.5-.3-1.1 0 0 1.1 1.5.9-3.5 0 0zm0-110.4.5-.5c.2-.2-1.7 1.7-.5.5zm.3-131.1c-.6.4-.8.5 0 0 1.6-.2-1.6-2.5 0 0zm2.3 363.4c1.2 4.3 11.4-5.7.2-4.6.4.7-2.3-.2-.2 4.6zm.2-132.1c1.4 3.2 8-2.7 1.3-3.5-1.1 1.2-1.6.6-1.3 3.5zm-.2-87.4c1.3 2.4 8.4-1.7 2.2-3.8-1.1.6-2.8-.4-2.2 3.8zm.2-88c-.2 2.4 8.4-1.6 1.8-3.6-1.1.6-2.9-.1-1.8 3.6zm-.2-65.6c1.3 2.4 8.3-1.5 2.4-3.8-1 .5-2.7-.1-2.4 3.8zm1.3 394.2c2.3 3.2 3.8-6-.5-2.1.3.3-2 1 .5 2.1zm-.5-174.6c1.9 1.9 7.3-3.9-.2-4.2.2.2-1 2.2.2 4.2zm-.3-132.3c1.3 2.6 6-2.9 1.2-3-1 1.1-1.3.6-1.2 3zm1.1-65.1c4.2 1.9 2.8-7.5-1.1-2.3-.1.6-.3 1.2 1.1 2.3zm0-44.3c2.4 2.5 3.3-6.2-.8-2.1.4.2-2.3 1.5.8 2.1zm.3 482.1c2.7 2 1.5-6-1-1.6.4.1-1.5 1.4 1 1.6zm-.3-22.2c.5 2.1 4.7-4.4-.6-1.6.3.3-1.5 1 .6 1.6zm.3-21.7c2.7 2 1.5-6-1-1.6.4.1-1.5 1.5 1 1.6zm0-153.4c2.7 2 1.5-6-1-1.6.4.1-1.5 1.4 1 1.6zm0 43.3c1.9 1.3 1.1-3.7-.5-1.1.2.2-1.1.7.5 1.1zm0-22c1.9 1.3 1.1-3.7-.5-1.1.2.2-1 .9.5 1.1zm0-109.6c.5 1.3 2.6-2.4-.3-1.1.3.1-1.3.8.3 1.1zm0-43.8c1.9 1.3 1.1-3.7-.5-1.1.2.2-1.1.7.5 1.1zm.2-87.4c.9 1.6 2.5-4.8-.8-1.1.2.4-1.2 1.5.8 1.1zm0 306.6c-.5-.4-.3-1.1 0 0 1.1 1.5.9-3.5 0 0zm0-22.6c-.3.3 1.1-1.1 0 0 0 0-1 .9 0 0zm0-131.6c-.3.3 1.1-1.1 0 0 0 0-1 .9 0 0zm0-87.8c.4-.4.6-.5-.5.5.1-.1.3-.2.5-.5zm3.6 342.1c1.4 3.1 9.6-4.1 1.5-4.9-.9.1-3.2 2-1.5 4.9zm-.5-44.2c1.6 4 11.1-4.4.7-4.3.1.7-1.5-.3-.7 4.3zm.5-21.4c1.1 2.6 10.4-3.7 1.6-5.3-.9 0-3.3 2.4-1.6 5.3zm-.2-285c2.5 3.7 10.1-5.3.9-4.8-.6.4-2.2 2.4-.9 4.8zm.5 152.9c2.1 2.7 7.1-5.2.7-3.5-.4.6-1.7 1.8-.7 3.5zm1.3-21.7c5.2 2.5 2.5-8.5-1.5-2.6.7.3-2.3 2.2 1.5 2.6zm-1.3-22.2c2.1 2.7 7.1-5.2.7-3.5-.4.6-1.7 1.9-.7 3.5zm0-21.9c1 2.7 7.1-4 1.3-4.2-.7.1-2.5 2-1.3 4.2zm1.3-65.5c5 1.5 2-10.1-2.1-2.1.1.6.1 1.1 2.1 2.1zm0-131.5c5 1.5 2-10.1-2.1-2.1.1.6.1 1.1 2.1 2.1zm-.8 438c1.9 2.1 5-4.1.5-3.1-.7 1.3-1.2 1-.5 3.1zm0-65.8c1.9 2.1 5.6-4.9.1-2.8-.5 1.1-1.1.9-.1 2.8zm-.3-65.8c1.3 1.7 5.9-3 1-3.4-.1.3-1.6-.3-1 3.4zm1.1-154c.8 2.1 5.1-4.4-.9-1.6 0 .6-1.4 1.3.9 1.6zm0 329.2c-.8-.8-.7-1.7 0 0 2 1.5 3.1-5.5 0 0zm.3-153.5c2.6.9.4-5.3-1.1-1.6.1.5-1 1.6 1.1 1.6zm-.8-153.8c-.5-.8-.3-1.3 0 0 .7 2.2 4.7-4.3 0 0zm.5 175.2c-.4-.5-.3-1.1 0 0 1.1 1.5.9-3.5 0 0zm.3-263.2c.4 1.2 1.9-1.8 0-.7.2 0-1.7.5 0 .7zm.3-43.6c2.5 1.2-.6-4.5-1.1-1.1.5-.4-1.2 1.5 1.1 1.1zm-.3-22.1c.4 1.3 1.9-1.9 0-.8.2 0-1.7.4 0 .8zm-.3-43.9c.1 1.2 2.1-2.2.3-.8.2 0-1.4.4-.3.8zm.6 306.2c.4-.4.6-.6-.5.5zm0-219.2c.1 0 .8-1 0 0 0 0-1 .9 0 0zm1.7 144.3c2.8 4.7 11.6-4.1 1.5-4.8-1.1.8-2.7.2-1.5 4.8zm.6 263.1c2 2.9 9-4.4 1-4.1-.7.5-3.1.5-1 4.1zm0-44.1c1 3.1 9-1.9 2.3-4.1-.8 0-3.5 1.4-2.3 4.1zm-.3-284.7c1.3 3.1 9.7-1.9 2.3-4.4-.8 0-3 1.7-2.3 4.4zm0-43.9c2.5 4.7 10.1-6.1.2-3.6.1.8-1.5-.3-.2 3.6zm0-87.8c2.9 4.6 10.2-6.2.3-3.6 0 .7-1.4-.1-.3 3.6zm1.1-21.9c4.7 4 6-8.1-.5-2.9-.3.6-.7 1.2.5 2.9zm-.3 307c.9 2.3 7.5-3.8 1.4-4.2-.6.1-2.6 2-1.4 4.2zm.8-109.6c4.1 3 3.6-6.4-1-2.2-.1.5-.3 1 1 2.2zm0-65.8c4.1 3 3.6-6.4-1-2.2-.1.5-.3 1 1 2.2zm.3-65.5c5.2 2 2.4-9-1.4-2.4.2.8-1.6 2.1 1.4 2.4zm0 394.1c3 2.5 1.5-7.3-.8-2.1-.1.6-.4 1.1.8 2.1zm.2-88.2c.8 2.1 5.1-4.4-.9-1.6 0 .6-1.3 1.3.9 1.6zm0-284.5c4.2 1.9.9-6.5-1.6-1.5.1.4.1.8 1.6 1.5zm0 197.1c1 2 2.9-4.5-.4-1.5.6.1-1.6.9.4 1.5zm0-241.5c-1-.8-.7-1.5 0 0 .7 1.8 3.8-3.4 0 0zm.2 372.8c2.4.2-.2-4.3-.8-1.1.5-.4-1.1 1.1.8 1.1zm-.2-22.2c-.4-.5-.3-1.1 0 0 1.1 1.5.9-3.5 0 0zm.2-43.9c.5 1.7 1.9-2.8 0-1.1.2.2-1.6.7 0 1.1zm0-87.4c1.7.4.8-4.3-.5-1.1.4 0-1.3 1.2.5 1.1zm.3 64.7c-.3.3 1.1-1.1 0 0 0 0-.9.9 0 0zm0-87.7c.4-.4.6-.6-.5.5zm0-65.5c1-.1-.9-1.8-.5.1.2.1 0 0 .5-.1zm2.6 165.8c1.6 3.4 10.6-.3 2.8-4.6-.8 0-3.2 1.7-2.8 4.6zm1.6-174.4c5.2 3.3 6.6-8.5-1.3-4.9.3 0-2.6 2 1.3 4.9zm0-22c5.2 3.6 6.9-8.9-1.3-4.6 0 .1-2.2 2.7 1.3 4.6zm0-65.7c3.5 3.6 8.6-8.1-1-4.6-.1.2-2.6 2.5 1 4.6zm-1.3-66.3c3.6 4.7 10.1-6.5.5-4.6.3.7-2-.3-.5 4.6zm0-21.9c2 5.3 11.7-7.1.3-4.1.1 1-2-.3-.3 4.1zm.8 416.8c.2 2.3 9.2-3.6 1.3-5.2-.7.1-2.9 2.4-1.3 5.2zm0-131.8c.6 1.9 8-3.3 2.1-3.9-1.1.4-2.9-.1-2.1 3.9zm1.6 218.5c3.1.5 2.1-5.2-1.3-1.6.1.6-1.1 1.6 1.3 1.6zm0-22c3.1.5 2.1-5.2-1.3-1.6.1.6-1.1 1.7 1.3 1.6zm0-21.9c2.5 1.7 2.3-6.1-1.3-1.6.1.6-1.1 1.7 1.3 1.6zm0-153.4c3.1.5 2.1-5.2-1.3-1.6.1.7-1.1 1.6 1.3 1.6zm-.3-88c1.9 1.7 3.1-5-.8-1.6 0 .6-1.3 1.2.8 1.6zm0-109.7c1.9 1.7 3.1-5-.8-1.6 0 .6-1.3 1.3.8 1.6zm0-43c3.3.7 1.8-6.8-1.2-1.9-0 .5-0 1.1 1.2 1.9zm.5 371.9c3.5 1.4-.4-5.3-1.2-1.4.1.5-1 1.8 1.2 1.4zm-.2-44.1c.9 1.9 2.6-3.9-.8-1.1 0 .5-.8 1 .8 1.1zm0-65.8c.9.5 3.2-2.9-.8-1.1 0 .5-.8 1 .8 1.1zm0-87.1c3 1.5.4-5.2-.9-1.4-.2.7 0 0 .9 1.4zm0-110.2c2.8.6-.3-3.8-1.2-.2.5 0 0 0 1.2.2zm.2 240.7c1.4.2-.4-1.6-.8-.4.1.2-.2.8.8.4zm-.2-109.1c0 .9 2.2-1.5.3-1.3-.2.1-1.6-.4-.3 1.3zm0-66.6c-.3.3 1.1-1.1 0 0 0 0-1 .9 0 0zm.2-152.5c1.9.8-.1-3.6-.8-.7 0 0-.2 1.4.8.7zm2.1 385.1c3.1 3.9 10.4-6.2 1-5.3-.8.8-2.9.2-1 5.3zm.3-66.1c2.8 4.5 9.9-6.4.2-4.6.1 0-2.2 1.8-.2 4.6zm1-87.1c4.5 3.4 7.5-8.3-1.3-4.9.3-0-2.6 2 1.3 4.9zm-1.3-22.2c2.8 3.4 11-3.7 1.1-5.1-.5.8-3.1 0-1.1 5.1zm.3-44.1c3.2 5 9.7-7.9 0-4 .3.9-2.4-.2 0 4zm-.3-109.7c2.4 4 9.8-3.5 1.5-4.6-.8.7-3.7.6-1.5 4.6zm0-87.7c3 4.7 9.7-5.2.7-4.3.1.9-2-.5-.7 4.3zm.8 394.9c2.7 3.1 8-5.8.4-4.4-.5.8-1.9 2.6-.4 4.4zm1 86.7c1.4 2.2 4.9-3.6-.3-3-.8.8-1.6 1.6.3 3zm.3-43.6c3 2.5 2.6-6.6-1.3-2.1.2.7-1.6 2 1.3 2.1zm0-65.8c3.9 1.5 2.4-7-1.3-2.1.2.7-1.6 2 1.3 2.1zm-.3-87.1c4.1 1.8 3.6-6.3-.9-3.8-.6 1.7-1 2.5.9 3.8zm-1-110.5c1.3 2.6 6-2.9 1.2-3-1 1.1-1.3.7-1.2 3zm1.3-152.7c3.3 2.2 3-6.9-1.1-3.8-.6 1.7-1.2 2.6 1.1 3.8zm0 437.5c1.1 2.1 4.1-4.6-1-1.6-.3.7 0 0 1 1.6zm0-240.9c2.7 2 1.5-6-1-1.6.4.1-1.4 1.4 1 1.6zm0-87.4c0 1.5 4.6-2.1.7-3-1.1-.3-3.1 1.5-.7 3zm-.3-65.8c-1-1-.8-1.8 0 0 2.1 1.5 3.3-5.9 0 0zm.3 262.8c-.8-.6-.8-1.4 0 0 1.9.7 1.6-5.5 0 0zm0-21.9c2.7.3.3-4.8-.8-1.4 0 .8 0-0 .8 1.4zm.2-263.6c1.9 1.7.8-3.4-.8-1.1 0 .5-.7.9.8 1.1zm0 108.8c.4-.4.6-.6-.5.5zm0-43.1c.5.6 2.2-.9-.5-1.3.1.4-.2.6.5 1.3zm3.4 363.4c3.3 4.2 10.1-7.6 0-4.6.2.7-1.7-.2 0 4.6zm0-132.3c1.9 3.9 8.9-2.8 2.4-4.2-.9 0-3.4 1.4-2.4 4.2zm0-21.5c2.3 4.3 10.2-6 .5-4.7 0 0-1.8 1.7-.5 4.7zm0-87.4c1.5 4.2 11.8-6.9 0-4.6.2.7-1.7-.2 0 4.6zm-.2-242c2.2 3.8 9.7-1.4 2.7-4.2-.9 0-3.3 1.4-2.7 4.2zm.8 175.4c-.2 2.5 8.4-1.6 1.8-3.6-.9.6-3-.3-1.8 3.6zm1.5 263.4c4 2.5 1.5-8.3-1.5-2.1.5.2-1.8 2 1.5 2.1zm-.2-285.3c3.7 2.2 1.5-7.6-1.6-1.6 0 .4 0 .8 1.6 1.6zm-1.1-88c-.7 1.6 6.5-.3 2.1-2.3-.8.1-2.6-1-2.1 2.3zm1.1 21.7c-1-.8-.8-1.5 0 0 1 1.6 4.3-3.7 0 0zm.2-65.5c2 1.3 1.4-5.3-.8-1.6.4.2-1.6 1.3.8 1.6zm0 481.8c1.9 1.3 1.1-3.7-.5-1.1.2.2-.9.9.5 1.1zm0-43.8c1.9 1.3 1.1-3.7-.5-1.1.2.2-1 .7.5 1.1zm.3-87.4c2.6 1.1-.1-5.2-1.1-1.1.5-.4-1.2 1.5 1.1 1.1zm-.3-88c1.9 1.3 1.1-3.7-.5-1.1.2.2-1 .7.5 1.1zm0-65.3c.7 1.2 3.1-3.3-.8-2.3.3 0-.7 1 .8 2.3zm0-22.4c1 .7 2.7-2.1-.8-1.3.1.5-.2.5.8 1.3zm.3-65.6c1.8 1.3.6-4.3-.8-1.1.2.4-1.2 1.5.8 1.1zm0 284c.4-.4.6-.6-.5.5zm0-21.9c.4-.4.6-.6-.5.5zm0-87.7c-.3.3 1.1-1.1 0 0 0 0-.9 1 0 0zm0-43.8.5-.5c.2-.2-1.7 1.7-.5.5zm0-153.2s1-.6 0 0c0 .1-.9.5 0 0zm.2-65.6c-.5.4-.8.5 0 0 1.6-.2-1.6-2.5 0 0zm1.6 34.2c1.1 4.6 11-2 2.9-5-1.1 0-3.8 1.7-2.9 5zm0-65.5c1.2 3.9 11.5-2 2.9-5.2-.8 0-3.7 1.8-2.9 5.2zm.6 394.9c2.5 3.6 10.5-5.5.9-5.2-1 .1-2.6 2.5-.9 5.2zm0-21.9c3.4 3.7 9.7-5.8.9-5.2-1 .1-2.6 2.5-.9 5.2zm0-65.7c1.5 3.2 10.3-4 1.7-5.3-1.1 0-3.2 2.5-1.7 5.3zm0-43.9c2.4 2.9 10-4 1.8-5.3-.9.1-3.2 2.3-1.8 5.3zm.2 197c2.7 2.6 7.2-5.1.8-4-.4.6-1.5 2.5-.8 4zm1.3-21.9c5 2.4 2.9-8.3-1.5-2.4-.1.7-.2 1.4 1.5 2.4zm-.3-22.4c3.5 3.8 3.9-8-1.2-2-.1.4-.2.7 1.2 2zm0-241.2c3.6 3.3 4.3-5.7-.8-2.3-.2.5-.4.9.8 2.3zm-.8-131.6c.3 2.4 7.8-.8 1.5-3.6-.9.6-2.5-.2-1.5 3.6zm1.1 197.1c1.5 2.7 4.6-4.6-.8-1.9-.3.7 0-0 .8 1.9zm.3-87.4c3.9 2.3 2.2-6.4-1-2.1.6.2-2 1.5 1 2.1zm-.8-131.1c1.9 1.5 6-3.3-.3-4.1.1.3-.9 2.7.3 4.1zm.8 64.8c-1-.8-.7-1.3 0 0 1.2 2 3.3-4.5 0 0zm.2 263.1c2.4.2-.2-4.3-.8-1.1.5-.4-1.1 1.1.8 1.1zm0-22.2c1.9 1.3 1.1-3.7-.5-1.1.2.2-1 .7.5 1.1zm0-43.9c1.9 1.3 1.1-3.7-.5-1.1.2.2-.9.9.5 1.1zm0-175.4c1.9 1.3 1.1-3.7-.5-1.1.2.2-1 .9.5 1.1zm.3 372c.4-.4.6-.6-.5.5.1-.1.3-.3.5-.5zm0-263.1c-.3.3 1.1-1.1 0 0 0 0-1 .9 0 0zm0-22 .5-.5c-.3.3 0 0-1 1 .1-.1.3-.2.5-.5zm0-65.8c.4-.4.6-.6-.5.5.1-.1.3-.2.5-.5zm4.2 211c4.8 3.4 6.9-7.2-.8-5.2-.8.9-2.8 2.9.8 5.2zm-1.1-87.7c4.9 5 10.1-9.7-.2-5-0 0-1.7 1.6.2 5zm0-197.3c4.2 5.5 10.6-8.9-.3-4.9 0 0-1.7 2 .3 4.9zm.3 415.5c2.5 4.1 8.9-5.1 1.1-3.7-1.1 1.5-1.5.8-1.1 3.7zm0-21.6c2.8 3.6 8.7-5.6 1.1-4-.5.8-2 2.2-1.1 4zm0-153.1c3.6 4.2 8.2-7.5.5-4.4-.4.9-1.5 2.8-.5 4.4zm.3-153.7c2.2 3.6 8.9-7-.4-3.9.1.6-2.1.8.4 3.9zm.2 285.1c3.2 2.6 5.9-7 .1-3.8-.3.7-1.3 2.4-.1 3.8zm.8-307.3c4.2 2.9 3.6-6.4-1-2.2-.1.6-.3 1.1 1 2.2zm.8 372.5c4.7 1.8-1-9.5-2-.1.3.1.8-.2 2 .1zm-.3-175.6c3.1.5 2.1-5.2-1.3-1.6.1.6-1 1.6 1.3 1.6zm-1.3-109.9c1.1 2.4 6.1-3.5.3-1.7-.4.8 0 0-.3 1.7zm1-109.2c0 1.5 4.6-2.1.7-3-1.1-.3-3 1.6-.7 3zm-1-22.4c-.1-.9.3-1.7 0 0 1.1 2.3 6.3-3.5 0 0zm.8-65.3c-.9-.9-.5-1.8 0 0 3.1 2 2.5-5.6 0 0zm.8 218.6c1.4 1.3 2.3-2.5-1.1-1.1-.1.7-.7.8 1.1 1.1zm-.6-43.7c.7 1.7 3.6-3.6-.6-1.5-.1.8 0 0 .6 1.5zm.3-153.2c.9 1.2 3.8-3.3-.9-2.3.3 0-.9 1.1.9 2.3zm0-44.1c-1-.8-.7-1.5 0 0 .7 1.8 3.8-3.4 0 0zm.3 416.1c1.2.9.6-3-.5-.8.3.1-1.2 1 .5.8zm0-22c-.8 0-.8 0 0 0 2 .4-.7-2.8 0 0zm-.3-21.6c-.4-.5-.3-1.1 0 0 1.1 1.5.9-3.5 0 0zm.3-88c-.8 0-.8 0 0 0 2 .4-.7-2.8 0 0zm0-109.3c-.8-.5-.8-.8 0 0 1.7 1.3.4-3 0 0zm2.3 56.9c3.2 3.3 10.6-5.1 1.6-6.4-.9 0-3.3 2.7-1.6 6.4zm-.3-198.2c2.5 4.5 10.5-4.8 1.5-4.9-.7.5-2.9-.3-1.5 4.9zm1.1 460.7c2.8 3 7.6-5.8.2-4.4-.5.8-2 2.6-.2 4.4zm.8-109.6c4.6 2.8 4.8-7.9-.8-4.4-.8 1.8-1.6 2.7.8 4.4zm-1.3-43.8c1.6 2.7 9.3-3.8 1.9-5.2-1 .1-3.1 2.4-1.9 5.2zm0-65.8c.4 2.9 10.3-3 1.6-5.1-.8.1-2.8 2.5-1.6 5.1zm.2-21.9c2.7 3.1 8-5.8.4-4.4-.5.8-1.8 2.5-.4 4.4zm-.2-110.4c1.4 3.3 7.4-3.5 1.3-3.6-.5.6-2.3 1.5-1.3 3.6zm.2 328.6c.9 2 7.3-1.4 1.8-3.4-.8.6-2.2-.2-1.8 3.4zm0-21.2c2.1 1.8 7.2-3.7.5-4.6.2.3-1 1.8-.5 4.6zm1.4-21.9c.4 2.2 6.1-4.2.2-4.5-.9 0-3.5 2.8-.2 4.5zm0-22.5c3.5 1.1 3.2-6.1-1.3-2.1.1.7-1.5 2 1.3 2.1zm-1.1-43.5c2.3 2.5 6.6-4.8.1-3.6.1.7-1.6 0-.1 3.6zm1.1-153.2c5.5 1.9 2.1-9.1-1.7-2.4-0 .7-0 1.3 1.7 2.4zm0-87.8c.5 2.2 6-4.1-.1-4.5-.8.1-3.1 2.9.1 4.5zm0-65.8c.5 2.4 6.2-4.9-.3-4.2-.9.4-3.1 2.6.3 4.2zm0 262.6c3 2.5 1.5-7.3-.8-2.1-.2.6-.4 1.1.8 2.1zm0-153.1c3.3.7 1.8-6.8-1.2-1.9-0 .5-0 1 1.2 1.9zm0-65.8c3.3.7 1.8-6.8-1.2-1.9-0 .6-.1 1.1 1.2 1.9zm.5-22.2c4.2 1.5 0-6.5-1.7-1.6-0 .2-1 2.1 1.7 1.6zm-.5-65.8c3 2 2.2-6.1-1.1-1.8 0 .4-.1.8 1.1 1.8zm.2 284.8c1.2 1.1 3.4-3.4-.9-2.3.3 0-.9 1.1.9 2.3zm0-110.2c0 .9 2.2-1.5.3-1.3-.3 0-1.6-.1-.3 1.3zm3.2 144.1c4.1 5.2 11.2-6.6 1.2-5.8-1.1 1.6-3.7 1.1-1.2 5.8zm0-43.6c4.8 4.7 10.8-8.1.7-5.7-.8 1.4-3.2 1-.7 5.7zm0-21.9c5.8 5.5 10.1-8.4 0-4.9-.4 1.7-2.3 1.3 0 4.9zm-.3-88.5c2.8 5.7 12.5-5.2 1.3-4.8-.7 1.4-2.4.4-1.3 4.8zm.8 285.3c1.3 3.2 10.1-2.5 2.1-5.1-.9 0-3.7 2.2-2.1 5.1zm-.3-153.3c5.1 4.2 9.2-6.5 0-4.6.2.7-1.7-.2 0 4.6zm.3-241.4c1.1 3 10.1-2.1 2.1-4.7-.9 0-3.7 1.9-2.1 4.7zm-.3-21.9c2.2 3.8 9.8-3 1.6-4.8-1.1.2-3.2 0-1.6 4.8zm.5 372.2c.6 2.7 8.5-1.3 1.8-4.1-.7 0-2.8 1.7-1.8 4.1zm-.2-175.2c2.5 3.3 7.7-5.6.3-3.6-0 .7-1.4-.1-.3 3.6zm1.5-87.4c.5 2.2 6.7-4.1 0-4.5-.9 0-3.5 2.9 0 4.5zm-1.3-44.4c-.2 2.5 8.4-1.6 1.8-3.6-1.1.6-2.9-.1-1.8 3.6zm1.3 372.8c2.5 2.4 3.8-6.9-1.1-2.1.5.2-1.9 1.6 1.1 2.1zm.3-43.8c3 2.5 2.6-6.6-1.3-2.1.1.7-1.5 1.9 1.3 2.1zm0-350.9c3.9 2.3 1.1-7.6-1.9-1.6.1.5.1.9 1.9 1.6zm-1.3-65.2c2.1 2.4 6.4-4.7.7-3.6-.7 1.4-1.1 1.2-.7 3.6zm1.6 481.8c3.8.2.2-6.7-1.6-1.6.1.5-.6 2 1.6 1.6zm-.3-109.8c2.7 2 1.5-6-1-1.6.4.1-1.4 1.4 1 1.6zm0-175.7c1.1 2 3.4-3.8-.8-1.6 0 .6-1.3 1.2.8 1.6zm0-87.8c1.1 2 3.4-3.8-.8-1.6 0 .6-1.3 1.3.8 1.6zm0-131.3c2.2 1.8 2-4.8-.8-1.5.4.1-1.7 1.5.8 1.5zm0 197.4c2.7.3.3-4.8-.8-1.4 0 .8 0 0 .8 1.4zm.3 174.1c.4-.4.6-.6-.5.5zm0-21.1c0 .9 2.2-1.5.3-1.3-.3-.1-1.6-.1-.3 1.3zm2 77.5c1.4 3.6 10.1-.8 3.1-4.5-1-.2-3.5 1.4-3.1 4.5zm0-109.4c2.3 4 10.5-4 1.7-4.7-.7.6-2.4-.5-1.7 4.7zm.3-21.4c3.3 4.2 10.1-7.6 0-4.6.2.7-1.7-.2 0 4.6zm0-87.7c3.3 4.2 10.1-7.6 0-4.6.2.7-1.7-.2 0 4.6zm.5-175.2c3.8 3.8 7.7-6.6-.3-4.9-.7.7-2.1 2.5.3 4.9zm.8 219.1c3.8 2.7 6.1-6.7-.2-4.5-.8 1.5-1.7 2.8.2 4.5zm.5-109.9c4.6 2.4 2.4-9.6-1.8-2.4 0 .7-.1 1.3 1.8 2.4zm-1-21.7c1.9 2 8.2-4.7 0-4.9.4.3-1.6 2 0 4.9zm-.3-65.8c1.8 2.2 8.1-3.9.2-4.9.3.3-1.3 1.8-.2 4.9zm1.6 328.4c4 2.5 1.5-8.3-1.5-2.1.5.2-1.8 2 1.5 2.1zm-1-153.2c1.8 1.7 6.7-4.6-.2-4.2.1.3-1 2.7.2 4.2zm1 130.5c-.9-.3-1.3-.5 0 0 3 2.2.5-6.2 0 0zm0-21.7c1.5 1 3.8-3.5-1.3-2.3.2.7-.6 1.4 1.3 2.3zm0-153.5c2.7 2 1.5-6-1-1.6.4.1-1.4 1.5 1 1.6zm0-21.9c2.2 1.8 2-4.8-.8-1.5.4.1-1.7 1.5.8 1.5zm-.3-87.4c.8 1.5 4.3-3.3-.5-3.3 0 .3-.9 2.2.5 3.3zm.3-66.1c1.4.6 3.3-4.2-1-1.4.1.6-1 1.3 1 1.4zm0 460c1.9 1.3 1.1-3.7-.5-1.1.2.2-1 .7.5 1.1zm.2-21.7c2 .6 1-5.1-1.1-1.1.5-.4-1.2 1.5 1.1 1.1zm-.2-351.1c-.5-.1-.8-.3 0 0 1.8.4 1-2.5 0 0zm.2 393.9c.1-.1.4-.4.5-.5.2-.2-1.7 1.7-.5.5zm0-87.7.5-.5c.2-.2-1.7 1.7-.5.5zm0-131.6c.4-.4.6-.6-.5.5zm3.2 35.8c3.4 3.6 10.6-6.2 1.8-6.2-.9 0-3.6 2.7-1.8 6.2zm-.3-44.7c3.5 4.6 10.6-3.5 1.8-5.5-.7.2-2.8 2.4-1.8 5.5zm0-219.2c-.9 2.5 11.9.3 2.6-5.3-.7 0-3.4 2-2.6 5.3zm.5 460.2c2.6 3.2 7.9-5.1.7-4.5-.7.5-2.1 2.3-.7 4.5zm-.2-109.6c3.3 4.6 9.3-5.8.8-4.3.1.7-1.5-.3-.8 4.3zm0-43.9c0 3 11-2.1 1.8-4.5-.8.8-2.1.2-1.8 4.5zm0-65.8c.7 2.5 8.9-1.9 3-3.9-1.1-.5-3.9.8-3 3.9zm.2-152.9c3.2 4.2 9.5-7.7.4-4.5-.5.8-1.4 2.7-.4 4.5zm1.4 240.4c3.7 3.6 4.2-7-.5-2.6.4.4-2.7 1.2.5 2.6zm-.6-43.6c2.1 2.6 6.7-5.3.4-3.5-.4.6-1.7 1.8-.4 3.5zm.6 109.1c1.6 2.3 5-4.6-.3-2.1-.5.9 0 0 .3 2.1zm-.6-22.5c2.2 2.6 5.1-3.9-.1-1.6-.2.6 0 0 .1 1.6zm1.4-196.8c3.3.4-1-6.1-1.4-.3.4.1 0 0 1.4.3zm0-22.4c2.6 1.4.2-3.8-1.4-.3.4.1 0 0 1.4.3zm0-87c3.1.6 1-6.3-1-1.6.2 0-1.1 1.9 1 1.6zm0-87.9c2 1.3 1.4-5.3-.8-1.6.5.2-1.8 1.3.8 1.6zm0-22c2.6.9.3-5.4-1.1-1.6.1.5-1.1 1.7 1.1 1.6zm0 481.9c.5 1.7 1.9-2.8 0-1.1.2.1-1.7.8 0 1.1zm0-21.6c2.4.2-.2-4.3-.8-1.1.5-.4-1.1 1.1.8 1.1zm.2-219.3c2.5 1.2-.6-4.5-1.1-1.1.5-.4-1.2 1.5 1.1 1.1zm-.2-175.5c1.7.4.8-4.3-.5-1.1.4 0-1.3 1.2.5 1.1zm.2 108.7c.4-.4.6-.6-.5.5.2-.2.3-.4.5-.5zm0-21.7c1-.1-.9-1.8-.5.1.2.1 0 0 .5-.1zm0-65.8c-.3.5-.5.8 0 0 .9-.5-.9-2.1 0 0zm1.6 254.3c4.2 5.3 12.6-6.6 1.3-5.8-1.1 1.5-3.8 1-1.3 5.8zm0 43c3.2 5.2 11.1-6.4.9-4.2.1.7-1.5-.4-.9 4.2zm.2-152.1c2.7 3 10.6-2.9 3.8-6.2-3.3-.6-6.1 1.6-3.8 6.2zm.6 240.6c4.5 3.4 8.9-6.5 0-4.6 0 0-1.6 1.9 0 4.6zm.2-263.1c3 3 8-5.9 0-4-.4.6-1.6 2.2 0 4zm1-66.3c4.2 2.9 3.6-6.4-1-2.2-.1.6-.3 1.1 1 2.2zm.3-109.4c4 2.4 2.2-9.4-1.4-2.4.5.3-2 1.9 1.4 2.4zm-.5-22.4c1.2 1.8 6.3-2.4.4-3.2-.9.7-1.9 1.3-.4 3.2zm.5 416.6c3 2.5 1.5-7.3-.8-2.1-.1.6-.3 1.1.8 2.1zm0-109.7c3 2.5 1.5-7.3-.8-2.1-.1.6-.3 1.1.8 2.1zm-1-66.3c.2 1.6 6.2-1.4 2.2-2.4-.3.2-1.4-.7-2.2 2.4zm1-131c0 1.5 4.6-2.1.7-3-1.1-.3-3 1.5-.7 3zm.3 372.5c-1-.7-.8-1.6 0 0 2.7.8 1.1-5.3 0 0zm-.6-88c-.3-.8 0-1.5 0 0 1 2.1 4.1-3.7 0 0zm1.1 105.2c.2-.1 2-.5 0 0-.2 0-2 .6 0 0zm-.3-61.5c.5 1.7 1.9-2.8 0-1.1.2.2-1.6.6 0 1.1zm0-87.8c1.4 1.7.6-3.4-.5-1.1.2.2-1 .8.5 1.1zm.3-175.4c-.7.2-1.1.3 0 0 2.8 0-2.1-4.5 0 0zm0-87.7c1.3.9 1.3-4.3-1.1-.5.1.2-.3 1.3 1.1.5zm-.5-21.9c.1 1.2 2.1-2.2.3-.8.2-0-1.3.3-.3.8zm.2-21.7c1.7.4.8-4.3-.5-1.1.4 0-1.3 1.2.5 1.1zm.3 240.2.5-.5c-.1.1 0 .1-1 1zm0-21.7c.9.2-.3-1.7-.5-.4.2-.2-.4.9.5.4zm0-109.7c.9.2-.3-1.7-.5-.4.1-.2-.4.9.5.4zm2.3 254.6c3.4 5.5 12.4-7.3 1.2-6-1 1.2-3 .3-1.2 6zm.3-22.2c3.7 5.3 11.3-6.8 1.3-5.8-1.1 1.5-3.8 1-1.3 5.8zm.5 43.6c2.8 4.5 9.9-6.4.2-4.6.4.7-2.2-.3-.2 4.6zm0-175.5c5.8 6.1 7.1-12-.9-2.5 0 .6 0 1 .9 2.5zm-.2-43.8c3.9 4.8 9.7-6.5.5-4.7.2.1-2 1.3-.5 4.7zm0-87.7c3.6 4.7 10.1-6.5.5-4.6.2.7-1.9-.3-.5 4.6zm0-87.7c2.8 3.9 10.3-3.1 1.5-4.4-.6.7-2.6 2.1-1.5 4.4zm.2-21.1c3.3 3.1 9.7-4.7 2.4-6-2.1-.2-5 2.3-2.4 6zm.3 284.4c5.3 3.7 5.4-10.6-.2-2.9-.2.8-.4 1.5.2 2.9zm1.1-241.1c3.8 3.1 6.4-7.1-1-4.1 0-.1-2.2 2.5 1 4.1zm0-65.8c4.1 2.8 5.9-6.5-1-4.2.2 0-2.3 2.2 1 4.2zm.4 459.7c3.9 1.5 2.4-7-1.3-2.1.1.7-1.5 1.9 1.3 2.1zm-1.2-219.5c1.5 2.7 6.7-2.3 1.2-3-1 1.1-1.3.7-1.2 3zm0-43.9c1.4 2.6 6.1-2.7 1.1-3-1 1.1-1.3.7-1.1 3zm1.2 284.8c1.1 2 3.4-3.8-.8-1.6 0 .6-1.2 1.2.8 1.6zm0-109.4c3.1.7 1.1-5.3-1.2-1.6.1.6-.9 1.6 1.2 1.6zm0-22.2c3 1.1 1.4-4.7-1.2-1.5-0 .6-0 0 1.2 1.5zm0-175.4c1.1 2 3.4-3.8-.8-1.6 0 .6-1.2 1.3.8 1.6zm.3-65.5c2.4 1.7 1.8-4.7-1.1-1.5.1.6-1.3 1.6 1.1 1.5zm.2 393.9c1.2.9.6-3-.5-.8.3.1-1.2 1 .5.8zm0-175.2c.9.8.8-3.5-.3-.8.3 0-1.3 1.5.3.8zm-.2-44.6.5-.5c.2-.2-1.7 1.7-.5.5zm0-130.8c-.5-.5-.5-.8 0 0 1.6 1 .4-2.4 0 0zm.2-66.3c-.5.2-.8.1 0 0 1.2.2.1-2.1 0 0zm1.9 188.8c3.5 4.4 12.8-6 1.3-6-1.7.8-3.5 3.1-1.3 6zm-.2-43.9c2.7 4.4 12.1-3.7 3.1-6.3-2-.1-5.6 2.3-3.1 6.3zm.2-87.7c4.9 5.4 10.7-8 .7-5.6-.7 1.3-3.2.8-.7 5.6zm-.2-43.9c2.8 4.3 11.6-3.1 3.4-6-2.3-.4-5.8 2.3-3.4 6zm.7 153.8c3.7 3.2 9.4-6.6.9-6-.9.3-2.9 2.9-.9 6zm-.2-220.4c2.2 4.1 9.6-2.5 2.6-4.5-1.1 0-3.7 1.3-2.6 4.5zm.5 88.3c2.9 3 8.6-5.6.7-4.4-.5.7-1.8 2.5-.7 4.4zm0-65.8c-.3 2.5 9.9-1.8 1.9-4.9-1-.1-3.1 2.2-1.9 4.9zm.5 262.9c2.1 1.9 7.2-3.7-.2-4.2.2.2-1 2.2.2 4.2zm-.3-307.8c.2 2.1 6.7-1.5 1.9-2.8-.2.5-1.6-1-1.9 2.8zm.5 394.9c1.2 1.6 5.3-2.6.5-3.6.1.7-.7-.3-.5 3.6zm.9-44.1c2.7 2 1.5-6-1-1.6.4.1-1.4 1.5 1 1.6zm-.9-65.5c.8 1.9 5.3-3.1 1.4-3.1-.7.4-2.2.1-1.4 3.1zm.9-110.1c1.1 2 3.4-3.8-.8-1.6 0 .6-1.3 1.2.8 1.6zm0 153.2c1.9 1.3 1.1-3.7-.5-1.1.2.2-1.1.7.5 1.1zm.2-131.8c1.4 1.7 1.5-3.3-1.1-.7.4.4 0 0 1.1.7zm.3 285c1.2.9.6-3-.5-.8.3.1-1.2 1 .5.8zm0-22.4c-.5.3-.8.5 0 0 1.6-.2-1.1-1.5 0 0zm-.3-21.9.5-.5c.2-.2-1.7 1.7-.5.5zm0-22 .5-.5c.2-.2-1.7 1.7-.5.5zm.3-43.3c-.8 0-.8 0 0 0 2 .4-.7-2.8 0 0zm0-219c.9.8.8-3.5-.3-.8.3 0-1.3 1.5.3.8zm-.3-88.5c.4-.4.6-.6-.5.5.1-.1.4-.4.5-.5zm2.6 407.8c2.9 5.4 12.4-4 3.2-5.8-1.1 0-4.6 1.5-3.2 5.8zm.3-306.3c3.3 4.8 13-6 2-6.7-1.9.6-4.5 3.4-2 6.7zm0 284.1c2.2 4.3 11.7-3.4 2.1-5.2-.8.2-3.3 2.1-2.1 5.2zm0-22c2.7 5.3 11-4.2 1.8-5.2-.7.3-2.9 2.2-1.8 5.2zm0-174.4c4.1 4.2 11.2-5.7 2.3-6.3-1.2-.1-3.7 2.7-2.3 6.3zm.8-109.3c3.5 4.3 9.9-6.7 1.5-6.5-1.1 0-4.4 2.8-1.5 6.5zm-.5-44.4c3.3 4.1 10.8-4 2.1-6-1.3 1-4.7.3-2.1 6zm.2 21.7c3.3 4.2 10.1-7.6 0-4.6.2.7-1.7-0 0 4.6zm0-109.7c2.5 3.2 8.4-4.9 1.5-5.2-.8.1-2.8 2.4-1.5 5.2zm.6 218.7c2.4 3 6.7-4.6.2-3.7.1.6-2.1.1-.2 3.7zm-.3-153.4c1.1 2 7.7-1 3.1-3.6-1.3-.4-4.8-.8-3.1 3.6zm.3-88c1.3 3.2 7.3-3.6.6-3.1-.8 1.1-1.4.5-.6 3.1zm1.2 372.8c3.2 2.7 2.5-7.3-1.1-2.1.5.2-1.9 1.6 1.1 2.1zm.3-21.7c4.3.9.1-7.3-1.6-2.1.5.2-1.8 2 1.6 2.1zm-.3-22.2c3.2 2.7 2.5-7.3-1.1-2.1.5.2-1.9 1.7 1.1 2.1zm-.3-44.1c2.7 2.7 3-5-1.1-1.9-.1.7-0 0 1.1 1.9zm.6 219.3c2.7 2 1.5-6-1-1.6.4.1-1.4 1.4 1 1.6zm0-109.6c2.7 2 1.5-6-1-1.6.4.1-1.4 1.4 1 1.6zm-.3-88c-.8-.8-.7-1.3 0 0 1.2 2 3.3-4.5 0 0zm.3-87.5c2.7 2 1.5-6-1-1.6.4.1-1.4 1.4 1 1.6zm-.3-175.7c-.9-.7-.7-1.3 0 0 1.2 2 3.3-4.5 0 0zm.3 372.5c1.9 1.3 1.1-3.7-.5-1.1.2.2-1 .9.5 1.1zm.3-219c2.5 1.2-.6-4.5-1.1-1.1.5-.4-1.2 1.5 1.1 1.1zm-.3-131.6c1.7.4.8-4.3-.5-1.1.4 0-1.3 1.2.5 1.1zm1.6 143.9c4.1 6.4 12.9-7.1 1.5-5.8-1.1 1.5-3.6.7-1.5 5.8zm.2-131.8c3.7 7.4 12.3-8.6.5-5-.1.1-2.2 1.4-.5 5zm.8 395.2c3.9 4.9 10.4-8.8-.3-5.1-.6.9-2.1 2.6.3 5.1zm-.5-88.3c3 4.3 11.4-4.3 1.5-5-.5.8-2.8-.5-1.5 5zm-.3-22.4c1.5 3.3 11.8-.1 3.2-4.6-.9 0-3.6 1.6-3.2 4.6zm.5-42.8c2.8 3.6 10.7-3.1 2.9-5.9-1.7.4-6.1.6-2.9 5.9zm0-43.8c3.8 4.5 10.8-5.7 1.7-5.8-1.8.5-3.9 2.9-1.7 5.8zm-.2-153.6c2.6 3.5 11.2-2.3 3.5-5.9-1.4.4-5.8.1-3.5 5.9zm.5 306.8c4.6 3.6 8.8-6.5 0-4.7.2.7-1.7 0 0 4.7zm1.3-241.2c6.3 4.1 4.2-11.5-2-2 .1.5.1.9 2 2zm-1.6-44.6c.6 3 9.1-.8 3.1-3.6-1.2.3-3.3-1.1-3.1 3.6zm.8 87.9c-.1 2.1 8.4-2 1.8-3.9-.8.6-2.8-.1-1.8 3.9zm0-65.5c3.3 2.7 6.4-7 .1-3.8-.3.7-1.3 2.4-.1 3.8zm.8-66c4.2 2.9 3.6-6.4-1-2.2-.1.5-.3.9 1 2.2zm.6-87.5c5 1.5 2-10.1-2.1-2.1 0 .6 0 1.2 2.1 2.1zm.2 498.8c.6-.1 1.2-.1 1.8-.3.8-0-6 .9-1.8.3zm-.2-60.8c3.2 2.7 2.5-7.3-1.1-2.1.5.2-1.9 1.6 1.1 2.1zm0-109.6c3.7 1.9 2.6-6.1-1-2.1.5.2-1.9 1.6 1 2.1zm-.3-88c.4 2.8 5.4-4.9-.8-1.9-.2.5-.3.8.8 1.9zm.5-261c.3 0 3.3-.6 0 0-.3.1-3.3.5 0 0zm-.5 63.9c-.7-.9-.5-1.8 0 0 3.1 1.9 1.9-5.6 0 0zm.3-22.1c1.5 1.7 2.9-5.2-.7-1.2.4.2-1.3 1 .7 1.2zm.2 459.6c-.8 0-.8 0 0 0 2 .4-.7-2.8 0 0zm.3-88.2c-.3.3 1.1-1.1 0 0 0 .1-1 .9 0 0zm0-109.6c-.3.3 1.1-1.1 0 0 0 .1-1 .9 0 0zm2.6 210.6c3.4 4.5 12.8-4.5 1.4-6-.7.4-3 2.5-1.4 6zm-.3-44.3c3.4 5.6 12.3-4 2.1-5.2-1.3.9-3.4.1-2.1 5.2zm.6-109.2c5.2 4.7 9-8.9 0-4.6 0 0-1.6 1.9 0 4.6zm.2-219c3.4 4.4 10.1-7 .7-5.5-1.2.1-2.7 2.5-.7 5.5zm0-65.7c2.2 3.9 10.2-4.9 2.3-5.7-2.1-.3-4.8 1.9-2.3 5.7zm.3 415.5c-.4 2.4 9.4-1.2 2.1-4.1-.9.8-2.7-.4-2.1 4.1zm0-240.4c1.5 2.4 8.9-4.5 1.3-5.2-.6.2-2.6 2.4-1.3 5.2zm.2-43.9c2.9 3 7.9-5.7.4-4.4-.5.8-1.9 2.5-.4 4.4zm1 131.1c4.1 2.5 3.5-6.5-1-2.3-.1.6-.3 1.1 1 2.3zm.3 65.5c3 2.5 1.5-7.3-.8-2.1-.1.5-.3 1 .8 2.1zm-1.1-88.2c.1 1.6 6.6-1.6 1.9-2.4-1 .2-2.1-.2-1.9 2.4zm1.4-21.7c3.1.5 2.1-5.2-1.3-1.6.1.6-1.1 1.6 1.3 1.6zm-1.4-22.2c0 1.6 6.6-1.5 1.6-2.7-.3.3-1.5-.4-1.6 2.7zm1.1-43.3c0 1.5 4.6-2.1.7-3-1.1-.3-3 1.4-.7 3zm0-43.6c3.1 1 1.3-7.3-.8-2.1.7.1-2 1.4.8 2.1zm0-66.1c0 1.5 4.6-2.1.7-3-1.1-.3-3 1.6-.7 3zm-.3-21.9c-.8-.9-.5-1.8 0 0 3.1 2 2.5-5.6 0 0zm.6-65.5c3.4 2.3 1.5-7.3-1.3-1.9.4.1-1.6 1.9 1.3 1.9zm0 350.3c-1-.7-.8-1.6 0 0 2.5 2.1.9-5.7 0 0zm.3-219.5c2.9 1.4.4-4.2-1.2-1.1-0 .2-.8 1.4 1.2 1.1zm0 284.5c-.8 0-.8 0 0 0 2 .4-.7-2.8 0 0zm0-21.4c.5.9 2.2-2.8-.8-2.2.6-.4-1.2 1.9.8 2.2zm0-373.5c-.6.5-.8.8 0 0 1.6-.5-1.3-2.3 0 0zm-.3-43.4c1 1.2 1.3-2.4-.2-.8.1 0-.8.5.2.8zm1.3 56.4c3 5 13.2-2.8 4.2-6.3-2-.3-6.2 1.8-4.2 6.3zm1.3 351.4c4.5 5 10.3-8.6.3-6.2-.7.7-3 3.1-.3 6.2zm-1.3-67.7c.5 6.1 13.6-1.9 3-4.5-1.1.1-3.3 1.5-3 4.5zm.5-21.1c3.7 6.2 12.7-6.9.9-4.7 0 .9-1.9-.5-.9 4.7zm.5-218c4.1 5.1 11.2-7.6.9-6.4-1.8.7-3.8 3.5-.9 6.4zm.8 87.2c3.9 4.4 8.8-7.2-.8-4.7.1.1-2.1 2.1.8 4.7zm-.3-154.5c1.5 3.1 7.3-2.9 1.3-3.5-1.1 1.2-1.6.6-1.3 3.5zm1.1 329.2c2.6 2 5.4-5.2 0-3.6-.7 1.2-1.6 2.1 0 3.6zm.5 130.8c1.1 2 3.4-3.8-.8-1.6 0 .6-1.3 1.2.8 1.6zm0-21.2c.6 1.6 4.8-3.9.2-3.7-1-.1-2.8 2.3-.2 3.7zm0-88.5c1.1 2 3.4-3.8-.8-1.6 0 .6-1.3 1.3.8 1.6zm0-131c0 1.5 4.6-2.1.7-3-1.1-.3-3 1.4-.7 3zm-.2-175.4c3.7 1.8 1.6-5.8-.9-1.8-.1.8 0 0 .9 1.8zm.5 372c.9.5 3.2-2.9-.8-1.1 0 .5-.8.9.8 1.1zm0-153c1.2 1.1 3.4-3.4-.9-2.3.3 0-.8 1.1.9 2.3zm0-22c2.5 2.1.9-5.7-.8-1.6-.1.5-.2.9.8 1.6zm0-109.6c2.5 2.1.9-5.7-.8-1.6-.1.5-.2.9.8 1.6zm-.3-22.2c.7 1.7 3.6-3.6-.6-1.5-.1.7 0 0 .6 1.5zm.3-131.8c1.9 1.7.8-3.4-.8-1.1 0 .5-.8.9.8 1.1zm.2 500.1c.3-.1.5-.1.8-.3.1-0-2.7 1-.8.3zm-.2-83.5c-.5-.5-.3-1.1 0 0 1.1 1.5.9-3.5 0 0zm.2-197.9c-.5.5-.8.8 0 0 1.4-.4-1.3-2.3 0 0zm0-21.1c.7 1.3.9-3.8-.3-1.1.5 0-1.5 1.2.3 1.1zm0-88.5c1.2.2.1-2.1-.8.1.3.1 0 0 .8-.1zm0-128.4c.2 0 1.4-.6 0 0-.2.1-1.4.5 0 0zm2.7 142c3 4.3 12.3-3.5 3.7-6.9-2.5-.7-6.4 2.1-3.7 6.9zm.7 109.9c3.5 4.2 10.4-6.5 1.6-6.6-1.1 0-4.4 2.9-1.6 6.6zm-.5-219.8c3.1 4 10.8-4 2.6-5.7-1.7.6-5.5.4-2.6 5.7zm0 305.9c2.4 5.3 11.1-5.2 1.1-4-.1.9-1.5-.5-1.1 4zm.2-43.1c3.4 3.7 9.7-5.8.9-5.2-.5.9-2.8-.1-.9 5.2zm.6-109.1c3 3.2 10.1-7.6-.5-5.3-.4.7-1.8 3.2.5 5.3zm-.8-67.1c2.2 3.8 9.7-1.4 2.7-4.2-.9 0-3.2 1.4-2.7 4.2zm.8-42.7c3.4 4.3 8.9-8.5-.3-4.9-.8.8-2 2.5.3 4.9zm0 371.9c2.9 2.9 6.5-6 0-3.6.2.6-1.7 0 0 3.6zm1.3-21.6c6 2.4 1.9-9.1-1.5-2.6.7.3-2.3 2.1 1.5 2.6zm-1.6-44.1c2.5 3.3 7.7-5.6.3-3.6 0 .8-1.3-.3-.3 3.6zm1.6-153.3c1.5 2.4 5.6-5.2.3-4.5-1-.1-4 2.8-.3 4.5zm-1.1-219c3.3 3.1 6.9-6.6-.1-4.2.3.7-1.9 0 .1 4.2zm1.4 459.7c2 2 4.4-5-.8-3.2-.7 1-1.6 1.9.8 3.2zm-.3-153.5c3.2 2.7 2.5-7.3-1.1-2.1.5.2-2 1.5 1.1 2.1zm-1.3-43.9c1.4 1.9 6.8-2.6.7-3.7.1.7-.5-.1-.7 3.7zm1.6 131.4c2.7 2 1.5-6-1-1.6.4.1-1.4 1.4 1 1.6zm-.8-350.6c1.3 1.7 4.9-2.8.1-3.2 0 .6-.7.9-.1 3.2zm.8 459.6c1.9 1.3 1.1-3.7-.5-1.1.2.2-1 .9.5 1.1zm.2-21.9c.7 1.4 3-2.4-1.1-1.9.1.7-.4 1 1.1 1.9zm-.2-131.5c1.9 1.3 1.1-3.7-.5-1.1.2.2-1 .7.5 1.1zm.2-197.1c1.8 1.3.6-4.3-.8-1.1.2.4-1.2 1.5.8 1.1zm-.2-66.1c.2 1.2 2.8-2.2.3-.8.2 0-2 .4-.3.8zm.2 108.9c-.3.3 1.1-1.1 0 0 0 0-.9.9 0 0zm1.8 276.9c4.7 5.4 12.5-7.4 1.4-6.8-1.9 1.1-4.2 3.6-1.4 6.8zm0-176.4c1.8 5.1 11-3.2 2.6-4.9-1.1 0-3.7 1.5-2.6 4.9zm.9-64.5c3.5 4.2 10.4-6.5 1.6-6.6-2.6-.2-5 3-1.6 6.6zm-.9-23.2c1.9 4.5 11.1-1.9 3-4.6-1.3-.1-4.3.9-3 4.6zm.6-174.1c4 4.3 10.1-6.6 1.7-6.6-1.2 0-4.1 2.8-1.7 6.6zm-.3 459.1c2.1 3.8 10.5-3.8 1.6-4.7-.6.6-2.5-.5-1.6 4.7zm0-219.2c2.5 3.6 9.3-2.6 2.7-4.4-.9-.1-3.3 1.8-2.7 4.4zm.6-86.7c3.1 3.1 9.4-5.8 1.5-5.7-1.3 0-3.5 2.8-1.5 5.7zm-.3-176.2c3.3 4.8 9.3-7.3 0-3.9.2.8-1.7-.4 0 3.9zm.5 416.3c2.4 2.9 7.7-6.2.2-3.5-.3.5-1.4 1.9-.2 3.5zm.8-66c3.6 2.6 4.2-6.9-.6-2.6.3.4-2.6 1.2.6 2.6zm-.8-43.9c3.3 4.5 5.5-7.3.1-2.6-.2.6-.5 1.1-.1 2.6zm0-153.4c-.8 2.5 8.4-1 .8-3.6.1.8-1.9-.6-.8 3.6zm0-87.5c-.1 2.1 8.4-2 1.8-3.9-.8.6-2.9-.1-1.8 3.9zm1.3 328.6c3.2 2.7 2.5-7.3-1.1-2.1.5.2-1.9 1.7 1.1 2.1zm-.3-153.7c1.5 2.7 4.6-4.6-.8-1.9-.3.8 0-0 .8 1.9zm.3-131.5c-1-.6-1.6-.7 0 0 3.1 3.1 2.8-6.3 0 0zm0-129c.8-.1 1.5.4 2.6-.8.8.1-6.2.3-2.6.8zm.2 457.8c2.7 2 1.5-6-1-1.6.3.1-1.3 1.5 1 1.6zm0-109.6c2.7 2 1.5-6-1-1.6.3.1-1.3 1.5 1 1.6zm-.2-197.6c2.3 1.1 1.9-3.5-.8-1.3-.2.5 0 0 .8 1.3zm.2-43.6c2 1.3 1.4-5.3-.8-1.6.4.1-1.6 1.4.8 1.6zm.3 284.8c2.6 1.1-.1-5.2-1.1-1.1.5-.4-1.2 1.5 1.1 1.1zm0-328.9c1.8 1.3.6-4.3-.8-1.1.2.4-1.2 1.5.8 1.1zm1.9 231.3c1.5 4.1 13.5.1 5.4-6.1-3-1.2-7.3.6-5.4 6.1zm1.2 175.9c3.5 3.7 10.8-5 1.8-6-1.1.1-3.5 2.4-1.8 6zm-.2-263.6c2.8 5 11.5-6.2.6-4.7.2.1-2 1.3-.6 4.7zm0-65.8c1.4 3.2 11.3-1.8 2.6-5.2-.6 0-3.5 1.9-2.6 5.2zm.2-43.3c3.9 5.3 11.7-9.1-.3-4.9 0 0-1.7 2 .3 4.9zm0-87.7c2.9 4.5 10.6-5 .8-5.4-1.2-.2-3 2.3-.8 5.4zm.3 481.6c1.4 2.7 9-3.8 1.3-4.7-.7.1-2.5 2.3-1.3 4.7zm.3-43.3c0 2.3 9.3-3.4 1.5-5.2-1 .1-3.3 2.4-1.5 5.2zm-.6-44.4c.1 3 11.1-2.2 1.6-4.5-.8.9-1.9.3-1.6 4.5zm.3-240.7c3.1 4.2 9.7-7.1.3-4.6-.5 1.3-2.1.6-.3 4.6zm1.6 262.9c5.4 2.2 2.6-9.1-1.3-2.6-.1.7-.3 1.4 1.3 2.6zm0-109.7c5.5 2.8 1.7-9.2-1.3-2.6-.1.7-.3 1.5 1.3 2.6zm-.3-241.4c4.2 2.9 3.6-6.4-1-2.2-.2.5-.3.9 1 2.2zm.5 307c4.2.9 1.4-7.3-1.3-2.1 0 .6-.1 1.1 1.3 2.1zm-1-153.8c.7 1.9 6.2-3.3 1.5-3.1-.8.4-2.4-.1-1.5 3.1zm1 284.8c2.9 1.4 1.3-5.6-.8-1.7 0 .5-.1 1 .8 1.7zm0-394.7c1.6 1.3 3.4-4.7-.5-1.6.4.1-1.5 1.2.5 1.6zm0-65.8c1.5 1.7 2.9-5.2-.7-1.2.3.1-1.3 1.1.7 1.2zm0-21.9c-1-.6-1-1.3 0 0 3.4 1 .6-5.1 0 0zm.3 328.1c-.8 0-.8 0 0 0 2 .4-.7-2.8 0 0zm0-21.9c-.8 0-.8 0 0 0 2 .4-.7-2.8 0 0zm0-65.5c.8 1.1 1.9-1.8-.8-1.3.1.5-.3.5.8 1.3zm0-21.7c2.4.2-.2-4.3-.8-1.1.5-.4-1.1 1.1.8 1.1zm-.3-66c0 .9 2.2-1.5.3-1.3-.2.1-1.7-.4-.3 1.3zm2.7 210.4c4.6 5.2 11-8.4.4-6.1-.7.7-3 3.1-.4 6.1zm-.6-87.5c2.9 3 11.9-2.5 4-6.9-3.5-1-7 2.4-4 6.9zm-.2-176c4.6 5.6 12.1-6.8 1.5-5.9-1 1.4-3.9 1.5-1.5 5.9zm.2-21.4c2.7 3.6 12-2.6 3.7-6.9-3-1-6.4 2.8-3.7 6.9zm.3 240.2c2.1 3.8 9.9-3.5 2.6-5.2-1.1-.1-3.7 2-2.6 5.2zm0-87.7c2.5 4.1 10.3-3.6 2.6-5.2-1.1-.1-3.7 2-2.6 5.2zm0-21.9c2.7 4.5 11-6.1.5-4.7.3.8-2-.4-.5 4.7zm1.3-43.4c5.4 3.2 7-9.1-1.3-4.6 0 .1-2.2 2.6 1.3 4.6zm-1-43.8c2.2 3.9 10.2-4.9 2.3-5.7-2.1-.3-4.8 1.9-2.3 5.7zm0-109.7c3.4 4.6 10.3-7 .7-5.5-1.2.1-2.8 2.5-.7 5.5zm-.3-22.4c-.7 2.9 11.7-.7 2.6-5.2-.7 0-3.4 1.9-2.6 5.2zm.5 306.7c2.1 3.5 9.5-6.5-.1-3.6.2.6-1.8 0 .1 3.6zm.3-109.3c2.2 3.6 8.9-7-.4-3.9.1.7-2.1.7.4 3.9zm-.3-43.6c1.8 2.7 9.2-3.8 1.6-5.2-.7.1-2.8 2.3-1.6 5.2zm1 306.4c-1.3-1.1-1.3-1.8 0 0 4.5 2.3 3.1-8.2 0 0zm-.2-65.8c2.2 2.9 6.1-6 .2-3.5-.3.6-1.7 1.9-.2 3.5zm.8-131.8c3.5 1.1 3.2-6.1-1.3-2.1.2.7-1.6 1.9 1.3 2.1zm-1.1 174.9c.1 1.6 6.6-1.6 1.9-2.4-1.1.2-2.1-.1-1.9 2.4zm1.3 44.1c-.9-.7-.8-1.6 0 0 2.5 2.1.9-5.7 0 0zm0-66.3c.9.5 3.2-2.9-.8-1.1 0 .5-.7.9.8 1.1zm.3-65.5c1.5 1.7 2.8-4.7-1.1-1.1 0 .2-.8 1.4 1.1 1.1zm0-285c2.9 1.4.4-4.2-1.2-1.1 0 .2-.8 1.4 1.2 1.1zm-.3-22.2c.1 1.2 2.1-2.2.3-.8.2 0-1.3.3-.3.8zm3.2 254.7c7.3 6.1 11.2-12-.4-6.5-.6 1-2.3 3.5.4 6.5zm.2-263.1c7.2 5.9 9.9-11.7-.6-6.2-.7 1.1-2.7 3.3.6 6.2zm.3 459.2c2.6 4 9.6-5.1.9-4.5-.4.7-2.3 2.2-.9 4.5zm-.3-43.9c2.8 4.4 10-5 1.1-4.5-.5.6-2.1 2.3-1.1 4.5zm.6-196.8c4.2 4.1 9.3-6.9-.5-4.9.1-0-2 2.1.5 4.9zm-.6-88.5c2 4.2 9.7-2.8 2-4.5-1.1.7-3.5 0-2 4.5zm0-64.7c3.4 3.3 10-5.9 1.3-6-.9.3-2.8 2.8-1.3 6zm1.1-22.2c4.5 3.4 7.9-8.1-1-4.9.1 0-2.2 2.3 1 4.9zm-.5 306.2c2.6 3.3 7.1-5.7 0-3.6.2.7-1.7-.2 0 3.6zm1.2-109.4c4.1 1.9 4.9-7.1-1.1-3.9-.7 1.4-1.5 2.6 1.1 3.9zm-1.2-66.3c1.4 3.2 8-2.7 1.3-3.5-1.2 1.3-1.7.6-1.3 3.5zm0-152.7c1.1 2.6 9.4-2.6 1.9-4.9-.9-.1-3.3 2.3-1.9 4.9zm0-43.9c-.3 2.3 9.6-2.4 1.9-5-.8-.1-3.3 2.1-1.9 5zm1.5 415.9c3 2.5 2.6-6.6-1.3-2.1.1.7-1.5 1.9 1.3 2.1zm0-109.7c3 2.5 2.6-6.6-1.3-2.1.1.7-1.5 2 1.3 2.1zm.3 87.5c3.1.5 2.1-5.2-1.3-1.6.1.6-1.1 1.6 1.3 1.6zm-.3-43.9c2.7 2 1.5-6-1-1.6.3.1-1.3 1.4 1 1.6zm.3 109.4c2.8.2-.2-4.4-1-1.1.6-.4-1.4 1.1 1 1.1zm.2-131.6c3.5 1.4-.4-5.3-1.2-1.4.1.5-.9 1.8 1.2 1.4zm-.2-109.6c2.8.2-.2-4.4-1-1.1.6-.4-1.4 1.1 1 1.1zm-.3-44.1c1.9 1.3 1.1-3.7-.5-1.1.2.2-1 .7.5 1.1zm.3-197.4c.9 1.4 2.3-2.4-.5-1.1 0 .4-1.2 1 .5 1.1zm0 153.5c0 .9 2.2-1.5.3-1.3-.2 0-1.7-.3-.3 1.3zm.2-22.4c-.5.5-.8.8 0 0 1.4-.4-1.3-2.3 0 0zm1.4 13.5c3.2 4.5 12.8-4 3.1-7.1-1.9 0-6.1 2.9-3.1 7.1zm.2-131c3.6 4.6 12.9-4.5 3.2-7.7-2.2-.1-6.5 3.3-3.2 7.7zm0 239.9c4 5.5 12.2-6.2.9-4.9-.7 1.5-2 .6-.9 4.9zm.3-219.3c2.5 4.9 11.1-3.3 2.6-5.2-1.3 0-4.3 1.4-2.6 5.2zm0 460.2c3.2 4.5 11.1-6.3.8-4.3.1.7-1.5-.4-.8 4.3zm.2-131c4.1 3.6 8.6-7.2 0-4.8.2.7-1.7 0 0 4.8zm0-21.9c3.3 4.2 10.1-7.6 0-4.6.2.7-1.7 0 0 4.6zm1.9 43.5c4.4 3.2 2.5-9.6-1.6-2.6.7.3-2.3 2.3 1.6 2.6zm0-87.6c4.4 3.2 2.5-9.6-1.6-2.6.7.3-2.3 2.2 1.6 2.6zm0-65.8c1.5 2.3 5.6-5.1.3-4.5-1-.1-4 2.7-.3 4.5zm-.8 43.8c1.8 1.9 7.3-3.9-.2-4.2.2.2-1 2.2.2 4.2zm0-87.7c1.5 1.6 6.5-2.6 1.9-3.9-.9-.3-3.1 1.7-1.9 3.9zm-.6-22.4c1.4 1.8 6.9-2.6.7-3.7 0 .8-.4-.5-.7 3.7zm.3-44.1c1.3 2.6 6-2.9 1.2-3-1 1.1-1.3.6-1.2 3zm0-65.8c-.3-1.2.1-1.7 0 0 2.3 3.3 6.4-5.8 0 0zm1.6 372.7c2.5 1.7 2.3-6.1-1.3-1.6.1.6-1.1 1.6 1.3 1.6zm-.5-22.2c2.2 2.1 2.3-5-.6-1.6.3.3-1.5 1 .6 1.6zm.2 65.6c1.9 1.3 1.1-3.7-.5-1.1.2.2-1 .7.5 1.1zm.3-394.4c.9 1.6 2.5-4.8-.8-1.1.2.4-1.2 1.5.8 1.1zm.3 372.2c1.2.9.6-3-.5-.8.3.1-1.2 1 .5.8zm-.3-132.1c-.3.3 1.1-1.1 0 0 0 0-1 .9 0 0zm0-108.9c.5.6 2.2-.9-.5-1.3.1.5-.2.6.5 1.3zm0-110.4c.1-.1.4-.4.5-.5-.3.3 0 0-1 1 .1-.1.3-.3.5-.5zm2.1 13.9c4.2 5.8 14.8-5.4 2.7-7.1-2.3.3-5 3.2-2.7 7.1zm0-44.4c3.8 7.2 14.5-6.2 2.2-6.2-1.5.7-4.2 2.1-2.2 6.2zm0-21.9c9 10.1 10.6-15.4-.9-3.1 0 .5 0 .9.9 3.1zm.5 394.7c10.5 7.4 6.8-15.3-1.1-2.4 0 .4.1.8 1.1 2.4zm0-285.4c3.7 7.4 12.3-8.6.5-5-.1.1-2.2 1.4-.5 5zm-.5-21.9c3.1 5.2 13-2.9 3.3-5.8-1.9 0-4.5.9-3.3 5.8zm1 351.4c3.1 3.8 10.7-3.7 2.6-6.2-1.7-.1-5.6 2.6-2.6 6.2zm-.2-154.1c3.3 4.6 10.7-3.6 2.1-5.5-.7.2-3.3 2.3-2.1 5.5zm.7-327.8c4 3.7 10.6-7.5.2-6.1-1.2.7-3.1 3.1-.2 6.1zm-.2 459.7c3.3 4.2 10.1-7.6 0-4.6.2.7-1.7-.2 0 4.6zm0-110.4c2.1 3.8 9.1-4.5 1.1-3.6-1 1.2-1.8.7-1.1 3.6zm0-175c2.2 4.2 10.5-4.9.6-4.5.2.7-1.8-.3-.6 4.5zm.7 241c.8 2.3 7.1-3.6 1.1-4.2-.6.1-2.7 2-1.1 4.2zm.3-153.8c1.8 2.3 6.1-3.2.1-3.2-.7.7-1.7 1.5-.1 3.2zm.8 131.6c3.2 2.7 2.5-7.3-1.1-2.1.5.2-2 1.5 1.1 2.1zm-1.1-87.7c3.4 2.7 4.2-7.3-.3-1.8 0 .8 0 0 .3 1.8zm1.4-87.5c3.8 1.1 1-7.3-1.3-2.1.6.2-2.1 2.1 1.3 2.1zm-1.4-22.2c1.8 1.8 5.5-3.4.3-2.8-.5 1-1 .9-.3 2.8zm.8-175.4c3.3 1.2 2.3-5.9-1-1.8 0 .5-.1.9 1 1.8zm.3 350.4c.8 2.1 3.1-3.7-.4-1.6.4.3-1.5.8.4 1.6zm.3-87.5c2.6.9.3-5.4-1.1-1.6.1.5-1 1.6 1.1 1.6zm0-43.6c3.1.6 1-6.3-1-1.6.2 0-1.1 1.9 1 1.6zm0 262.3c1.9 1.3 1.1-3.7-.5-1.1.2.2-1 .9.5 1.1zm.2-416.3c1.8 1.3.6-4.3-.8-1.1.2.4-1.2 1.5.8 1.1zm1.8 297.9c6.1 6.9 12-10.1.3-6.4-1 1-3.3 2.7-.3 6.4zm-.7-307.3c2 4.4 13.1-.8 5.2-6.5-3.1-1.4-7.5 1-5.2 6.5zm.5 351.4c4 4.2 12.5-6.2 2.6-7-2.5 0-5.4 2.7-2.6 7zm.5 21.4c2.9 4.5 11-6.6 1.1-5.9-1.5 1.6-3.8 1.7-1.1 5.9zm-.3-88.3c2.8 4.6 10.1-4.5 2-5.5-.8.2-3.1 2.2-2 5.5zm.6-65.2c5 5.1 9.5-10.2-.4-4.8.1.2-2 2 .4 4.8zm-.3-44.9c1.6 3.7 10.9-.1 2.3-4.7-.8.1-3.7 1.4-2.3 4.7zm0-108.6c4.6 5 11-8.9-.3-4.8.3.8-2.1-.2.3 4.8zm-.3-22.7c1.1 3.6 11.5-1.3 2.6-4.9-.8.1-3.5 1.7-2.6 4.9zm2.9 389.4c1.7 0 4.4-.6-.8-1-1.4.5-4.3 1.9.8 1zm-2.3-411.6c1.1 3 8.6-1.4 2.3-4.1-.8.8-2.6-.2-2.3 4.1zm.5 394.9c2.6 3.3 7.2-6.2 0-4 .2.6-1.7-.2 0 4zm-.3-153.2c1.6 2.3 8.1-3.9 1.5-4.4-1-.1-2.5 2.1-1.5 4.4zm0-66.6c1.5 2.7 7.3-3.4 1.1-3-.9 1-1.4.6-1.1 3zm.3-43.3c2.4 3 6.7-4.6.2-3.7.1.6-2.1-0-.2 3.7zm1.3-197.1c5.7 2.2 1.4-9.2-1.9-2.4 0 .7 0 1.4 1.9 2.4zm-1 438c1.7 2.1 5.4-3.9.7-3.1-.7 1.3-1.1 1-.7 3.1zm.5-153.7c1.6 1.8 4.7-3.2-.2-2.5-.6.9-1.1.5.2 2.5zm-.8-109.9c.2 1.6 6.2-1.4 2.2-2.4-.3.3-1.4-.8-2.2 2.4zm.3-153c1.7 1.8 5.5-3.4.3-2.8-.5 1-1 .9-.3 2.8zm1 131.3c-1-.6-1-1.3 0 0 3.4 1 .6-5.1 0 0zm0-21.9c1.5 1.7 2.9-5.2-.7-1.2.3.1-1.2 1.2.7 1.2zm.5-153.7c1.8 1.3.6-4.3-.8-1.1.2.4-1.2 1.5.8 1.1zm0 393.6.5-.5c-.1.1-.1.1-1 1zm1.1 56.4c2 8.2 16.8-3.2 3.6-6.1-1.3.2-4.2 1.7-3.6 6.1zm1.3-196.3c3.2 4.2 12.3-3.4 3-6.3-1.8.6-5.8.9-3 6.3zm0-175.4c3 4.5 12.1-3.4 3.1-6.2-1.4.6-5.9.5-3.1 6.2zm1 416.6c3.1 3.6 8.8-6.1 1.5-6-1 .1-3.7 2.5-1.5 6zm.8-65.8c6 3.1 5.9-8.9-1.3-4.8-.6 2.1-1.2 2.8 1.3 4.8zm-.5-21.9c3.6 3.8 8.4-7.2.2-5.5-1.2.1-3.1 2.8-.2 5.5zm-.8-417.4c3.9 5 9.8-4.9.7-4.2 0 .9-2.1-.4-.7 4.2zm.2 372.8c1.8 3 8.8-3.2 2.3-4.4-1.2.7-2.7-.2-2.3 4.4zm1.4-175c3.3 3.2 6.9-7.4-1-4.1 0-.1-2.2 2.5 1 4.1zm-1.1-21.9c.5 2.9 10.3-3 1.4-5.1-.6.1-2.5 2.3-1.4 5.1zm-.3-22.5c2.1 2.7 7.9-2.6 2.3-4.4-.8-.1-2.9 1.9-2.3 4.4zm.3-87.1c1.5 2.5 8.5-2.3 2.4-4.7-1.2-.3-3.7 1.7-2.4 4.7zm0-22.7c1.6 3.5 7.3-3.7 1.3-3.6-1.1 1.3-1.6.7-1.3 3.6zm0-21.2c1.4 3.3 9.3-4 2.2-4.9-1-.2-3.4 2.2-2.2 4.9zm.5 372.5c3.3 2.6 5.9-7 .1-3.8-.3.7-1.3 2.5-.1 3.8zm1.1-44.3c3.5 1.1 3.2-6.1-1.3-2.1.1.7-1.5 1.9 1.3 2.1zm-.5-65.6c1.5 1.7 6.3-3.7.1-3.4-.4.6-1.9 1.8-.1 3.4zm-.6-65.5c4.4 3 3.8-8-.2-2.3-.1.6-.3 1.2.2 2.3zm1.1-88.2c4 1.6 1.9-7-1.4-2.1.1.8-1.4 2 1.4 2.1zm0 197.3c3 2.5 1.5-7.3-.8-2.1-.1.6-.4 1.1.8 2.1zm0-21.6c3.1 1 1.3-7.3-.8-2.1.7.1-2 1.3.8 2.1zm.3 174.8c2.5 2.1.9-5.7-.8-1.6 0 .5-.2 1 .8 1.6zm.2-241.4c3.9 1-2.3-5.4-1.3 0zm-.2-131.3c2.4 1.8 1.4-5-.8-1.4.3.2-1.2 1.1.8 1.4zm1.8 100c2.7 4.9 12.4-3.2 3.7-6.6-2-.3-6.8 2.1-3.7 6.6zm-.6-22.2c3.8 5.9 13.9-5.6 2.5-6.2-1.5 1.4-4.1.6-2.5 6.2zm.6-21.9c2.6 5.5 12.9-3.9 2.9-6.1-1.1.1-4.9 1.5-2.9 6.1zm-.6-43.9c2.9 4.8 13.2-2.2 4.2-6.3-2-.3-6.2 1.8-4.2 6.3zm.8 307.2c2.6 3.5 12.3-2.4 2.9-6.1-1.6.5-6.1 1-2.9 6.1zm-.2-153.4c3.3 5.5 12.3-7.1 1.5-6-1.7.7-3.6 3-1.5 6zm.2-196.9c2.9 3.3 11.3-3.2 3.4-6.2-2.7-.9-6.5 1.6-3.4 6.2zm.6 415.6c2.9 4.3 8.9-5.9.8-4.6-.6.8-2.2 2.4-.8 4.6zm-.6-131.3c1.8 3.5 11.7-3 2-5.7-1.1.1-2.8 2.4-2 5.7zm.3-66c3.3 5 10.2-6.6.4-4.6.3.7-2-.3-.4 4.6zm.3-43.1c3.9 3.2 9.3-6.7.9-6.1-.9.2-3 3-.9 6.1zm0 218.4c2.5 2.8 9.3-3.5 1.7-5-.8 0-2.6 2.4-1.7 5zm1.2-328.6c4 2.9 5.7-7.1-.4-4.4-.8 1.5-1.8 2.8.4 4.4zm1.1 367c1.4 0 3.3-.6-1-.6-.8.3-2.5 1.2 1 .6zm-.8-126.9c2.1 2.9 3.6-5.5-.8-2.1-.2.6-1.7 1.5.8 2.1zm0-152.6c4.7 2.4 2.3-8-1-2.4-.1.6-.3 1.2 1 2.4zm.2-219.8c2.7 2.5 2.8-6.2-1.1-2.1-.1.7-1.9 1.9 1.1 2.1zm0 394.6c3 2.5 1.5-7.3-.8-2.1-.1.6-.3 1.1.8 2.1zm0-372.4c3.2 1.4 1.8-6.7-1.1-1.8 0 .5 0 1 1.1 1.8zm.3 415.6c.9 1.9 2.6-3.9-.8-1.1 0 .5-.8.9.8 1.1zm0-109.7c1.9 1.7.8-3.4-.8-1.1 0 .5-.8.9.8 1.1zm-.3-240.7c.7 0 3.3-2.4-.4-2.5-.1.8-.7 1.2.4 2.5zm.3-44.1c1.8 1.3.6-4.3-.8-1.1.2.4-1.2 1.5.8 1.1zm0 262.8c0 .9 2.2-1.5.3-1.3-.3 0-1.6-.1-.3 1.3zm2.1 100.6c2.5 5.2 14.1-2.2 4.7-6.8-2.4-.9-7 1.5-4.7 6.8zm-.2-66.1c2.8 5.2 13.9-1.5 5.2-6.6-2.2-.9-7.2 1.4-5.2 6.6zm0-88c2.6 6.2 14.8-2.2 3.9-6.3-1.8 1-5.3-.7-3.9 6.3zm.2-109.1c3.3 5.6 14.4-3.3 3.6-6.9-2.7-.3-5.7 2-3.6 6.9zm0-87.9c4 7.2 15.1-6 1.7-6.3-1.5.6-3.6 2.2-1.7 6.3zm.5 131.3c2.6 5.4 12.4-2.8 3.2-5.8-1 .1-4.6 1.5-3.2 5.8zm.3-65.3c4.2 6.2 12.2-6.9 1.2-6-1.4.2-3.5 2.4-1.2 6zm0 372.3c3.5 5.7 11.8-7.2.8-4.9-.6 1.5-2.1.6-.8 4.9zm.3-43.4c2.7 3.5 10-2.5 4.4-6.1-3.7-1.2-7.6 1.6-4.4 6.1zm0-175.4c3.1 3.9 11-3.8 2.6-6.3-1.8 0-5.5 2.6-2.6 6.3zm-.3-110.2c2.4 4.1 10.7-2.3 3.3-4.9-2.1.1-5.2-.5-3.3 4.9zm0-66c1.8 4.6 10.9-1.9 3.3-4.6-1.1-.1-4.3 1.1-3.3 4.6zm.3-21.1c4.1 5.1 11.4-7.1.6-5.4-.6.6-2.4 2.7-.6 5.4zm.5 152.9c2.5 3.9 9.4-6.4.3-4.7.2.1-2.2 1.5-.3 4.7zm.3 65.3c1.4 3.2 8-2.7 1.3-3.5-1.2 1.3-1.7.6-1.3 3.5zm0-87.7c.7 2.9 8.1-2.7.8-3.6.1.8-1.9-.6-.8 3.6zm1.5 153.8c4 2.5 1.5-8.3-1.5-2.1.5.2-1.8 1.9 1.5 2.1zm-1.3-329.5c1.3 2.4 6.7-2.6.7-2.4-.7.7-1.1.3-.7 2.4zm1.6 395c3.3 1.1 1.2-6.6-1.6-1.3 0 .6-.5 1.6 1.6 1.3zm0-416.7c3.8 1.5-.1-6.5-1.3-1.6.1.1-1.1 2 1.3 1.6zm0 372.3c2.6 1.1-.1-5.2-1.1-1.1.5-.4-1.2 1.5 1.1 1.1zm-.3-65.5c.7 1.2 3.1-3.3-.8-2.3.3 0-.7.8.8 2.3zm0-329c.7 1.2 3.1-3.3-.8-2.3.2 0-.6 1.1.8 2.3zm.3 481.1.5-.5c.1-.1-1.6 1.7-.5.5zm1-205.4c3.1 4.8 13.9-2.6 4.7-7-2.4-.8-7.5 1.7-4.7 7zm0-241.5c3.1 5.9 14-4.4 3.7-6.9-2.2-.1-6.1 2.4-3.7 6.9zm.8 373.3c4.2 4.2 12.1-6.1 2.4-7-2.4-.1-5.6 3-2.4 7zm-.2-21.9c4.1 4.3 12.5-6 2.6-7-2.4.1-5.4 2.7-2.6 7zm.2-175.7c4.9 5.3 12.2-7.1 1.3-6.8-1.9 1.2-4 3.6-1.3 6.8zm0-109.6c5.3 6.1 11.8-9.3.6-5.7-.9.8-3.1 2.6-.6 5.7zm.3 328.6c3.6 4.7 10.7-6 2-6-1.2 0-3.9 2.4-2 6zm0-131.5c2.1 3.6 10.3-3.7 3.1-5.9-2-.5-5.6 1.9-3.1 5.9zm0-241.3c3.4 3.7 11.1-5.1.9-5.3-1.1-.1-3.2 2.3-.9 5.3zm.3 262.7c1.9 3.9 10.3-4.4 1.5-4.9-.9-.3-3 2.1-1.5 4.9zm0-131.3c1.4 3.2 10.3-4 1.7-5.3-1.1 0-3.2 2.6-1.7 5.3zm-.3-66.3c3.1 4.8 10.2-6 .9-3.8-.1.9-1.6-.2-.9 3.8zm2.1 373c4.4 3.2 2.5-9.6-1.6-2.6.7.3-2.3 2.3 1.6 2.6zm0-22.2c4.2.9 1.4-7.3-1.3-2.1 0 .6-.2 1.2 1.3 2.1zm-.9-109.9c1.9 2.1 5.6-4.9.1-2.8-.5 1.1-1.1.8-.1 2.8zm.9-197c3.7 1.1 2.1-7.2-1.1-2.1.6.2-2 1.8 1.1 2.1zm-.9-87.5c1.6 1.5 6-3.1.2-4.1.1.3-1.2 2.5-.2 4.1zm.9 371.9c2.7.8 1.1-5.3-.8-1.6-.2.9 0 0 .8 1.6zm.2-197.3c2.7 2 1.5-6-1-1.6.3.1-1.3 1.5 1 1.6zm-.2-109.9c-1-.8-.7-1.3 0 0 1.2 2 3.3-4.5 0 0zm.2-131.3c1.6 1.6 2.6-5.2-1.1-1.2 0 .6-.9 1.3 1.1 1.2zm0 219c1.7.4.8-4.3-.5-1.1.4 0-1.3 1.2.5 1.1zm.3 108.6.5-.5c-.3.3 0 0-1 1zm1.5 13.3c2.8 5.9 15.5-2.4 4.5-6.8-2.6-.5-6.6 1.5-4.5 6.8zm.3-196.8c1.9 4 13.8 0 6.2-6.8-3.4-1.8-9.4.1-6.2 6.8zm0-65.5c2.5 4.4 14.2-1.6 5.5-7.6-3.4-1.4-8.3 1.7-5.5 7.6zm.5 219.5c4.4 5.3 14.4-7 2-7.7-2.3.6-5 3.9-2 7.7zm.3-307c5.2 5.5 12.8-8 1.2-7.2-1.9 1-4.4 4-1.2 7.2zm0 481.7c4.8 5.5 12.3-7.8.8-6-.7.6-2.7 3-.8 6zm0-65.8c3.1 4 12.3-3.8 2.9-6.3-1.9-.1-5.9 2.4-2.9 6.3zm0-132.6c1.1 3.3 10.9-1.1 2.9-4.7-.7.1-3.3 1.6-2.9 4.7zm.3-43.4c1.3 3.2 10.3-2 2.6-5.2-.6 0-3.6 2-2.6 5.2zm.5-43.3c3.3 4.4 9.9-7.1.5-5.4-1 .4-3.1 2.6-.5 5.4zm-.5-87.4c2.7 3 10.6-2.9 3.8-6.2-3.2-.6-6.2 1.6-3.8 6.2zm.5 349.5c2.5 4.1 8.9-5.1 1.1-3.7-1.1 1.5-1.5.8-1.1 3.7zm0-131.6c.6 2.8 9.7-1.5 2.1-4.1-.8.8-2.7-.4-2.1 4.1zm-.3-65.5c.8 2.7 9.1-.9 3.1-3.8-1.5-.1-4.8-.7-3.1 3.8zm.3-240.7c1.8 2.7 9.2-3.8 1.6-5.2-.7.1-2.9 2.4-1.6 5.2zm1.5 21.7c3.7 2.9 2.5-8.2-1.3-2.3.6.3-2.1 1.8 1.3 2.3zm0 459.9c1.5 1.9 3.9-4.9-.1-3.2-.7.9-1.4 2.1.1 3.2zm.3-109.8c-1-.7-.8-1.6 0 0 2.5 2.1.9-5.7 0 0zm.2-175.7c1.5 1.7 2.8-4.7-1.1-1.1 0 .2-.8 1.4 1.1 1.1zm-.2-43.7c.9 1.2 3.8-3.3-.9-2.3.3 0-.8 1.2.9 2.3zm0-43.8c.9 1.2 3.8-3.3-.9-2.3.3 0-.9 1.1.9 2.3zm0-65.8c.9 1.2 3.8-3.3-.9-2.3.3-0-.8 1.2.9 2.3zm0 372.3c-.4-.6-.3-1.1 0 0 1.1 1.5.9-3.5 0 0zm0-65.8c-.4-.5-.3-1.1 0 0 1.1 1.5.9-3.5 0 0zm1.1 122.1c4.4 7.4 15.8-6 2.4-6.7-1.6.5-4.7 2.4-2.4 6.7zm.2-21.1c5.1 6.6 15.9-8.4 1.6-7.4-1.9 1.2-4.5 3.7-1.6 7.4zm.3-87.9c3.4 4.6 14.2-4.2 3.4-7.1-2.2-.2-6.5 2.6-3.4 7.1zm-.3-329.5c3.4 5.6 13.3-4.9 2.9-6.1-1.6 1.4-4.3.6-2.9 6.1zm.6-20.9c3.6 4.8 13.3-5 3-7.5-2.4-.2-6.8 3.1-3 7.5zm.2 415.9c4.3 5 12.8-7.3 1.1-6-1.2.2-3.1 2.7-1.1 6zm.2-132.1c2.1 3.8 9.9-3.5 2.6-5.2-1.1-.1-3.6 1.9-2.6 5.2zm.3-65c3.9 3.5 9.8-6 1.8-6.4-.9 0-3.6 2.7-1.8 6.4zm.5 152.9c2.7 3.1 8-5.8.4-4.4-.5.7-1.8 2.6-.4 4.4zm-.5-44.3c2.6 3.7 10.2-5.8.2-3.6.1.7-1.5-.1-.2 3.6zm.2-22c2.5 3.5 8.8-6.6 0-3.7.1.6-1.7.1 0 3.7zm1.1-240.7c3.3 3.1 6.9-7.4-1-4.1 0-.1-2.1 2.5 1 4.1zm-1.1-87.7c3.2 3 8.6-5.8.3-4-.4.6-1.5 2.2-.3 4zm.3 218.3c.3 1.7 7.3-.5 2.3-3.2-.8.4-2.5-.4-2.3 3.2zm1.1-65.2c4.1 2.5 3.5-6.5-1-2.3-.2.5-.3 1 1 2.3zm-.6-22c1.9 2.2 6.2-3.7.3-3.4-.4.5-1.7 1.8-.3 3.4zm.6-21.9c2.4 2.6 4.6-5.7-.2-3.5-.7 1.2-1.7 2 .2 3.5zm-.6 175.1c-.4-.9-.2-1.8 0 0 2.7 2.3 4.7-5.9 0 0zm1.1-22.2c1.2 1.1 3.4-3.4-.9-2.3.2.6-.6 1.4.9 2.3zm0-65.7c1.2 1.1 3.4-3.4-.9-2.3.4.1-.9.9.9 2.3zm0-22c1.2 1.1 3.4-3.4-.9-2.3.2.6-.6 1.4.9 2.3zm0-109.6c1.2 1.1 3.4-3.4-.9-2.3.3-0-.9 1.1.9 2.3zm0 350.3c-.4-.5-.3-1.1 0 0 1.1 1.5.9-3.5 0 0zm2.1 78.6c2 4.3 12.9-.1 6-6.6-3.2-1.7-8.5.5-6 6.6zm.2-87c4.7 4.9 13.7-5.7 3.4-8.1-2.5-.2-6.9 3.4-3.4 8.1zm-.2-176.2c3 5.4 14.1-2.7 4.4-7.1-2.5-.5-6.6 2-4.4 7.1zm.2-152.6c5.1 5.7 13.9-6.8 2.9-7.9-2.3.1-6.2 3.5-2.9 7.9zm0-44.2c3.1 5 14.1-3.2 4.1-7.5-2.6-.5-6.8 2.3-4.1 7.5zm0 328.1c2.7 4.9 13.1-2.9 4.2-6.3-2-.3-6.2 1.8-4.2 6.3zm.9-218.1c4.3 4.6 12.4-6.1 2.7-7.6-2.5-.2-6.5 3.1-2.7 7.6zm.5 306.6c3.6 3.3 10.7-4.7 2.1-6.7-2.4-.4-5.9 2.8-2.1 6.7zm0-197.3c3.8 3.7 10.5-6.5 1.6-6.5-1-.1-4.5 2.9-1.6 6.5zm-.8-197.8c4.8 5.5 11.4-7.9 1-5.6-.7 1.3-2.9.5-1 5.6zm0-43.9c4.7 5.4 11.4-7.7 1-5.6-1.2.3-2.7 2.5-1 5.6zm1 285.3c3.4 4.1 9.5-9.3-.5-5.1-.4.7-1.8 2.9.5 5.1zm-.7-110.7c2.2 4.5 11.3-5.5 1.1-4.2-.1.9-1.5-.6-1.1 4.2zm.5-66c.9 4 10.3-1.2 1.6-4.5.2-.1-3.1 1-1.6 4.5zm.2 307.2c3 3.7 7.5-5.6 0-3.6.2.7-1.7 0 0 3.6zm.3-87.2c2.7 2.6 7.3-5.8.4-4.3-.5.7-1.9 2.5-.4 4.3zm1-66c1.5 2.4 5.6-5.2.3-4.5-1-.1-4 2.7-.3 4.5zm-1.3-174.9c2.2 1.9 8.2-3.1 2.4-4.9-2.3-.6-4.4 1.4-2.4 4.9zm.5 65.2c1.5 1.6 6.5-2.6 1.9-3.9-.9-.3-3.1 1.7-1.9 3.9zm1.4 218.8c3.8.2.2-6.7-1.6-1.6.1.5-.6 2 1.6 1.6zm-.3-66c2.2 1.8 2-4.8-.8-1.5.5.1-1.7 1.4.8 1.5zm0-329c2.2 1.8 2-4.8-.8-1.5.4.1-1.7 1.5.8 1.5zm.3 481.9c.7 1.4 3-2.4-1.1-1.9.1.8-.5 1 1.1 1.9zm.2-263.6c-.5.5-.8.8 0 0 1.4-.4-1.3-2.3 0 0zm1.1 211.4c4.5 5.3 14.2-5.9 3.4-8.3-2.3-.1-7 3-3.4 8.3zm-.3-220c2.6 5.2 14.1-2.2 4.7-6.8-2.4-.9-7 1.5-4.7 6.8zm0-43.9c3.3 5.6 14.5-3.4 3.6-6.9-2.7-.3-5.7 1.9-3.6 6.9zm.5-152.2c5.1 5 13.1-6.6 2.9-8.6-2.2-.1-6.8 3.4-2.9 8.6zm.5 481.1c4.7 5.1 11.2-7.4.7-6-1.2.3-2.8 2.9-.7 6zm-.3-44.7c2.1 5.7 12.8-4.9 1.4-4.7-1.1 1.3-2.6.6-1.4 4.7zm.6-327.5c2.8 3.2 10.1-3.1 3.6-6.6-3.6-.7-7.1 1.7-3.6 6.6zm.2-66.9c2.3 3.8 8.4-5.2.7-4.4-.6 1.3-2.8.6-.7 4.4zm-.2-21.6c2.8 3.9 9.9-6.1.2-4.3.1.9-2.1-.1-.2 4.3zm1.8 328.6c4.4 3.2 2.5-9.6-1.6-2.6.7.3-2.3 2.3 1.6 2.6zm-1.6-23c1 3.5 8.3-1.7 1.7-3.2-.6.4-2.1 1.3-1.7 3.2zm.3-21.1c1.7 2.5 7.8-2.6 1.4-4.1-.4.4-2.8-.6-1.4 4.1zm.8-21.4c5.1 3.4 5-9-1.3-3.6-.4 1.5-.8 2.1 1.3 3.6zm-.8-109.6c2.5 3.1 7.9-3.7 1.9-4.9-.9-.1-3.1 2.2-1.9 4.9zm0-88.2c1.7 2.5 7.8-2.6 1.4-4.1-.4.4-2.8-.6-1.4 4.1zm1.6 285c4 2.5 1.5-8.3-1.5-2.1.5.2-1.8 2 1.5 2.1zm-.3-131.8c4.1 2.2 2.1-6.2-1.2-1.8-.1.5-.1.9 1.2 1.8zm-1-22.2c-.5 2 6.9-1.5 1.6-2.8-.7.5-2.5-.3-1.6 2.8zm1-153.2c2.7 2.6 3.4-7.7-1.3-1.9 0 .5-.1.9 1.3 1.9zm0 394.1c2.2 2.1 2.3-5-.6-1.6.3.3-1.5 1 .6 1.6zm.5-196.8c3.1 1.5 1.9-6.6-1.3-1.6.1.1-1.1 2 1.3 1.6zm0 131c2.6 1.1-.1-5.2-1.1-1.1.5-.4-1.2 1.5 1.1 1.1zm-.2-262.8c.4 2 3.1-5-.5-1.2-.2.5 0 0 .5 1.2zm2.6-118.6c4.7 4.9 13.6-6.4 2.4-7.8-2 .3-5.6 3.8-2.4 7.8zm.3 109.5c6.7 5.9 11.5-10.2.3-5.9-.6.9-2.4 3-.3 5.9zm0-22c4.2 4.9 12.3-6.2 2.6-7-2.4-.1-5.4 2.8-2.6 7zm.5 218.7c3.7 4.2 11.4-6.7.7-5.6-1.1.3-2.7 2.7-.7 5.6zm0-21.9c2.8 3.6 10.7-3.1 2.9-5.9-2.1-.4-5.9 2.5-2.9 5.9zm.2-44.1c2.6 4 9.3-4.3 2.1-5.4-1.1-0-4.1 2-2.1 5.4zm-.2-21.7c4.3 5.4 11.2-9 .1-5.1-.6.8-2 2.7-.1 5.1zm-.3-241.6c3.4 5.1 12-6.1.6-4.7.2.8-1.8-.4-.6 4.7zm.3 438.2c2 3.9 10.1-5.3.7-4.4.1.8-1.6-.6-.7 4.4zm.2-22.4c4.4 4.8 7.4-6.8.1-2.6-.6.8-0 0-.1 2.6zm-.2-43.3c1.8 3.3 9.5-2.6 1.8-4.5-.9.3-2.6-.3-1.8 4.5zm.2-175c2.7 3.6 9.7-5 .4-4.7-.7.6-1.8 2.5-.4 4.7zm1.6-21.6c6.4 2.3 3.1-9.6-2.2-3.9-.3 2-.6 2.6 2.2 3.9zm-1.6-22.2c2.8 4.1 10.2-6.6.4-4.3.1.9-1.9 0-.4 4.3zm1.6 306.7c5.8 2.7 2.5-10.3-1.8-2.1.1.6.1 1.1 1.8 2.1zm0-65.8c5.5 2.4 1.7-9.1-1.3-2.6-.1.7-.3 1.4 1.3 2.6zm0-43.8c5.8 2.7 2.5-10.3-1.8-2.1.1.6.1 1.1 1.8 2.1zm-.8 152.9c1.7 2.1 5.4-4 .7-3.1-.7 1.2-1.1 1-.7 3.1zm1.1-22.4c1.4 1.6 4.2-3.4-.6-2.3-.6.6-1.4 1.3.6 2.3zm0-196.8c3.7 1.9 2.6-6.1-1-2.1.6.2-2 1.5 1 2.1zm0-219c-1.1-.2-1.5-.3 0 0 4.9 1.9.8-9.1 0 0zm.3-22c3 2.1 1.8-7-1.3-2 .6.2-2.1 2.1 1.3 2zm0 174.9c2.7 2 1.5-6-1-1.6.4.1-1.5 1.4 1 1.6zm-.3-132.1c.1 1.2 2.1-2.2.3-.8.2 0-1.4.4-.3.8zm1.2 385.8c3.4 5.8 15.6-4.3 3.7-7.6-2.6-.1-6.6 2.4-3.7 7.6zm-.2-44.3c2.8 5.9 15.5-2.4 4.5-6.8-2.6-.4-6.7 1.3-4.5 6.8zm.2-196.8c3.5 6.7 14.6-4.1 3.9-7.6-2.4 0-7 2.3-3.9 7.6zm.8 66c7.2 6.7 11.6-11 .3-6.7-.8 1.1-3 3.2-.3 6.7zm-.2-43.6c5 5.3 13.6-7.7 2.1-7.6-2.1.9-4.3 3.3-2.1 7.6zm-.3-88.3c3.5 5.4 13.4-3.8 3.7-7-1.9-.1-6.7 2.5-3.7 7zm.5-21.4c4.2 4.5 13.1-5.4 2.9-7.5-2.4-.2-6.9 3.2-2.9 7.5zm-.5-110.4c3.1 5.7 13.6-3.7 3.4-6.8-2 0-5.9 2.5-3.4 6.8zm.5 416.7c3.2 4.3 12.2-4.7 3.2-6.3-2.2-.2-6 2.6-3.2 6.3zm.3-43.4c6.6 5.7 10.8-10.6-.1-6.2-.8.9-2.4 3.4.1 6.2zm-.3-66.8c4.1 6.4 12.7-7.2.6-4.8-.1.2-2.2 1.1-.6 4.8zm.3-285.1c2.8 4.8 10.7-6.8.7-4.4.1.8-2-.3-.7 4.4zm.5 263.5c2.9 4.1 10.1-7 .1-4.6.2.7-1.7 0-.1 4.6zm-.2-44.4c2.4 3.9 10.1-6.4.2-3.6.1.7-1.5-.1-.2 3.6zm-.3-88.3c.8 3.5 10.1-1.2 2.6-3.9-1 .7-2.1-.1-2.6 3.9zm.5-64.7c1.8 2.7 9.2-3.8 1.6-5.2-.7.1-2.8 2.3-1.6 5.2zm-.2-44.4c1.3 3.1 9.7-1.9 2.3-4.4-.8-.1-3 1.8-2.3 4.4zm2.3 433.3c1.2 0 3.3-.6-.7-.6-1 .3-3 1.2.7.6zm-.3-499.3c1.6 1.8 4.2-4.2-.6-2.9-.6.9-1.3 1.9.6 2.9zm-.5 372.2c.7 2.2 4.7-4.3-.3-1.3-.1.6 0 0 .3 1.3zm.5-175.1c2.7.8 1.1-5.3-.8-1.6-.1.9 0 0 .8 1.6zm.3-109.7c2.6.9.3-5.4-1.1-1.6.3.2-1.3 1.4 1.1 1.6zm-.3 394.2c-.4-.5-.3-1.1 0 0 1.1 1.5.9-3.5 0 0zm0-131.6c0 .9 2.2-1.5.3-1.3-.3 0-1.6-.1-.3 1.3zm2.2-206.7c4.4 7.6 15.8-7.1 1.8-6.5-.8.7-3.4 2.3-1.8 6.5zm0-21.7c5.6 7.6 15.1-9.2 1.3-6.6-.7.7-3 2.7-1.3 6.6zm-.6-65.7c2.4 5.4 16-1.9 5.2-6.8-2.8-.8-6.8 1.4-5.2 6.8zm1.1 240.6c3.4 6.2 13.5-5.7 2.2-6-1.4.4-4.3 2.2-2.2 6zm.7-108.3c3.4 3.8 11.3-3.4 4.1-7.3-3.4-.8-9 2.4-4.1 7.3zm-.7-197.9c3 5 13.2-3.2 3.6-6.8-2-.3-6.8 2.4-3.6 6.8zm.2 350.6c2.5 3.5 12.7-2.3 3.1-6.1-1.7.6-5.7.8-3.1 6.1zm0-22.7c3.7 6.2 12.7-6.9.9-4.7 0 .9-1.9-.5-.9 4.7zm.8 109.6c1.8 4 9.9-3.8 1.4-4.2-.6.7-2.7 1.7-1.4 4.2zm0-218.2c3.2 3.2 9.4-5.5 1.5-6.3-1 0-3.2 2.9-1.5 6.3zm0 152.5c2.9 3.6 8.8-6.8.2-3.7.1.7-1.4-.2-.2 3.7zm1.9 87.4c4 2 2.9-6.5-1.3-2.1.1.7-1.5 1.9 1.3 2.1zm0-65.8c3.9 2.1 2.9-6.5-1.3-2.1.1.7-1.5 1.9 1.3 2.1zm0-153.5c3.9 1.5 2.4-7-1.3-2.1.1.7-1.5 2 1.3 2.1zm0-65.8c2.7 2.5 2.8-6.2-1.1-2.1-.1.7-1.9 2 1.1 2.1zm0-87.2c3.3 2.2 3-6.9-1.1-3.8-.6 1.7-1.2 2.6 1.1 3.8zm-.8-44.1c2 2.6 6.2-4.6.2-3.5-.4.7-1.6 1.9-.2 3.5zm.5-21.6c4.3 2.3 2.7-7.7-1.1-2.4-.1.6-.3 1.2 1.1 2.4zm.3 481.6c3.1.7 1.1-5.3-1.2-1.6.1.6-1 1.6 1.2 1.6zm.2-22c3.2 1.1.8-6.4-1.1-1.8.5.1-1.9 1.9 1.1 1.8zm0-65.7c3.6.9.2-5.3-1.4-1.6 0 .7-.9 1.6 1.4 1.6zm-.2-153.8c1.1 2 3.4-3.8-.8-1.6 0 .6-1.3 1.3.8 1.6zm0-153.2c.7 0 3.3-2.4-.4-2.5-.1.9-.8 1.2.4 2.5zm.2 174.9c0 .9 2.2-1.5.3-1.3-.3 0-1.6-.1-.3 1.3zm.8-74.9c6.2 9.3 15.2-10.2 1.5-6.8-1.2 1-3.6 2.5-1.5 6.8zm.5 241.7c5.1 6.6 15.1-7.9 1.6-7.4-1.9 1-4.5 3.7-1.6 7.4zm-.3-329.5c2.9 5.2 14.7-2.3 4.4-7.1-2.5-.5-6.5 1.9-4.4 7.1zm.8 373.1c3.6 5 13.5-6.3 1.2-6.6-1.6.5-4.2 3.3-1.2 6.6zm-.2-22.8c3.7 6.6 13.1-5.9 2.3-5.9-1.3.4-4.3 2.2-2.3 5.9zm.2-64.9c3.6 4.6 12.5-4.5 2.9-7.1-1.8 0-6.3 3-2.9 7.1zm0-87.7c5 5.6 12.5-7.6 1.4-6.8-1.9 1.1-4.1 3.5-1.4 6.8zm-.2-44.7c2.2 4.9 12.4-2.1 4.5-5.8-1.7-.6-7.3 1.2-4.5 5.8zm0-130.8c4.9 5.6 13-7.4 1.6-6.8-1.9 1.1-4 3.5-1.6 6.8zm-.3-66.3c2.4 4.6 12.9-1.9 4.8-6-1.9-.7-6.9 1.4-4.8 6zm.5 351.1c4.5 5 12.3-6.5 1.2-5.8-.9 1.1-3.1.4-1.2 5.8zm-.2-373.3c3.2 4.6 12.3-3.4 2.6-5.5-1 .1-3.2 2.1-2.6 5.5zm1.8-63.4c3.9.8 8.3-2.6-2.4-.8.8.3-0 0 2.4.8zm-.8 392.3c2.3 3.8 9.4-4.1 1.3-4.4-.6.7-2.6 2.2-1.3 4.4zm-.2-43.5c5.2 3.9 9.4-7.4 0-4.4.2.9-1.7-0 0 4.4zm.2-43.3c4.4 4 9.2-9.4-.3-5.1-.5.7-1.6 2.7.3 5.1zm1.3-110.2c4 2.8 5.7-7.1-.5-4.4-.7 1.5-1.7 2.7.5 4.4zm-1-175.5c2.5 3.1 7.9-3.7 1.9-4.9-1-.1-3.1 2.2-1.9 4.9zm.5 349.6c-.7-1.3-.5-1.8 0 0 1.9 3 5.4-5.8 0 0zm1-131c3.7 2.6 1.2-7.2-1.3-2.1.1.7-1.5 1.9 1.3 2.1zm0 21.3c3 2.2.5-6.2-1.3-.5.5.2 0 0 1.3.5zm0-152.6c3.3 1.4 1.7-6.7-1.1-1.8 0 .5-.1 1 1.1 1.8zm.3-66.9c1.9 1.7.8-3.4-.8-1.1 0 .5-.8.9.8 1.1zm.3 478.2c.3-.1.5-.1.8-.3.1-0-2.7 1-.8.3zm-.3-346.6c-.5-.4-.5-.8 0 0 1.6 1 .4-2.4 0 0zm2.1 101.5c4.3 5.3 11.2-6.1 4.9-8.6-4.4-.7-9.1 3.3-4.9 8.6zm-.5-23.2c3.4 7 13.1-1 4.9-6.6-2.7-.8-7.3.9-4.9 6.6zm.7-20.9c4.9 5.9 12.2-8.1 2.7-8.4-2.1.4-6.9 3.9-2.7 8.4zm0 174.6c3.3 4.7 11.9-1.6 4.2-6.3-2.9-1.1-6.9.9-4.2 6.3zm0-218.4c4.5 5.4 12.2-8.5 2.3-7.6-2.3.8-4.4 3.2-2.3 7.6zm.3-109.9c4.6 5.9 12.2-7 2.6-7.2-2.4.5-5 2.9-2.6 7.2zm-.5-44.4c3.8 6.3 12.8-4.6 3.6-6.9-2.7-.3-5.7 1.9-3.6 6.9zm1.3 482.4c4.1 5.1 10.2-9.7-.4-5.2-.7.9-2.1 2.7.4 5.2zm-.5-131.4c3.5 3.1 11.8-4.3 2.5-6.6-2.5-.3-4.8 2.8-2.5 6.6zm.2-87.9c4 5 11.5-7.2.6-5.4-.6.6-2.2 2.7-.6 5.4zm0-197.3c4.1 5.1 11.4-7.1.6-5.4-.6.6-2.2 2.7-.6 5.4zm-.2-44.7c2.3 4.5 10.8-1.3 2.8-4.9-1 0-3.8 1.6-2.8 4.9zm.5 439.1c3.3 4 10.3-7.6 0-4.7.2.7-1.7-0 0 4.7zm0-175.5c3.3 4.2 10.1-7.6 0-4.6.2.7-1.7-.2 0 4.6zm.3-109.8c2.7 3.5 9.6-3.9 1.4-5-.8.2-3 2.3-1.4 5zm.5 218.5c2.7 3.5 5.6-6.2-.5-2.2-.4.5 0 0 .5 2.2zm-.3-65.3c2.5 3.8 8.2-6.2 0-3.6.2.6-1.7 0 0 3.6zm0-219.5c1.8 3.7 7.3-3.8.7-3.2-.8 1.2-1.4.6-.7 3.2zm1.3-21.7c3.7 1.1 2.1-7.2-1.1-2.1.9.1-2.3 1.4 1.1 2.1zm-.7-109.3c4.2 2.8 2.8-8.1-.3-2.3-.2.6-.4 1.1.3 2.3zm1 437.2c-.9-.2-1.3-.2 0 0 2.6 1.3.4-4.8 0 0zm.2-284.3c3.8 1.5-.1-6.5-1.3-1.6.1.1-1.1 2 1.3 1.6zm-.2 306.5c2.2 0 .2-4.8-.8-1.1.5-.4-1.1 1.1.8 1.1zm0-131.9c1.9 1.3 1.1-3.7-.5-1.1.2.2-1 .9.5 1.1zm1 100.8c3 7.2 5.3-10.3 1.1-6.5-1.2.9-3.4 2.6-1.1 6.5zm0-131.3c2.8 6 5.5-10.2 1.1-6.5-1 .7-2.7 3.3-1.1 6.5zm1.1-131.6c2.6 3.4 1.7-4 1.8-7.4-1.8.6-5.6 3.7-1.8 7.4zm0-131.5c2.6 3.4 1.7-4 1.8-7.4-1.8.6-5.5 3.5-1.8 7.4zm.2 350.6c2.4 2.9 1.5-4.2 1.6-7.1-1.5.7-4.7 3.6-1.6 7.1zm0-307.8c2.1 3.1 1.6-2.7 1.6-5.8-1.1.4-4.5 2.3-1.6 5.8zm.3 372.4c2.3 3 1-2.4 1.3-4.9-.9.1-3.8 2.1-1.3 4.9zm0-131.5c2.3 3 1-2.4 1.3-4.9-.7-.2-3.4 2.2-1.3 4.9zm.2 175.9c1.2 3.1 2.4-7.3 0-4.6-.6.6-2 2.5 0 4.6zm0-395.1c1.2 2.9 2.4-5.7 0-3.6.2.7-2.3-.2 0 3.6zm.3 131.8c.9 1.9 1.8-4.9 0-3.9.2.4-1.7-.3 0 3.9zm0-44.1c-.8-.7-.8-1.6 0 0 1.9 1.4.6-7.4 0 0zm0-131.4c.8 1.9 1.8-4.8 0-3.8.2.3-1.7-.1 0 3.8zm.3 218.3c-.3-.8 0-1.2 0 0 .4 1.8 1.1-3.5 0 0zm0-262.4c-.6-.7-.5-1.4 0 0 1.2 1.3.3-6.5 0 0zm.2 349.1c0-.2.6-2 0 0-.1.2-.5 2 0 0zm0-219.1c0-.2.6-1.4 0 0-.1.1-.5 1.5 0 0zm0-21.9c0-.2.6-1.4 0 0-.1.2-.5 1.4 0 0z"
        fill="#def6ff" />
</svg>