<svg viewBox="0 0 374 348" xmlns="http://www.w3.org/2000/svg">
    <!-- ©COMICS/SRC by @nyuudo -->
    <path
        d="m183.92166 197.3952c-.73541 2.32825-.32074 3.81421 2.5968 3.61963a44.027 44.027 0 0 1 12.4848.4469q-7.129 2.6293-14.2583 5.25855.30845 1.16061.61676 2.32128c3.72486-.43908 7.44983-.87829 11.14069-1.31341 1.16211 4.70758-5.003 10.41956-10.72412 9.14154-4.15106-.92725-9.63123.07861-11.96582-5.7749-.57483-1.441-3.97052-1.76074-5.91938-2.5362-.60516-3.97778 10.86023-6.92553-.26416-11.16339zm16.85473-4.97693a25.33272 25.33272 0 0 0 -4.65814.63831c-4.00995 1.31122-7.95166 2.83081-11.91876 4.27283q8.49674-1.12152 16.94745-2.27277-.18531-1.31917-.37055-2.63837zm-16.5769 4.91114c-.07916.01043-.15765.0213-.23682.03174l-.0263-.01557c-.00543.01691-.0094.03278-.01471.04962h.09851c.05983-.02173.11951-.04406.17932-.06579zm-59.40326-21.18811c4.72467 5.563 6.16846 10.44494 3.25971 16.98639-.676 1.52026-.09986 3.59552-.09986 5.4154l1.77765-.04779c1.65033-3.79364 3.11176-7.68433 5.00336-11.354 1.941-3.76551 1.24432-6.6731-1.26563-10.00653q-37.97295-50.43147-75.71588-101.03565c-.80145-1.07007-1.80957-1.98584-3.28827-3.58758-.8164 3.71289-1.011 6.61425-2.10492 9.12512-1.88263 4.32153-.383 7.20453 2.42987 10.56341 23.39264 27.93262 46.41962 56.17249 70.00397 83.94123zm126.33753 2.56329c5.05017-5.36249 9.60284-10.18323 14.14068-15.01782q35.526-37.84918 70.98493-75.76081c1.29943-1.39386 2.66137-3.77514 2.37127-5.4096-.97686-5.50189-2.68786-10.87384-4.24511-16.77747a30.02914 30.02914 0 0 0 -2.733 2.55646c-26.49456 32.48389-52.888 65.05072-79.54364 97.40228-3.49338 4.23981-3.14384 7.92829-.97513 13.00696zm-116.88068-45.87732c10.86621 7.45892 17.86462 17.184 19.47894 30.48627a74.4983 74.4983 0 0 0 1.96051 10.27545c4.35407 16.25067 5.66468 18.39917 24.51789 18.97382a26.782 26.782 0 0 0 9.71386-1.92518c12.235-4.48529 17.41718-9.03729 15.90021-21.83606-1.43384-12.098-.596-18.34075 6.25537-28.33306 2.537-3.7 5.49079-8.25873 8.27912-11.77478 7.29663-9.20124 13.41656-18.82636 14.90246-30.33979a189.53617 189.53617 0 0 0 1.24939-24.48657c-.48578-.3244.26386-12.57617-.01471-13.93945-1.42737-6.98609-4.24237-13.79987-6.00012-20.71265-1.89868-7.467-5.38684-14.28674-11.679-18.41681-5.974-3.92126-12.536-7.54779-18.86584-10.84619a67.66588 67.66588 0 0 0 -16.37482-5.2655c-35.42157-4.749-72.11523 21.891-78.04529 57.32647-.91143 5.44654-2.11419 8.92048-2.55407 14.6236a54.72454 54.72454 0 0 0 1.41437 15.86548c3.3165 18.30468 14.64377 29.87884 29.86173 40.32495zm109.81292 52.19489q.8768-.08589 1.75372-.17182c0-1.62042.50793-3.4613-.08551-4.82416-3.00781-6.90771-1.34992-11.98974 3.64911-17.85894 24.16363-28.37006 47.735-57.24311 71.4646-85.98053.86517-1.04786 1.86761-2.67377 1.64557-3.80286-.84436-4.29333-2.16578-8.4931-3.51777-13.50165-1.46533 1.83014-2.50347 3.04572-3.45324 4.3266-4.75592 6.414-9.45148 12.87287-14.236 19.26544q-30.80229 41.15543-61.5871 82.32349c-1.09076 1.46411-2.31995 3.84814-1.85059 5.26422 1.69415 5.11163 4.0877 9.99231 6.21721 14.96021zm81.26629 4.39343q-.6903 5.601-1.38 11.202c-.95093 7.78266-1.85077 15.57184-2.86847 23.34571-.44654 3.41076 1.47589 4.40271 4.31213 4.66571a7.31231 7.31231 0 0 0 8.15393-7.79328c-.05218-1.9685.15369-3.94336.22974-5.91583.358-9.2879-1.5083-17.93536-6.81519-25.58954q-.81614.04264-1.63219.08523zm-17.81164 5.233c-.57575 1.42969-1.67108 2.869-1.64484 4.28754q.30688 16.59393 1.07819 33.17663a3.54634 3.54634 0 0 0 2.31237 2.5279 5.39932 5.39932 0 0 0 3.93781-1.20374 6.62486 6.62486 0 0 0 1.83472-3.94751c1.16021-12.09-2.05207-23.40668-5.80194-34.60962q-.85818-.1156-1.71636-.23117zm-242.964 53.25226c.60113.08411 2.13116-2.19373 2.23059-3.47125.71856-9.22846 1.36609-18.472 1.60821-27.722.07373-2.81616-1.19519-5.6673-1.84918-8.5025q-1.13937.15-2.27875.30017c-3.36932 10.65265-6.00805 21.45538-5.68164 32.80756.04138 1.43951.28327 3.26867 1.181 4.19128a8.76258 8.76258 0 0 0 4.78967 2.39677zm54.48523-59.4574c1.14843 1.222 2.46484 2.28662 3.74121 3.45978 2.88208-5.55609 1.56842-9.37079-1.9419-13.63074-26.00425-31.55771-51.73099-63.34335-77.54929-95.05374-1.11078-1.36426-2.26453-2.69373-3.93921-4.68152-1.50421 5.96405-2.48761 10.86218-4.01849 15.58344-1.03272 3.18506-.10456 5.177 2.05682 7.46826q40.90055 43.35663 81.65076 86.85455zm248.33294-28.66656c-3.729-18.06238-7.2146-36.17493-10.78973-54.269-1.69043-8.55566-3.3794-17.11169-5.214-26.40228-1.44544 1.23285-2.235 1.77643-2.86725 2.46417-32.44531 35.28626-64.73712 70.7154-97.48071 105.72339-4.29029 4.58692-4.05109 8.109-2.35614 13.14594q2.42962 7.22011 4.81842 14.45392l-3.99372-1.01679-31.13763-4.87811s5.40106 22.99566-29.496 32.1c-36.24744 9.45661-37.48444-24.04651-37.48444-24.04651l-26.01385 11.52112-22.722 53.73181-21.38586-11.183a12.66368 12.66368 0 0 0 1.51031-2.80469c3.04334-8.03119 2.816-16.27807 1.16761-24.56591-1.08942-5.47693-2.04761-11.00843-6.11939-15.17823q-.749.11243-1.49811.22492c-1.44049 9.6322-2.47845 19.34918-4.48864 28.86139a12.67545 12.67545 0 0 0 1.14862 9.133l-4.5738-2.39172-26.51469 83.59969h53.05535l21.36292-44.02991 4.8324 44.02991h131.44006l2.4162-32.86 4.34912-19.81268 22.00252 52.67268h56.46981l-31.93693-93.71484-4.14557-4.19025a5.82615 5.82615 0 0 0 .49475-2.57849c-.72357-10.77228-3.17968-21.42859-5.21185-33.6402-1.86957 2.603-3.53705 3.96149-3.913 5.613-1.3642 5.99322-2.89722 12.00769-3.77173 18.07019l-3.34479-3.38086c.79364-6.03265 1.853-12.044 2.99829-18.00989.45142-2.35126 3.45844-4.94452 5.90576-5.99518 2.96826-1.27429 4.04541-2.91852 4.40021-5.825.381-3.12091.43286-6.60065 1.92816-9.1698a10.97991 10.97991 0 0 1 6.75647-4.61053c1.511-.29389 4.02313 2.08423 5.329 3.82635 1.59076 2.12244 2.387 4.83832 3.98859 8.29364.55243-4.70685.9187-8.15417 1.37067-11.59027.49078-3.731 1.24011-7.5506 5.61907-8.48681 4.6695-.9983 7.53418 2.0072 9.63465 5.59967 1.703 2.91265 2.98053 6.07324 5.20367 10.69848 2.10346-2.75537 3.47815-4.85327 5.14484-6.6867 6.49261-7.14234 12.735-14.566 19.767-21.14283 3.75127-3.50839 4.28813-6.73599 3.34526-11.30276zm-314.5842 76.40219c-.74921-5.6416-1.57264-11.27332-2.33142-16.9137-.73481-5.46167-1.42762-10.929-2.13886-16.3938q-.71531-.15015-1.43048-.30035a65.85743 65.85743 0 0 0 -3.2865 5.71069c-4.02075 8.85114-3.8316 18.26355-3.33862 27.658.18689 3.56177 3.96576 6.124 7.85809 6.07239 4.07684-.05394 5.13507-2.31523 4.66779-5.83323zm63.11132 4.02331c3.05823-9.31506 6.57013-18.48077 9.71906-27.76745 1.03516-3.0528 2.46344-6.25074-.4942-9.27332-3.36572-3.43964-6.552-7.05408-9.82056-10.58856q-36.26706-39.21826-72.53332-78.43706c-6.50464-7.03693-12.97828-14.10242-19.90674-21.63367-.63385 2.18921-1.15509 3.58325-1.43714 5.024-5.20153 26.57086-10.42053 53.13861-15.43652 79.74444a7.00427 7.00427 0 0 0 1.7868 5.09186c5.65174 6.31866 11.548 12.4198 17.37586 18.58093 3.16894 3.35022 6.37286 6.66767 9.69769 10.14276 2.40692-4.25341 3.99854-8.413 6.7815-11.50335 1.81109-2.01117 5.607-3.718 8.04657-3.23066 2.02868.40534 4.11383 3.99634 4.85467 6.55677 1.1471 3.96441 1.17066 8.25281 1.7995 13.47369 1.66834-3.488 2.89423-5.97992 4.05658-8.501 1.18335-2.56652 2.78412-5.1314 5.91638-3.95794 2.35559.8825 5.09668 2.63556 6.10834 4.74548 1.45428 3.03326 1.32025 6.78888 2.21448 10.14313.39813 1.49322 1.44787 3.74035 2.54828 3.96667 6.24231 1.28394 8.48931 5.99213 9.15783 11.16 1.29212 9.98858 1.76075 20.08233 2.63245 30.12713.1217 1.402.16351 3.13452.97565 4.098 3.82452 4.53742 7.90466 8.86005 12.69256 14.14038 1.15393-3.546 1.717-5.21734 2.24237-6.90033 3.66425-11.73729 7.18697-23.52068 11.02191-35.2019z"
        fill="#fff" />
    <path
        d="m160.01193 123.22809c-2.70532-4.2793-1.93921-7.31793 2.87189-8.11884a112.84666 112.84666 0 0 1 23.11609-1.37115c-6.484 4.45007-14.488 3.34167-21.44306 6.10016 3.60736 5.34173 9.49964 7.95886 14.60016 4.92572 4.52521-2.691 7.84418-7.40357 12.32092-11.84406.27118 6.30017-1.69293 11.408-6.3479 14.998-7.61059 5.86943-20.02667 3.36376-25.1181-4.68983zm20.76782-65.3432c5.77265-7.12989 13.40161-7.50318 21.62964-6.18451 1.08423.17377 2.38275-.98541 3.582-1.52722-.85943-1.06708-1.509-2.702-2.61261-3.10871-6.99426-2.57757-14.01221-2.77942-20.474 1.47-3.13995 2.06488-5.33282 4.94159-3.62121 9.37037.87252-.00003 1.36813.13818 1.49618-.01993zm-50.46832 1.74005c3.697-4.00574 7.90173-4.31372 12.73993-2.58606a33.96412 33.96412 0 0 0 5.76819 1.02808c-2.16761-5.86719-6.67646-7.26337-11.45459-7.62891-4.76319-.36432-8.23871 2.36731-10.59021 6.24872-.67041 1.10656-.19031 2.90783-.2378 4.39056 1.28077-.46333 2.95514-.56457 3.77448-1.45239zm66.0163 14.26086q-4.36689 3.53494-1.74793 7.62958c5.55206-6.27746 7.85364-6.67718 13.0293.68176 3.03955-2.85589 2.23486-5.23205.02789-7.45471a8.36006 8.36006 0 0 0 -11.30926-.85663zm-55.31806 5.4722c-2.51428 2.44873-4.61169 5.26062-1.93671 8.48029 2.54718-2.44117 4.452-5.60211 6.973-6.208 1.64947-.39636 4.19146 2.90863 6.62378 4.77887 2.17883-2.05371 1.0155-4.22608-.97614-6.21375-3.16952-3.16306-7.82889-3.61796-10.68393-.83741zm-45.17309 5.96536c-.69214-1.85492-2.00336-3.75647-1.8678-5.54895.09717-1.28405 1.94836-3.11273 3.33984-3.4804 2.83258-.74842 3.40613-2.28888 3.741-4.92359 3.79584-29.86773 20.20221-51.34448 46.80328-63.8435 18.01355-8.464 37.42652-9.14344 55.63367 1.78692a3.7288 3.7288 0 0 0 .4389.23725c20.53882 8.8291 31.89814 24.28552 33.841 46.59246.22461 2.57935 1.31073 4.25989 4.162 5.40357 4.83857 1.94086 4.83759 6.09869.12751 9.37921-.385-2.17035-.74305-4.18878-1.10114-6.20715l-.447.17065c0 5.55335-.07562 11.10791.01392 16.65979.29113 18.05225-5.68464 33.87445-16.91681 47.8584-1.875 2.33441-3.73969 4.67816-5.5633 7.05267-7.06146 9.19471-10.75036 19.41071-9.46234 31.14563.88532 8.06665.324 15.72193-7.07953 21.43512 7.63379 6.08564 7.63666 6.22193 2.05945 9.28034-.63775 2.909-1.03827 4.81512-1.48919 6.70935-.07026.295-.59943.65893-.532.78345 3.32215 6.13366-2.38141 10.32385-3.28894 15.52325-.71649 4.10516-3.00848 6.27844-7.03924 6.355a87.04039 87.04039 0 0 1 -10.44837-.5473 5.919 5.919 0 0 1 -3.59936-1.50476c-3.01764-3.40247-5.78266-7.02845-8.62885-10.58155a10.578 10.578 0 0 0 -1.101-1.568c-5.13867-4.35284-5.14752-4.34241-2.26123-9.03656-1.28064-3.40778-2.26087-6.03143-3.25586-8.64948-.1698-.44677-.28449-1.03051-.62427-1.28-9.66217-7.09522-10.39862-18.27265-12.1936-28.49842-2.28095-12.99469-8.59369-22.33581-19.24817-30.03589-18.22742-13.17334-28.76734-31.01843-29.054-54.08068a21.07932 21.07932 0 0 0 -.41308-2.8349c-3.56149.70254-3.56149.70254-4.54549 6.24807zm103.16668 116.13837a44.027 44.027 0 0 0 -12.4848-.4469c-2.93091.1955-3.33673-1.30432-2.53876-3.61963h-16.35077c11.12439 4.23786-.341 7.18561.26416 11.16339 1.94886.77546 5.34455 1.09522 5.91938 2.5362 2.33459 5.85351 7.81476 4.84765 11.96582 5.7749 5.72113 1.278 11.88623-4.434 10.72412-9.14154-3.69086.43512-7.41583.87433-11.14069 1.31341q-.30834-1.16061-.61676-2.32128 7.12922-2.62928 14.2583-5.25855zm2.14368-6.40509q-.18531-1.31918-.37055-2.63837a25.33272 25.33272 0 0 0 -4.65814.63831c-4.03747 1.32019-8.00573 2.852-12.00042 4.3028zm-87.6944-115.24823c2.47571 1.36322 4.87018 2.88013 7.387 4.15955a34.31038 34.31038 0 0 0 4.44165 1.55969c2.63342-13.13049 6.48034-19.244 14.12237-20.1377 10.42151-1.21869 18.72565 2.92615 24.09143 13.05317 4.28919-6.97645 10.02674-6.1789 15.92182-3.72754 4.95916-8.48475 10.44354-16.37055 21.23925-16.03394 10.05109.31342 17.30372 5.37238 19.92554 16.29706 4.06873-3.79083 7.59766-6.82617 10.7732-10.1936a5.68484 5.68484 0 0 0 1.15844-4.40027c-1.42737-6.98609-3.07818-13.93152-4.83594-20.8443-1.89868-7.467-6.60974-13.016-12.90185-17.14612a213.86762 213.86762 0 0 0 -18.38736-11.03441 38.00711 38.00711 0 0 0 -12.1991-4.0965c-35.42157-4.749-71.88873 22.53857-77.81878 57.97406-1.63684 9.78124-1.63196 9.77244 7.08233 14.57085zm101.23786-10.35522c-3.19471-4.81141-11.94806-8.48658-17.07691-7.16986-8.10412 2.0805-14.99194 12.06738-13.92828 20.19488.93243 7.12384 10.03686 14.44324 19.09051 14.577a14.97946 14.97946 0 0 0 3.41394-.64667c7.58381-2.87528 12.99805-20.18204 8.50074-26.95535zm-69.5838-1.61811c-8.058-.29687-14.17078 6.27179-14.59266 15.68109-.42431 9.46344 5.68952 16.06946 15.29761 16.52918 7.29224.34888 15.52661-8.12116 15.57745-16.02326.05726-8.88238-6.94445-15.84301-16.2824-16.18701zm-39.914 11.70838c.27088 4.15106.17371 7.32007.72663 10.37176 3.31646 18.30469 13.1159 32.46594 28.33386 42.912 10.86621 7.45892 17.86462 17.184 19.47894 30.48627a74.4983 74.4983 0 0 0 1.96051 10.27545c4.35407 16.25067 5.66468 18.39917 24.51789 18.97382a26.782 26.782 0 0 0 9.71386-1.92518c12.235-4.48529 15.01294-8.98571 13.496-21.78448a46.905 46.905 0 0 1 8.17231-33.09076c2.53705-3.7 5.23083-7.303 8.01916-10.81909 7.29663-9.20123 12.18183-19.63434 13.66773-31.14777 1.05279-8.157.20392-16.55859.20392-24.85107q-.72867-.4866-1.45728-.97333c-1.8855 2.26856-3.62024 4.6861-5.68976 6.77271-3.62237 3.65239-6.53937 7.19231-7.56083 12.80621-1.85315 10.18567-8.83423 15.0993-18.54022 13.985-10.38233-1.19189-17.20642-7.23657-20.69586-17.0205-1.89331-5.30854-4.87769-7.53437-8.91223-6.49524-3.76209.96893-6.42811 5.48553-6.02546 9.81207a7.54552 7.54552 0 0 1 -.59649 4.33081c-3.90265 6.43677-8.54077 12.0567-17.05365 11.96259-9.04651-.1001-16.13532-3.49091-20.079-12.11176-.52076-1.13837-1.218-2.54193-2.22583-3.05585-6.04411-3.08175-12.20292-5.93918-19.45421-9.41366zm264.51685 92.93548c-2.24329 1.13922-3.69507 3.77228-5.61444 5.61689-7.77112 7.46881-15.65973 14.8186-23.29108 22.42614-.9779.97486-1.18085 3.28632-.91864 4.84a32.09183 32.09183 0 0 1 -1.56592 17.58874c-4.18054 10.71442-7.04211 12.34363-18.24786 8.85163-2.55157 4.48224-5.46942 8.62494-13.10437 5.03369 1.27869 6.59045 1.882 12.25024 3.50391 17.60235 5.8814 19.40754 12.10492 38.71174 18.19854 58.05518.19977.63428.63129 1.30817.53913 1.89887a36.648 36.648 0 0 1 -1.043 3.98272c-.99189-.90075-2.48285-1.61554-2.89972-2.73059q-7.51071-20.08438-14.714-40.28284c-1.949-5.47174-3.55957-11.06366-5.5105-17.18585-4.38373 5.16547-8.69226 10.2276-16.86963 4.24158 0 3.1134-.186 5.38367.0293 7.61536 1.76953 18.33953 3.61609 36.67163 5.426 55.0072a4.39533 4.39533 0 0 1 -.05584 1.97949 30.105 30.105 0 0 1 -1.72437 3.18365c-.907-.98858-2.47058-1.88983-2.616-2.97967-1.0556-7.91089-1.81457-15.861-2.69006-23.7962a44.57635 44.57635 0 0 0 -2.569-11.89606c-2.75122 3.53552-5.7309 6.92193-8.17548 10.65747-1.70843 2.61078-2.48 5.8186-4.06781 8.5274-.89465 1.52637-2.59546 2.58179-3.9331 3.84931-1.28955-1.3747-2.89527-2.57214-3.79175-4.167a62.97516 62.97516 0 0 1 -3.0705-7.611c-2.263 9.21607-4.25952 17.474-6.3833 25.69928-.1358.52588-1.25616.79834-2.62787 1.60681a45.833 45.833 0 0 1 -.26776-4.76727q1.53424-26.61721 3.14136-53.23041a9.032 9.032 0 0 1 .19959-2.9613 15.84448 15.84448 0 0 1 2.21618-2.97314c.92188.99444 2.19782 1.84649 2.67182 3.02105a13.17871 13.17871 0 0 1 .46368 4.43488 72.53123 72.53123 0 0 1 .0343 7.48462c-.62976 8.477.87531 16.2713 7.45154 22.9057a26.7571 26.7571 0 0 1 2.52527-4.75232c3.50989-4.35919 7.34747-8.45819 10.79315-12.8645 1.24286-1.58942 2.53137-3.81293 2.41669-5.6615-.30554-4.92175-1.36273-9.797-2.34125-16.1117-3.71106 3.5492-6.59332 6.31733-9.49 9.07026-1.21356 1.15338-2.45782 2.27441-3.68817 3.41015-1.18994-1.62872-2.91559-3.09027-3.48627-4.91235-5.3172-16.9762-10.55731-33.97919-15.52075-51.061-1.14075-3.92584-3.24274-5.09979-7.03339-5.44812-6.94207-.638-13.83349-1.8258-21.37848-2.872-.03936 12.65967-9.45288 19.37507-18.09924 25.16724-10.27435 6.88294-22.89892 8.04071-35.21387 6.3006-10.133-1.43182-16.22-9.61725-15.9248-19.87348.04565-1.5863.00629-3.17511.00629-4.51483-7.91321 2.9245-15.68982 5.69147-23.34986 8.74945-1.10028.43927-1.97595 2.17694-2.38568 3.49085-5.4447 17.45807-10.78815 34.94769-16.15466 52.43011a23.56269 23.56269 0 0 1 -1.17945 3.80384c-1.46746 2.88629-3.68524 2.834-5.72088.33844-2.79657-3.42835-5.87006-6.6316-8.82489-9.93134q-.7186.12607-1.4372.25208c-.89746 5.91156-1.83776 11.81732-2.62982 17.743a3.03768 3.03768 0 0 0 1.10217 2.04834c3.02405 2.82263 6.4759 5.27142 9.09888 8.41559 2.51587 3.0158 4.19953 6.72357 6.14514 9.95489 7.307-6.24853 7.33087-14.9295 7.41889-23.59076.02539-2.49554-.28-5.05286.1734-7.46832.41119-2.19043 1.649-4.22626 2.52234-6.33026.87488 2.03973 2.40387 4.04559 2.512 6.12506.48316 9.28955.2854 18.61731.868 27.89783.50879 8.10406 1.76 16.16052 2.61444 24.24523a47.576 47.576 0 0 1 .02423 4.91132c-4.18438-1.0401-4.42285-1.41339-6.26971-12.06091-.817-4.71-1.39618-9.46106-3.0387-14.38147a71.79182 71.79182 0 0 1 -3.45434 7.85907c-.81409 1.41028-2.46088 3.22876-3.73859 3.23327-1.2572.00446-3.05011-1.81341-3.69348-3.24206-3.1322-6.95514-5.738-14.19324-13.29236-19.24-.75848 6.70868-1.45868 12.99176-2.18213 19.27221-.58862 5.11066-1.07715 10.23865-1.89447 15.3133-.21875 1.35827-1.48152 2.46887-2.26368 3.73669-.71161-1.44537-2.14275-2.8728-2.02337-4.24621 1.60981-18.51374 3.44733-37.00775 5.19416-55.50989.22632-2.397.26092-4.81207.40411-7.60547-7.98822 4.38306-9.58874 3.96039-17.086-4.36017-6.96547 20.53682-12.71856 41.22011-21.87247 60.59828q-1.16309-.20206-2.32611-.40411c.30267-2.60151.20916-5.32538.97119-7.7851 5.70642-18.4201 11.70984-36.74927 17.32666-55.196 1.69757-5.57508 2.47-11.43085 3.94647-18.49988-7.58911 3.42254-10.67035-.35565-13.15869-5.13916-1.86164.509-3.425 1.05627-5.03479 1.35486-5.49286 1.01867-9.63281-1.09821-11.74433-6.10382-2.95373-7.002-4.78332-14.21668-2.89825-21.83808.70038-2.8316-.33783-4.0227-2.57788-5.928-6.82208-5.80273-13.04175-12.3125-19.47894-18.56439-3.32514-3.22949-6.79712-6.33789-9.82434-9.82806a7.50242 7.50242 0 0 1 -1.56033-5.29532c1.1828-8.88611 2.23017-17.8371 4.23108-26.55829 4.533-19.7583 9.62219-39.3891 14.40778-59.09051a65.9083 65.9083 0 0 0 .89843-7.36573c4.938-.20532 6.0553 5.411 10.062 7.01789 2.23925-6.7934 4.47509-13.57666 6.89654-20.92273l9.95589 10.03137c1.78662-6.59906 3.46448-12.79627 5.54743-20.48969 2.13641 2.81916 3.26739 4.28528 4.37109 5.77161q41.37891 55.72563 82.66156 111.52208c1.05573 1.4311 1.72894 4.39521.96607 5.71448-6.27228 10.84528-6.72962 23.45-10.98243 34.8739-.49493 1.32947-.72265 2.75818-1.44122 5.58411 7.12732-3.628 13.18127-6.57837 19.10968-9.76178 6.77393-3.63751 9.24213-2.20111 9.32929 5.67682.12792 11.57281 5.59826 17.58642 17.13018 17.25482a111.344 111.344 0 0 0 23.14661-3.24231c8.00262-1.96283 13.50549-7.86426 16.99231-15.12482 1.14587-2.386.79047-5.80963.256-8.59307-.55951-2.91346-.35858-4.85437 2.92963-4.64881 7.34936.4596 14.68725 1.15729 22.00952 1.94629 1.72119.18549 3.36163 1.11792 6.53638 2.23218-1.753-5.39252-3.31543-9.49054-4.36915-13.71509-.59985-2.40466-.25866-5.029-.55419-7.52936a11.67862 11.67862 0 0 0 -1.20484-4.129c-8.58716-15.8233-8.52649-15.75512 1.99823-29.93005q37.50778-50.51641 74.88233-101.13141a18.71436 18.71436 0 0 1 1.44726-2.02307c.84363-.86554 1.81177-1.61011 2.72693-2.40619.72052 1.00806 1.80566 1.921 2.09882 3.04053 1.29211 4.936 2.35614 9.93158 3.67352 15.64593 2.84064-3.19152 5.19159-5.83294 7.48437-8.409 7.05048 5.06085 7.22266 12.453 9.54694 19.74267 2.88959-2.65515 5.34448-4.91082 8.41321-7.73059 1.69739 4.99311 3.53528 9.08991 4.4765 13.38269 5.69232 25.96106 11.17255 51.96845 16.744 77.956.78265 3.651.84534 6.67645-3.29297 8.77807zm-332.31845-70.89001q40.90055 43.35663 81.65076 86.85455c1.14843 1.222 2.46484 2.28662 3.74121 3.45978 2.88208-5.55609 1.56842-9.37079-1.9419-13.63074-26.00413-31.55774-51.73087-63.34338-77.54917-95.05377-1.11078-1.36426-2.26453-2.69373-3.93921-4.68152-1.50421 5.96405-2.48761 10.86218-4.01849 15.58344-1.03272 3.18506-.10456 5.177 2.0568 7.46826zm15.3996 134.59015c-.74921-5.6416-1.57264-11.27332-2.33142-16.9137-.73481-5.46167-1.42762-10.929-2.13886-16.3938q-.71531-.15015-1.43048-.30035a65.85743 65.85743 0 0 0 -3.2865 5.71069c-4.02075 8.85114-3.8316 18.26355-3.33862 27.658.18689 3.56177 3.96576 6.124 7.85809 6.07239 4.07686-.05394 5.13509-2.31523 4.66781-5.83323zm15.60473-19.4715c.07373-2.81616-1.19519-5.6673-1.84918-8.5025q-1.13937.15-2.27875.30017c-3.36932 10.65265-6.00805 21.45538-5.68164 32.80756.04138 1.43951.28327 3.26867 1.181 4.19128a8.76258 8.76258 0 0 0 4.7898 2.39679c.60113.08411 2.13116-2.19373 2.23059-3.47125.71855-9.22846 1.36608-18.47205 1.6082-27.72205zm15.53437 27.04334c-1.08942-5.47693-2.04761-11.00843-6.11939-15.17823q-.749.11243-1.49811.22492c-1.44049 9.6322-2.47845 19.34918-4.48864 28.86139a12.81515 12.81515 0 0 0 3.08691 11.90344c1.18286 1.37323 3.18408 2.80743 4.79114 2.783 1.06128-.01605 2.45831-2.43952 3.06048-4.02863 3.04336-8.03117 2.81606-16.27805 1.16763-24.56589zm41.19708-40.5893c-3.36572-3.43964-6.552-7.05408-9.82056-10.58856q-36.26704-39.21826-72.5333-78.43706c-6.50464-7.03693-12.97828-14.10242-19.90674-21.63367-.63385 2.18921-1.15509 3.58325-1.43714 5.024-5.20153 26.57086-10.42053 53.13861-15.43652 79.74444a7.00427 7.00427 0 0 0 1.7868 5.09186c5.65174 6.31866 11.548 12.4198 17.37586 18.58093 3.16894 3.35022 6.37286 6.66767 9.69769 10.14276 2.40692-4.25341 3.99854-8.413 6.7815-11.50335 1.81109-2.01117 5.607-3.718 8.04657-3.23066 2.02868.40534 4.11383 3.99634 4.85467 6.55677 1.1471 3.96441 1.17066 8.25281 1.7995 13.47369 1.66834-3.488 2.89423-5.97992 4.05658-8.501 1.18335-2.56652 2.78412-5.1314 5.91638-3.95794 2.35559.8825 5.09668 2.63556 6.10834 4.74548 1.45428 3.03326 1.32025 6.78888 2.21448 10.14313.39813 1.49322 1.44787 3.74035 2.54828 3.96667 6.24231 1.28394 8.48931 5.99213 9.15783 11.16 1.29212 9.98858 1.76075 20.08233 2.63245 30.12713.1217 1.402.16351 3.13452.97565 4.098 3.82452 4.53742 7.90466 8.86005 12.69256 14.14038 1.15393-3.546 1.717-5.21734 2.24237-6.90033 3.66425-11.73718 7.18695-23.52056 11.02191-35.20178 3.05823-9.31506 6.57013-18.48077 9.71906-27.76745 1.03516-3.05292 2.46344-6.25086-.4942-9.27344zm4.60693-4.66632c1.65033-3.79364 3.11176-7.68433 5.00336-11.354 1.941-3.76551 1.24432-6.6731-1.26563-10.00653q-37.97293-50.43147-75.71586-101.03565c-.80145-1.07007-1.80957-1.98584-3.28827-3.58758-.8164 3.71289-1.011 6.61425-2.10492 9.12512-1.88263 4.32153-.383 7.20453 2.42987 10.56341 23.39264 27.93262 46.41962 56.17249 70.004 83.94123 4.72467 5.563 6.16846 10.44494 3.25971 16.98639-.676 1.52026-.09986 3.59552-.09986 5.4154zm122.37512-32.79767c-3.49334 4.23981-3.1438 7.92829-.97509 13.007 5.05017-5.36249 9.60284-10.18323 14.14068-15.01782q35.526-37.84918 70.98493-75.76081c1.29943-1.39386 2.66137-3.77514 2.37127-5.4096-.97686-5.50189-2.68786-10.87384-4.24511-16.77747a30.02914 30.02914 0 0 0 -2.733 2.55646c-26.49458 32.48385-52.88802 65.05068-79.54366 97.40224zm-2.72558-3.53039c24.16363-28.37006 47.735-57.24311 71.4646-85.98053.86517-1.04786 1.86761-2.67377 1.64557-3.80286-.84436-4.29333-2.16578-8.4931-3.51777-13.50165-1.46533 1.83014-2.50347 3.04572-3.45324 4.3266-4.75592 6.414-9.45148 12.87287-14.236 19.26544q-30.80229 41.15543-61.5871 82.32349c-1.09076 1.46411-2.31995 3.84814-1.85059 5.26422 1.69416 5.11163 4.08771 9.99231 6.21717 14.96021q.8768-.08589 1.75372-.17182c0-1.62042.50793-3.4613-.08551-4.82416-3.00775-6.90771-1.34986-11.98974 3.64917-17.85894zm52.84118 85.34918c-.72357-10.77228-3.17968-21.42859-5.21185-33.6402-1.86957 2.603-3.53705 3.96149-3.913 5.613-1.71692 7.54278-3.71958 15.11778-4.31258 22.78196-.35413 4.57709 1.45281 9.41815 2.85644 13.96582.35614 1.15375 4.11719 2.47626 4.23053 2.30957 2.42303-3.56403 6.58986-7.466 6.35048-11.03015zm7.01246-52.6366q-.85814-.11563-1.71631-.2312c-.57575 1.42969-1.67108 2.869-1.64484 4.28754q.30688 16.59393 1.07819 33.17663a3.54634 3.54634 0 0 0 2.31237 2.5279 5.39932 5.39932 0 0 0 3.93781-1.20374 6.62486 6.62486 0 0 0 1.83472-3.94751c1.16023-12.08996-2.05205-23.40668-5.80192-34.60962zm17.72747-5.5495q-.81609.04266-1.63214.08527-.6903 5.601-1.38 11.202c-.95093 7.78266-1.85077 15.57184-2.86847 23.34571-.44654 3.41076 1.47589 4.40271 4.31213 4.66571a7.31231 7.31231 0 0 0 8.15393-7.79328c-.05218-1.9685.15369-3.94336.22974-5.91583.35805-9.2879-1.50828-17.9354-6.81517-25.58958zm40.41034-29.5534c-3.729-18.06238-7.2146-36.17493-10.78973-54.269-1.69043-8.55566-3.3794-17.11169-5.214-26.40228-1.44544 1.23285-2.235 1.77643-2.86725 2.46417-32.44531 35.28626-64.73712 70.7154-97.48071 105.72339-4.29029 4.58692-4.05109 8.109-2.35614 13.14594 6.89142 20.47967 13.5216 41.04687 20.25152 61.58075.531 1.62011 1.08875 3.23156 1.634 4.847q.993.54153 1.986 1.08313c2.641-3.2055 4.99957-6.70923 7.99731-9.53784 3.4372-3.24341 3.99689-6.69415 4.23267-11.3548a224.88806 224.88806 0 0 1 4.213-30.88861c.45142-2.35126 3.45844-4.94452 5.90576-5.99518 2.96826-1.27429 4.04541-2.91852 4.40021-5.825.381-3.12091.43286-6.60065 1.92816-9.1698a10.97991 10.97991 0 0 1 6.75647-4.61053c1.511-.29389 4.02313 2.08423 5.329 3.82635 1.59076 2.12244 2.387 4.83832 3.98859 8.29364.55243-4.70685.9187-8.15417 1.37067-11.59027.49078-3.731 1.24011-7.5506 5.61907-8.48681 4.6695-.9983 7.53418 2.0072 9.63465 5.59967 1.703 2.91265 2.98053 6.07324 5.20367 10.69848 2.10346-2.75537 3.47815-4.85327 5.14484-6.6867 6.49261-7.14234 12.735-14.566 19.767-21.14283 3.75127-3.5085 4.28813-6.7361 3.34526-11.30287zm-219.2442 75.783c-.16162-.66547-1.67377-1.62775-2.20007-1.44214-.9007.31762-2.19849 1.49756-2.133 2.205.23828 2.5738.36536 5.46039 1.62482 7.58472 5.32519 8.98248 24.0965 13.69617 33.85528 7.69061-3.04046-.5531-6.07086-1.17059-9.12323-1.6474-9.51279-1.48599-19.17563-2.66488-22.02378-14.39077z"
        fill="#003041" />
</svg>