<svg viewBox="0 0 271.4 358.4" xmlns="http://www.w3.org/2000/svg">
    <!-- ©COMICS/SRC by @nyuudo -->
    <path
        d="m254.6 109.6 14.4-20.5-3.4-3.2-5.3 2.2-32.3 28.4-3.7-3.5 5.1-15.1-4.4-7.9s-10.4 24.8-10.9 33.1c-.5 7.9 9.4 21 9.3 28.4-.1 8.3-13 33.9-13 33.9l-55-32.6-40.6 1.4-12.2-5 30.5-28.7-31-111.2s0 0 0-.1c0-1.4-1.2-2.5-2.6-2.5-6.6-.1-20.5 2-23.9 2-6.9 0-10.1-7.5-10.1-7.5s-42.2 42.9-51.8 50.3c-9.1 7-6.4 14.5-6.4 14.5l7.8 26.4 31.1 74.6-.9 3.9s-41 39-43.8 43.9c-2.8 4.8 3.3 10.6 3.3 10.6l49.6 96.1 12 .1-.2 8.9s-2.1 17.9-.5 28h118.3c1.8-4.8-.1-15.4.3-22.6v-33.1l-9.9-77.8 34.5 8 38.2 2 3.5-7.2s4.4-38.3 2.9-50.1c-.5-3.7-2.8-15.8-2.8-15.8s11-10.7 12.8-16.3c1.7-5.2 7-20 4.4-26.1-1.7-3.7-13.3-9.9-13.3-9.9z"
        fill="#fff" />
    <path
        d="m271.1 89.7c.7-1.3-.2-4.5-1.4-5.5-1-.9-4-.4-5.5.5-4.5 2.4-8.8 5.3-12.8 8.6-6.8 6.1-13.1 12.8-19.7 19-1 1-2.9 1.1-4.4 1.6 0-1.4-.4-3 0-4.3.7-2.4 2.1-4.6 2.8-6.9 2.1-6.8-.4-11.4-8.1-13.9-2.7 8.3-5.5 16.6-7.9 25-.7 2.3.2 5.1.3 7.6 1.4-2.2 3.3-4.3 4.1-6.7 2.1-6.6 3.7-13.4 5.4-20.1.6.1 1.2.1 1.7.2-.2 2.6-.1 5.2-.7 7.7-.9 3.5-2.5 6.9-3.5 10.4-.3 1.2-.2 3.6.5 4 9.4 6 11.8 15.7 14.2 25.4.4 1.6 2 3 3.1 4.4.7-1.8 2.2-3.7 2.1-5.4-.6-8.2-2.1-16.2-8.3-23.4 10.7-10.3 21.2-20.3 31.7-30.3.5.4 1.1.9 1.6 1.3-1 1.6-1.9 3.2-3 4.8-5.3 7.6-10.7 15.2-15.9 22.9-4.5 6.7-4 7.8 4 9.4.2 0 .3.5.5.7-6.7 12-6.7 12 9.1 16.9-6.2 6.6-11.9 12.8-18.2 19.4-3.3-1.4-6.8-2.8-10.2-4.5-1.1-.7-2-1.7-2.5-2.9-1.5-3.5-2.5-7.3-4.2-10.7-3.1-6.2-6.6-12.3-10.1-18.4-.9-1.2-1.9-2.3-3.1-3.3-.4 1.7-1.8 3.8-1.2 5.1 2.5 5.9 5.7 11.6 8.3 17.5.9 1.9 1.9 4.5 1.2 6.3-3.6 10.3-7.6 20.4-11.7 31-14.9-8.9-29.6-17.1-43.6-26.3-6.7-4.4-13.5-6-21.1-6.4-1.7-.1-3.3-.4-5-.4-8.9 0-17.7 0-27 0 .6 1.5 1.1 2.5 1.6 3.6-1.6-1-3.3-2.1-5.3-3.3 8.2-6.9 15.8-13 23-19.6 1.6-1.7 2.3-4 2-6.3-3.2-13.7-6.9-27.4-10.2-41.1-.7-2.8-.4-5.8-.4-8.7 0-5.4.6-11-.2-16.3-.4-2.3-3.5-4.2-5.4-6.3-.9-1-2.2-1.9-2.5-3-2.4-8-4.5-16-6.8-24-1.3-4.6-2.5-9.3-3.9-13.9-.2-.8-1.6-1.2-2.5-1.8-.5.8-.9 1.6-1.2 2.5 0 1 .1 2 .4 2.9 3.1 11.9 6 23.8 9.3 35.7.9 3.4.2 5.4-2.6 7.6-5.6 4.4-11 9.1-16.1 14.2-1.7 1.7-2.2 4.6-3.1 7s-1.5 4.8-2.2 7.2c-.4.1-.9.2-1.3.2-2.9-5.9-6.5-4.5-10.3-1.6-4.5 3.4-9.1 6.8-13.6 10.1-4.2 3.1-8.1 6.4-7.9 12.2-5.5.3-5.5.3-6.9-3.9-2.5-7.6-4.9-15.2-7.5-22.7-.5-1.2-1.2-2.4-1.9-3.4-.6.2-1.2.4-1.8.6-.3 9.6 5.5 18.1 6.8 27.4-.5.2-.9.4-1.1.4-2.8-.6-5.5-1.2-8.3-1.9-5.4-1.3-6.1-.9-7 4.7-1.8-3.9-3.7-7.8-5.4-11.7-4.3-10.3-8.6-20.5-13-30.8-4.8-.5-5.3.5-3.2 5.7 7.7 18.8 15.1 37.7 23 56.3 5.6 13.2 9.8 27.2 19.1 38.9-3.5 2.9-7 5.6-10.4 8.5-13.3 11.4-25.9 23.6-34.4 39.2-1 1.8-1.8 4.2-1.3 6 1.2 4 2.7 7.8 4.6 11.5 14 28.5 28.1 57 42.3 85.4 4.9 9.8 5.3 9.7 15.6 6.4.2-.1.6.2 1.1.4 1 11.2-1 22.7 1.8 33.9 1.5-.7 2.5-1.4 2.5-2.2.9-11.6 1.9-23.1 2.2-34.7.1-2.9.3-4.6 2.7-6.1 10.7-7 21.4-14.1 32.1-21.1 1.9-1.2 3.9-2.3 6.4-3.8.5 3 1 5.3 1.3 7.6 1.6 13.5 4.1 39.8 5.8 53.3.3 2 1.6 4 3 7 1-2.1 1.4-2.6 1.3-3-1.3-17.5-3.6-47.8-5.1-65.3-.2-2.6-.3-4.3 2-5.9 3.7-2.6 7-5.6 10.6-8.3 5-3.8 8.5-2.5 9.8 3.4.3 1.5.6 2.9.9 4.4 2.8 16.7 7.8 53 10.7 69.7.3 2 3.9 5.2 4.6 4.9-3.4-22.5-4.9-65.1-12.9-87.2 1.1-.9 2.4-1.9 3.7-3 6.8-5.4 13.7-10.6 20.2-16.4 2-1.8 4.3-5.6 3.6-7.5-3-8.2-7.1-16-10.5-24-.7-1.6-1-4.1-.3-5.6 2.4-4.8 5.1-9.4 8-13.8 3.5-5.3 4.4-10.2-1.4-15.1-10.8 6.4-17.1 17.6-26.7 27 1.2-8.3 5.6-15.9-1.9-20.9 1.7-2.3 4.5-4.8 4-5.8-2.9-6.7-6.5-13.2-9.9-19.7-1.8-3.5-3.7-6.9-5.2-9.6h32.9c.8 0 1.6.3 2.3.8 7.4 5.2 14.5 10.9 22.2 15.6 7.5 4.6 15.5 8.3 23.4 12.4-1.1 4.7-2.1 9.4-3.2 14.2.6.1 1.1.3 1.7.4 10-11.6 10.7-27.5 17.8-40.7 1.4 1.3 2.5 2.4 3.6 3.3 5.4 4.5 17.4 6.8 21.5 3.4 5.2-4.4 10-9.3 14.4-14.5 1.9-2.4 2.1-6.1 3-9.3.4-1.4.3-2.9.6-4.4 1.2-5.6 2.5-11.3 3.5-16.9.6-3.4-.5-5.4-4.3-6.4-8.3-2-9.2-5.8-3.9-12.3 3.4-3.5 6.2-7.8 8.6-12.4zm-155.7 94.3c-4.4-4.7-8.6-9.1-12.8-13.5 1.3-5.6 2.7-11.7 4-17.6 3.4 3.3 7.4 17.3 8.8 31.1zm1 5.2c.4.3.6 1.1.8 1.7 1.9 6.3 2.6 24.8.3 31.7-.9-2.8-1.5-5.7-2.8-8.2-2.7-5.4-5.7-10.6-8.6-15.9-.3-.5-.8-1.1-.7-1.6.1-4.6.4-9.1.6-13.6 3.6 2 7 3.9 10.4 5.9zm-66-77.3c2.3.8 5.3.9 6.7 2.5 6.3 6.8 9.8 8.4 15.8 6.2 7.9-3 13.6-10.2 13.6-17.4.2-2.3 0-4.7-.4-6.9-1.1-4.3.6-7 4.1-8.9 11.2 11.2 15.7 11 29.2-2.2.8 2.4 1.6 4.4 2.1 6.5 2.5 9.5 4.8 19 7.6 28.4 1 3.2-.4 4.7-2.4 6.3-13.8 11.2-27.7 22.3-41.6 33.5-4.8 3.8-9.4 7.8-15.3 12.6-6.9-20-13.7-39.4-20.4-58.9.5-.7.8-1.2 1-1.7zm11.3 80.7c-1.8-.5-3.5-.9-5.4-1.2-1.8-.3-3.6-.5-5.5-.8-.5-6.6-1-13.1-1.5-20.6 11 7.7 21.5 9 31.7.1 6.5 4.4 6.5 4.4.9 17.3-1.5-2.4-3.1-4.8-4.8-7.1-.8-.9-2.4-1.2-3.6-1.8-.1 1.4-.8 3-.3 4 2.4 5.5 5.4 10.7 7.8 16.2 6.4 14.6 12.7 29.3 19 44.1-1.8 1.7-3.3 3.8-5.5.4-8.1-12.9-17.5-24.7-29.7-34.2.8-1.9 1.5-3.6 2.2-5.3 3.2-7.4 2.7-8.6-5.3-11.1zm25.5-4.7c3.2 4.1 6.3 8.2 9.6 12.4.3 7.3.7 15 1 22.7-.3.1-.6.2-.9.3-.6-1.7-1.2-3.3-1.9-5-2.7-6.9-5.7-13.8-8.1-20.8-1-2.8-.9-6-1.3-9.1.5-.2 1.1-.3 1.6-.5zm10.2-15.2c-4.4-1.6-8.1-3-13.3-4.9 6.2-4.3 11-7.7 15.8-11 .4.2.8.4 1.2.6-1.2 4.6-2.2 9.1-3.7 15.3zm-55.4-22c-5.8-12.3-10.3-25.2-15.3-37.8-.4-1.3-.7-2.7-.8-4.1 2.2 1.9 4.5 3.7 6.7 5.6.3-.3.6-.6.9-.9-1-1.6-1.9-3.2-3.4-5.7 4.9 1.2 9 2.2 13 3.4 1 .5 1.8 1.3 2.2 2.4 6.3 18.5 12.5 37 19.3 57.3-4.5-2-8.5-2.7-10.9-5.1-4.5-4.5-9-9.5-11.7-15.1zm12.3 170.7c-.6-.9-1.2-1.8-1.7-2.7-14.1-29.2-28.5-58.3-42.1-87.8-8-17.3-8.6-12.9 4-26.9 8.9-10 19.4-18.5 29.8-28.3.5 5.6 1 10.1 1.4 14.5.4 4.7 3 7.1 7.8 7.3 2.8.1 5.5.6 8.1.9.2.5.3.7.3.8-5.1 9.9.1 16.2 7 22.7 8.3 7.8 15.8 16.5 24.2 25.4-4.8 3.2-8.5 5.8-12.7 8.7-3.7-5.7-6.8-11.3-10.6-16.4-6.4-8.5-13.1-16.7-19.9-24.9-.8-1-3-.9-4.6-1.3.3 1.5.1 3.3.9 4.4 9.2 12.1 18.4 24 27.7 36 1.1 1.4 2.5 2.7 3.5 3.8-6.1 8.2-18.7 11.5-18.3 25.2 18.1-16.7 35.5-32.9 57.3-43.1.9 6 1.1 12 2.9 17.5s5.3 10.6 8.2 16.2c-24 15.9-48.4 31.8-73.2 48zm107.8-127.3c.9-1.3 1.7-2.8 2.4-4.3.7.6 1.5 1.1 2.2 1.7-.2 1.4-.6 2.9-1.2 4.2-3.9 7.3-8.1 14.5-11.8 21.9-1.3 2.5-1.6 5.5-2.4 8.2.5.2.9.4 1.4.5.8-.7 1.7-1.5 3.5-3.1 2.8 6.9 5.6 13.3 8.1 19.9.4 1-.5 3-1.5 3.8-8.2 7.5-16.6 14.8-25 22.1-1.2.7-2.6.8-3.8.4-1.5-.7-2.7-1.9-3.5-3.3-5.6-9.2-7.7-20.1-6.1-30.7.5.3 1 .6 1.5.8 2.1-1.6 4.6-2.9 6.2-4.9 10.1-12.3 20.1-24.7 30-37.2zm-27.4-10.8c-7.5 5.4-7.7 7.7-.4 13.6 3 2.4 4.5 4.6 2.8 8.3-.7 1.5-1 3.2-.9 4.9.6 8.2-4.3 14-8.8 19.8-.8 1.1-2.5 1.5-5.1 3.1.6-4.9 1-8.3 1.4-11.7.2-.8.4-1.6.5-2.4.3-21.7-1.5-43.2-8.8-63.9-.1-.3-.3-.6-.5-.8 2.2 1.3 4.9 2.3 6.1 4.3 4.8 8.1 9.1 16.5 13.7 24.8zm130.2-62.9c-.4 14.8-2.6 17.5-12.6 14.6 4-4.7 7.8-9.1 12.6-14.6zm-4.6-1.6c-3.4 4.6-6.9 3.5-11.3 1.6 2.3-2.5 4.3-4.7 6.8-7.4 1.7 2.2 3 3.9 4.5 5.8zm-5.8 51.6c1.2 5 2.9 10.1 2.6 15.1-.6 14.1-1.2 28.3-3.6 42.1-2.1 11.5-3.8 9.8-12.7 10.1-18 .6-35.5-2.2-52.8-6.8-2.2-.6-7.5-2.1-10.7-2.8 4.7 31.6 13.8 79.1 8.2 130.1-.8.1-1.6.2-2.4.3-.6-36.9-4.2-97.9-11-136.9 8.7 2.1 19.3 4.5 28.1 6.1 13.3 2.3 26.6 4 40 5.7 4 .5 7.2-1.2 7.7-5.8 1.9-16.7 4.4-33.3 2.3-50.1-.4-1.9-.6-3.9-.6-5.9.2-1.6 1.2-3 1.9-4.5 1.1 1 2.7 2 3 3.3zm-219.8-103.7c3.4-2.5 5.8-6.3 9-9.1 15.6-13 31.3-25.9 46.7-39.1 2.4-2.1 4-5.4 5.4-8.4 1.7-3.5.1-4.2-3.5-3.7-5.2.8-10.5 1.2-15.8 1.2-2.2-.2-4.2-1.4-5.5-3.3-2.5-4.8-4.3-5.6-8.5-2.6-1.9 1.3-3.8 2.8-5.5 4.3-16.1 15.2-32.3 30.2-48.3 45.4-6.5 6.1-6.4 7-1.3 14.5 8 5.3 20.3 5.9 27.3.8zm-24.1-5.9c-.7-.9-.7-3.4 0-4.1 18-17.7 36.1-35.4 54.3-52.9.1-.1.3 0 .5 0 2.4 8.1 4.1 9.1 20.2 10.6-1.7 1.5-2.8 2.5-3.9 3.4-16.6 14.6-33.3 29.1-49.8 43.8-4.3 3.8-17.9 3.7-21.3-.8zm-3.2 5.2h-.1c0-.1 0-.1-.1-.2.1.1.1.1.2.2zm86.6 66.6c4.3 1.7 8.2.7 11.7-1.9 6-4.5 8-11.1 9.6-18.8-.5-1-.9-3.7-1.9-4-2-.6-4.8-.5-6.5.6-5.2 3.5-10.3 7.2-15.1 11.3-6.1 5-5.1 9.9 2.2 12.8zm15.7-23c.5 6.4-4.4 15.4-9 17.6-3.6 1.7-6.3.4-9.2-2.9 6-4.9 11.9-9.6 18.2-14.7z"
        fill="#00a4de" />
</svg>