<svg viewBox="0 0 590 226" xmlns="http://www.w3.org/2000/svg">
    <!-- ©COMICS/SRC by @nyuudo -->
    <path
        d="m105.9 221.3c-4 0-6-.1-7.9-.1-2 0-4-.1-8.1-.1-3.9 0-5.8-.2-7.8-.4s-4.1-.4-8.2-.4c-4 0-6-.1-7.9-.1-2 0-4-.1-8.1-.1-4.2 0-6.3.3-8.3.6-1.9.3-3.8.5-7.6.5-2.5 0-5.1-1.2-6.8-3.2-1.6-1.8-2.4-4.1-2.2-6.3v-.2-.2c-.2-4.4-.1-6.4 0-8.6.1-1.4.1-3.1.1-5.5v-2.1l-2.1-.3c-5.5-.9-12.7-5.3-17.7-8.8 5.4-.5 12.9-1.6 18.7-4.2l1.5-.7v-2.5c0-4.1 0-6.2 0-8.2s.1-4.1.1-8.2c0-4.2-.1-6.3-.2-8.4s-.1-4-.1-8c0-4.1.1-6.2.1-8.3 0-2 .1-4.1.1-8.1 0-4.2 0-6.2.1-8.3 0-2 0-4.1 0-8.1 0-4.3-.2-6.4-.5-8.5-.2-2-.4-3.9-.4-7.9 0-4.2 0-6.2.1-8.3 0-2 0-4.1 0-8.1 0-4.2 0-6.2.1-8.3 0-2 0-4.1 0-8.1 0-4.2-.1-6.3-.1-8.4-.1-2.1-.1-4-.1-8s.2-6 .4-8c.2-2.1.5-4.2.5-8.4s-.1-6.3-.2-8.4-.1-4-.1-8c0-5.1 6.1-7.3 9.8-8.2 2.8-.6 6.2-1 10.3-1 1.5 0 2.8 0 4 .1h2.4c4.2 0 6.4-.2 8.4-.4s3.9-.3 7.9-.3 5.8.1 7.7.2c2 .1 4 .3 8.2.3 4.1 0 6.1.1 8.1.1 2 .1 4.1.2 8.2.2h16.3 8.2 8.1c4.2 0 6.3-.2 8.4-.3 2-.1 4-.3 7.9-.3 4 0 5.9.2 7.9.4 2.1.2 4.2.5 8.4.5s6.3-.2 8.4-.3c2-.2 4-.3 7.9-.3h16.2c4.2 0 6.3-.1 8.3-.3 2-.1 4-.2 8-.2 4.1 0 6.1.1 8.1.1 2 .1 4.1.2 8.2.2s6.1.1 8.1.1 4.1.1 8.2.1c4.6 0 6.7-.2 8.7-.4 1.6-.2 3-.3 5.8-.4 4 0 5.9.1 8 .2 2 .1 4.1.3 8.3.3 4 0 5.9.2 7.9.3 2 .2 4.2.4 8.4.4s6.4-.2 8.5-.4c2-.2 3.9-.4 7.8-.4s5.9.2 8 .4 4.3.4 8.5.4 6.4-.2 8.4-.4 3.9-.3 7.9-.3 5.9.2 7.9.4c2.1.2 4.2.5 8.4.5s6.3-.2 8.4-.3c2-.2 4-.3 7.9-.3 4.1 0 6.2 0 8.2-.1h8.1c4.2 0 6.3-.1 8.4-.3 2-.1 4-.2 7.9-.2s5.9.3 7.9.5c2.1.3 4.2.6 8.4.6s6.4-.2 8.4-.4 3.9-.3 7.9-.3c4.1 0 6.1 0 8.2.1h8.1c4.1 0 6.2-.1 8.2-.2s4-.1 8.1-.1 6.1 0 8.2.1h8.1c4.2 0 6.3-.1 8.4-.3 2-.1 4-.2 7.9-.2h8.1 8.2c4 0 6 .1 8.1.2 2 .1 4.1.3 8.2.3 4 0 6.1.1 8.2.1s4.2.1 8.3.1h1.2c3.1 0 8.8 0 13.3 3 2.8 1.8 6.3 5.3 7.5 12 .1 4.2 0 6-.2 8.2-.2 1.9-.4 4-.4 7.9v16.6c-.1 7.9-.1 7.9-.1 16v8.2 8.1 8.2 8.1c0 4.1-.1 6.1-.1 8.1-.1 2-.2 4.1-.2 8.2 0 4.2.2 6.4.4 8.5.2 2 .4 3.9.4 7.8-.1 5.1 0 7 0 9.6v6.7c0 4-.1 5.9-.3 8-.2 2-.3 4.1-.3 8.3s.2 6.3.3 8.4c.2 2 .3 4 .3 7.9 0 2.8-.1 4.6-.1 6.1-.1 2.9-.2 4.8 0 10.2v.1.1c.7 5.4-1.4 10.8-5.6 14.9-3.4 3.5-7.3 5.9-9.6 5.9-4.1 0-6.2.2-8.2.4s-3.9.3-7.8.3c-3.8 0-5.7-.3-7.7-.5-2-.3-4.2-.6-8.3-.6s-6.2.2-8.3.5c-2 .2-3.9.4-7.7.4s-5.7-.2-7.7-.4-4.1-.5-8.3-.5-6.3.3-8.3.6-3.8.5-7.7.5-5.8-.1-7.8-.3-4.1-.3-8.2-.3c-4 0-6 0-8 .1-2 0-4 0-8 0s-6.1.1-8.1.2c-1.9.1-4 .1-7.9.1s-6-.1-7.9-.1c-2-.1-4-.2-8.1-.2h-16c-4 0-6-.1-7.9-.1-2-.1-4-.2-8.1-.2-4 0-6 0-8 0s-4 0-8 0c-4.1 0-6.2.2-8.2.4s-3.9.3-7.8.3c-3.8 0-5.7-.2-7.7-.5s-4.2-.5-8.3-.5c-4 0-6 0-8 0s-4-.1-8-.1-6 0-8 0-4 0-8 0c-4.2 0-6.3.3-8.3.6s-3.8.5-7.7.5c-4 0-6-.1-7.9-.1-2-.1-4-.2-8.1-.2-4 0-6.1.1-8.1.1s-4 .1-7.9.1-5.8-.2-7.8-.3c-2-.2-4.1-.4-8.2-.4-4 0-6.1.1-8.1.1s-4 .1-7.9.1c-4 0-6.1.1-8.1.1s-4 .1-7.9.1-5.8-.1-7.8-.2-4.1-.3-8.2-.3-6.2.2-8.3.5c-2 .2-3.9.4-7.7.4-4 0-6-.1-7.9-.1-2-.1-4-.2-8.1-.2-3.9 0-5.8-.2-7.8-.3-2-.2-4.1-.4-8.2-.4s-6.2.2-8.2.3c-2 .2-3.9.3-7.8.3-4 0-6 0-8 0s-4 0-8 0c-4.1 0-6.2.1-8.2.3-1.8.4-3.7.5-7.6.5z"
        fill="#fff" />
    <path
        d="m514 7.2h8.1c2 0 4.1.1 8.2.1 4 0 5.9.1 7.9.2 2.1.1 4.2.3 8.4.3 4 0 6 0 8.1.1 2.1 0 4.3.1 8.4.1h.6.6c2.8 0 8.1 0 11.9 2.6 2.3 1.5 5.3 4.5 6.3 10.1.1 3.9 0 5.6-.2 7.7-.2 1.9-.4 4.1-.4 8.1v16.3.3c-.1 7.9-.1 7.9-.1 16.1 0 4.1 0 6.2.1 8.2v8.1c0 4.1 0 6.2.1 8.2v8.1c0 4-.1 5.9-.1 8-.1 2-.2 4.1-.2 8.3 0 4.4.2 6.6.4 8.7.2 2 .4 3.8.4 7.6-.1 5.1 0 7 0 9.7v6.7c0 3.9-.1 5.8-.3 7.8-.2 2.1-.3 4.2-.3 8.5s.2 6.5.3 8.6c.1 2 .3 3.9.3 7.7 0 2.8-.1 4.5-.1 6.1-.1 2.9-.2 4.9 0 10.3v.2.2c.6 4.6-1.2 9.2-4.8 12.8-3.4 3.5-6.6 5.1-7.7 5.1-4.2 0-6.4.2-8.4.4-1.9.2-3.8.3-7.6.3-3.7 0-5.4-.2-7.3-.5-2-.3-4.3-.6-8.7-.6-4.3 0-6.5.2-8.6.5-1.9.2-3.7.4-7.4.4s-5.5-.2-7.4-.4c-2.1-.2-4.3-.5-8.6-.5s-6.6.3-8.7.6c-1.9.3-3.7.5-7.3.5-3.8 0-5.7-.1-7.6-.3-2.1-.2-4.2-.3-8.4-.3-4 0-6.1 0-8.1.1-2 0-4 0-7.9 0-4.1 0-6.2.1-8.2.2s-3.9.1-7.8.1-5.8-.1-7.8-.1c-2-.1-4.1-.2-8.2-.2h-16c-3.9 0-5.8-.1-7.8-.1-2-.1-4.1-.2-8.2-.2-4 0-6.1 0-8.1.1-2 0-4 0-7.9 0-4.2 0-6.4.2-8.4.4-1.9.2-3.8.3-7.6.3-3.7 0-5.5-.2-7.4-.5-2.1-.3-4.3-.5-8.6-.5-4 0-6 0-7.9 0-2 0-4-.1-8.1-.1-4 0-6 0-7.9 0-2 0-4-.1-8.1-.1-4.3 0-6.6.3-8.7.6-1.9.3-3.7.5-7.3.5-3.9 0-5.8-.1-7.8-.1-2-.1-4.1-.2-8.2-.2s-6.1.1-8.1.1c-2 .1-3.9.1-7.9.1-3.8 0-5.6-.2-7.6-.3-2.1-.2-4.2-.4-8.4-.4-4.1 0-6.1.1-8.1.1-2 .1-3.9.1-7.9.1-4.1 0-6.1.1-8.1.1-2 .1-3.9.1-7.9.1-3.8 0-5.7-.1-7.7-.2s-4.2-.3-8.3-.3c-4.3 0-6.5.2-8.6.5-1.9.2-3.7.4-7.4.4-3.9 0-5.8-.1-7.8-.1-2-.1-4.1-.2-8.2-.2-3.8 0-5.6-.2-7.6-.3-2.1-.2-4.2-.4-8.4-.4s-6.3.2-8.4.3c-2 .1-3.8.3-7.6.3-4 0-6.1 0-8.1.1-2 0-4 0-7.9 0-4.2 0-6.3.1-8.3.3-2 .1-3.8.2-7.7.2s-5.9 0-7.9-.1c-2 0-4.1-.1-8.1-.1-3.8 0-5.6-.2-7.5-.4-2.1-.2-4.2-.4-8.5-.4-3.9 0-5.9 0-7.9-.1-2 0-4.1-.1-8.1-.1-4.4 0-6.7.3-8.7.6-1.9.3-3.6.5-7.2.5-1.8 0-3.7-.9-5-2.3-1.2-1.3-1.7-2.9-1.6-4.3v-.4-.4c-.2-4.3-.1-6.1 0-8.4.1-1.5.1-3.1.1-5.6v-4.4l-4.2-.7c-3.1-.5-7.1-2.4-10.9-4.7 4.2-.7 8.7-1.8 12.6-3.5l3-1.3v-3.2-.9c0-4.1 0-6.2 0-8.1 0-2 .1-4.1.1-8.3 0-4.3-.1-6.4-.2-8.5-.1-2-.1-4-.1-7.9 0-4.1.1-6.2.1-8.2s.1-4.1.1-8.2 0-6.2.1-8.3c0-2 0-4.1 0-8.1 0-4.4-.2-6.6-.5-8.8-.2-1.9-.4-3.8-.4-7.6 0-4.1 0-6.2.1-8.3 0-2 0-4.1 0-8.1 0-4.1 0-6.2.1-8.3 0-2 0-4.1 0-8.1 0-4.2-.1-6.4-.1-8.4-.1-2.1-.1-4-.1-8 0-3.9.2-5.8.4-7.8.2-2.1.5-4.3.5-8.6s-.1-6.4-.2-8.5c-.1-2-.1-4-.1-7.9 0-3.4 4.9-5 7.8-5.7 2.7-.7 5.8-1 9.7-1 1.4 0 2.8 0 3.9.1h2.4c4.3 0 6.5-.2 8.6-.4 2-.2 3.8-.3 7.7-.3s5.7.1 7.6.2c2 .1 4.1.3 8.3.3 4 0 5.9.1 8 .1 2 .1 4.1.2 8.3.2h16.3 8.1c2 0 4.1.1 8.2.1 4.3 0 6.5-.2 8.6-.3 2-.1 3.9-.3 7.7-.3s5.7.2 7.7.4c2.1.2 4.3.5 8.6.5s6.5-.2 8.6-.3c2-.1 3.9-.3 7.7-.3h16.4c4.3 0 6.4-.1 8.5-.3 2-.1 3.9-.2 7.8-.2 4 0 6 .1 8 .1 2 .1 4.1.2 8.3.2 4.1 0 6 0 8.1.1 2 0 4.1.1 8.2.1 4.7 0 7-.2 9-.4 1.6-.2 2.9-.3 5.5-.4 3.9 0 5.8.1 7.8.2 2.1.1 4.2.3 8.5.3 3.9 0 5.7.2 7.7.3 2.1.2 4.3.4 8.6.4 4.4 0 6.6-.2 8.7-.4 2-.2 3.8-.4 7.6-.4s5.7.2 7.7.4c2.2.2 4.4.4 8.8.4 4.3 0 6.5-.2 8.6-.4 2-.2 3.8-.3 7.7-.3 3.8 0 5.7.2 7.7.4 2.1.2 4.3.5 8.6.5s6.5-.2 8.6-.3c2-.1 3.9-.3 7.7-.3 4.1 0 6.2 0 8.3-.1h8c4.3 0 6.4-.1 8.5-.3 2-.1 3.9-.2 7.8-.2 3.8 0 5.6.2 7.5.5 2.2.3 4.4.6 8.8.6 4.3 0 6.5-.2 8.6-.4 2-.2 3.8-.3 7.7-.3h8.1c2 0 4.1.1 8.2.1 4.2 0 6.3-.1 8.3-.2s4-.1 8-.1h8.1c2 0 4.1.1 8.2.1 4.3 0 6.4-.1 8.5-.3 1.9-.1 3.8-.2 7.7-.2m0-5c-8.1 0-8.1.5-16.3.5-8.1 0-8.1-.1-16.3-.1s-8.1.3-16.3.3c-8.1 0-8.1-.1-16.3-.1-8.1 0-8.1.7-16.3.7-8.1 0-8.1-1.1-16.3-1.1-8.1 0-8.1.5-16.3.5-8.1 0-8.1.1-16.3.1-8.1 0-8.1.6-16.3.6-8.1 0-8.1-.9-16.3-.9-8.1 0-8.1.7-16.3.7s-8.4-.8-16.5-.8-8.1.8-16.3.8-8.1-.7-16.3-.7-8.1-.5-16.3-.5c-6.3.1-6.3.8-14.4.8s-8.1-.2-16.3-.2c-8.1 0-8.1-.3-16.3-.3s-8.1.5-16.3.5c-8.1 0-8.1 0-16.3 0-8.1 0-8.1.6-16.3.6-8.1 0-8.1-.9-16.3-.9-8.1 0-8.1.6-16.3.6-8.1 0-8.1-.1-16.3-.1s-8.1 0-16.3 0-8.1-.3-16.3-.3-7.8-.5-15.9-.5-8.1.7-16.3.7c-1.5 0-3.7-.1-6.4-.1-3.3 0-7.1.2-10.8 1-6.4 1.5-11.7 4.8-11.7 10.6 0 8.1.3 8.1.3 16.4 0 8.1-.9 8.1-.9 16.4 0 8.1.2 8.1.2 16.4 0 8.1-.1 8.1-.1 16.4 0 8.1-.1 8.1-.1 16.4s.9 8.1.9 16.4c0 8.1-.1 8.1-.1 16.4 0 8.1-.2 8.1-.2 16.4 0 8.1.3 8.1.3 16.4s-.1 8.1-.1 16.4v.9c-9.4 4.2-23.5 4.3-24.7 4.3-.1 0-.1 0-.1 0s14.6 11.8 24.4 13.4c0 6.2-.5 6.9-.1 14.3-.7 6.3 5 12.2 11.5 12.2 7.9 0 7.9-1.1 15.9-1.1s8 .2 16 .2 8 .8 16 .8 8 .2 16 .2 8-.5 16-.5 8-.1 16-.1 8-.6 16-.6 8 .7 16 .7 8 .3 16 .3 8-.9 16-.9 8 .5 16 .5 8-.2 16-.2 8-.2 16-.2 8 .7 16 .7 8-.2 16-.2 8 .3 16 .3 8-1.1 16-1.1 8 .1 16 .1 8 .1 16 .1 8 1 16 1 8-.7 16-.7 8-.1 16-.1 8 .3 16 .3h16c8 0 8 .3 16 .3s8-.3 16-.3 8-.1 16-.1 8 .6 16 .6 8-1.1 16-1.1 8 .9 16 .9 8-.9 16-.9 8 1.1 16 1.1 8-.7 16-.7c3.3 0 7.7-2.9 11.3-6.6 4.5-4.4 7.1-10.6 6.3-17-.3-8.1 0-8.1.1-16.2 0-8.1-.6-8.1-.6-16.3s.6-8.1.6-16.3-.1-8.1 0-16.3c0-8.1-.8-8.1-.8-16.3s.3-8.1.3-16.3-.1-8.1-.1-16.3-.1-8.1-.1-16.3 0-8.1.1-16.3c0-8.1 0-8.1 0-16.3s.9-8.1.6-16.3c-1.2-7.1-4.9-11.4-8.6-13.8-4.9-3.2-10.8-3.4-14.7-3.4-.4 0-.8 0-1.2 0-8.1 0-8.4-.2-16.5-.2s-8.1-.5-16.3-.5-8.1-.1-16.3-.1z"
        fill="#003041" />
</svg>