<svg enable-background="new 0 0 230 48" viewBox="0 0 230 48" xmlns="http://www.w3.org/2000/svg">
    <!-- ©COMICS/SRC by @nyuudo -->
    <path
        d="m0 26.6.9 2.5c.2.3 3.4 8.9 13.9 8.9h.1c4.4 6 11.4 10 19.4 10h171.9c13.2 0 23.9-10.7 23.9-24s-10.7-24-23.9-24h-171.8c-13.2 0-23.9 10.8-23.9 24v.1c-3 1.2-6.1 1.9-7.7 2.1z"
        fill="#003041" />
    <path
        d="m18.8 32.4c3.3 5.3 9.1 8.9 15.8 8.9h171.9c10.1 0 18.4-8.3 18.4-18.5s-8.3-18.5-18.4-18.5h-171.9c-10.1 0-18.4 8.3-18.4 18.5 0 1.4.2 2.7.5 4-3.2 1.9-9 3-9.8 2.8 2.7 2.6 7 3.5 11.9 2.8z"
        fill="#fff" />
</svg>