<svg enable-background="new 0 0 185 32" viewBox="0 0 185 32" xmlns="http://www.w3.org/2000/svg"><g fill="#003041"><path d="m14.3 3.9c1.1 0 2.1.1 3.2.3.9.2 1.7.5 2.4 1s1.2 1.1 1.6 1.9.5 1.8.5 2.8c0 1.1-.3 2.1-.8 3.1-.6.9-1.5 1.6-2.5 2 1.3.3 2.5 1.1 3.3 2.3s1.1 2.5 1.1 3.9c0 1.1-.2 2.2-.7 3.2-.5.9-1.1 1.6-1.9 2.2s-1.8 1-2.8 1.3-2.1.4-3.2.4h-11.7v-24.4zm-.7 9.8c.8 0 1.7-.2 2.3-.7.7-.5 1-1.4.9-2.2 0-.5-.1-1-.3-1.4s-.5-.6-.8-.9c-.4-.2-.8-.4-1.2-.4s-.9-.1-1.3-.1h-5v5.7zm.3 10.3c.5 0 1 0 1.5-.2.4-.1.9-.3 1.3-.5s.7-.6.9-1c.2-.5.3-1 .3-1.6.1-1-.3-2-1.1-2.7-.8-.4-1.8-.7-2.8-.7h-5.8v6.7z"/><path d="m39.9 3.9c1 0 2 .2 2.9.5.8.3 1.6.8 2.2 1.4s1.1 1.3 1.4 2.1.5 1.7.5 2.6c0 1.3-.3 2.6-.9 3.7-.7 1.1-1.7 1.9-2.9 2.4v.1c.6.2 1.2.4 1.6.8s.8.8 1.1 1.3.5 1.1.6 1.7.2 1.2.3 1.8c0 .4 0 .8.1 1.4 0 .5.1 1.1.1 1.6.1.5.1 1 .3 1.5.1.4.3.9.6 1.2h-5.3c-.3-.9-.5-1.8-.5-2.8-.1-1.1-.2-2.1-.3-3.1s-.5-2-1.2-2.8c-.8-.7-1.8-1-2.9-.9h-5.3v9.5h-5.3v-24zm-1.9 11c1 .1 2-.2 2.8-.8.7-.7 1-1.7.9-2.7.1-.9-.2-1.9-.9-2.6-.9-.6-1.9-.8-2.8-.8h-5.8v6.8z"/><path d="m63.4 3.9 9.1 24.3h-5.5l-1.8-5.4h-9.2l-1.9 5.4h-5.4l9.3-24.3zm.3 14.9-3.1-8.9h-.1l-3.2 8.9z"/><path d="m79.9 3.9 10.1 16.3h.1v-16.3h5v24.3h-5.3l-10.1-16.3h-.1v16.3h-5v-24.3z"/><path d="m110.3 3.9c1.5 0 3 .2 4.4.7 1.3.5 2.5 1.2 3.5 2.2 1 1.1 1.8 2.3 2.3 3.7.6 1.7.9 3.5.8 5.3 0 1.7-.2 3.3-.7 4.9-.4 1.4-1.1 2.7-2.1 3.9-.9 1.1-2.1 2-3.4 2.6-1.5.7-3.2 1-4.8.9h-10.5v-24.2zm-.4 19.8c.8 0 1.5-.1 2.2-.4s1.4-.7 1.9-1.2c.6-.6 1.1-1.4 1.4-2.3.4-1.1.5-2.2.5-3.4 0-1.1-.1-2.2-.4-3.3-.2-.9-.6-1.8-1.2-2.5s-1.3-1.3-2.2-1.6c-1.1-.4-2.2-.6-3.3-.6h-3.8v15.3z"/><path d="m130.3 3.9v24.3h-5.3v-24.3z"/><path d="m140.3 3.9 10.1 16.3h.1v-16.3h5v24.3h-5.3l-10.1-16.3h-.1v16.3h-5v-24.3z"/><path d="m174.6 28c-1.1.5-2.3.7-3.5.7-1.7 0-3.4-.3-5-1-1.4-.6-2.7-1.5-3.8-2.7-1-1.2-1.8-2.5-2.3-4-.6-1.6-.8-3.3-.8-4.9 0-1.7.3-3.4.8-5 .5-1.5 1.3-2.9 2.3-4.1s2.3-2.1 3.8-2.7c1.6-.7 3.3-1 5-1 1.2 0 2.5.2 3.6.6s2.2.9 3.2 1.6c2 1.5 3.3 3.8 3.5 6.4h-5.1c-.2-1.2-.9-2.3-1.8-3.1-1-.7-2.1-1.1-3.3-1-1.2 0-2.2.2-3.2.7-.8.4-1.5 1.1-2 1.9s-.9 1.7-1.1 2.7-.4 2.1-.4 3.1.1 2 .4 3c.2.9.6 1.8 1.1 2.6s1.2 1.4 2 1.9c.9.5 2 .7 3.1.7 1.5.1 3-.4 4.1-1.3 1-1 1.6-2.4 1.7-3.9h-5.4v-4h10.2v13.1h-3.4l-.5-2.8c-.8 1-1.9 1.9-3.2 2.5z"/></g></svg>