<svg id="eghRq3sNcf71" xmlns="http://www.w3.org/2000/svg" xmlns:xlink="http://www.w3.org/1999/xlink"
    viewBox="0 0 185 32" shape-rendering="geometricPrecision" text-rendering="geometricPrecision">
    <!-- ©2023 COMICS/SRC by @nyuudo -->
    <style><![CDATA[
#eghRq3sNcf72_to {animation: eghRq3sNcf72_to__to 3000ms linear 1 normal forwards}@keyframes eghRq3sNcf72_to__to { 0% {transform: translate(18px,15.999999px);animation-timing-function: cubic-bezier(0.42,0,1,1)} 6.666667% {transform: translate(0px,16px)} 100% {transform: translate(0px,16px)}} #eghRq3sNcf72 {animation: eghRq3sNcf72_c_o 3000ms linear 1 normal forwards}@keyframes eghRq3sNcf72_c_o { 0% {opacity: 0;animation-timing-function: cubic-bezier(0.42,0,0.58,1)} 6.666667% {opacity: 1;animation-timing-function: cubic-bezier(0.42,0,0.58,1)} 50% {opacity: 1;animation-timing-function: cubic-bezier(0.42,0,0.58,1)} 56.666667% {opacity: 0} 100% {opacity: 0}} #eghRq3sNcf73_to {animation: eghRq3sNcf73_to__to 3000ms linear 1 normal forwards}@keyframes eghRq3sNcf73_to__to { 0% {transform: translate(27.1px,16px)} 50% {transform: translate(27.1px,16px);animation-timing-function: cubic-bezier(0.42,0,1,1)} 66.666667% {transform: translate(130px,16px)} 100% {transform: translate(130px,16px)}} #eghRq3sNcf73 {animation: eghRq3sNcf73_c_o 3000ms linear 1 normal forwards}@keyframes eghRq3sNcf73_c_o { 0% {opacity: 0} 6.666667% {opacity: 0;animation-timing-function: cubic-bezier(0.42,0,0.58,1)} 10% {opacity: 1;animation-timing-function: cubic-bezier(0.42,0,0.58,1)} 13.333333% {opacity: 0;animation-timing-function: cubic-bezier(0.42,0,0.58,1)} 16.666667% {opacity: 1;animation-timing-function: cubic-bezier(0.42,0,0.58,1)} 20% {opacity: 0;animation-timing-function: cubic-bezier(0.42,0,0.58,1)} 23.333333% {opacity: 1;animation-timing-function: cubic-bezier(0.42,0,0.58,1)} 66.666667% {opacity: 1;animation-timing-function: cubic-bezier(0.42,0,0.58,1)} 83.333333% {opacity: 0} 100% {opacity: 0}} #eghRq3sNcf74_to {animation: eghRq3sNcf74_to__to 3000ms linear 1 normal forwards}@keyframes eghRq3sNcf74_to__to { 0% {transform: translate(44.2px,16px)} 23.333333% {transform: translate(44.2px,16px)} 30% {transform: translate(54px,16px)} 50% {transform: translate(54px,16px)} 66.666667% {transform: translate(185px,16px)} 100% {transform: translate(185px,16px)}} #eghRq3sNcf74 {animation: eghRq3sNcf74_c_o 3000ms linear 1 normal forwards}@keyframes eghRq3sNcf74_c_o { 0% {opacity: 0} 23.333333% {opacity: 0;animation-timing-function: cubic-bezier(0.445,0.05,0.55,0.95)} 30% {opacity: 1} 100% {opacity: 1}} #eghRq3sNcf75 {animation: eghRq3sNcf75_c_o 3000ms linear 1 normal forwards}@keyframes eghRq3sNcf75_c_o { 0% {opacity: 0} 50% {opacity: 0;animation-timing-function: cubic-bezier(0.47,0,0.745,0.715)} 66.666667% {opacity: 1} 100% {opacity: 1}} #eghRq3sNcf712 {animation: eghRq3sNcf712_c_o 3000ms linear 1 normal forwards}@keyframes eghRq3sNcf712_c_o { 0% {opacity: 0} 83.333333% {opacity: 0;animation-timing-function: cubic-bezier(0.42,0,1,1)} 100% {opacity: 1}}
]]></style>
    <g id="eghRq3sNcf72_to" transform="translate(18,15.999999)">
        <path id="eghRq3sNcf72" d="M168.8,29.3L179.5,16L168.8,2.7L172.2,0L185,16L172.1,32Z"
            transform="scale(-1,1) translate(-185,-16)" opacity="0" fill="#fff998" />
    </g>
    <g id="eghRq3sNcf73_to" transform="translate(27.1,16)">
        <rect id="eghRq3sNcf73" width="4" height="24" rx="0" ry="0"
            transform="rotate(23) translate(-2,-12)" opacity="0" fill="#fff998" />
    </g>
    <g id="eghRq3sNcf74_to" transform="translate(44.2,16)">
        <path id="eghRq3sNcf74" d="M168.8,29.3L179.5,16L168.8,2.7L172.2,0L185,16L172.1,32Z"
            transform="translate(-185,-16)" opacity="0" fill="#fff998" />
    </g>
    <g id="eghRq3sNcf75" opacity="0">
        <path
            d="M12.6,28.7c-2.3.1-4.6-.5-6.6-1.6-1.9-1-3.4-2.5-4.4-4.4-1.1-2-1.6-4.3-1.6-6.6c0-1.7.3-3.5.9-5.1C2.1,8,4.5,5.6,7.5,4.4c1.6-.6,3.3-1,5-.9c1.6,0,3.2.2,4.8.7c1.3.4,2.5,1.1,3.5,2l-2,3.2c-.8-.7-1.7-1.2-2.7-1.6-1.1-.4-2.2-.5-3.3-.5-1.2,0-2.5.2-3.6.6-1,.4-2,1-2.8,1.8s-1.4,1.7-1.8,2.8c-.3,1.1-.5,2.4-.5,3.6c0,1.7.3,3.3,1.1,4.8.7,1.3,1.8,2.4,3.1,3c1.5.7,3.1,1.1,4.8,1c1.2,0,2.4-.2,3.5-.5c1.2-.4,2.3-1,3.2-1.8l1.8,3.3c-1.2.9-2.5,1.6-4,2.1-1.6.5-3.3.8-5,.7Z"
            fill="#fff998" />
        <path
            d="M46,22.7c.3-.5.6-1.1.8-1.6.6-1.6,1-3.3,1-5s-.3-3.4-1-4.9c-1.3-3-3.7-5.5-6.7-6.7-1.6-.7-3.3-1-5-1s-3.4.3-5,.9c-1.5.6-2.9,1.5-4,2.7-1.2,1.1-2.1,2.5-2.7,4-.6,1.6-1,3.3-.9,5c0,1.7.3,3.4.9,5c.6,1.5,1.5,2.9,2.7,4s2.5,2.1,4,2.7c3.2,1.3,6.8,1.3,10.1,0c.8-.3,1.5-.7,2.2-1.1l7.5,1.6Zm-6,.9c-.5.3-1,.6-1.5.8-1.1.4-2.2.6-3.4.6-1.5,0-3.1-.4-4.4-1.1s-2.4-1.8-3.1-3.1c-.8-1.4-1.2-3.1-1.2-4.7c0-1.3.2-2.5.7-3.7.4-1.1,1-2,1.8-2.8s1.7-1.4,2.8-1.8s2.2-.6,3.4-.6c1.5,0,3.1.4,4.4,1.1s2.4,1.8,3.1,3.1c.8,1.4,1.2,3.1,1.1,4.7c0,1.3-.2,2.5-.7,3.7-.2.5-.4,1-.7,1.4l2.4,3.4Z"
            fill="#fff998" />
        <path
            d="M77.3,4.1v24.2h-3.8v-17.5L67.9,20l-3.3,5.8L61.3,20l-5.8-9.4v17.8h-3.4v-24.3h3.7l9.1,14.8L73.7,4.1Z"
            fill="#fff998" />
        <path d="M83.1,4.1h3.9v24.2h-3.9Z" fill="#fff998" />
        <path
            d="M103.9,28.7c-2.3.1-4.6-.5-6.6-1.6-1.9-1-3.4-2.5-4.4-4.4-1.1-2-1.6-4.3-1.6-6.6c0-1.7.3-3.5.9-5.1c1.2-3,3.6-5.4,6.6-6.6c1.6-.6,3.3-1,5-.9c1.6,0,3.2.2,4.8.7c1.3.4,2.5,1.1,3.5,2l-2,3.2c-.8-.7-1.7-1.2-2.7-1.6-1.1-.4-2.2-.5-3.3-.5-1.2,0-2.5.2-3.6.6-1,.4-2,1-2.8,1.8s-1.4,1.7-1.8,2.8c-.4,1.2-.6,2.4-.6,3.7c0,1.7.3,3.3,1.1,4.8.7,1.3,1.8,2.4,3.1,3c1.5.7,3.1,1.1,4.8,1c1.2,0,2.4-.2,3.5-.5c1.2-.4,2.3-1,3.2-1.8l1.8,3.3c-1.2.9-2.5,1.6-4,2.1-1.5.4-3.2.7-4.9.6Z"
            fill="#fff998" />
        <path
            d="M123.3,28.7c-1.3-.1-2.5-.3-3.7-.7-1.5-.4-2.8-1.1-4-2.1l1.9-3c.6.5,1.3.9,2,1.3.8.4,1.6.6,2.4.8.9.2,1.7.3,2.6.3h.2Zm8.6-11.3c-1.4-1.2-3.1-2.1-4.9-2.6l-2.6-.8c-1-.3-1.9-.6-2.8-1-.6-.2-1.1-.6-1.4-1.1-.3-.4-.4-.9-.4-1.5c0-.7.2-1.4.6-1.9.5-.6,1.1-1,1.7-1.2.8-.3,1.7-.4,2.6-.4.8,0,1.6.1,2.3.3s1.5.4,2.1.8c.6.3,1.2.7,1.7,1.1l1.4-3.3c-.9-.6-1.8-1.1-2.8-1.4-1.5-.5-3-.7-4.5-.7-1.2,0-2.4.2-3.5.5-1,.3-2,.8-2.8,1.5-.8.6-1.4,1.4-1.8,2.3s-.7,1.9-.6,2.9c0,1.5.5,3,1.6,4c1.4,1.3,3.1,2.2,5,2.6l2.3.5c1.3.3,2.6.9,3.7,1.7.6.5,1,1.4,1,2.2c0,.5-.1,1.1-.4,1.5l-.4,1.1-1.6,4c.7-.1,1.4-.3,2-.6c1.3-.5,2.3-1.4,3.1-2.5.7-1.1,1.1-2.4,1.1-3.8-.1-1.6-.7-3.1-1.7-4.2Z"
            fill="#fff998" />
    </g>
    <g id="eghRq3sNcf712" opacity="0">
        <path
            d="M161.8,16.8c-1.2,0-2.3-.2-3.3-.8-.9-.5-1.7-1.2-2.3-2.2s-.8-2.2-.8-3.3c0-.9.2-1.8.5-2.6s.8-1.4,1.3-2c.6-.6,1.3-1,2.1-1.3s1.7-.5,2.6-.5s1.8.1,2.6.4c.7.3,1.3.7,1.9,1.1l-1.7,2.9c-.3-.3-.7-.6-1.1-.8-.5-.2-1-.3-1.5-.3-.4,0-.9.1-1.3.2s-.7.3-.9.6c-.3.3-.5.6-.6.9-.1.4-.2.8-.2,1.2c0,.5.1,1.1.4,1.6.2.4.6.8,1,1c.5.2,1.1.4,1.6.3.5,0,1-.1,1.5-.2.5-.2,1-.4,1.5-.7l1.6,2.9c-.6.5-1.3.8-2,1-.9.5-1.9.6-2.9.6Z"
            fill="#fff998" />
        <path
            d="M152,11.6c.4-.2.8-.4,1.1-.7.4-.3.6-.7.8-1.1.2-.5.3-1,.3-1.5c0-.7-.2-1.4-.6-2s-1-1-1.6-1.3c-.8-.3-1.6-.5-2.5-.4h-5.1v12.1h3.5v-4.2h.7l2.3,4.2h4.1Zm-1.7-2.3c-.3.2-.7.3-1.1.3h-1.3v-2.3h1.3c.4,0,.8.1,1.1.3s.5.6.4.9c.1.3-.1.6-.4.8Z"
            fill="#fff998" />
        <path
            d="M143,12.7c0,.8-.2,1.5-.6,2.1s-1,1.1-1.7,1.4c-.8.4-1.7.5-2.6.5-1,0-1.9-.1-2.8-.4-.7-.2-1.3-.5-1.9-.9l1.2-2.9c.3.3.6.5.9.7.4.2.8.4,1.3.5.4.1.9.2,1.3.2s.8-.1,1.1-.2.4-.3.4-.6c0-.2-.1-.5-.3-.6-.4-.2-.8-.4-1.3-.5l-.9-.2c-.7-.2-1.4-.5-2-.8l2.8-6.8h.3c.9,0,1.9.1,2.7.4.8.2,1.4.6,2,1.2l-1.7,2.5c-.2-.3-.5-.5-.8-.6-.3-.2-.7-.3-1-.4-.4-.1-.8-.2-1.1-.2s-.5,0-.8.1c-.2.1-.4.2-.5.3s-.2.3-.2.4.1.3.2.4c.2.1.3.2.5.3s.6.2,1,.3l.9.3c1,.2,2,.7,2.8,1.4.5.5.8,1.3.8,2.1Z"
            fill="#fff998" />
    </g>
</svg>