<svg viewBox="0 0 24 24" width="24" height="24" xmlns="http://www.w3.org/2000/svg">
<!-- ©COMICS/SRC by @nyuudo -->
<path d="m19.42867 16.97067a9.043 9.043 0 0 0 .606-1.2119 10.88371 10.88371 0 0 0 .75744-3.78717 8.80178 8.80178 0 0 0 -.75744-3.71144 9.51023 9.51023 0 0 0 -5.07487-5.07482 9.39774 9.39774 0 0 0 -3.78718-.75744 10.80011 10.80011 0 0 0 -3.78718.6817 8.257 8.257 0 0 0 -3.02974 2.04507 8.25683 8.25683 0 0 0 -2.04508 3.02975 9.32182 9.32182 0 0 0 -.68169 3.78718 10.80033 10.80033 0 0 0 .68169 3.78718 8.25688 8.25688 0 0 0 2.04508 3.02974 10.18129 10.18129 0 0 0 3.02974 2.04508 10.2747 10.2747 0 0 0 7.6501 0 11.40228 11.40228 0 0 0 1.66636-.83318l5.68077 1.2119zm-4.54461.68169a8.27787 8.27787 0 0 1 -1.13616.606 7.37525 7.37525 0 0 1 -2.57528.45446 7.241 7.241 0 0 1 -3.33272-.83318 5.83941 5.83941 0 0 1 -2.348-2.34805 7.32148 7.32148 0 0 1 -.90892-3.55995 7.09417 7.09417 0 0 1 .5302-2.80251 5.93432 5.93432 0 0 1 3.48421-3.4842 7.3753 7.3753 0 0 1 2.57528-.45447 7.24108 7.24108 0 0 1 3.33272.83318 5.83941 5.83941 0 0 1 2.34805 2.34805 6.51209 6.51209 0 0 1 .83318 3.56 7.094 7.094 0 0 1 -.53021 2.80252 4.62773 4.62773 0 0 1 -.5302 1.06041l1.81779 2.57518zm-4.78914-1.57244a1.18873 1.18873 0 0 1 -.38378-.89454 1.14353 1.14353 0 0 1 .38378-.88769 1.40684 1.40684 0 0 1 .9834-.34863 1.38623 1.38623 0 0 1 .97852.34863 1.15174 1.15174 0 0 1 .37793.88769 1.18871 1.18871 0 0 1 -.38379.89454 1.35153 1.35153 0 0 1 -.97266.36523 1.36627 1.36627 0 0 1 -.9834-.36523zm-.37207-8.14258h2.71192l-.45606 5.33984h-1.81152z" fill="#def6ff"/></svg>