<svg viewBox="0 0 24 24" width="24" height="24" xmlns="http://www.w3.org/2000/svg" fill="#def6ff">
<!-- ©COMICS/SRC by @nyuudo -->
<path d="m7.02582 2.3949a6.75653 6.75653 0 0 1 4.97418-2.3949 6.75653 6.75653 0 0 1 4.97418 2.3949l-4.97418 2.4871zm14.97418-1.3949-1 17.27338-8.75 5.56756v-5.56317c1.5379-.086 2.75-.93573 2.75-1.98321h-2.75v-10.41956zm-5.2395 8.42407c-.54389-.09588-1.10144.48773-1.2453 1.30359s.18048 1.55493.72436 1.65082 1.10144-.48773 1.2453-1.30353-.18048-1.55495-.72436-1.65088zm-5.0105 14.44177-8.75-4.69628-1-18.16956 9.75 4.875v10.41956h-2.75c0 1.04748 1.2121 1.89721 2.75 1.98321zm-3.2652-13.13818c-.14386-.81586-.70141-1.39947-1.2453-1.30359s-.86816.835-.72436 1.65088.70141 1.39948 1.2453 1.30353.86822-.83502.72436-1.65082z" /></svg>