<svg viewBox="0 0 185 32" xmlns="http://www.w3.org/2000/svg">
    <!-- ©COMICS/SRC by @nyuudo -->
    <g fill="#def6ff">
        <path
            d="m161.8 16.8c-1.2 0-2.3-.2-3.3-.8-.9-.5-1.7-1.2-2.3-2.2s-.8-2.2-.8-3.3c0-.9.2-1.8.5-2.6s.8-1.4 1.3-2c.6-.6 1.3-1 2.1-1.3s1.7-.5 2.6-.5 1.8.1 2.6.4c.7.3 1.3.7 1.9 1.1l-1.7 2.9c-.3-.3-.7-.6-1.1-.8-.5-.2-1-.3-1.5-.3-.4 0-.9.1-1.3.2s-.7.3-.9.6c-.3.3-.5.6-.6.9-.1.4-.2.8-.2 1.2 0 .5.1 1.1.4 1.6.2.4.6.8 1 1 .5.2 1.1.4 1.6.3.5 0 1-.1 1.5-.2.5-.2 1-.4 1.5-.7l1.6 2.9c-.6.5-1.3.8-2 1-.9.5-1.9.6-2.9.6z" />
        <path
            d="m152 11.6c.4-.2.8-.4 1.1-.7.4-.3.6-.7.8-1.1.2-.5.3-1 .3-1.5 0-.7-.2-1.4-.6-2s-1-1-1.6-1.3c-.8-.3-1.6-.5-2.5-.4h-5.1v12.1h3.5v-4.2h.7l2.3 4.2h4.1zm-1.7-2.3c-.3.2-.7.3-1.1.3h-1.3v-2.3h1.3c.4 0 .8.1 1.1.3s.5.6.4.9c.1.3-.1.6-.4.8z" />
        <path
            d="m143 12.7c0 .8-.2 1.5-.6 2.1s-1 1.1-1.7 1.4c-.8.4-1.7.5-2.6.5-1 0-1.9-.1-2.8-.4-.7-.2-1.3-.5-1.9-.9l1.2-2.9c.3.3.6.5.9.7.4.2.8.4 1.3.5.4.1.9.2 1.3.2s.8-.1 1.1-.2.4-.3.4-.6c0-.2-.1-.5-.3-.6-.4-.2-.8-.4-1.3-.5l-.9-.2c-.7-.2-1.4-.5-2-.8l2.8-6.8h.3c.9 0 1.9.1 2.7.4.8.2 1.4.6 2 1.2l-1.7 2.5c-.2-.3-.5-.5-.8-.6-.3-.2-.7-.3-1-.4-.4-.1-.8-.2-1.1-.2s-.5 0-.8.1c-.2.1-.4.2-.5.3s-.2.3-.2.4.1.3.2.4c.2.1.3.2.5.3s.6.2 1 .3l.9.3c1 .2 2 .7 2.8 1.4.5.5.8 1.3.8 2.1z" />
        <path
            d="m123.3 28.7c-1.3-.1-2.5-.3-3.7-.7-1.5-.4-2.8-1.1-4-2.1l1.9-3c.6.5 1.3.9 2 1.3.8.4 1.6.6 2.4.8.9.2 1.7.3 2.6.3h.2zm8.6-11.3c-1.4-1.2-3.1-2.1-4.9-2.6l-2.6-.8c-1-.3-1.9-.6-2.8-1-.6-.2-1.1-.6-1.4-1.1-.3-.4-.4-.9-.4-1.5 0-.7.2-1.4.6-1.9.5-.6 1.1-1 1.7-1.2.8-.3 1.7-.4 2.6-.4.8 0 1.6.1 2.3.3s1.5.4 2.1.8c.6.3 1.2.7 1.7 1.1l1.4-3.3c-.9-.6-1.8-1.1-2.8-1.4-1.5-.5-3-.7-4.5-.7-1.2 0-2.4.2-3.5.5-1 .3-2 .8-2.8 1.5-.8.6-1.4 1.4-1.8 2.3s-.7 1.9-.6 2.9c0 1.5.5 3 1.6 4 1.4 1.3 3.1 2.2 5 2.6l2.3.5c1.3.3 2.6.9 3.7 1.7.6.5 1 1.4 1 2.2 0 .5-.1 1.1-.4 1.5l-.4 1.1-1.6 4c.7-.1 1.4-.3 2-.6 1.3-.5 2.3-1.4 3.1-2.5.7-1.1 1.1-2.4 1.1-3.8-.1-1.6-.7-3.1-1.7-4.2z" />
        <path
            d="m103.9 28.7c-2.3.1-4.6-.5-6.6-1.6-1.9-1-3.4-2.5-4.4-4.4-1.1-2-1.6-4.3-1.6-6.6 0-1.7.3-3.5.9-5.1 1.2-3 3.6-5.4 6.6-6.6 1.6-.6 3.3-1 5-.9 1.6 0 3.2.2 4.8.7 1.3.4 2.5 1.1 3.5 2l-2 3.2c-.8-.7-1.7-1.2-2.7-1.6-1.1-.4-2.2-.5-3.3-.5-1.2 0-2.5.2-3.6.6-1 .4-2 1-2.8 1.8s-1.4 1.7-1.8 2.8c-.4 1.2-.6 2.4-.6 3.7 0 1.7.3 3.3 1.1 4.8.7 1.3 1.8 2.4 3.1 3 1.5.7 3.1 1.1 4.8 1 1.2 0 2.4-.2 3.5-.5 1.2-.4 2.3-1 3.2-1.8l1.8 3.3c-1.2.9-2.5 1.6-4 2.1-1.5.4-3.2.7-4.9.6z" />
        <path d="m83.1 4.1h3.9v24.2h-3.9z" />
        <path
            d="m77.3 4.1v24.2h-3.8v-17.5l-5.6 9.2-3.3 5.8-3.3-5.8-5.8-9.4v17.8h-3.4v-24.3h3.7l9.1 14.8 8.8-14.8z" />
        <path
            d="m46 22.7c.3-.5.6-1.1.8-1.6.6-1.6 1-3.3 1-5s-.3-3.4-1-4.9c-1.3-3-3.7-5.5-6.7-6.7-1.6-.7-3.3-1-5-1s-3.4.3-5 .9c-1.5.6-2.9 1.5-4 2.7-1.2 1.1-2.1 2.5-2.7 4-.6 1.6-1 3.3-.9 5 0 1.7.3 3.4.9 5 .6 1.5 1.5 2.9 2.7 4s2.5 2.1 4 2.7c3.2 1.3 6.8 1.3 10.1 0 .8-.3 1.5-.7 2.2-1.1l7.5 1.6zm-6 .9c-.5.3-1 .6-1.5.8-1.1.4-2.2.6-3.4.6-1.5 0-3.1-.4-4.4-1.1s-2.4-1.8-3.1-3.1c-.8-1.4-1.2-3.1-1.2-4.7 0-1.3.2-2.5.7-3.7.4-1.1 1-2 1.8-2.8s1.7-1.4 2.8-1.8 2.2-.6 3.4-.6c1.5 0 3.1.4 4.4 1.1s2.4 1.8 3.1 3.1c.8 1.4 1.2 3.1 1.1 4.7 0 1.3-.2 2.5-.7 3.7-.2.5-.4 1-.7 1.4l2.4 3.4z" />
        <path
            d="m12.6 28.7c-2.3.1-4.6-.5-6.6-1.6-1.9-1-3.4-2.5-4.4-4.4-1.1-2-1.6-4.3-1.6-6.6 0-1.7.3-3.5.9-5.1 1.2-3 3.6-5.4 6.6-6.6 1.6-.6 3.3-1 5-.9 1.6 0 3.2.2 4.8.7 1.3.4 2.5 1.1 3.5 2l-2 3.2c-.8-.7-1.7-1.2-2.7-1.6-1.1-.4-2.2-.5-3.3-.5-1.2 0-2.5.2-3.6.6-1 .4-2 1-2.8 1.8s-1.4 1.7-1.8 2.8c-.3 1.1-.5 2.4-.5 3.6 0 1.7.3 3.3 1.1 4.8.7 1.3 1.8 2.4 3.1 3 1.5.7 3.1 1.1 4.8 1 1.2 0 2.4-.2 3.5-.5 1.2-.4 2.3-1 3.2-1.8l1.8 3.3c-1.2.9-2.5 1.6-4 2.1-1.6.5-3.3.8-5 .7z" />
        <path d="m168.8 29.3 10.7-13.3-10.7-13.3 3.4-2.7 12.8 16-12.9 16z" />
    </g>
</svg>