<svg viewBox="0 0 24 24" width="24" height="24" xmlns="http://www.w3.org/2000/svg">
<!-- ©COMICS/SRC by @nyuudo -->
<path d="m15.18708 12a3.3173 3.3173 0 0 1 -2.4192-1.11629 4.31572 4.31572 0 0 1 -1.1232-2.6352 3.607 3.607 0 0 1 .91325-2.75443 3.684 3.684 0 0 1 5.25139.00519 3.59966 3.59966 0 0 1 .91843 2.74881 4.32785 4.32785 0 0 1 -1.1232 2.6352 3.309 3.309 0 0 1 -2.41747 1.11672zm5.69505 7.6032h-11.38968a1.19709 1.19709 0 0 1 -.9504-.46094 1.30551 1.30551 0 0 1 -.22723-1.11413 5.69345 5.69345 0 0 1 2.60582-3.50266 8.19433 8.19433 0 0 1 4.26644-1.14307 8.11952 8.11952 0 0 1 4.26427 1.12536 5.66163 5.66163 0 0 1 2.60841 3.523 1.30766 1.30766 0 0 1 -.22982 1.1137 1.19577 1.19577 0 0 1 -.94781.45873zm-10.52444-5.903c-.02649-.017-.04724-.03894-.07422-.05554a6.0897 6.0897 0 0 0 -3.19824-.84406 6.14564 6.14564 0 0 0 -3.19977.8573 4.27006 4.27006 0 0 0 -1.95441 2.627.97921.97921 0 0 0 .17041.83557.89772.89772 0 0 0 .71283.3457h4.62659a6.67681 6.67681 0 0 1 2.91681-3.76594zm-.53874-3.1072a3.01382 3.01382 0 0 0 .202-.404 3.62788 3.62788 0 0 0 .25248-1.2624 2.93388 2.93388 0 0 0 -.25248-1.23714 3.17009 3.17009 0 0 0 -1.69163-1.69153 3.13263 3.13263 0 0 0 -1.26239-.25248 3.60023 3.60023 0 0 0 -1.26239.22723 2.75233 2.75233 0 0 0 -1.00992.6817 2.75231 2.75231 0 0 0 -.68169 1.00991 3.10724 3.10724 0 0 0 -.22723 1.26239 3.60006 3.60006 0 0 0 .22723 1.2624 2.75248 2.75248 0 0 0 .68169 1.00992 3.39364 3.39364 0 0 0 1.00992.68169 3.4248 3.4248 0 0 0 2.55 0 3.80048 3.80048 0 0 0 .55546-.27769l1.89359.404zm-1.51487.22723a2.75935 2.75935 0 0 1 -.37872.202 2.45851 2.45851 0 0 1 -.85843.15148 2.41368 2.41368 0 0 1 -1.11093-.27771 1.94652 1.94652 0 0 1 -.78269-.78269 2.44052 2.44052 0 0 1 -.303-1.18665 2.36468 2.36468 0 0 1 .17673-.93417 1.97809 1.97809 0 0 1 1.1614-1.1614 2.45856 2.45856 0 0 1 .85843-.15149 2.41361 2.41361 0 0 1 1.11091.27773 1.94641 1.94641 0 0 1 .78274.78267 2.17071 2.17071 0 0 1 .27773 1.18665 2.36466 2.36466 0 0 1 -.17674.93417 1.54237 1.54237 0 0 1 -.17673.35347l.606.85843z" fill="#def6ff"/></svg>