<svg viewBox="0 0 24 24" xmlns="http://www.w3.org/2000/svg">
<!-- ©COMICS/SRC by @nyuudo -->
<g fill="#fff998"><path d="m7.828 20.154-4.227-13.303-1.146.307 5.459 14.713 5.491-.523-5.162.114-.028-.09-.079.007z"/><path d="m4.08 5.238.349 1.391 3.399 13.525.387 1.218 6.863-.63-6.683.071-2.341-15.923z"/><path d="m16.195 9.16406a3.0058 3.0058 0 0 0 .12035-1.20275 2.75951 2.75951 0 0 0 -.48322-1.47209 2.4743 2.4743 0 0 0 -1.078-.90455 3.06843 3.06843 0 0 0 -1.43777-.22867 3.12639 3.12639 0 0 0 -1.07046.287 2.51462 2.51462 0 0 0 -1.34221 1.59965 3.00582 3.00582 0 0 0 -.12035 1.20268 3.10278 3.10278 0 0 0 .5152 1.46937 2.47525 2.47525 0 0 0 1.078.90455 3.06962 3.06962 0 0 0 1.4378.22864 3.12462 3.12462 0 0 0 1.0704-.287 3.50135 3.50135 0 0 0 .45723-.29779l1.53091.18828-.86253-1.02a1.96127 1.96127 0 0 0 .18465-.46732z"/><path d="m20.0112 2.12908-13.14977 1.15046 1.53394 17.533 13.14977-1.15046zm-3.815 9.25817a4.84341 4.84341 0 0 1 -.6727.41328 4.35439 4.35439 0 0 1 -3.22966.28256 4.31477 4.31477 0 0 1 -1.35461-.75149 3.49936 3.49936 0 0 1 -.9753-1.20354 4.57775 4.57775 0 0 1 -.42769-1.57366 3.95128 3.95128 0 0 1 .14792-1.624 3.49978 3.49978 0 0 1 .75149-1.35461 3.49836 3.49836 0 0 1 1.20354-.97523 4.576 4.576 0 0 1 1.57366-.42768 3.982 3.982 0 0 1 1.62676.17989 4.03016 4.03016 0 0 1 2.3299 1.955 3.72977 3.72977 0 0 1 .45685 1.5389 4.61193 4.61193 0 0 1 -.17988 1.62682 3.8329 3.8329 0 0 1 -.21107.534l1.40377 1.68151z"/></g></svg>